  0
SECTION
  2
HEADER
  9
$ACADVER
  1
AC1018
  9
$HANDSEED
  5
FFFFFFFF
  9
$ANGBASE
  50
0.0
  9
$ANGDIR
  70
1
  9
$MEASUREMENT
  70
0
  9
$INSUNITS
  70
1
  0
ENDSEC
  0
SECTION
  2
TABLES
  0
TABLE
  2
APPID
  5
1
330
0
100
AcDbSymbolTable
 70
1
  0
APPID
  5
2
330
1
100
AcDbSymbolTableRecord
100
AcDbRegAppTableRecord
  2
ACAD
 70
0
  0
ENDTAB
  0
TABLE
  2
LTYPE
  5
3
330
0
100
AcDbSymbolTable
 70
6
  0
LTYPE
  5
4
330
3
100
AcDbSymbolTableRecord
100
AcDbLinetypeTableRecord
  2
ByBlock
 70
0
  3

 72
65
 73
0
 40
0
  0
LTYPE
  5
5
330
3
100
AcDbSymbolTableRecord
100
AcDbLinetypeTableRecord
  2
ByLayer
 70
0
  3

 72
65
 73
0
 40
0
  0
LTYPE
  5
6
330
3
100
AcDbSymbolTableRecord
100
AcDbLinetypeTableRecord
  2
CONTINUOUS
 70
0
  3
Solid line
 72
65
 73
0
 40
0
  0
LTYPE
  5
7
330
3
100
AcDbSymbolTableRecord
100
AcDbLinetypeTableRecord
  2
DASHDOT
 70
0
  3
Dash Dot ____ _ ____ _
 72
65
 73
4
 40
2
 49
1.25
 74
0
 49
-0.25
 74
0
 49
0.25
 74
0
 49
-0.25
 74
0
  0
LTYPE
  5
8
330
3
100
AcDbSymbolTableRecord
100
AcDbLinetypeTableRecord
  2
DASHED
 70
0
  3
Dashed __ __ __ __ __
 72
65
 73
2
 40
0.75
 49
0.5
 74
0
 49
-0.25
 74
0
  0
LTYPE
  5
9
330
3
100
AcDbSymbolTableRecord
100
AcDbLinetypeTableRecord
  2
DOTTED
 70
0
  3
Dotted .  .  .  .
 72
65
 73
2
 40
0.2
 49
0.0
 74
0
 49
-0.2
 74
0
  0
ENDTAB
  0
TABLE
  2
STYLE
  5
A
330
0
100
AcDbSymbolTable
 70
4
  0
STYLE
  5
B
330
A
100
AcDbSymbolTableRecord
100
AcDbTextStyleTableRecord
  2
KICAD
 70
0
 40
0
 41
1
 42
1
 50
0
 71
0
  3
isocp.shx
  0
STYLE
  5
C
330
A
100
AcDbSymbolTableRecord
100
AcDbTextStyleTableRecord
  2
KICADB
 70
0
 40
0
 41
1
 42
1
 50
0
 71
0
  3
isocp.shx
  0
STYLE
  5
D
330
A
100
AcDbSymbolTableRecord
100
AcDbTextStyleTableRecord
  2
KICADI
 70
0
 40
0
 41
1
 42
1
 50
15
 71
0
  3
isocp.shx
  0
STYLE
  5
E
330
A
100
AcDbSymbolTableRecord
100
AcDbTextStyleTableRecord
  2
KICADBI
 70
0
 40
0
 41
1
 42
1
 50
15
 71
0
  3
isocp.shx
  0
ENDTAB
  0
TABLE
  2
LAYER
  5
F
330
0
100
AcDbSymbolTable
 70
2
  0
LAYER
  5
12
330
F
100
AcDbSymbolTableRecord
100
AcDbLayerTableRecord
  2
0
 70
0
 62
7
  6
CONTINUOUS
390
10
  0
LAYER
  5
13
330
F
100
AcDbSymbolTableRecord
100
AcDbLayerTableRecord
  2
Edge.Cuts
 70
0
 62
254
420
13685453
  6
CONTINUOUS
390
10
  0
ENDTAB
  0
TABLE
  2
VPORT
  5
14
330
0
100
AcDbSymbolTable
 70
0
  0
ENDTAB
  0
TABLE
  2
VIEW
  5
15
330
0
100
AcDbSymbolTable
 70
0
  0
ENDTAB
  0
TABLE
  2
UCS
  5
16
330
0
100
AcDbSymbolTable
 70
0
  0
ENDTAB
  0
TABLE
  2
DIMSTYLE
  5
17
330
0
100
AcDbSymbolTable
 70
1
100
AcDbDimStyleTable
 71
0
  0
DIMSTYLE
105
18
330
17
100
AcDbSymbolTableRecord
100
AcDbDimStyleTableRecord
  2
Standard
 70
0
  0
ENDTAB
  0
TABLE
  2
BLOCK_RECORD
  5
19
330
0
100
AcDbSymbolTable
 70
3
  0
BLOCK_RECORD
  5
1A
330
19
100
AcDbSymbolTableRecord
100
AcDbBlockTableRecord
  2
*Model_Space
340
1D
 70
0
280
1
281
0
  0
BLOCK_RECORD
  5
1B
330
19
100
AcDbSymbolTableRecord
100
AcDbBlockTableRecord
  2
*Paper_Space
340
1E
 70
0
280
1
281
0
  0
BLOCK_RECORD
  5
1C
330
19
100
AcDbSymbolTableRecord
100
AcDbBlockTableRecord
  2
*Paper_Space0
340
1F
 70
0
280
1
281
0
  0
ENDTAB
  0
ENDSEC
  0
SECTION
  2
BLOCKS
  0
BLOCK
  5
23
330
1A
100
AcDbEntity
  8
0
100
AcDbBlockBegin
  2
*Model_Space
 70
0
 10
0.0
 20
0.0
 30
0.0
  3
*Model_Space
  1

  0
ENDBLK
  5
22
330
1A
100
AcDbEntity
  8
0
100
AcDbBlockEnd
  0
BLOCK
  5
25
330
1B
100
AcDbEntity
 67
1
  8
0
100
AcDbBlockBegin
  2
*Paper_Space
 70
0
 10
0.0
 20
0.0
 30
0.0
  3
*Paper_Space
  1

  0
ENDBLK
  5
24
330
1B
100
AcDbEntity
 67
1
  8
0
100
AcDbBlockEnd
  0
BLOCK
  5
27
330
1C
100
AcDbEntity
 67
1
  8
0
100
AcDbBlockBegin
  2
*Paper_Space0
 70
0
 10
0.0
 20
0.0
 30
0.0
  3
*Paper_Space0
  1

  0
ENDBLK
  5
26
330
1C
100
AcDbEntity
 67
1
  8
0
100
AcDbBlockEnd
  0
ENDSEC
  0
SECTION
  2
ENTITIES
  0
LINE
  5
28
330
1A
100
AcDbEntity
  8
Edge.Cuts
  6
CONTINUOUS
100
AcDbLine
 10
3.9370078740157481
 20
-3.9370078740157481
 30
0
 11
7.0866141732283463
 21
-3.9370078740157481
 31
0
  0
LINE
  5
29
330
1A
100
AcDbEntity
  8
Edge.Cuts
  6
CONTINUOUS
100
AcDbLine
 10
7.0866141732283463
 20
-3.9370078740157481
 30
0
 11
7.0866141732283463
 21
-6.6929133858267713
 31
0
  0
LINE
  5
2A
330
1A
100
AcDbEntity
  8
Edge.Cuts
  6
CONTINUOUS
100
AcDbLine
 10
7.0866141732283463
 20
-6.6929133858267713
 30
0
 11
3.9370078740157481
 21
-6.6929133858267713
 31
0
  0
LINE
  5
2B
330
1A
100
AcDbEntity
  8
Edge.Cuts
  6
CONTINUOUS
100
AcDbLine
 10
3.9370078740157481
 20
-6.6929133858267713
 30
0
 11
3.9370078740157481
 21
-3.9370078740157481
 31
0
  0
CIRCLE
  5
2C
330
1A
100
AcDbEntity
  8
Edge.Cuts
100
AcDbCircle
 10
4.0551181102362204
 20
-4.5275590551181102
 30
0
 40
0.0236220472440945
  0
CIRCLE
  5
2D
330
1A
100
AcDbEntity
  8
Edge.Cuts
100
AcDbCircle
 10
4.0551181102362204
 20
-4.409448818897638
 30
0
 40
0.0236220472440945
  0
CIRCLE
  5
2E
330
1A
100
AcDbEntity
  8
Edge.Cuts
100
AcDbCircle
 10
4.3307086614173231
 20
-4.5275590551181102
 30
0
 40
0.0236220472440945
  0
CIRCLE
  5
2F
330
1A
100
AcDbEntity
  8
Edge.Cuts
100
AcDbCircle
 10
4.5275590551181102
 20
-4.5275590551181102
 30
0
 40
0.0236220472440945
  0
CIRCLE
  5
30
330
1A
100
AcDbEntity
  8
Edge.Cuts
100
AcDbCircle
 10
4.7244094488188972
 20
-4.5275590551181102
 30
0
 40
0.0236220472440945
  0
CIRCLE
  5
31
330
1A
100
AcDbEntity
  8
Edge.Cuts
100
AcDbCircle
 10
5.3149606299212593
 20
-4.0551181102362204
 30
0
 40
0.0196850393700787
  0
CIRCLE
  5
32
330
1A
100
AcDbEntity
  8
Edge.Cuts
100
AcDbCircle
 10
5.4149606299212598
 20
-4.0551181102362204
 30
0
 40
0.0196850393700787
  0
CIRCLE
  5
33
330
1A
100
AcDbEntity
  8
Edge.Cuts
100
AcDbCircle
 10
5.5149606299212595
 20
-4.0551181102362204
 30
0
 40
0.0196850393700787
  0
CIRCLE
  5
34
330
1A
100
AcDbEntity
  8
Edge.Cuts
100
AcDbCircle
 10
5.61496062992126
 20
-4.0551181102362204
 30
0
 40
0.0196850393700787
  0
CIRCLE
  5
35
330
1A
100
AcDbEntity
  8
Edge.Cuts
100
AcDbCircle
 10
5.7149606299212596
 20
-4.0551181102362204
 30
0
 40
0.0196850393700787
  0
CIRCLE
  5
36
330
1A
100
AcDbEntity
  8
Edge.Cuts
100
AcDbCircle
 10
5.8149606299212593
 20
-4.0551181102362204
 30
0
 40
0.0196850393700787
  0
CIRCLE
  5
37
330
1A
100
AcDbEntity
  8
Edge.Cuts
100
AcDbCircle
 10
5.9149606299212598
 20
-4.0551181102362204
 30
0
 40
0.0196850393700787
  0
CIRCLE
  5
38
330
1A
100
AcDbEntity
  8
Edge.Cuts
100
AcDbCircle
 10
5.3149606299212593
 20
-4.7244094488188972
 30
0
 40
0.0196850393700787
  0
CIRCLE
  5
39
330
1A
100
AcDbEntity
  8
Edge.Cuts
100
AcDbCircle
 10
5.4149606299212598
 20
-4.7244094488188972
 30
0
 40
0.0196850393700787
  0
CIRCLE
  5
3A
330
1A
100
AcDbEntity
  8
Edge.Cuts
100
AcDbCircle
 10
5.5149606299212595
 20
-4.7244094488188972
 30
0
 40
0.0196850393700787
  0
CIRCLE
  5
3B
330
1A
100
AcDbEntity
  8
Edge.Cuts
100
AcDbCircle
 10
5.61496062992126
 20
-4.7244094488188972
 30
0
 40
0.0196850393700787
  0
CIRCLE
  5
3C
330
1A
100
AcDbEntity
  8
Edge.Cuts
100
AcDbCircle
 10
5.7149606299212596
 20
-4.7244094488188972
 30
0
 40
0.0196850393700787
  0
CIRCLE
  5
3D
330
1A
100
AcDbEntity
  8
Edge.Cuts
100
AcDbCircle
 10
5.8149606299212593
 20
-4.7244094488188972
 30
0
 40
0.0196850393700787
  0
CIRCLE
  5
3E
330
1A
100
AcDbEntity
  8
Edge.Cuts
100
AcDbCircle
 10
4.0551181102362204
 20
-5.590551181102362
 30
0
 40
0.0236220472440945
  0
CIRCLE
  5
3F
330
1A
100
AcDbEntity
  8
Edge.Cuts
100
AcDbCircle
 10
4.0551181102362204
 20
-5.4724409448818898
 30
0
 40
0.0236220472440945
  0
CIRCLE
  5
40
330
1A
100
AcDbEntity
  8
Edge.Cuts
100
AcDbCircle
 10
5.7086614173228343
 20
-6.0629921259842519
 30
0
 40
0.0196850393700787
  0
CIRCLE
  5
41
330
1A
100
AcDbEntity
  8
Edge.Cuts
100
AcDbCircle
 10
5.8086614173228348
 20
-6.0629921259842519
 30
0
 40
0.0196850393700787
  0
CIRCLE
  5
42
330
1A
100
AcDbEntity
  8
Edge.Cuts
100
AcDbCircle
 10
5.1181102362204722
 20
-6.377952755905512
 30
0
 40
0.0255905511811024
  0
CIRCLE
  5
43
330
1A
100
AcDbEntity
  8
Edge.Cuts
100
AcDbCircle
 10
5.1181102362204722
 20
-6.5354330708661417
 30
0
 40
0.0393700787401575
  0
CIRCLE
  5
44
330
1A
100
AcDbEntity
  8
Edge.Cuts
100
AcDbCircle
 10
6.2992125984251963
 20
-6.377952755905512
 30
0
 40
0.0255905511811024
  0
CIRCLE
  5
45
330
1A
100
AcDbEntity
  8
Edge.Cuts
100
AcDbCircle
 10
6.2992125984251963
 20
-6.5354330708661417
 30
0
 40
0.0393700787401575
  0
ENDSEC
  0
SECTION
  2
OBJECTS
  0
DICTIONARY
  5
20
330
0
100
AcDbDictionary
281
1
  3
ACAD_GROUP
350
46
  3
ACAD_LAYOUT
350
21
  3
ACAD_PLOTSTYLENAME
350
11
  0
DICTIONARY
  5
46
330
20
100
AcDbDictionary
281
1
  0
ACDBDICTIONARYWDFLT
  5
11
330
20
100
AcDbDictionary
281
1
  3
Normal
350
10
100
AcDbDictionaryWithDefault
340
10
  0
ACDBPLACEHOLDER
  5
10
330
11
  0
DICTIONARY
  5
21
330
20
100
AcDbDictionary
281
1
  3
Model
350
1D
  3
Layout1
350
1E
  3
Layout2
350
1F
  0
LAYOUT
  5
1D
330
21
100
AcDbPlotSettings
  1

  2
none_device
  4
A3
  6

 40
0.0
 41
0.0
 42
0.0
 43
0.0
 44
420.0
 45
297.0
 46
0.0
 47
0.0
 48
0.0
 49
0.0
140
0.0
141
0.0
142
1.0
143
1.0
 70
1024
 72
1
 73
0
 74
5
  7

 75
16
 76
0
 77
2
 78
300
147
1.0
148
0.0
149
0.0
100
AcDbLayout
  1
Model
 70
1
 71
0
 10
0.0
 20
0.0
 11
420.0
 21
297.0
 12
0.0
 22
0.0
 32
0.0
 14
1e+20
 24
1e+20
 34
1e+20
 15
-1e+20
 25
-1e+20
 35
-1e+20
146
0.0
 13
0.0
 23
0.0
 33
0.0
 16
1.0
 26
0.0
 36
0.0
 17
0.0
 27
1.0
 37
0.0
 76
0
330
1A
  0
LAYOUT
  5
1E
330
21
100
AcDbPlotSettings
  1

  2
none_device
  4
A3
  6

 40
0.0
 41
0.0
 42
0.0
 43
0.0
 44
420.0
 45
297.0
 46
0.0
 47
0.0
 48
0.0
 49
0.0
140
0.0
141
0.0
142
1.0
143
1.0
 70
0
 72
1
 73
0
 74
5
  7

 75
16
 76
0
 77
2
 78
300
147
1.0
148
0.0
149
0.0
100
AcDbLayout
  1
Layout1
 70
1
 71
1
 10
0.0
 20
0.0
 11
420.0
 21
297.0
 12
0.0
 22
0.0
 32
0.0
 14
1e+20
 24
1e+20
 34
1e+20
 15
-1e+20
 25
-1e+20
 35
-1e+20
146
0.0
 13
0.0
 23
0.0
 33
0.0
 16
1.0
 26
0.0
 36
0.0
 17
0.0
 27
1.0
 37
0.0
 76
0
330
1B
  0
LAYOUT
  5
1F
330
21
100
AcDbPlotSettings
  1

  2
none_device
  4
A3
  6

 40
0.0
 41
0.0
 42
0.0
 43
0.0
 44
420.0
 45
297.0
 46
0.0
 47
0.0
 48
0.0
 49
0.0
140
0.0
141
0.0
142
1.0
143
1.0
 70
0
 72
1
 73
0
 74
5
  7

 75
16
 76
0
 77
2
 78
300
147
1.0
148
0.0
149
0.0
100
AcDbLayout
  1
Layout2
 70
1
 71
2
 10
0.0
 20
0.0
 11
420.0
 21
297.0
 12
0.0
 22
0.0
 32
0.0
 14
1e+20
 24
1e+20
 34
1e+20
 15
-1e+20
 25
-1e+20
 35
-1e+20
146
0.0
 13
0.0
 23
0.0
 33
0.0
 16
1.0
 26
0.0
 36
0.0
 17
0.0
 27
1.0
 37
0.0
 76
0
330
1C
  0
ENDSEC
  0
EOF
