  0
SECTION
  2
HEADER
  9
$ACADVER
  1
AC1018
  9
$HANDSEED
  5
FFFFFFFF
  9
$ANGBASE
  50
0.0
  9
$ANGDIR
  70
1
  9
$MEASUREMENT
  70
0
  9
$INSUNITS
  70
1
  0
ENDSEC
  0
SECTION
  2
TABLES
  0
TABLE
  2
APPID
  5
1
330
0
100
AcDbSymbolTable
 70
1
  0
APPID
  5
2
330
1
100
AcDbSymbolTableRecord
100
AcDbRegAppTableRecord
  2
ACAD
 70
0
  0
ENDTAB
  0
TABLE
  2
LTYPE
  5
3
330
0
100
AcDbSymbolTable
 70
6
  0
LTYPE
  5
4
330
3
100
AcDbSymbolTableRecord
100
AcDbLinetypeTableRecord
  2
ByBlock
 70
0
  3

 72
65
 73
0
 40
0
  0
LTYPE
  5
5
330
3
100
AcDbSymbolTableRecord
100
AcDbLinetypeTableRecord
  2
ByLayer
 70
0
  3

 72
65
 73
0
 40
0
  0
LTYPE
  5
6
330
3
100
AcDbSymbolTableRecord
100
AcDbLinetypeTableRecord
  2
CONTINUOUS
 70
0
  3
Solid line
 72
65
 73
0
 40
0
  0
LTYPE
  5
7
330
3
100
AcDbSymbolTableRecord
100
AcDbLinetypeTableRecord
  2
DASHDOT
 70
0
  3
Dash Dot ____ _ ____ _
 72
65
 73
4
 40
2
 49
1.25
 74
0
 49
-0.25
 74
0
 49
0.25
 74
0
 49
-0.25
 74
0
  0
LTYPE
  5
8
330
3
100
AcDbSymbolTableRecord
100
AcDbLinetypeTableRecord
  2
DASHED
 70
0
  3
Dashed __ __ __ __ __
 72
65
 73
2
 40
0.75
 49
0.5
 74
0
 49
-0.25
 74
0
  0
LTYPE
  5
9
330
3
100
AcDbSymbolTableRecord
100
AcDbLinetypeTableRecord
  2
DOTTED
 70
0
  3
Dotted .  .  .  .
 72
65
 73
2
 40
0.2
 49
0.0
 74
0
 49
-0.2
 74
0
  0
ENDTAB
  0
TABLE
  2
STYLE
  5
A
330
0
100
AcDbSymbolTable
 70
4
  0
STYLE
  5
B
330
A
100
AcDbSymbolTableRecord
100
AcDbTextStyleTableRecord
  2
KICAD
 70
0
 40
0
 41
1
 42
1
 50
0
 71
0
  3
isocp.shx
  0
STYLE
  5
C
330
A
100
AcDbSymbolTableRecord
100
AcDbTextStyleTableRecord
  2
KICADB
 70
0
 40
0
 41
1
 42
1
 50
0
 71
0
  3
isocp.shx
  0
STYLE
  5
D
330
A
100
AcDbSymbolTableRecord
100
AcDbTextStyleTableRecord
  2
KICADI
 70
0
 40
0
 41
1
 42
1
 50
15
 71
0
  3
isocp.shx
  0
STYLE
  5
E
330
A
100
AcDbSymbolTableRecord
100
AcDbTextStyleTableRecord
  2
KICADBI
 70
0
 40
0
 41
1
 42
1
 50
15
 71
0
  3
isocp.shx
  0
ENDTAB
  0
TABLE
  2
LAYER
  5
F
330
0
100
AcDbSymbolTable
 70
2
  0
LAYER
  5
12
330
F
100
AcDbSymbolTableRecord
100
AcDbLayerTableRecord
  2
0
 70
0
 62
7
  6
CONTINUOUS
390
10
  0
LAYER
  5
13
330
F
100
AcDbSymbolTableRecord
100
AcDbLayerTableRecord
  2
Edge.Cuts
 70
0
 62
254
420
13685453
  6
CONTINUOUS
390
10
  0
ENDTAB
  0
TABLE
  2
VPORT
  5
14
330
0
100
AcDbSymbolTable
 70
0
  0
ENDTAB
  0
TABLE
  2
VIEW
  5
15
330
0
100
AcDbSymbolTable
 70
0
  0
ENDTAB
  0
TABLE
  2
UCS
  5
16
330
0
100
AcDbSymbolTable
 70
0
  0
ENDTAB
  0
TABLE
  2
DIMSTYLE
  5
17
330
0
100
AcDbSymbolTable
 70
1
100
AcDbDimStyleTable
 71
0
  0
DIMSTYLE
105
18
330
17
100
AcDbSymbolTableRecord
100
AcDbDimStyleTableRecord
  2
Standard
 70
0
  0
ENDTAB
  0
TABLE
  2
BLOCK_RECORD
  5
19
330
0
100
AcDbSymbolTable
 70
3
  0
BLOCK_RECORD
  5
1A
330
19
100
AcDbSymbolTableRecord
100
AcDbBlockTableRecord
  2
*Model_Space
340
1D
 70
0
280
1
281
0
  0
BLOCK_RECORD
  5
1B
330
19
100
AcDbSymbolTableRecord
100
AcDbBlockTableRecord
  2
*Paper_Space
340
1E
 70
0
280
1
281
0
  0
BLOCK_RECORD
  5
1C
330
19
100
AcDbSymbolTableRecord
100
AcDbBlockTableRecord
  2
*Paper_Space0
340
1F
 70
0
280
1
281
0
  0
ENDTAB
  0
ENDSEC
  0
SECTION
  2
BLOCKS
  0
BLOCK
  5
23
330
1A
100
AcDbEntity
  8
0
100
AcDbBlockBegin
  2
*Model_Space
 70
0
 10
0.0
 20
0.0
 30
0.0
  3
*Model_Space
  1

  0
ENDBLK
  5
22
330
1A
100
AcDbEntity
  8
0
100
AcDbBlockEnd
  0
BLOCK
  5
25
330
1B
100
AcDbEntity
 67
1
  8
0
100
AcDbBlockBegin
  2
*Paper_Space
 70
0
 10
0.0
 20
0.0
 30
0.0
  3
*Paper_Space
  1

  0
ENDBLK
  5
24
330
1B
100
AcDbEntity
 67
1
  8
0
100
AcDbBlockEnd
  0
BLOCK
  5
27
330
1C
100
AcDbEntity
 67
1
  8
0
100
AcDbBlockBegin
  2
*Paper_Space0
 70
0
 10
0.0
 20
0.0
 30
0.0
  3
*Paper_Space0
  1

  0
ENDBLK
  5
26
330
1C
100
AcDbEntity
 67
1
  8
0
100
AcDbBlockEnd
  0
ENDSEC
  0
SECTION
  2
ENTITIES
  0
LINE
  5
28
330
1A
100
AcDbEntity
  8
Edge.Cuts
  6
CONTINUOUS
100
AcDbLine
 10
3.9370078740157481
 20
-3.6023622047244093
 30
0
 11
7.0866141732283463
 21
-3.6023622047244093
 31
0
  0
LINE
  5
29
330
1A
100
AcDbEntity
  8
Edge.Cuts
  6
CONTINUOUS
100
AcDbLine
 10
7.0866141732283463
 20
-3.6023622047244093
 30
0
 11
7.0866141732283463
 21
-6.6929133858267713
 31
0
  0
LINE
  5
2A
330
1A
100
AcDbEntity
  8
Edge.Cuts
  6
CONTINUOUS
100
AcDbLine
 10
7.0866141732283463
 20
-6.6929133858267713
 30
0
 11
3.9370078740157481
 21
-6.6929133858267713
 31
0
  0
LINE
  5
2B
330
1A
100
AcDbEntity
  8
Edge.Cuts
  6
CONTINUOUS
100
AcDbLine
 10
3.9370078740157481
 20
-6.6929133858267713
 30
0
 11
3.9370078740157481
 21
-3.6023622047244093
 31
0
  0
CIRCLE
  5
2C
330
1A
100
AcDbEntity
  8
Edge.Cuts
100
AcDbCircle
 10
6.3385826771653546
 20
-4.7834645669291334
 30
0
 40
0.015748031496063
  0
CIRCLE
  5
2D
330
1A
100
AcDbEntity
  8
Edge.Cuts
100
AcDbCircle
 10
6.3385826771653546
 20
-4.8834645669291339
 30
0
 40
0.015748031496063
  0
CIRCLE
  5
2E
330
1A
100
AcDbEntity
  8
Edge.Cuts
100
AcDbCircle
 10
6.3385826771653546
 20
-4.9834645669291335
 30
0
 40
0.015748031496063
  0
CIRCLE
  5
2F
330
1A
100
AcDbEntity
  8
Edge.Cuts
100
AcDbCircle
 10
6.3385826771653546
 20
-5.0834645669291341
 30
0
 40
0.015748031496063
  0
CIRCLE
  5
30
330
1A
100
AcDbEntity
  8
Edge.Cuts
100
AcDbCircle
 10
6.3385826771653546
 20
-5.1834645669291337
 30
0
 40
0.015748031496063
  0
CIRCLE
  5
31
330
1A
100
AcDbEntity
  8
Edge.Cuts
100
AcDbCircle
 10
6.3385826771653546
 20
-5.2834645669291334
 30
0
 40
0.015748031496063
  0
CIRCLE
  5
32
330
1A
100
AcDbEntity
  8
Edge.Cuts
100
AcDbCircle
 10
6.3385826771653546
 20
-5.3834645669291339
 30
0
 40
0.015748031496063
  0
CIRCLE
  5
33
330
1A
100
AcDbEntity
  8
Edge.Cuts
100
AcDbCircle
 10
6.3385826771653546
 20
-5.4834645669291335
 30
0
 40
0.015748031496063
  0
CIRCLE
  5
34
330
1A
100
AcDbEntity
  8
Edge.Cuts
100
AcDbCircle
 10
6.6385826771653544
 20
-5.4834645669291335
 30
0
 40
0.015748031496063
  0
CIRCLE
  5
35
330
1A
100
AcDbEntity
  8
Edge.Cuts
100
AcDbCircle
 10
6.6385826771653544
 20
-5.3834645669291339
 30
0
 40
0.015748031496063
  0
CIRCLE
  5
36
330
1A
100
AcDbEntity
  8
Edge.Cuts
100
AcDbCircle
 10
6.6385826771653544
 20
-5.2834645669291334
 30
0
 40
0.015748031496063
  0
CIRCLE
  5
37
330
1A
100
AcDbEntity
  8
Edge.Cuts
100
AcDbCircle
 10
6.6385826771653544
 20
-5.1834645669291337
 30
0
 40
0.015748031496063
  0
CIRCLE
  5
38
330
1A
100
AcDbEntity
  8
Edge.Cuts
100
AcDbCircle
 10
6.6385826771653544
 20
-5.0834645669291341
 30
0
 40
0.015748031496063
  0
CIRCLE
  5
39
330
1A
100
AcDbEntity
  8
Edge.Cuts
100
AcDbCircle
 10
6.6385826771653544
 20
-4.9834645669291335
 30
0
 40
0.015748031496063
  0
CIRCLE
  5
3A
330
1A
100
AcDbEntity
  8
Edge.Cuts
100
AcDbCircle
 10
6.6385826771653544
 20
-4.8834645669291339
 30
0
 40
0.015748031496063
  0
CIRCLE
  5
3B
330
1A
100
AcDbEntity
  8
Edge.Cuts
100
AcDbCircle
 10
6.6385826771653544
 20
-4.7834645669291334
 30
0
 40
0.015748031496063
  0
CIRCLE
  5
3C
330
1A
100
AcDbEntity
  8
Edge.Cuts
100
AcDbCircle
 10
6.0669291338582676
 20
-4.5413385826771648
 30
0
 40
0.0433070472440945
  0
CIRCLE
  5
3D
330
1A
100
AcDbEntity
  8
Edge.Cuts
100
AcDbCircle
 10
6.1535433070866139
 20
-6.1023622047244093
 30
0
 40
0.0196850393700787
  0
CIRCLE
  5
3E
330
1A
100
AcDbEntity
  8
Edge.Cuts
100
AcDbCircle
 10
6.8110236220472435
 20
-4.5275590551181102
 30
0
 40
0.015748031496063
  0
CIRCLE
  5
3F
330
1A
100
AcDbEntity
  8
Edge.Cuts
100
AcDbCircle
 10
7.0110236220472437
 20
-4.5275590551181102
 30
0
 40
0.015748031496063
  0
CIRCLE
  5
40
330
1A
100
AcDbEntity
  8
Edge.Cuts
100
AcDbCircle
 10
6.8110236220472435
 20
-4.7637795275590546
 30
0
 40
0.015748031496063
  0
CIRCLE
  5
41
330
1A
100
AcDbEntity
  8
Edge.Cuts
100
AcDbCircle
 10
6.9110236220472441
 20
-4.7637795275590546
 30
0
 40
0.015748031496063
  0
CIRCLE
  5
42
330
1A
100
AcDbEntity
  8
Edge.Cuts
100
AcDbCircle
 10
4.9566929133858268
 20
-6.0440944881889767
 30
0
 40
0.0433070472440945
  0
CIRCLE
  5
43
330
1A
100
AcDbEntity
  8
Edge.Cuts
100
AcDbCircle
 10
6.0669291338582676
 20
-6.0440944881889767
 30
0
 40
0.0433070472440945
  0
CIRCLE
  5
44
330
1A
100
AcDbEntity
  8
Edge.Cuts
100
AcDbCircle
 10
4.0551181102362204
 20
-5.5511811023622046
 30
0
 40
0.0196850393700787
  0
CIRCLE
  5
45
330
1A
100
AcDbEntity
  8
Edge.Cuts
100
AcDbCircle
 10
4.0551181102362204
 20
-5.4527559055118111
 30
0
 40
0.0196850393700787
  0
CIRCLE
  5
46
330
1A
100
AcDbEntity
  8
Edge.Cuts
100
AcDbCircle
 10
4.0551181102362204
 20
-4.5472440944881889
 30
0
 40
0.015748031496063
  0
CIRCLE
  5
47
330
1A
100
AcDbEntity
  8
Edge.Cuts
100
AcDbCircle
 10
4.2551181102362206
 20
-4.5472440944881889
 30
0
 40
0.015748031496063
  0
CIRCLE
  5
48
330
1A
100
AcDbEntity
  8
Edge.Cuts
100
AcDbCircle
 10
4.409448818897638
 20
-6.377952755905512
 30
0
 40
0.0295275590551181
  0
CIRCLE
  5
49
330
1A
100
AcDbEntity
  8
Edge.Cuts
100
AcDbCircle
 10
4.3094488188976374
 20
-6.2779527559055115
 30
0
 40
0.0334645669291339
  0
CIRCLE
  5
4A
330
1A
100
AcDbEntity
  8
Edge.Cuts
100
AcDbCircle
 10
4.3094488188976374
 20
-6.4779527559055117
 30
0
 40
0.0334645669291339
  0
CIRCLE
  5
4B
330
1A
100
AcDbEntity
  8
Edge.Cuts
100
AcDbCircle
 10
4.5094488188976376
 20
-6.2779527559055115
 30
0
 40
0.0334645669291339
  0
CIRCLE
  5
4C
330
1A
100
AcDbEntity
  8
Edge.Cuts
100
AcDbCircle
 10
4.5094488188976376
 20
-6.4779527559055117
 30
0
 40
0.0334645669291339
  0
CIRCLE
  5
4D
330
1A
100
AcDbEntity
  8
Edge.Cuts
100
AcDbCircle
 10
4.0551181102362204
 20
-5.8267716535433074
 30
0
 40
0.015748031496063
  0
CIRCLE
  5
4E
330
1A
100
AcDbEntity
  8
Edge.Cuts
100
AcDbCircle
 10
4.3551181102362202
 20
-5.8267716535433074
 30
0
 40
0.015748031496063
  0
CIRCLE
  5
4F
330
1A
100
AcDbEntity
  8
Edge.Cuts
100
AcDbCircle
 10
6.8110236220472435
 20
-5.7086614173228343
 30
0
 40
0.0177165354330709
  0
CIRCLE
  5
50
330
1A
100
AcDbEntity
  8
Edge.Cuts
100
AcDbCircle
 10
6.7110236220472439
 20
-5.7086614173228343
 30
0
 40
0.0177165354330709
  0
CIRCLE
  5
51
330
1A
100
AcDbEntity
  8
Edge.Cuts
100
AcDbCircle
 10
6.7322834645669287
 20
-4.3307086614173231
 30
0
 40
0.0196850393700787
  0
CIRCLE
  5
52
330
1A
100
AcDbEntity
  8
Edge.Cuts
100
AcDbCircle
 10
6.6322834645669291
 20
-4.3307086614173231
 30
0
 40
0.0196850393700787
  0
CIRCLE
  5
53
330
1A
100
AcDbEntity
  8
Edge.Cuts
100
AcDbCircle
 10
6.5322834645669285
 20
-4.3307086614173231
 30
0
 40
0.0196850393700787
  0
CIRCLE
  5
54
330
1A
100
AcDbEntity
  8
Edge.Cuts
100
AcDbCircle
 10
6.4322834645669289
 20
-4.3307086614173231
 30
0
 40
0.0196850393700787
  0
CIRCLE
  5
55
330
1A
100
AcDbEntity
  8
Edge.Cuts
100
AcDbCircle
 10
6.3322834645669293
 20
-4.3307086614173231
 30
0
 40
0.0196850393700787
  0
CIRCLE
  5
56
330
1A
100
AcDbEntity
  8
Edge.Cuts
100
AcDbCircle
 10
6.2322834645669287
 20
-4.3307086614173231
 30
0
 40
0.0196850393700787
  0
CIRCLE
  5
57
330
1A
100
AcDbEntity
  8
Edge.Cuts
100
AcDbCircle
 10
6.2992125984251963
 20
-5.7086614173228343
 30
0
 40
0.015748031496063
  0
CIRCLE
  5
58
330
1A
100
AcDbEntity
  8
Edge.Cuts
100
AcDbCircle
 10
6.599212598425197
 20
-5.7086614173228343
 30
0
 40
0.015748031496063
  0
CIRCLE
  5
59
330
1A
100
AcDbEntity
  8
Edge.Cuts
100
AcDbCircle
 10
6.0984251968503935
 20
-4.7921259842519683
 30
0
 40
0.0196850393700787
  0
CIRCLE
  5
5A
330
1A
100
AcDbEntity
  8
Edge.Cuts
100
AcDbCircle
 10
6.0984251968503935
 20
-4.892125984251968
 30
0
 40
0.0196850393700787
  0
CIRCLE
  5
5B
330
1A
100
AcDbEntity
  8
Edge.Cuts
100
AcDbCircle
 10
6.0984251968503935
 20
-4.9921259842519685
 30
0
 40
0.0196850393700787
  0
CIRCLE
  5
5C
330
1A
100
AcDbEntity
  8
Edge.Cuts
100
AcDbCircle
 10
6.0984251968503935
 20
-5.0921259842519682
 30
0
 40
0.0196850393700787
  0
CIRCLE
  5
5D
330
1A
100
AcDbEntity
  8
Edge.Cuts
100
AcDbCircle
 10
6.0984251968503935
 20
-5.1921259842519687
 30
0
 40
0.0196850393700787
  0
CIRCLE
  5
5E
330
1A
100
AcDbEntity
  8
Edge.Cuts
100
AcDbCircle
 10
6.0984251968503935
 20
-5.2921259842519683
 30
0
 40
0.0196850393700787
  0
CIRCLE
  5
5F
330
1A
100
AcDbEntity
  8
Edge.Cuts
100
AcDbCircle
 10
6.0984251968503935
 20
-5.392125984251968
 30
0
 40
0.0196850393700787
  0
CIRCLE
  5
60
330
1A
100
AcDbEntity
  8
Edge.Cuts
100
AcDbCircle
 10
6.0984251968503935
 20
-5.4921259842519685
 30
0
 40
0.0196850393700787
  0
CIRCLE
  5
61
330
1A
100
AcDbEntity
  8
Edge.Cuts
100
AcDbCircle
 10
6.0984251968503935
 20
-5.5921259842519682
 30
0
 40
0.0196850393700787
  0
CIRCLE
  5
62
330
1A
100
AcDbEntity
  8
Edge.Cuts
100
AcDbCircle
 10
6.0984251968503935
 20
-5.6921259842519687
 30
0
 40
0.0196850393700787
  0
CIRCLE
  5
63
330
1A
100
AcDbEntity
  8
Edge.Cuts
100
AcDbCircle
 10
6.0984251968503935
 20
-5.7921259842519683
 30
0
 40
0.0196850393700787
  0
CIRCLE
  5
64
330
1A
100
AcDbEntity
  8
Edge.Cuts
100
AcDbCircle
 10
4.2401574803149602
 20
-5.2480314960629917
 30
0
 40
0.015748031496063
  0
CIRCLE
  5
65
330
1A
100
AcDbEntity
  8
Edge.Cuts
100
AcDbCircle
 10
4.3401574803149607
 20
-5.2480314960629917
 30
0
 40
0.015748031496063
  0
CIRCLE
  5
66
330
1A
100
AcDbEntity
  8
Edge.Cuts
100
AcDbCircle
 10
4.1732283464566926
 20
-5.0637795275590554
 30
0
 40
0.0196850393700787
  0
CIRCLE
  5
67
330
1A
100
AcDbEntity
  8
Edge.Cuts
100
AcDbCircle
 10
4.1732283464566926
 20
-4.9637795275590548
 30
0
 40
0.0196850393700787
  0
CIRCLE
  5
68
330
1A
100
AcDbEntity
  8
Edge.Cuts
100
AcDbCircle
 10
4.1732283464566926
 20
-4.8637795275590552
 30
0
 40
0.0196850393700787
  0
CIRCLE
  5
69
330
1A
100
AcDbEntity
  8
Edge.Cuts
100
AcDbCircle
 10
4.1732283464566926
 20
-4.7637795275590546
 30
0
 40
0.0196850393700787
  0
CIRCLE
  5
6A
330
1A
100
AcDbEntity
  8
Edge.Cuts
100
AcDbCircle
 10
6.5598425196850396
 20
-4.6456692913385824
 30
0
 40
0.015748031496063
  0
CIRCLE
  5
6B
330
1A
100
AcDbEntity
  8
Edge.Cuts
100
AcDbCircle
 10
6.2598425196850389
 20
-4.6456692913385824
 30
0
 40
0.015748031496063
  0
CIRCLE
  5
6C
330
1A
100
AcDbEntity
  8
Edge.Cuts
100
AcDbCircle
 10
4.0551181102362204
 20
-4.2519685039370074
 30
0
 40
0.0147637795275591
  0
CIRCLE
  5
6D
330
1A
100
AcDbEntity
  8
Edge.Cuts
100
AcDbCircle
 10
4.0551181102362204
 20
-4.1732283464566926
 30
0
 40
0.0147637795275591
  0
CIRCLE
  5
6E
330
1A
100
AcDbEntity
  8
Edge.Cuts
100
AcDbCircle
 10
4.5551181102362204
 20
-5.8661417322834648
 30
0
 40
0.0216535433070866
  0
CIRCLE
  5
6F
330
1A
100
AcDbEntity
  8
Edge.Cuts
100
AcDbCircle
 10
4.65511811023622
 20
-5.8661417322834648
 30
0
 40
0.0216535433070866
  0
CIRCLE
  5
70
330
1A
100
AcDbEntity
  8
Edge.Cuts
100
AcDbCircle
 10
4.7551181102362206
 20
-5.8661417322834648
 30
0
 40
0.0216535433070866
  0
LINE
  5
71
330
1A
100
AcDbEntity
  8
Edge.Cuts
  6
CONTINUOUS
100
AcDbLine
 10
4.4645669291338583
 20
-4.4586614173228343
 30
0
 11
4.5118110236220472
 21
-4.4586614173228343
 31
0
  0
ARC
  5
72
330
1A
100
AcDbEntity
  8
Edge.Cuts
100
AcDbCircle
 10
4.5118110236220472
 20
-4.4370078740157481
 30
0
 40
0.0216535433070866
100
AcDbArc
 50
-90.00000000
 51
90.00000000
  0
LINE
  5
73
330
1A
100
AcDbEntity
  8
Edge.Cuts
  6
CONTINUOUS
100
AcDbLine
 10
4.5118110236220472
 20
-4.4153543307086611
 30
0
 11
4.4645669291338583
 21
-4.4153543307086611
 31
0
  0
ARC
  5
74
330
1A
100
AcDbEntity
  8
Edge.Cuts
100
AcDbCircle
 10
4.4645669291338583
 20
-4.4370078740157481
 30
0
 40
0.0216535433070866
100
AcDbArc
 50
90.00000000
 51
270.00000000
  0
LINE
  5
75
330
1A
100
AcDbEntity
  8
Edge.Cuts
  6
CONTINUOUS
100
AcDbLine
 10
4.4645669291338583
 20
-4.2736220472440944
 30
0
 11
4.5118110236220472
 21
-4.2736220472440944
 31
0
  0
ARC
  5
76
330
1A
100
AcDbEntity
  8
Edge.Cuts
100
AcDbCircle
 10
4.5118110236220472
 20
-4.2519685039370074
 30
0
 40
0.0216535433070866
100
AcDbArc
 50
-90.00000000
 51
90.00000000
  0
LINE
  5
77
330
1A
100
AcDbEntity
  8
Edge.Cuts
  6
CONTINUOUS
100
AcDbLine
 10
4.5118110236220472
 20
-4.2303149606299213
 30
0
 11
4.4645669291338583
 21
-4.2303149606299213
 31
0
  0
ARC
  5
78
330
1A
100
AcDbEntity
  8
Edge.Cuts
100
AcDbCircle
 10
4.4645669291338583
 20
-4.2519685039370074
 30
0
 40
0.0216535433070866
100
AcDbArc
 50
90.00000000
 51
270.00000000
  0
LINE
  5
79
330
1A
100
AcDbEntity
  8
Edge.Cuts
  6
CONTINUOUS
100
AcDbLine
 10
4.4645669291338583
 20
-4.0885826771653546
 30
0
 11
4.5118110236220472
 21
-4.0885826771653546
 31
0
  0
ARC
  5
7A
330
1A
100
AcDbEntity
  8
Edge.Cuts
100
AcDbCircle
 10
4.5118110236220472
 20
-4.0669291338582676
 30
0
 40
0.0216535433070866
100
AcDbArc
 50
-90.00000000
 51
90.00000000
  0
LINE
  5
7B
330
1A
100
AcDbEntity
  8
Edge.Cuts
  6
CONTINUOUS
100
AcDbLine
 10
4.5118110236220472
 20
-4.0452755905511806
 30
0
 11
4.4645669291338583
 21
-4.0452755905511806
 31
0
  0
ARC
  5
7C
330
1A
100
AcDbEntity
  8
Edge.Cuts
100
AcDbCircle
 10
4.4645669291338583
 20
-4.0669291338582676
 30
0
 40
0.0216535433070866
100
AcDbArc
 50
90.00000000
 51
270.00000000
  0
CIRCLE
  5
7D
330
1A
100
AcDbEntity
  8
Edge.Cuts
100
AcDbCircle
 10
4.9566929133858268
 20
-4.5413385826771648
 30
0
 40
0.0433070472440945
  0
CIRCLE
  5
7E
330
1A
100
AcDbEntity
  8
Edge.Cuts
100
AcDbCircle
 10
4.8700787401574805
 20
-6.1023622047244093
 30
0
 40
0.0196850393700787
  0
CIRCLE
  5
7F
330
1A
100
AcDbEntity
  8
Edge.Cuts
100
AcDbCircle
 10
4.4881889763779528
 20
-5.6692913385826769
 30
0
 40
0.015748031496063
  0
CIRCLE
  5
80
330
1A
100
AcDbEntity
  8
Edge.Cuts
100
AcDbCircle
 10
4.7881889763779526
 20
-5.6692913385826769
 30
0
 40
0.015748031496063
  0
CIRCLE
  5
81
330
1A
100
AcDbEntity
  8
Edge.Cuts
100
AcDbCircle
 10
4.4881889763779528
 20
-5.2362204724409445
 30
0
 40
0.015748031496063
  0
CIRCLE
  5
82
330
1A
100
AcDbEntity
  8
Edge.Cuts
100
AcDbCircle
 10
4.4881889763779528
 20
-5.336220472440945
 30
0
 40
0.015748031496063
  0
CIRCLE
  5
83
330
1A
100
AcDbEntity
  8
Edge.Cuts
100
AcDbCircle
 10
4.4881889763779528
 20
-5.4362204724409446
 30
0
 40
0.015748031496063
  0
CIRCLE
  5
84
330
1A
100
AcDbEntity
  8
Edge.Cuts
100
AcDbCircle
 10
4.4881889763779528
 20
-5.5362204724409452
 30
0
 40
0.015748031496063
  0
CIRCLE
  5
85
330
1A
100
AcDbEntity
  8
Edge.Cuts
100
AcDbCircle
 10
4.7881889763779526
 20
-5.5362204724409452
 30
0
 40
0.015748031496063
  0
CIRCLE
  5
86
330
1A
100
AcDbEntity
  8
Edge.Cuts
100
AcDbCircle
 10
4.7881889763779526
 20
-5.4362204724409446
 30
0
 40
0.015748031496063
  0
CIRCLE
  5
87
330
1A
100
AcDbEntity
  8
Edge.Cuts
100
AcDbCircle
 10
4.7881889763779526
 20
-5.336220472440945
 30
0
 40
0.015748031496063
  0
CIRCLE
  5
88
330
1A
100
AcDbEntity
  8
Edge.Cuts
100
AcDbCircle
 10
4.7881889763779526
 20
-5.2362204724409445
 30
0
 40
0.015748031496063
  0
CIRCLE
  5
89
330
1A
100
AcDbEntity
  8
Edge.Cuts
100
AcDbCircle
 10
6.8110236220472435
 20
-5.1968503937007871
 30
0
 40
0.015748031496063
  0
CIRCLE
  5
8A
330
1A
100
AcDbEntity
  8
Edge.Cuts
100
AcDbCircle
 10
6.9110236220472441
 20
-5.1968503937007871
 30
0
 40
0.015748031496063
  0
CIRCLE
  5
8B
330
1A
100
AcDbEntity
  8
Edge.Cuts
100
AcDbCircle
 10
6.6141732283464565
 20
-6.377952755905512
 30
0
 40
0.0295275590551181
  0
CIRCLE
  5
8C
330
1A
100
AcDbEntity
  8
Edge.Cuts
100
AcDbCircle
 10
6.5141732283464568
 20
-6.2779527559055115
 30
0
 40
0.0334645669291339
  0
CIRCLE
  5
8D
330
1A
100
AcDbEntity
  8
Edge.Cuts
100
AcDbCircle
 10
6.5141732283464568
 20
-6.4779527559055117
 30
0
 40
0.0334645669291339
  0
CIRCLE
  5
8E
330
1A
100
AcDbEntity
  8
Edge.Cuts
100
AcDbCircle
 10
6.7141732283464561
 20
-6.2779527559055115
 30
0
 40
0.0334645669291339
  0
CIRCLE
  5
8F
330
1A
100
AcDbEntity
  8
Edge.Cuts
100
AcDbCircle
 10
6.7141732283464561
 20
-6.4779527559055117
 30
0
 40
0.0334645669291339
  0
ENDSEC
  0
SECTION
  2
OBJECTS
  0
DICTIONARY
  5
20
330
0
100
AcDbDictionary
281
1
  3
ACAD_GROUP
350
90
  3
ACAD_LAYOUT
350
21
  3
ACAD_PLOTSTYLENAME
350
11
  0
DICTIONARY
  5
90
330
20
100
AcDbDictionary
281
1
  0
ACDBDICTIONARYWDFLT
  5
11
330
20
100
AcDbDictionary
281
1
  3
Normal
350
10
100
AcDbDictionaryWithDefault
340
10
  0
ACDBPLACEHOLDER
  5
10
330
11
  0
DICTIONARY
  5
21
330
20
100
AcDbDictionary
281
1
  3
Model
350
1D
  3
Layout1
350
1E
  3
Layout2
350
1F
  0
LAYOUT
  5
1D
330
21
100
AcDbPlotSettings
  1

  2
none_device
  4
A3
  6

 40
0.0
 41
0.0
 42
0.0
 43
0.0
 44
420.0
 45
297.0
 46
0.0
 47
0.0
 48
0.0
 49
0.0
140
0.0
141
0.0
142
1.0
143
1.0
 70
1024
 72
1
 73
0
 74
5
  7

 75
16
 76
0
 77
2
 78
300
147
1.0
148
0.0
149
0.0
100
AcDbLayout
  1
Model
 70
1
 71
0
 10
0.0
 20
0.0
 11
420.0
 21
297.0
 12
0.0
 22
0.0
 32
0.0
 14
1e+20
 24
1e+20
 34
1e+20
 15
-1e+20
 25
-1e+20
 35
-1e+20
146
0.0
 13
0.0
 23
0.0
 33
0.0
 16
1.0
 26
0.0
 36
0.0
 17
0.0
 27
1.0
 37
0.0
 76
0
330
1A
  0
LAYOUT
  5
1E
330
21
100
AcDbPlotSettings
  1

  2
none_device
  4
A3
  6

 40
0.0
 41
0.0
 42
0.0
 43
0.0
 44
420.0
 45
297.0
 46
0.0
 47
0.0
 48
0.0
 49
0.0
140
0.0
141
0.0
142
1.0
143
1.0
 70
0
 72
1
 73
0
 74
5
  7

 75
16
 76
0
 77
2
 78
300
147
1.0
148
0.0
149
0.0
100
AcDbLayout
  1
Layout1
 70
1
 71
1
 10
0.0
 20
0.0
 11
420.0
 21
297.0
 12
0.0
 22
0.0
 32
0.0
 14
1e+20
 24
1e+20
 34
1e+20
 15
-1e+20
 25
-1e+20
 35
-1e+20
146
0.0
 13
0.0
 23
0.0
 33
0.0
 16
1.0
 26
0.0
 36
0.0
 17
0.0
 27
1.0
 37
0.0
 76
0
330
1B
  0
LAYOUT
  5
1F
330
21
100
AcDbPlotSettings
  1

  2
none_device
  4
A3
  6

 40
0.0
 41
0.0
 42
0.0
 43
0.0
 44
420.0
 45
297.0
 46
0.0
 47
0.0
 48
0.0
 49
0.0
140
0.0
141
0.0
142
1.0
143
1.0
 70
0
 72
1
 73
0
 74
5
  7

 75
16
 76
0
 77
2
 78
300
147
1.0
148
0.0
149
0.0
100
AcDbLayout
  1
Layout2
 70
1
 71
2
 10
0.0
 20
0.0
 11
420.0
 21
297.0
 12
0.0
 22
0.0
 32
0.0
 14
1e+20
 24
1e+20
 34
1e+20
 15
-1e+20
 25
-1e+20
 35
-1e+20
146
0.0
 13
0.0
 23
0.0
 33
0.0
 16
1.0
 26
0.0
 36
0.0
 17
0.0
 27
1.0
 37
0.0
 76
0
330
1C
  0
ENDSEC
  0
EOF
