%TF.GenerationSoftware,KiCad,Pcbnew,10.0.6*%
%TF.CreationDate,2026-09-16T22:44:02-07:00*%
%TF.ProjectId,weather-balloon-logger,77656174-6865-4722-9d62-616c6c6f6f6e,rev?*%
%TF.SameCoordinates,Original*%
%TF.FileFunction,Other,User*%
%FSLAX46Y46*%
G04 Gerber Fmt 4.6, Leading zero omitted, Abs format (unit mm)*
G04 Created by KiCad (PCBNEW 10.0.6) date 2026-09-16 22:44:02*
%MOMM*%
%LPD*%
G01*
G04 APERTURE LIST*
%ADD10C,0.050000*%
G04 APERTURE END LIST*
%TO.C,U1*%
D10*
X159940000Y-119980000D02*
X169670000Y-119980000D01*
X169670000Y-140800000D01*
X159940000Y-140800000D01*
X159940000Y-119980000D01*
%TO.C,H2*%
X156550000Y-115350000D02*
G75*
G02*
X151650000Y-115350000I-2450000J0D01*
G01*
X151650000Y-115350000D02*
G75*
G02*
X156550000Y-115350000I2450000J0D01*
G01*
%TO.C,J6*%
X154530000Y-153230000D02*
X158070000Y-153230000D01*
X158070000Y-156770000D01*
X154530000Y-156770000D01*
X154530000Y-153230000D01*
%TO.C,C1*%
X172500000Y-112465000D02*
X178580000Y-112465000D01*
X178580000Y-117535000D01*
X172500000Y-117535000D01*
X172500000Y-112465000D01*
%TO.C,C2*%
X171865000Y-119230000D02*
X176675000Y-119230000D01*
X176675000Y-122770000D01*
X171865000Y-122770000D01*
X171865000Y-119230000D01*
%TO.C,H3*%
X128350000Y-153520000D02*
G75*
G02*
X123450000Y-153520000I-2450000J0D01*
G01*
X123450000Y-153520000D02*
G75*
G02*
X128350000Y-153520000I2450000J0D01*
G01*
%TO.C,H4*%
X156550000Y-153520000D02*
G75*
G02*
X151650000Y-153520000I-2450000J0D01*
G01*
X151650000Y-153520000D02*
G75*
G02*
X156550000Y-153520000I2450000J0D01*
G01*
%TO.C,J5*%
X100190000Y-135550000D02*
X112700000Y-135550000D01*
X112700000Y-143950000D01*
X100190000Y-143950000D01*
X100190000Y-135550000D01*
%TO.C,C5*%
X102500000Y-112965000D02*
X108580000Y-112965000D01*
X108580000Y-118035000D01*
X102500000Y-118035000D01*
X102500000Y-112965000D01*
%TO.C,J4*%
X107830000Y-157830000D02*
X107830000Y-166170000D01*
X107830000Y-157830000D02*
X116170000Y-157830000D01*
X116170000Y-166170000D02*
X107830000Y-166170000D01*
X116170000Y-166170000D02*
X116170000Y-157830000D01*
%TO.C,R2*%
X101950000Y-146500000D02*
X111670000Y-146500000D01*
X111670000Y-149500000D01*
X101950000Y-149500000D01*
X101950000Y-146500000D01*
%TO.C,D1*%
X169310000Y-142790000D02*
X174150000Y-142790000D01*
X174150000Y-147210000D01*
X169310000Y-147210000D01*
X169310000Y-142790000D01*
%TO.C,A1*%
X156530000Y-91720000D02*
X172770000Y-91720000D01*
X172770000Y-111770000D01*
X156530000Y-111770000D01*
X156530000Y-91720000D01*
%TO.C,R1*%
X158950000Y-143500000D02*
X168670000Y-143500000D01*
X168670000Y-146500000D01*
X158950000Y-146500000D01*
X158950000Y-143500000D01*
%TO.C,J2*%
X153130000Y-119950000D02*
X156670000Y-119950000D01*
X156670000Y-148890000D01*
X153130000Y-148890000D01*
X153130000Y-119950000D01*
%TO.C,C4*%
X106565000Y-131530000D02*
X111375000Y-131530000D01*
X111375000Y-135070000D01*
X106565000Y-135070000D01*
X106565000Y-131530000D01*
%TO.C,A2*%
X104230000Y-118595000D02*
X121740000Y-118595000D01*
X121740000Y-131025000D01*
X104230000Y-131025000D01*
X104230000Y-118595000D01*
%TO.C,R4*%
X157950000Y-116500000D02*
X167670000Y-116500000D01*
X167670000Y-119500000D01*
X157950000Y-119500000D01*
X157950000Y-116500000D01*
%TO.C,J1*%
X101150000Y-103550000D02*
X109750000Y-103550000D01*
X109750000Y-110450000D01*
X101150000Y-110450000D01*
X101150000Y-103550000D01*
%TO.C,Q1*%
X112990000Y-145600000D02*
X123490000Y-145600000D01*
X123490000Y-150500000D01*
X112990000Y-150500000D01*
X112990000Y-145600000D01*
%TO.C,SW1*%
X110070000Y-101150000D02*
X117930000Y-101150000D01*
X117930000Y-114850000D01*
X110070000Y-114850000D01*
X110070000Y-101150000D01*
%TO.C,H1*%
X128350000Y-115350000D02*
G75*
G02*
X123450000Y-115350000I-2450000J0D01*
G01*
X123450000Y-115350000D02*
G75*
G02*
X128350000Y-115350000I2450000J0D01*
G01*
%TO.C,J7*%
X121930000Y-153230000D02*
X125470000Y-153230000D01*
X125470000Y-156770000D01*
X121930000Y-156770000D01*
X121930000Y-153230000D01*
%TO.C,R3*%
X112950000Y-142500000D02*
X122670000Y-142500000D01*
X122670000Y-145500000D01*
X112950000Y-145500000D01*
X112950000Y-142500000D01*
%TO.C,U2*%
X112940000Y-131480000D02*
X122670000Y-131480000D01*
X122670000Y-142140000D01*
X112940000Y-142140000D01*
X112940000Y-131480000D01*
%TO.C,C3*%
X171865000Y-130230000D02*
X176675000Y-130230000D01*
X176675000Y-133770000D01*
X171865000Y-133770000D01*
X171865000Y-130230000D01*
%TO.C,J3*%
X163830000Y-157830000D02*
X163830000Y-166170000D01*
X163830000Y-157830000D02*
X172170000Y-157830000D01*
X172170000Y-166170000D02*
X163830000Y-166170000D01*
X172170000Y-166170000D02*
X172170000Y-157830000D01*
%TD*%
M02*
