%TF.GenerationSoftware,KiCad,Pcbnew,10.0.6*%
%TF.CreationDate,2026-09-21T18:18:29-07:00*%
%TF.ProjectId,weather-balloon-logger,77656174-6865-4722-9d62-616c6c6f6f6e,rev?*%
%TF.SameCoordinates,Original*%
%TF.FileFunction,Legend,Top*%
%TF.FilePolarity,Positive*%
%FSLAX46Y46*%
G04 Gerber Fmt 4.6, Leading zero omitted, Abs format (unit mm)*
G04 Created by KiCad (PCBNEW 10.0.6) date 2026-09-21 18:18:29*
%MOMM*%
%LPD*%
G01*
G04 APERTURE LIST*
%ADD10C,0.180000*%
%ADD11C,0.220000*%
%ADD12C,0.120000*%
%ADD13C,0.250000*%
%ADD14C,0.200000*%
G04 APERTURE END LIST*
D10*
X112580951Y-168360735D02*
X112123808Y-168360735D01*
X112352380Y-168360735D02*
X112352380Y-167560735D01*
X112352380Y-167560735D02*
X112276189Y-167675020D01*
X112276189Y-167675020D02*
X112199999Y-167751211D01*
X112199999Y-167751211D02*
X112123808Y-167789306D01*
X113685714Y-167560735D02*
X113838095Y-167560735D01*
X113838095Y-167560735D02*
X113914285Y-167598830D01*
X113914285Y-167598830D02*
X113990476Y-167675020D01*
X113990476Y-167675020D02*
X114028571Y-167827401D01*
X114028571Y-167827401D02*
X114028571Y-168094068D01*
X114028571Y-168094068D02*
X113990476Y-168246449D01*
X113990476Y-168246449D02*
X113914285Y-168322640D01*
X113914285Y-168322640D02*
X113838095Y-168360735D01*
X113838095Y-168360735D02*
X113685714Y-168360735D01*
X113685714Y-168360735D02*
X113609523Y-168322640D01*
X113609523Y-168322640D02*
X113533333Y-168246449D01*
X113533333Y-168246449D02*
X113495237Y-168094068D01*
X113495237Y-168094068D02*
X113495237Y-167827401D01*
X113495237Y-167827401D02*
X113533333Y-167675020D01*
X113533333Y-167675020D02*
X113609523Y-167598830D01*
X113609523Y-167598830D02*
X113685714Y-167560735D01*
X114371428Y-167560735D02*
X114371428Y-168208354D01*
X114371428Y-168208354D02*
X114409523Y-168284544D01*
X114409523Y-168284544D02*
X114447618Y-168322640D01*
X114447618Y-168322640D02*
X114523809Y-168360735D01*
X114523809Y-168360735D02*
X114676190Y-168360735D01*
X114676190Y-168360735D02*
X114752380Y-168322640D01*
X114752380Y-168322640D02*
X114790475Y-168284544D01*
X114790475Y-168284544D02*
X114828571Y-168208354D01*
X114828571Y-168208354D02*
X114828571Y-167560735D01*
X115095237Y-167560735D02*
X115552380Y-167560735D01*
X115323808Y-168360735D02*
X115323808Y-167560735D01*
X116238094Y-168360735D02*
X115780951Y-168360735D01*
X116009523Y-168360735D02*
X116009523Y-167560735D01*
X116009523Y-167560735D02*
X115933332Y-167675020D01*
X115933332Y-167675020D02*
X115857142Y-167751211D01*
X115857142Y-167751211D02*
X115780951Y-167789306D01*
X118371428Y-167636925D02*
X118409524Y-167598830D01*
X118409524Y-167598830D02*
X118485714Y-167560735D01*
X118485714Y-167560735D02*
X118676190Y-167560735D01*
X118676190Y-167560735D02*
X118752381Y-167598830D01*
X118752381Y-167598830D02*
X118790476Y-167636925D01*
X118790476Y-167636925D02*
X118828571Y-167713116D01*
X118828571Y-167713116D02*
X118828571Y-167789306D01*
X118828571Y-167789306D02*
X118790476Y-167903592D01*
X118790476Y-167903592D02*
X118333333Y-168360735D01*
X118333333Y-168360735D02*
X118828571Y-168360735D01*
X120200000Y-167598830D02*
X120123810Y-167560735D01*
X120123810Y-167560735D02*
X120009524Y-167560735D01*
X120009524Y-167560735D02*
X119895238Y-167598830D01*
X119895238Y-167598830D02*
X119819048Y-167675020D01*
X119819048Y-167675020D02*
X119780953Y-167751211D01*
X119780953Y-167751211D02*
X119742857Y-167903592D01*
X119742857Y-167903592D02*
X119742857Y-168017878D01*
X119742857Y-168017878D02*
X119780953Y-168170259D01*
X119780953Y-168170259D02*
X119819048Y-168246449D01*
X119819048Y-168246449D02*
X119895238Y-168322640D01*
X119895238Y-168322640D02*
X120009524Y-168360735D01*
X120009524Y-168360735D02*
X120085715Y-168360735D01*
X120085715Y-168360735D02*
X120200000Y-168322640D01*
X120200000Y-168322640D02*
X120238096Y-168284544D01*
X120238096Y-168284544D02*
X120238096Y-168017878D01*
X120238096Y-168017878D02*
X120085715Y-168017878D01*
X120580953Y-168360735D02*
X120580953Y-167560735D01*
X120580953Y-167560735D02*
X121038096Y-168360735D01*
X121038096Y-168360735D02*
X121038096Y-167560735D01*
X121419048Y-168360735D02*
X121419048Y-167560735D01*
X121419048Y-167560735D02*
X121609524Y-167560735D01*
X121609524Y-167560735D02*
X121723810Y-167598830D01*
X121723810Y-167598830D02*
X121800000Y-167675020D01*
X121800000Y-167675020D02*
X121838095Y-167751211D01*
X121838095Y-167751211D02*
X121876191Y-167903592D01*
X121876191Y-167903592D02*
X121876191Y-168017878D01*
X121876191Y-168017878D02*
X121838095Y-168170259D01*
X121838095Y-168170259D02*
X121800000Y-168246449D01*
X121800000Y-168246449D02*
X121723810Y-168322640D01*
X121723810Y-168322640D02*
X121609524Y-168360735D01*
X121609524Y-168360735D02*
X121419048Y-168360735D01*
X132860735Y-128123809D02*
X132860735Y-128504761D01*
X132860735Y-128504761D02*
X132060735Y-128504761D01*
X132860735Y-127857142D02*
X132060735Y-127857142D01*
X132098830Y-127057143D02*
X132060735Y-127133333D01*
X132060735Y-127133333D02*
X132060735Y-127247619D01*
X132060735Y-127247619D02*
X132098830Y-127361905D01*
X132098830Y-127361905D02*
X132175020Y-127438095D01*
X132175020Y-127438095D02*
X132251211Y-127476190D01*
X132251211Y-127476190D02*
X132403592Y-127514286D01*
X132403592Y-127514286D02*
X132517878Y-127514286D01*
X132517878Y-127514286D02*
X132670259Y-127476190D01*
X132670259Y-127476190D02*
X132746449Y-127438095D01*
X132746449Y-127438095D02*
X132822640Y-127361905D01*
X132822640Y-127361905D02*
X132860735Y-127247619D01*
X132860735Y-127247619D02*
X132860735Y-127171428D01*
X132860735Y-127171428D02*
X132822640Y-127057143D01*
X132822640Y-127057143D02*
X132784544Y-127019047D01*
X132784544Y-127019047D02*
X132517878Y-127019047D01*
X132517878Y-127019047D02*
X132517878Y-127171428D01*
X132860735Y-126676190D02*
X132060735Y-126676190D01*
X132441687Y-126676190D02*
X132441687Y-126219047D01*
X132860735Y-126219047D02*
X132060735Y-126219047D01*
X132060735Y-125952381D02*
X132060735Y-125495238D01*
X132860735Y-125723810D02*
X132060735Y-125723810D01*
X132860735Y-125228571D02*
X132060735Y-125228571D01*
X132441687Y-125228571D02*
X132441687Y-124771428D01*
X132860735Y-124771428D02*
X132060735Y-124771428D01*
X132632163Y-124428572D02*
X132632163Y-124047619D01*
X132860735Y-124504762D02*
X132060735Y-124238095D01*
X132060735Y-124238095D02*
X132860735Y-123971429D01*
X132441687Y-123438096D02*
X132479782Y-123323810D01*
X132479782Y-123323810D02*
X132517878Y-123285715D01*
X132517878Y-123285715D02*
X132594068Y-123247619D01*
X132594068Y-123247619D02*
X132708354Y-123247619D01*
X132708354Y-123247619D02*
X132784544Y-123285715D01*
X132784544Y-123285715D02*
X132822640Y-123323810D01*
X132822640Y-123323810D02*
X132860735Y-123400000D01*
X132860735Y-123400000D02*
X132860735Y-123704762D01*
X132860735Y-123704762D02*
X132060735Y-123704762D01*
X132060735Y-123704762D02*
X132060735Y-123438096D01*
X132060735Y-123438096D02*
X132098830Y-123361905D01*
X132098830Y-123361905D02*
X132136925Y-123323810D01*
X132136925Y-123323810D02*
X132213116Y-123285715D01*
X132213116Y-123285715D02*
X132289306Y-123285715D01*
X132289306Y-123285715D02*
X132365497Y-123323810D01*
X132365497Y-123323810D02*
X132403592Y-123361905D01*
X132403592Y-123361905D02*
X132441687Y-123438096D01*
X132441687Y-123438096D02*
X132441687Y-123704762D01*
X132441687Y-122295238D02*
X132441687Y-122028572D01*
X132860735Y-121914286D02*
X132860735Y-122295238D01*
X132860735Y-122295238D02*
X132060735Y-122295238D01*
X132060735Y-122295238D02*
X132060735Y-121914286D01*
X132060735Y-121647619D02*
X132860735Y-121114285D01*
X132060735Y-121114285D02*
X132860735Y-121647619D01*
X132060735Y-120923809D02*
X132060735Y-120466666D01*
X132860735Y-120695238D02*
X132060735Y-120695238D01*
X132441687Y-120199999D02*
X132441687Y-119933333D01*
X132860735Y-119819047D02*
X132860735Y-120199999D01*
X132860735Y-120199999D02*
X132060735Y-120199999D01*
X132060735Y-120199999D02*
X132060735Y-119819047D01*
X132860735Y-119476189D02*
X132060735Y-119476189D01*
X132060735Y-119476189D02*
X132860735Y-119019046D01*
X132860735Y-119019046D02*
X132060735Y-119019046D01*
X132860735Y-118638094D02*
X132060735Y-118638094D01*
X132060735Y-118638094D02*
X132060735Y-118447618D01*
X132060735Y-118447618D02*
X132098830Y-118333332D01*
X132098830Y-118333332D02*
X132175020Y-118257142D01*
X132175020Y-118257142D02*
X132251211Y-118219047D01*
X132251211Y-118219047D02*
X132403592Y-118180951D01*
X132403592Y-118180951D02*
X132517878Y-118180951D01*
X132517878Y-118180951D02*
X132670259Y-118219047D01*
X132670259Y-118219047D02*
X132746449Y-118257142D01*
X132746449Y-118257142D02*
X132822640Y-118333332D01*
X132822640Y-118333332D02*
X132860735Y-118447618D01*
X132860735Y-118447618D02*
X132860735Y-118638094D01*
X132441687Y-117838094D02*
X132441687Y-117571428D01*
X132860735Y-117457142D02*
X132860735Y-117838094D01*
X132860735Y-117838094D02*
X132060735Y-117838094D01*
X132060735Y-117838094D02*
X132060735Y-117457142D01*
X132860735Y-117114284D02*
X132060735Y-117114284D01*
X132060735Y-117114284D02*
X132060735Y-116923808D01*
X132060735Y-116923808D02*
X132098830Y-116809522D01*
X132098830Y-116809522D02*
X132175020Y-116733332D01*
X132175020Y-116733332D02*
X132251211Y-116695237D01*
X132251211Y-116695237D02*
X132403592Y-116657141D01*
X132403592Y-116657141D02*
X132517878Y-116657141D01*
X132517878Y-116657141D02*
X132670259Y-116695237D01*
X132670259Y-116695237D02*
X132746449Y-116733332D01*
X132746449Y-116733332D02*
X132822640Y-116809522D01*
X132822640Y-116809522D02*
X132860735Y-116923808D01*
X132860735Y-116923808D02*
X132860735Y-117114284D01*
X132860735Y-115704760D02*
X132060735Y-115704760D01*
X132060735Y-115704760D02*
X132060735Y-115399998D01*
X132060735Y-115399998D02*
X132098830Y-115323808D01*
X132098830Y-115323808D02*
X132136925Y-115285713D01*
X132136925Y-115285713D02*
X132213116Y-115247617D01*
X132213116Y-115247617D02*
X132327401Y-115247617D01*
X132327401Y-115247617D02*
X132403592Y-115285713D01*
X132403592Y-115285713D02*
X132441687Y-115323808D01*
X132441687Y-115323808D02*
X132479782Y-115399998D01*
X132479782Y-115399998D02*
X132479782Y-115704760D01*
X132860735Y-114904760D02*
X132060735Y-114904760D01*
X132860735Y-114523808D02*
X132060735Y-114523808D01*
X132060735Y-114523808D02*
X132860735Y-114066665D01*
X132860735Y-114066665D02*
X132060735Y-114066665D01*
X132822640Y-113723809D02*
X132860735Y-113609523D01*
X132860735Y-113609523D02*
X132860735Y-113419047D01*
X132860735Y-113419047D02*
X132822640Y-113342856D01*
X132822640Y-113342856D02*
X132784544Y-113304761D01*
X132784544Y-113304761D02*
X132708354Y-113266666D01*
X132708354Y-113266666D02*
X132632163Y-113266666D01*
X132632163Y-113266666D02*
X132555973Y-113304761D01*
X132555973Y-113304761D02*
X132517878Y-113342856D01*
X132517878Y-113342856D02*
X132479782Y-113419047D01*
X132479782Y-113419047D02*
X132441687Y-113571428D01*
X132441687Y-113571428D02*
X132403592Y-113647618D01*
X132403592Y-113647618D02*
X132365497Y-113685713D01*
X132365497Y-113685713D02*
X132289306Y-113723809D01*
X132289306Y-113723809D02*
X132213116Y-113723809D01*
X132213116Y-113723809D02*
X132136925Y-113685713D01*
X132136925Y-113685713D02*
X132098830Y-113647618D01*
X132098830Y-113647618D02*
X132060735Y-113571428D01*
X132060735Y-113571428D02*
X132060735Y-113380951D01*
X132060735Y-113380951D02*
X132098830Y-113266666D01*
X132860735Y-111895237D02*
X132860735Y-112352380D01*
X132860735Y-112123808D02*
X132060735Y-112123808D01*
X132060735Y-112123808D02*
X132175020Y-112199999D01*
X132175020Y-112199999D02*
X132251211Y-112276189D01*
X132251211Y-112276189D02*
X132289306Y-112352380D01*
X132441687Y-111552379D02*
X132441687Y-110942856D01*
X132670259Y-110942856D02*
X132670259Y-111552379D01*
X132632163Y-110599999D02*
X132632163Y-110219046D01*
X132860735Y-110676189D02*
X132060735Y-110409522D01*
X132060735Y-110409522D02*
X132860735Y-110142856D01*
X132860735Y-109457142D02*
X132860735Y-109914285D01*
X132860735Y-109685713D02*
X132060735Y-109685713D01*
X132060735Y-109685713D02*
X132175020Y-109761904D01*
X132175020Y-109761904D02*
X132251211Y-109838094D01*
X132251211Y-109838094D02*
X132289306Y-109914285D01*
X132060735Y-146866666D02*
X132860735Y-146599999D01*
X132860735Y-146599999D02*
X132060735Y-146333333D01*
X132441687Y-145800000D02*
X132479782Y-145685714D01*
X132479782Y-145685714D02*
X132517878Y-145647619D01*
X132517878Y-145647619D02*
X132594068Y-145609523D01*
X132594068Y-145609523D02*
X132708354Y-145609523D01*
X132708354Y-145609523D02*
X132784544Y-145647619D01*
X132784544Y-145647619D02*
X132822640Y-145685714D01*
X132822640Y-145685714D02*
X132860735Y-145761904D01*
X132860735Y-145761904D02*
X132860735Y-146066666D01*
X132860735Y-146066666D02*
X132060735Y-146066666D01*
X132060735Y-146066666D02*
X132060735Y-145800000D01*
X132060735Y-145800000D02*
X132098830Y-145723809D01*
X132098830Y-145723809D02*
X132136925Y-145685714D01*
X132136925Y-145685714D02*
X132213116Y-145647619D01*
X132213116Y-145647619D02*
X132289306Y-145647619D01*
X132289306Y-145647619D02*
X132365497Y-145685714D01*
X132365497Y-145685714D02*
X132403592Y-145723809D01*
X132403592Y-145723809D02*
X132441687Y-145800000D01*
X132441687Y-145800000D02*
X132441687Y-146066666D01*
X132632163Y-145304762D02*
X132632163Y-144923809D01*
X132860735Y-145380952D02*
X132060735Y-145114285D01*
X132060735Y-145114285D02*
X132860735Y-144847619D01*
X132060735Y-144695238D02*
X132060735Y-144238095D01*
X132860735Y-144466667D02*
X132060735Y-144466667D01*
X132060735Y-144085714D02*
X132060735Y-143628571D01*
X132860735Y-143857143D02*
X132060735Y-143857143D01*
X132022640Y-142180952D02*
X133051211Y-142866666D01*
X132098830Y-140885714D02*
X132060735Y-140961904D01*
X132060735Y-140961904D02*
X132060735Y-141076190D01*
X132060735Y-141076190D02*
X132098830Y-141190476D01*
X132098830Y-141190476D02*
X132175020Y-141266666D01*
X132175020Y-141266666D02*
X132251211Y-141304761D01*
X132251211Y-141304761D02*
X132403592Y-141342857D01*
X132403592Y-141342857D02*
X132517878Y-141342857D01*
X132517878Y-141342857D02*
X132670259Y-141304761D01*
X132670259Y-141304761D02*
X132746449Y-141266666D01*
X132746449Y-141266666D02*
X132822640Y-141190476D01*
X132822640Y-141190476D02*
X132860735Y-141076190D01*
X132860735Y-141076190D02*
X132860735Y-140999999D01*
X132860735Y-140999999D02*
X132822640Y-140885714D01*
X132822640Y-140885714D02*
X132784544Y-140847618D01*
X132784544Y-140847618D02*
X132517878Y-140847618D01*
X132517878Y-140847618D02*
X132517878Y-140999999D01*
X132860735Y-140504761D02*
X132060735Y-140504761D01*
X132060735Y-140504761D02*
X132860735Y-140047618D01*
X132860735Y-140047618D02*
X132060735Y-140047618D01*
X132860735Y-139666666D02*
X132060735Y-139666666D01*
X132060735Y-139666666D02*
X132060735Y-139476190D01*
X132060735Y-139476190D02*
X132098830Y-139361904D01*
X132098830Y-139361904D02*
X132175020Y-139285714D01*
X132175020Y-139285714D02*
X132251211Y-139247619D01*
X132251211Y-139247619D02*
X132403592Y-139209523D01*
X132403592Y-139209523D02*
X132517878Y-139209523D01*
X132517878Y-139209523D02*
X132670259Y-139247619D01*
X132670259Y-139247619D02*
X132746449Y-139285714D01*
X132746449Y-139285714D02*
X132822640Y-139361904D01*
X132822640Y-139361904D02*
X132860735Y-139476190D01*
X132860735Y-139476190D02*
X132860735Y-139666666D01*
X132060735Y-159428570D02*
X132060735Y-159276189D01*
X132060735Y-159276189D02*
X132098830Y-159199999D01*
X132098830Y-159199999D02*
X132175020Y-159123808D01*
X132175020Y-159123808D02*
X132327401Y-159085713D01*
X132327401Y-159085713D02*
X132594068Y-159085713D01*
X132594068Y-159085713D02*
X132746449Y-159123808D01*
X132746449Y-159123808D02*
X132822640Y-159199999D01*
X132822640Y-159199999D02*
X132860735Y-159276189D01*
X132860735Y-159276189D02*
X132860735Y-159428570D01*
X132860735Y-159428570D02*
X132822640Y-159504761D01*
X132822640Y-159504761D02*
X132746449Y-159580951D01*
X132746449Y-159580951D02*
X132594068Y-159619047D01*
X132594068Y-159619047D02*
X132327401Y-159619047D01*
X132327401Y-159619047D02*
X132175020Y-159580951D01*
X132175020Y-159580951D02*
X132098830Y-159504761D01*
X132098830Y-159504761D02*
X132060735Y-159428570D01*
X132060735Y-158742856D02*
X132708354Y-158742856D01*
X132708354Y-158742856D02*
X132784544Y-158704761D01*
X132784544Y-158704761D02*
X132822640Y-158666666D01*
X132822640Y-158666666D02*
X132860735Y-158590475D01*
X132860735Y-158590475D02*
X132860735Y-158438094D01*
X132860735Y-158438094D02*
X132822640Y-158361904D01*
X132822640Y-158361904D02*
X132784544Y-158323809D01*
X132784544Y-158323809D02*
X132708354Y-158285713D01*
X132708354Y-158285713D02*
X132060735Y-158285713D01*
X132060735Y-158019047D02*
X132060735Y-157561904D01*
X132860735Y-157790476D02*
X132060735Y-157790476D01*
X132860735Y-156876190D02*
X132860735Y-157333333D01*
X132860735Y-157104761D02*
X132060735Y-157104761D01*
X132060735Y-157104761D02*
X132175020Y-157180952D01*
X132175020Y-157180952D02*
X132251211Y-157257142D01*
X132251211Y-157257142D02*
X132289306Y-157333333D01*
X132022640Y-155352380D02*
X133051211Y-156038094D01*
X132098830Y-154057142D02*
X132060735Y-154133332D01*
X132060735Y-154133332D02*
X132060735Y-154247618D01*
X132060735Y-154247618D02*
X132098830Y-154361904D01*
X132098830Y-154361904D02*
X132175020Y-154438094D01*
X132175020Y-154438094D02*
X132251211Y-154476189D01*
X132251211Y-154476189D02*
X132403592Y-154514285D01*
X132403592Y-154514285D02*
X132517878Y-154514285D01*
X132517878Y-154514285D02*
X132670259Y-154476189D01*
X132670259Y-154476189D02*
X132746449Y-154438094D01*
X132746449Y-154438094D02*
X132822640Y-154361904D01*
X132822640Y-154361904D02*
X132860735Y-154247618D01*
X132860735Y-154247618D02*
X132860735Y-154171427D01*
X132860735Y-154171427D02*
X132822640Y-154057142D01*
X132822640Y-154057142D02*
X132784544Y-154019046D01*
X132784544Y-154019046D02*
X132517878Y-154019046D01*
X132517878Y-154019046D02*
X132517878Y-154171427D01*
X132860735Y-153676189D02*
X132060735Y-153676189D01*
X132060735Y-153676189D02*
X132860735Y-153219046D01*
X132860735Y-153219046D02*
X132060735Y-153219046D01*
X132860735Y-152838094D02*
X132060735Y-152838094D01*
X132060735Y-152838094D02*
X132060735Y-152647618D01*
X132060735Y-152647618D02*
X132098830Y-152533332D01*
X132098830Y-152533332D02*
X132175020Y-152457142D01*
X132175020Y-152457142D02*
X132251211Y-152419047D01*
X132251211Y-152419047D02*
X132403592Y-152380951D01*
X132403592Y-152380951D02*
X132517878Y-152380951D01*
X132517878Y-152380951D02*
X132670259Y-152419047D01*
X132670259Y-152419047D02*
X132746449Y-152457142D01*
X132746449Y-152457142D02*
X132822640Y-152533332D01*
X132822640Y-152533332D02*
X132860735Y-152647618D01*
X132860735Y-152647618D02*
X132860735Y-152838094D01*
X118557142Y-99406997D02*
X118557142Y-98806997D01*
X118557142Y-98892711D02*
X118599999Y-98849854D01*
X118599999Y-98849854D02*
X118685714Y-98806997D01*
X118685714Y-98806997D02*
X118814285Y-98806997D01*
X118814285Y-98806997D02*
X118899999Y-98849854D01*
X118899999Y-98849854D02*
X118942857Y-98935568D01*
X118942857Y-98935568D02*
X118942857Y-99406997D01*
X118942857Y-98935568D02*
X118985714Y-98849854D01*
X118985714Y-98849854D02*
X119071428Y-98806997D01*
X119071428Y-98806997D02*
X119199999Y-98806997D01*
X119199999Y-98806997D02*
X119285714Y-98849854D01*
X119285714Y-98849854D02*
X119328571Y-98935568D01*
X119328571Y-98935568D02*
X119328571Y-99406997D01*
X119757142Y-99406997D02*
X119757142Y-98806997D01*
X119757142Y-98506997D02*
X119714285Y-98549854D01*
X119714285Y-98549854D02*
X119757142Y-98592711D01*
X119757142Y-98592711D02*
X119799999Y-98549854D01*
X119799999Y-98549854D02*
X119757142Y-98506997D01*
X119757142Y-98506997D02*
X119757142Y-98592711D01*
X120571428Y-99364140D02*
X120485713Y-99406997D01*
X120485713Y-99406997D02*
X120314285Y-99406997D01*
X120314285Y-99406997D02*
X120228570Y-99364140D01*
X120228570Y-99364140D02*
X120185713Y-99321282D01*
X120185713Y-99321282D02*
X120142856Y-99235568D01*
X120142856Y-99235568D02*
X120142856Y-98978425D01*
X120142856Y-98978425D02*
X120185713Y-98892711D01*
X120185713Y-98892711D02*
X120228570Y-98849854D01*
X120228570Y-98849854D02*
X120314285Y-98806997D01*
X120314285Y-98806997D02*
X120485713Y-98806997D01*
X120485713Y-98806997D02*
X120571428Y-98849854D01*
X120957142Y-99406997D02*
X120957142Y-98806997D01*
X120957142Y-98978425D02*
X120999999Y-98892711D01*
X120999999Y-98892711D02*
X121042857Y-98849854D01*
X121042857Y-98849854D02*
X121128571Y-98806997D01*
X121128571Y-98806997D02*
X121214285Y-98806997D01*
X121642857Y-99406997D02*
X121557142Y-99364140D01*
X121557142Y-99364140D02*
X121514285Y-99321282D01*
X121514285Y-99321282D02*
X121471428Y-99235568D01*
X121471428Y-99235568D02*
X121471428Y-98978425D01*
X121471428Y-98978425D02*
X121514285Y-98892711D01*
X121514285Y-98892711D02*
X121557142Y-98849854D01*
X121557142Y-98849854D02*
X121642857Y-98806997D01*
X121642857Y-98806997D02*
X121771428Y-98806997D01*
X121771428Y-98806997D02*
X121857142Y-98849854D01*
X121857142Y-98849854D02*
X121900000Y-98892711D01*
X121900000Y-98892711D02*
X121942857Y-98978425D01*
X121942857Y-98978425D02*
X121942857Y-99235568D01*
X121942857Y-99235568D02*
X121900000Y-99321282D01*
X121900000Y-99321282D02*
X121857142Y-99364140D01*
X121857142Y-99364140D02*
X121771428Y-99406997D01*
X121771428Y-99406997D02*
X121642857Y-99406997D01*
X122285714Y-99364140D02*
X122414286Y-99406997D01*
X122414286Y-99406997D02*
X122628571Y-99406997D01*
X122628571Y-99406997D02*
X122714286Y-99364140D01*
X122714286Y-99364140D02*
X122757143Y-99321282D01*
X122757143Y-99321282D02*
X122800000Y-99235568D01*
X122800000Y-99235568D02*
X122800000Y-99149854D01*
X122800000Y-99149854D02*
X122757143Y-99064140D01*
X122757143Y-99064140D02*
X122714286Y-99021282D01*
X122714286Y-99021282D02*
X122628571Y-98978425D01*
X122628571Y-98978425D02*
X122457143Y-98935568D01*
X122457143Y-98935568D02*
X122371428Y-98892711D01*
X122371428Y-98892711D02*
X122328571Y-98849854D01*
X122328571Y-98849854D02*
X122285714Y-98764140D01*
X122285714Y-98764140D02*
X122285714Y-98678425D01*
X122285714Y-98678425D02*
X122328571Y-98592711D01*
X122328571Y-98592711D02*
X122371428Y-98549854D01*
X122371428Y-98549854D02*
X122457143Y-98506997D01*
X122457143Y-98506997D02*
X122671428Y-98506997D01*
X122671428Y-98506997D02*
X122800000Y-98549854D01*
X123185714Y-99406997D02*
X123185714Y-98506997D01*
X123185714Y-98506997D02*
X123400000Y-98506997D01*
X123400000Y-98506997D02*
X123528571Y-98549854D01*
X123528571Y-98549854D02*
X123614286Y-98635568D01*
X123614286Y-98635568D02*
X123657143Y-98721282D01*
X123657143Y-98721282D02*
X123700000Y-98892711D01*
X123700000Y-98892711D02*
X123700000Y-99021282D01*
X123700000Y-99021282D02*
X123657143Y-99192711D01*
X123657143Y-99192711D02*
X123614286Y-99278425D01*
X123614286Y-99278425D02*
X123528571Y-99364140D01*
X123528571Y-99364140D02*
X123400000Y-99406997D01*
X123400000Y-99406997D02*
X123185714Y-99406997D01*
X124728571Y-99149854D02*
X125157143Y-99149854D01*
X124642857Y-99406997D02*
X124942857Y-98506997D01*
X124942857Y-98506997D02*
X125242857Y-99406997D01*
X126057143Y-99321282D02*
X126014286Y-99364140D01*
X126014286Y-99364140D02*
X125885714Y-99406997D01*
X125885714Y-99406997D02*
X125800000Y-99406997D01*
X125800000Y-99406997D02*
X125671429Y-99364140D01*
X125671429Y-99364140D02*
X125585714Y-99278425D01*
X125585714Y-99278425D02*
X125542857Y-99192711D01*
X125542857Y-99192711D02*
X125500000Y-99021282D01*
X125500000Y-99021282D02*
X125500000Y-98892711D01*
X125500000Y-98892711D02*
X125542857Y-98721282D01*
X125542857Y-98721282D02*
X125585714Y-98635568D01*
X125585714Y-98635568D02*
X125671429Y-98549854D01*
X125671429Y-98549854D02*
X125800000Y-98506997D01*
X125800000Y-98506997D02*
X125885714Y-98506997D01*
X125885714Y-98506997D02*
X126014286Y-98549854D01*
X126014286Y-98549854D02*
X126057143Y-98592711D01*
X126957143Y-99321282D02*
X126914286Y-99364140D01*
X126914286Y-99364140D02*
X126785714Y-99406997D01*
X126785714Y-99406997D02*
X126700000Y-99406997D01*
X126700000Y-99406997D02*
X126571429Y-99364140D01*
X126571429Y-99364140D02*
X126485714Y-99278425D01*
X126485714Y-99278425D02*
X126442857Y-99192711D01*
X126442857Y-99192711D02*
X126400000Y-99021282D01*
X126400000Y-99021282D02*
X126400000Y-98892711D01*
X126400000Y-98892711D02*
X126442857Y-98721282D01*
X126442857Y-98721282D02*
X126485714Y-98635568D01*
X126485714Y-98635568D02*
X126571429Y-98549854D01*
X126571429Y-98549854D02*
X126700000Y-98506997D01*
X126700000Y-98506997D02*
X126785714Y-98506997D01*
X126785714Y-98506997D02*
X126914286Y-98549854D01*
X126914286Y-98549854D02*
X126957143Y-98592711D01*
X127342857Y-98935568D02*
X127642857Y-98935568D01*
X127771429Y-99406997D02*
X127342857Y-99406997D01*
X127342857Y-99406997D02*
X127342857Y-98506997D01*
X127342857Y-98506997D02*
X127771429Y-98506997D01*
X128114286Y-99364140D02*
X128242858Y-99406997D01*
X128242858Y-99406997D02*
X128457143Y-99406997D01*
X128457143Y-99406997D02*
X128542858Y-99364140D01*
X128542858Y-99364140D02*
X128585715Y-99321282D01*
X128585715Y-99321282D02*
X128628572Y-99235568D01*
X128628572Y-99235568D02*
X128628572Y-99149854D01*
X128628572Y-99149854D02*
X128585715Y-99064140D01*
X128585715Y-99064140D02*
X128542858Y-99021282D01*
X128542858Y-99021282D02*
X128457143Y-98978425D01*
X128457143Y-98978425D02*
X128285715Y-98935568D01*
X128285715Y-98935568D02*
X128200000Y-98892711D01*
X128200000Y-98892711D02*
X128157143Y-98849854D01*
X128157143Y-98849854D02*
X128114286Y-98764140D01*
X128114286Y-98764140D02*
X128114286Y-98678425D01*
X128114286Y-98678425D02*
X128157143Y-98592711D01*
X128157143Y-98592711D02*
X128200000Y-98549854D01*
X128200000Y-98549854D02*
X128285715Y-98506997D01*
X128285715Y-98506997D02*
X128500000Y-98506997D01*
X128500000Y-98506997D02*
X128628572Y-98549854D01*
X128971429Y-99364140D02*
X129100001Y-99406997D01*
X129100001Y-99406997D02*
X129314286Y-99406997D01*
X129314286Y-99406997D02*
X129400001Y-99364140D01*
X129400001Y-99364140D02*
X129442858Y-99321282D01*
X129442858Y-99321282D02*
X129485715Y-99235568D01*
X129485715Y-99235568D02*
X129485715Y-99149854D01*
X129485715Y-99149854D02*
X129442858Y-99064140D01*
X129442858Y-99064140D02*
X129400001Y-99021282D01*
X129400001Y-99021282D02*
X129314286Y-98978425D01*
X129314286Y-98978425D02*
X129142858Y-98935568D01*
X129142858Y-98935568D02*
X129057143Y-98892711D01*
X129057143Y-98892711D02*
X129014286Y-98849854D01*
X129014286Y-98849854D02*
X128971429Y-98764140D01*
X128971429Y-98764140D02*
X128971429Y-98678425D01*
X128971429Y-98678425D02*
X129014286Y-98592711D01*
X129014286Y-98592711D02*
X129057143Y-98549854D01*
X129057143Y-98549854D02*
X129142858Y-98506997D01*
X129142858Y-98506997D02*
X129357143Y-98506997D01*
X129357143Y-98506997D02*
X129485715Y-98549854D01*
X122308332Y-123658699D02*
X122760713Y-123658699D01*
X122217856Y-123930128D02*
X122534522Y-122980128D01*
X122534522Y-122980128D02*
X122851189Y-123930128D01*
X123710713Y-123839651D02*
X123665475Y-123884890D01*
X123665475Y-123884890D02*
X123529761Y-123930128D01*
X123529761Y-123930128D02*
X123439285Y-123930128D01*
X123439285Y-123930128D02*
X123303570Y-123884890D01*
X123303570Y-123884890D02*
X123213094Y-123794413D01*
X123213094Y-123794413D02*
X123167856Y-123703937D01*
X123167856Y-123703937D02*
X123122618Y-123522985D01*
X123122618Y-123522985D02*
X123122618Y-123387270D01*
X123122618Y-123387270D02*
X123167856Y-123206318D01*
X123167856Y-123206318D02*
X123213094Y-123115842D01*
X123213094Y-123115842D02*
X123303570Y-123025366D01*
X123303570Y-123025366D02*
X123439285Y-122980128D01*
X123439285Y-122980128D02*
X123529761Y-122980128D01*
X123529761Y-122980128D02*
X123665475Y-123025366D01*
X123665475Y-123025366D02*
X123710713Y-123070604D01*
X123982142Y-122980128D02*
X124524999Y-122980128D01*
X124253570Y-123930128D02*
X124253570Y-122980128D01*
X124841666Y-123930128D02*
X124841666Y-122980128D01*
X125158333Y-122980128D02*
X125474999Y-123930128D01*
X125474999Y-123930128D02*
X125791666Y-122980128D01*
X126108333Y-123930128D02*
X126108333Y-122980128D01*
X126425000Y-122980128D02*
X126967857Y-122980128D01*
X126696428Y-123930128D02*
X126696428Y-122980128D01*
X127465476Y-123477747D02*
X127465476Y-123930128D01*
X127148810Y-122980128D02*
X127465476Y-123477747D01*
X127465476Y-123477747D02*
X127782143Y-122980128D01*
X122547618Y-129453259D02*
X122071428Y-129453259D01*
X122071428Y-129453259D02*
X122071428Y-128453259D01*
X123071428Y-128453259D02*
X123261904Y-128453259D01*
X123261904Y-128453259D02*
X123357142Y-128500878D01*
X123357142Y-128500878D02*
X123452380Y-128596116D01*
X123452380Y-128596116D02*
X123499999Y-128786592D01*
X123499999Y-128786592D02*
X123499999Y-129119925D01*
X123499999Y-129119925D02*
X123452380Y-129310401D01*
X123452380Y-129310401D02*
X123357142Y-129405640D01*
X123357142Y-129405640D02*
X123261904Y-129453259D01*
X123261904Y-129453259D02*
X123071428Y-129453259D01*
X123071428Y-129453259D02*
X122976190Y-129405640D01*
X122976190Y-129405640D02*
X122880952Y-129310401D01*
X122880952Y-129310401D02*
X122833333Y-129119925D01*
X122833333Y-129119925D02*
X122833333Y-128786592D01*
X122833333Y-128786592D02*
X122880952Y-128596116D01*
X122880952Y-128596116D02*
X122976190Y-128500878D01*
X122976190Y-128500878D02*
X123071428Y-128453259D01*
X124452380Y-128500878D02*
X124357142Y-128453259D01*
X124357142Y-128453259D02*
X124214285Y-128453259D01*
X124214285Y-128453259D02*
X124071428Y-128500878D01*
X124071428Y-128500878D02*
X123976190Y-128596116D01*
X123976190Y-128596116D02*
X123928571Y-128691354D01*
X123928571Y-128691354D02*
X123880952Y-128881830D01*
X123880952Y-128881830D02*
X123880952Y-129024687D01*
X123880952Y-129024687D02*
X123928571Y-129215163D01*
X123928571Y-129215163D02*
X123976190Y-129310401D01*
X123976190Y-129310401D02*
X124071428Y-129405640D01*
X124071428Y-129405640D02*
X124214285Y-129453259D01*
X124214285Y-129453259D02*
X124309523Y-129453259D01*
X124309523Y-129453259D02*
X124452380Y-129405640D01*
X124452380Y-129405640D02*
X124499999Y-129358020D01*
X124499999Y-129358020D02*
X124499999Y-129024687D01*
X124499999Y-129024687D02*
X124309523Y-129024687D01*
X125452380Y-128500878D02*
X125357142Y-128453259D01*
X125357142Y-128453259D02*
X125214285Y-128453259D01*
X125214285Y-128453259D02*
X125071428Y-128500878D01*
X125071428Y-128500878D02*
X124976190Y-128596116D01*
X124976190Y-128596116D02*
X124928571Y-128691354D01*
X124928571Y-128691354D02*
X124880952Y-128881830D01*
X124880952Y-128881830D02*
X124880952Y-129024687D01*
X124880952Y-129024687D02*
X124928571Y-129215163D01*
X124928571Y-129215163D02*
X124976190Y-129310401D01*
X124976190Y-129310401D02*
X125071428Y-129405640D01*
X125071428Y-129405640D02*
X125214285Y-129453259D01*
X125214285Y-129453259D02*
X125309523Y-129453259D01*
X125309523Y-129453259D02*
X125452380Y-129405640D01*
X125452380Y-129405640D02*
X125499999Y-129358020D01*
X125499999Y-129358020D02*
X125499999Y-129024687D01*
X125499999Y-129024687D02*
X125309523Y-129024687D01*
X125928571Y-128929449D02*
X126261904Y-128929449D01*
X126404761Y-129453259D02*
X125928571Y-129453259D01*
X125928571Y-129453259D02*
X125928571Y-128453259D01*
X125928571Y-128453259D02*
X126404761Y-128453259D01*
X127404761Y-129453259D02*
X127071428Y-128977068D01*
X126833333Y-129453259D02*
X126833333Y-128453259D01*
X126833333Y-128453259D02*
X127214285Y-128453259D01*
X127214285Y-128453259D02*
X127309523Y-128500878D01*
X127309523Y-128500878D02*
X127357142Y-128548497D01*
X127357142Y-128548497D02*
X127404761Y-128643735D01*
X127404761Y-128643735D02*
X127404761Y-128786592D01*
X127404761Y-128786592D02*
X127357142Y-128881830D01*
X127357142Y-128881830D02*
X127309523Y-128929449D01*
X127309523Y-128929449D02*
X127214285Y-128977068D01*
X127214285Y-128977068D02*
X126833333Y-128977068D01*
X129071428Y-128453259D02*
X128595238Y-128453259D01*
X128595238Y-128453259D02*
X128547619Y-128929449D01*
X128547619Y-128929449D02*
X128595238Y-128881830D01*
X128595238Y-128881830D02*
X128690476Y-128834211D01*
X128690476Y-128834211D02*
X128928571Y-128834211D01*
X128928571Y-128834211D02*
X129023809Y-128881830D01*
X129023809Y-128881830D02*
X129071428Y-128929449D01*
X129071428Y-128929449D02*
X129119047Y-129024687D01*
X129119047Y-129024687D02*
X129119047Y-129262782D01*
X129119047Y-129262782D02*
X129071428Y-129358020D01*
X129071428Y-129358020D02*
X129023809Y-129405640D01*
X129023809Y-129405640D02*
X128928571Y-129453259D01*
X128928571Y-129453259D02*
X128690476Y-129453259D01*
X128690476Y-129453259D02*
X128595238Y-129405640D01*
X128595238Y-129405640D02*
X128547619Y-129358020D01*
X129404762Y-128453259D02*
X129738095Y-129453259D01*
X129738095Y-129453259D02*
X130071428Y-128453259D01*
X115150000Y-155376390D02*
X115100000Y-155426390D01*
X115100000Y-155426390D02*
X114950000Y-155476390D01*
X114950000Y-155476390D02*
X114850000Y-155476390D01*
X114850000Y-155476390D02*
X114700000Y-155426390D01*
X114700000Y-155426390D02*
X114600000Y-155326390D01*
X114600000Y-155326390D02*
X114550000Y-155226390D01*
X114550000Y-155226390D02*
X114500000Y-155026390D01*
X114500000Y-155026390D02*
X114500000Y-154876390D01*
X114500000Y-154876390D02*
X114550000Y-154676390D01*
X114550000Y-154676390D02*
X114600000Y-154576390D01*
X114600000Y-154576390D02*
X114700000Y-154476390D01*
X114700000Y-154476390D02*
X114850000Y-154426390D01*
X114850000Y-154426390D02*
X114950000Y-154426390D01*
X114950000Y-154426390D02*
X115100000Y-154476390D01*
X115100000Y-154476390D02*
X115150000Y-154526390D01*
X115600000Y-154426390D02*
X115600000Y-155276390D01*
X115600000Y-155276390D02*
X115650000Y-155376390D01*
X115650000Y-155376390D02*
X115700000Y-155426390D01*
X115700000Y-155426390D02*
X115800000Y-155476390D01*
X115800000Y-155476390D02*
X116000000Y-155476390D01*
X116000000Y-155476390D02*
X116100000Y-155426390D01*
X116100000Y-155426390D02*
X116150000Y-155376390D01*
X116150000Y-155376390D02*
X116200000Y-155276390D01*
X116200000Y-155276390D02*
X116200000Y-154426390D01*
X116550000Y-154426390D02*
X117150000Y-154426390D01*
X116850000Y-155476390D02*
X116850000Y-154426390D01*
X117500000Y-155476390D02*
X117500000Y-154426390D01*
X117500000Y-154426390D02*
X117750000Y-154426390D01*
X117750000Y-154426390D02*
X117900000Y-154476390D01*
X117900000Y-154476390D02*
X118000000Y-154576390D01*
X118000000Y-154576390D02*
X118050000Y-154676390D01*
X118050000Y-154676390D02*
X118100000Y-154876390D01*
X118100000Y-154876390D02*
X118100000Y-155026390D01*
X118100000Y-155026390D02*
X118050000Y-155226390D01*
X118050000Y-155226390D02*
X118000000Y-155326390D01*
X118000000Y-155326390D02*
X117900000Y-155426390D01*
X117900000Y-155426390D02*
X117750000Y-155476390D01*
X117750000Y-155476390D02*
X117500000Y-155476390D01*
X118750000Y-154426390D02*
X118950000Y-154426390D01*
X118950000Y-154426390D02*
X119050000Y-154476390D01*
X119050000Y-154476390D02*
X119150000Y-154576390D01*
X119150000Y-154576390D02*
X119200000Y-154776390D01*
X119200000Y-154776390D02*
X119200000Y-155126390D01*
X119200000Y-155126390D02*
X119150000Y-155326390D01*
X119150000Y-155326390D02*
X119050000Y-155426390D01*
X119050000Y-155426390D02*
X118950000Y-155476390D01*
X118950000Y-155476390D02*
X118750000Y-155476390D01*
X118750000Y-155476390D02*
X118650000Y-155426390D01*
X118650000Y-155426390D02*
X118550000Y-155326390D01*
X118550000Y-155326390D02*
X118500000Y-155126390D01*
X118500000Y-155126390D02*
X118500000Y-154776390D01*
X118500000Y-154776390D02*
X118550000Y-154576390D01*
X118550000Y-154576390D02*
X118650000Y-154476390D01*
X118650000Y-154476390D02*
X118750000Y-154426390D01*
X119550000Y-154426390D02*
X119800000Y-155476390D01*
X119800000Y-155476390D02*
X120000000Y-154726390D01*
X120000000Y-154726390D02*
X120200000Y-155476390D01*
X120200000Y-155476390D02*
X120450000Y-154426390D01*
X120850000Y-155476390D02*
X120850000Y-154426390D01*
X120850000Y-154426390D02*
X121450000Y-155476390D01*
X121450000Y-155476390D02*
X121450000Y-154426390D01*
X119250000Y-93318913D02*
X119488095Y-93318913D01*
X119488095Y-93318913D02*
X119607143Y-93378437D01*
X119607143Y-93378437D02*
X119726190Y-93497485D01*
X119726190Y-93497485D02*
X119785714Y-93735580D01*
X119785714Y-93735580D02*
X119785714Y-94152247D01*
X119785714Y-94152247D02*
X119726190Y-94390342D01*
X119726190Y-94390342D02*
X119607143Y-94509390D01*
X119607143Y-94509390D02*
X119488095Y-94568913D01*
X119488095Y-94568913D02*
X119250000Y-94568913D01*
X119250000Y-94568913D02*
X119130952Y-94509390D01*
X119130952Y-94509390D02*
X119011905Y-94390342D01*
X119011905Y-94390342D02*
X118952381Y-94152247D01*
X118952381Y-94152247D02*
X118952381Y-93735580D01*
X118952381Y-93735580D02*
X119011905Y-93497485D01*
X119011905Y-93497485D02*
X119130952Y-93378437D01*
X119130952Y-93378437D02*
X119250000Y-93318913D01*
X120321429Y-94568913D02*
X120321429Y-93318913D01*
X120321429Y-93318913D02*
X120797619Y-93318913D01*
X120797619Y-93318913D02*
X120916667Y-93378437D01*
X120916667Y-93378437D02*
X120976190Y-93437961D01*
X120976190Y-93437961D02*
X121035714Y-93557009D01*
X121035714Y-93557009D02*
X121035714Y-93735580D01*
X121035714Y-93735580D02*
X120976190Y-93854628D01*
X120976190Y-93854628D02*
X120916667Y-93914151D01*
X120916667Y-93914151D02*
X120797619Y-93973675D01*
X120797619Y-93973675D02*
X120321429Y-93973675D01*
X121571429Y-93914151D02*
X121988095Y-93914151D01*
X122166667Y-94568913D02*
X121571429Y-94568913D01*
X121571429Y-94568913D02*
X121571429Y-93318913D01*
X121571429Y-93318913D02*
X122166667Y-93318913D01*
X122702381Y-94568913D02*
X122702381Y-93318913D01*
X122702381Y-93318913D02*
X123416666Y-94568913D01*
X123416666Y-94568913D02*
X123416666Y-93318913D01*
X124607143Y-94568913D02*
X124011905Y-94568913D01*
X124011905Y-94568913D02*
X124011905Y-93318913D01*
X125261905Y-93318913D02*
X125500000Y-93318913D01*
X125500000Y-93318913D02*
X125619048Y-93378437D01*
X125619048Y-93378437D02*
X125738095Y-93497485D01*
X125738095Y-93497485D02*
X125797619Y-93735580D01*
X125797619Y-93735580D02*
X125797619Y-94152247D01*
X125797619Y-94152247D02*
X125738095Y-94390342D01*
X125738095Y-94390342D02*
X125619048Y-94509390D01*
X125619048Y-94509390D02*
X125500000Y-94568913D01*
X125500000Y-94568913D02*
X125261905Y-94568913D01*
X125261905Y-94568913D02*
X125142857Y-94509390D01*
X125142857Y-94509390D02*
X125023810Y-94390342D01*
X125023810Y-94390342D02*
X124964286Y-94152247D01*
X124964286Y-94152247D02*
X124964286Y-93735580D01*
X124964286Y-93735580D02*
X125023810Y-93497485D01*
X125023810Y-93497485D02*
X125142857Y-93378437D01*
X125142857Y-93378437D02*
X125261905Y-93318913D01*
X126988095Y-93378437D02*
X126869048Y-93318913D01*
X126869048Y-93318913D02*
X126690476Y-93318913D01*
X126690476Y-93318913D02*
X126511905Y-93378437D01*
X126511905Y-93378437D02*
X126392857Y-93497485D01*
X126392857Y-93497485D02*
X126333334Y-93616532D01*
X126333334Y-93616532D02*
X126273810Y-93854628D01*
X126273810Y-93854628D02*
X126273810Y-94033199D01*
X126273810Y-94033199D02*
X126333334Y-94271294D01*
X126333334Y-94271294D02*
X126392857Y-94390342D01*
X126392857Y-94390342D02*
X126511905Y-94509390D01*
X126511905Y-94509390D02*
X126690476Y-94568913D01*
X126690476Y-94568913D02*
X126809524Y-94568913D01*
X126809524Y-94568913D02*
X126988095Y-94509390D01*
X126988095Y-94509390D02*
X127047619Y-94449866D01*
X127047619Y-94449866D02*
X127047619Y-94033199D01*
X127047619Y-94033199D02*
X126809524Y-94033199D01*
D11*
X139538094Y-91816833D02*
X139538094Y-92828738D01*
X139538094Y-92828738D02*
X139597617Y-92947786D01*
X139597617Y-92947786D02*
X139657141Y-93007310D01*
X139657141Y-93007310D02*
X139776189Y-93066833D01*
X139776189Y-93066833D02*
X140014284Y-93066833D01*
X140014284Y-93066833D02*
X140133332Y-93007310D01*
X140133332Y-93007310D02*
X140192855Y-92947786D01*
X140192855Y-92947786D02*
X140252379Y-92828738D01*
X140252379Y-92828738D02*
X140252379Y-91816833D01*
X140847618Y-93066833D02*
X140847618Y-91816833D01*
X140847618Y-91816833D02*
X141561903Y-93066833D01*
X141561903Y-93066833D02*
X141561903Y-91816833D01*
X141978570Y-91816833D02*
X142395237Y-93066833D01*
X142395237Y-93066833D02*
X142811903Y-91816833D01*
X143228571Y-92412071D02*
X143645237Y-92412071D01*
X143823809Y-93066833D02*
X143228571Y-93066833D01*
X143228571Y-93066833D02*
X143228571Y-91816833D01*
X143228571Y-91816833D02*
X143823809Y-91816833D01*
X145073808Y-93066833D02*
X144657142Y-92471595D01*
X144359523Y-93066833D02*
X144359523Y-91816833D01*
X144359523Y-91816833D02*
X144835713Y-91816833D01*
X144835713Y-91816833D02*
X144954761Y-91876357D01*
X144954761Y-91876357D02*
X145014284Y-91935881D01*
X145014284Y-91935881D02*
X145073808Y-92054929D01*
X145073808Y-92054929D02*
X145073808Y-92233500D01*
X145073808Y-92233500D02*
X145014284Y-92352548D01*
X145014284Y-92352548D02*
X144954761Y-92412071D01*
X144954761Y-92412071D02*
X144835713Y-92471595D01*
X144835713Y-92471595D02*
X144359523Y-92471595D01*
X145609523Y-93066833D02*
X145609523Y-91816833D01*
X146621427Y-92412071D02*
X146204761Y-92412071D01*
X146204761Y-93066833D02*
X146204761Y-91816833D01*
X146204761Y-91816833D02*
X146799999Y-91816833D01*
X147276190Y-93066833D02*
X147276190Y-91816833D01*
X147871428Y-92412071D02*
X148288094Y-92412071D01*
X148466666Y-93066833D02*
X147871428Y-93066833D01*
X147871428Y-93066833D02*
X147871428Y-91816833D01*
X147871428Y-91816833D02*
X148466666Y-91816833D01*
X149002380Y-93066833D02*
X149002380Y-91816833D01*
X149002380Y-91816833D02*
X149299999Y-91816833D01*
X149299999Y-91816833D02*
X149478570Y-91876357D01*
X149478570Y-91876357D02*
X149597618Y-91995405D01*
X149597618Y-91995405D02*
X149657141Y-92114452D01*
X149657141Y-92114452D02*
X149716665Y-92352548D01*
X149716665Y-92352548D02*
X149716665Y-92531119D01*
X149716665Y-92531119D02*
X149657141Y-92769214D01*
X149657141Y-92769214D02*
X149597618Y-92888262D01*
X149597618Y-92888262D02*
X149478570Y-93007310D01*
X149478570Y-93007310D02*
X149299999Y-93066833D01*
X149299999Y-93066833D02*
X149002380Y-93066833D01*
X151799999Y-93066833D02*
X151204761Y-93066833D01*
X151204761Y-93066833D02*
X151204761Y-91816833D01*
X152216666Y-93066833D02*
X152216666Y-91816833D01*
X153466665Y-91876357D02*
X153347618Y-91816833D01*
X153347618Y-91816833D02*
X153169046Y-91816833D01*
X153169046Y-91816833D02*
X152990475Y-91876357D01*
X152990475Y-91876357D02*
X152871427Y-91995405D01*
X152871427Y-91995405D02*
X152811904Y-92114452D01*
X152811904Y-92114452D02*
X152752380Y-92352548D01*
X152752380Y-92352548D02*
X152752380Y-92531119D01*
X152752380Y-92531119D02*
X152811904Y-92769214D01*
X152811904Y-92769214D02*
X152871427Y-92888262D01*
X152871427Y-92888262D02*
X152990475Y-93007310D01*
X152990475Y-93007310D02*
X153169046Y-93066833D01*
X153169046Y-93066833D02*
X153288094Y-93066833D01*
X153288094Y-93066833D02*
X153466665Y-93007310D01*
X153466665Y-93007310D02*
X153526189Y-92947786D01*
X153526189Y-92947786D02*
X153526189Y-92531119D01*
X153526189Y-92531119D02*
X153288094Y-92531119D01*
X154061904Y-93066833D02*
X154061904Y-91816833D01*
X154061904Y-92412071D02*
X154776189Y-92412071D01*
X154776189Y-93066833D02*
X154776189Y-91816833D01*
X155192856Y-91816833D02*
X155907142Y-91816833D01*
X155549999Y-93066833D02*
X155549999Y-91816833D01*
X156323809Y-93066833D02*
X156323809Y-91816833D01*
X156323809Y-92412071D02*
X157038094Y-92412071D01*
X157038094Y-93066833D02*
X157038094Y-91816833D01*
X157573809Y-92709690D02*
X158169047Y-92709690D01*
X157454761Y-93066833D02*
X157871428Y-91816833D01*
X157871428Y-91816833D02*
X158288094Y-93066833D01*
X159121428Y-92412071D02*
X159300000Y-92471595D01*
X159300000Y-92471595D02*
X159359523Y-92531119D01*
X159359523Y-92531119D02*
X159419047Y-92650167D01*
X159419047Y-92650167D02*
X159419047Y-92828738D01*
X159419047Y-92828738D02*
X159359523Y-92947786D01*
X159359523Y-92947786D02*
X159300000Y-93007310D01*
X159300000Y-93007310D02*
X159180952Y-93066833D01*
X159180952Y-93066833D02*
X158704762Y-93066833D01*
X158704762Y-93066833D02*
X158704762Y-91816833D01*
X158704762Y-91816833D02*
X159121428Y-91816833D01*
X159121428Y-91816833D02*
X159240476Y-91876357D01*
X159240476Y-91876357D02*
X159300000Y-91935881D01*
X159300000Y-91935881D02*
X159359523Y-92054929D01*
X159359523Y-92054929D02*
X159359523Y-92173976D01*
X159359523Y-92173976D02*
X159300000Y-92293024D01*
X159300000Y-92293024D02*
X159240476Y-92352548D01*
X159240476Y-92352548D02*
X159121428Y-92412071D01*
X159121428Y-92412071D02*
X158704762Y-92412071D01*
X161323809Y-92412071D02*
X160907143Y-92412071D01*
X160907143Y-93066833D02*
X160907143Y-91816833D01*
X160907143Y-91816833D02*
X161502381Y-91816833D01*
X161978572Y-93066833D02*
X161978572Y-91816833D01*
X162395238Y-91816833D02*
X163109524Y-91816833D01*
X162752381Y-93066833D02*
X162752381Y-91816833D01*
X164478572Y-92590643D02*
X165430953Y-92590643D01*
X166978572Y-93066833D02*
X166978572Y-91816833D01*
X166978572Y-91816833D02*
X167276191Y-91816833D01*
X167276191Y-91816833D02*
X167454762Y-91876357D01*
X167454762Y-91876357D02*
X167573810Y-91995405D01*
X167573810Y-91995405D02*
X167633333Y-92114452D01*
X167633333Y-92114452D02*
X167692857Y-92352548D01*
X167692857Y-92352548D02*
X167692857Y-92531119D01*
X167692857Y-92531119D02*
X167633333Y-92769214D01*
X167633333Y-92769214D02*
X167573810Y-92888262D01*
X167573810Y-92888262D02*
X167454762Y-93007310D01*
X167454762Y-93007310D02*
X167276191Y-93066833D01*
X167276191Y-93066833D02*
X166978572Y-93066833D01*
X168466667Y-91816833D02*
X168704762Y-91816833D01*
X168704762Y-91816833D02*
X168823810Y-91876357D01*
X168823810Y-91876357D02*
X168942857Y-91995405D01*
X168942857Y-91995405D02*
X169002381Y-92233500D01*
X169002381Y-92233500D02*
X169002381Y-92650167D01*
X169002381Y-92650167D02*
X168942857Y-92888262D01*
X168942857Y-92888262D02*
X168823810Y-93007310D01*
X168823810Y-93007310D02*
X168704762Y-93066833D01*
X168704762Y-93066833D02*
X168466667Y-93066833D01*
X168466667Y-93066833D02*
X168347619Y-93007310D01*
X168347619Y-93007310D02*
X168228572Y-92888262D01*
X168228572Y-92888262D02*
X168169048Y-92650167D01*
X168169048Y-92650167D02*
X168169048Y-92233500D01*
X168169048Y-92233500D02*
X168228572Y-91995405D01*
X168228572Y-91995405D02*
X168347619Y-91876357D01*
X168347619Y-91876357D02*
X168466667Y-91816833D01*
X170490477Y-93066833D02*
X170490477Y-91816833D01*
X170490477Y-91816833D02*
X171204762Y-93066833D01*
X171204762Y-93066833D02*
X171204762Y-91816833D01*
X172038096Y-91816833D02*
X172276191Y-91816833D01*
X172276191Y-91816833D02*
X172395239Y-91876357D01*
X172395239Y-91876357D02*
X172514286Y-91995405D01*
X172514286Y-91995405D02*
X172573810Y-92233500D01*
X172573810Y-92233500D02*
X172573810Y-92650167D01*
X172573810Y-92650167D02*
X172514286Y-92888262D01*
X172514286Y-92888262D02*
X172395239Y-93007310D01*
X172395239Y-93007310D02*
X172276191Y-93066833D01*
X172276191Y-93066833D02*
X172038096Y-93066833D01*
X172038096Y-93066833D02*
X171919048Y-93007310D01*
X171919048Y-93007310D02*
X171800001Y-92888262D01*
X171800001Y-92888262D02*
X171740477Y-92650167D01*
X171740477Y-92650167D02*
X171740477Y-92233500D01*
X171740477Y-92233500D02*
X171800001Y-91995405D01*
X171800001Y-91995405D02*
X171919048Y-91876357D01*
X171919048Y-91876357D02*
X172038096Y-91816833D01*
X172930953Y-91816833D02*
X173645239Y-91816833D01*
X173288096Y-93066833D02*
X173288096Y-91816833D01*
X175430953Y-92412071D02*
X175014287Y-92412071D01*
X175014287Y-93066833D02*
X175014287Y-91816833D01*
X175014287Y-91816833D02*
X175609525Y-91816833D01*
X176026192Y-92709690D02*
X176621430Y-92709690D01*
X175907144Y-93066833D02*
X176323811Y-91816833D01*
X176323811Y-91816833D02*
X176740477Y-93066833D01*
X177573811Y-92412071D02*
X177752383Y-92471595D01*
X177752383Y-92471595D02*
X177811906Y-92531119D01*
X177811906Y-92531119D02*
X177871430Y-92650167D01*
X177871430Y-92650167D02*
X177871430Y-92828738D01*
X177871430Y-92828738D02*
X177811906Y-92947786D01*
X177811906Y-92947786D02*
X177752383Y-93007310D01*
X177752383Y-93007310D02*
X177633335Y-93066833D01*
X177633335Y-93066833D02*
X177157145Y-93066833D01*
X177157145Y-93066833D02*
X177157145Y-91816833D01*
X177157145Y-91816833D02*
X177573811Y-91816833D01*
X177573811Y-91816833D02*
X177692859Y-91876357D01*
X177692859Y-91876357D02*
X177752383Y-91935881D01*
X177752383Y-91935881D02*
X177811906Y-92054929D01*
X177811906Y-92054929D02*
X177811906Y-92173976D01*
X177811906Y-92173976D02*
X177752383Y-92293024D01*
X177752383Y-92293024D02*
X177692859Y-92352548D01*
X177692859Y-92352548D02*
X177573811Y-92412071D01*
X177573811Y-92412071D02*
X177157145Y-92412071D01*
X179121430Y-93066833D02*
X178704764Y-92471595D01*
X178407145Y-93066833D02*
X178407145Y-91816833D01*
X178407145Y-91816833D02*
X178883335Y-91816833D01*
X178883335Y-91816833D02*
X179002383Y-91876357D01*
X179002383Y-91876357D02*
X179061906Y-91935881D01*
X179061906Y-91935881D02*
X179121430Y-92054929D01*
X179121430Y-92054929D02*
X179121430Y-92233500D01*
X179121430Y-92233500D02*
X179061906Y-92352548D01*
X179061906Y-92352548D02*
X179002383Y-92412071D01*
X179002383Y-92412071D02*
X178883335Y-92471595D01*
X178883335Y-92471595D02*
X178407145Y-92471595D01*
X179657145Y-93066833D02*
X179657145Y-91816833D01*
X180966668Y-92947786D02*
X180907144Y-93007310D01*
X180907144Y-93007310D02*
X180728573Y-93066833D01*
X180728573Y-93066833D02*
X180609525Y-93066833D01*
X180609525Y-93066833D02*
X180430954Y-93007310D01*
X180430954Y-93007310D02*
X180311906Y-92888262D01*
X180311906Y-92888262D02*
X180252383Y-92769214D01*
X180252383Y-92769214D02*
X180192859Y-92531119D01*
X180192859Y-92531119D02*
X180192859Y-92352548D01*
X180192859Y-92352548D02*
X180252383Y-92114452D01*
X180252383Y-92114452D02*
X180311906Y-91995405D01*
X180311906Y-91995405D02*
X180430954Y-91876357D01*
X180430954Y-91876357D02*
X180609525Y-91816833D01*
X180609525Y-91816833D02*
X180728573Y-91816833D01*
X180728573Y-91816833D02*
X180907144Y-91876357D01*
X180907144Y-91876357D02*
X180966668Y-91935881D01*
X181442859Y-92709690D02*
X182038097Y-92709690D01*
X181323811Y-93066833D02*
X181740478Y-91816833D01*
X181740478Y-91816833D02*
X182157144Y-93066833D01*
X182395240Y-91816833D02*
X183109526Y-91816833D01*
X182752383Y-93066833D02*
X182752383Y-91816833D01*
X183526193Y-92412071D02*
X183942859Y-92412071D01*
X184121431Y-93066833D02*
X183526193Y-93066833D01*
X183526193Y-93066833D02*
X183526193Y-91816833D01*
X183526193Y-91816833D02*
X184121431Y-91816833D01*
%TO.C,R4*%
D12*
X120920000Y-104630000D02*
X120920000Y-104960000D01*
X120920000Y-107370000D02*
X120920000Y-107040000D01*
X127460000Y-104630000D02*
X120920000Y-104630000D01*
X127460000Y-104960000D02*
X127460000Y-104630000D01*
X127460000Y-107040000D02*
X127460000Y-107370000D01*
X127460000Y-107370000D02*
X120920000Y-107370000D01*
%TO.C,G1*%
G36*
X122250000Y-166225000D02*
G01*
X122400000Y-166225000D01*
X122400000Y-166375000D01*
X122250000Y-166375000D01*
X122250000Y-166225000D01*
G37*
G36*
X122250000Y-166375000D02*
G01*
X122550000Y-166375000D01*
X122550000Y-166525000D01*
X122250000Y-166525000D01*
X122250000Y-166375000D01*
G37*
G36*
X122250000Y-167125000D02*
G01*
X123450000Y-167125000D01*
X123450000Y-167275000D01*
X122250000Y-167275000D01*
X122250000Y-167125000D01*
G37*
G36*
X122400000Y-166975000D02*
G01*
X122850000Y-166975000D01*
X122850000Y-167125000D01*
X122400000Y-167125000D01*
X122400000Y-166975000D01*
G37*
G36*
X122400000Y-167275000D02*
G01*
X122850000Y-167275000D01*
X122850000Y-167425000D01*
X122400000Y-167425000D01*
X122400000Y-167275000D01*
G37*
G36*
X122850000Y-166225000D02*
G01*
X123150000Y-166225000D01*
X123150000Y-166375000D01*
X122850000Y-166375000D01*
X122850000Y-166225000D01*
G37*
G36*
X122850000Y-166375000D02*
G01*
X123150000Y-166375000D01*
X123150000Y-166525000D01*
X122850000Y-166525000D01*
X122850000Y-166375000D01*
G37*
G36*
X122850000Y-167725000D02*
G01*
X123000000Y-167725000D01*
X123000000Y-167875000D01*
X122850000Y-167875000D01*
X122850000Y-167725000D01*
G37*
G36*
X123000000Y-160825000D02*
G01*
X123600000Y-160825000D01*
X123600000Y-160975000D01*
X123000000Y-160975000D01*
X123000000Y-160825000D01*
G37*
G36*
X123000000Y-163375000D02*
G01*
X123300000Y-163375000D01*
X123300000Y-163525000D01*
X123000000Y-163525000D01*
X123000000Y-163375000D01*
G37*
G36*
X123000000Y-163525000D02*
G01*
X123450000Y-163525000D01*
X123450000Y-163675000D01*
X123000000Y-163675000D01*
X123000000Y-163525000D01*
G37*
G36*
X123000000Y-163675000D02*
G01*
X123300000Y-163675000D01*
X123300000Y-163825000D01*
X123000000Y-163825000D01*
X123000000Y-163675000D01*
G37*
G36*
X123000000Y-164125000D02*
G01*
X123300000Y-164125000D01*
X123300000Y-164275000D01*
X123000000Y-164275000D01*
X123000000Y-164125000D01*
G37*
G36*
X123000000Y-164275000D02*
G01*
X123300000Y-164275000D01*
X123300000Y-164425000D01*
X123000000Y-164425000D01*
X123000000Y-164275000D01*
G37*
G36*
X123000000Y-164425000D02*
G01*
X123150000Y-164425000D01*
X123150000Y-164575000D01*
X123000000Y-164575000D01*
X123000000Y-164425000D01*
G37*
G36*
X123000000Y-164575000D02*
G01*
X123150000Y-164575000D01*
X123150000Y-164725000D01*
X123000000Y-164725000D01*
X123000000Y-164575000D01*
G37*
G36*
X123000000Y-164725000D02*
G01*
X123150000Y-164725000D01*
X123150000Y-164875000D01*
X123000000Y-164875000D01*
X123000000Y-164725000D01*
G37*
G36*
X123000000Y-165175000D02*
G01*
X123150000Y-165175000D01*
X123150000Y-165325000D01*
X123000000Y-165325000D01*
X123000000Y-165175000D01*
G37*
G36*
X123000000Y-165475000D02*
G01*
X123150000Y-165475000D01*
X123150000Y-165625000D01*
X123000000Y-165625000D01*
X123000000Y-165475000D01*
G37*
G36*
X123000000Y-165775000D02*
G01*
X123150000Y-165775000D01*
X123150000Y-165925000D01*
X123000000Y-165925000D01*
X123000000Y-165775000D01*
G37*
G36*
X123150000Y-160675000D02*
G01*
X123450000Y-160675000D01*
X123450000Y-160825000D01*
X123150000Y-160825000D01*
X123150000Y-160675000D01*
G37*
G36*
X123300000Y-160525000D02*
G01*
X123450000Y-160525000D01*
X123450000Y-160675000D01*
X123300000Y-160675000D01*
X123300000Y-160525000D01*
G37*
G36*
X123300000Y-160975000D02*
G01*
X123450000Y-160975000D01*
X123450000Y-161125000D01*
X123300000Y-161125000D01*
X123300000Y-160975000D01*
G37*
G36*
X123450000Y-167725000D02*
G01*
X123750000Y-167725000D01*
X123750000Y-167875000D01*
X123450000Y-167875000D01*
X123450000Y-167725000D01*
G37*
G36*
X123600000Y-163825000D02*
G01*
X123900000Y-163825000D01*
X123900000Y-163975000D01*
X123600000Y-163975000D01*
X123600000Y-163825000D01*
G37*
G36*
X123600000Y-164575000D02*
G01*
X124350000Y-164575000D01*
X124350000Y-164725000D01*
X123600000Y-164725000D01*
X123600000Y-164575000D01*
G37*
G36*
X123600000Y-164725000D02*
G01*
X124350000Y-164725000D01*
X124350000Y-164875000D01*
X123600000Y-164875000D01*
X123600000Y-164725000D01*
G37*
G36*
X123600000Y-164875000D02*
G01*
X128550000Y-164875000D01*
X128550000Y-165025000D01*
X123600000Y-165025000D01*
X123600000Y-164875000D01*
G37*
G36*
X123600000Y-165025000D02*
G01*
X123900000Y-165025000D01*
X123900000Y-165175000D01*
X123600000Y-165175000D01*
X123600000Y-165025000D01*
G37*
G36*
X123600000Y-165175000D02*
G01*
X123900000Y-165175000D01*
X123900000Y-165325000D01*
X123600000Y-165325000D01*
X123600000Y-165175000D01*
G37*
G36*
X123600000Y-165325000D02*
G01*
X123900000Y-165325000D01*
X123900000Y-165475000D01*
X123600000Y-165475000D01*
X123600000Y-165325000D01*
G37*
G36*
X123600000Y-165475000D02*
G01*
X123900000Y-165475000D01*
X123900000Y-165625000D01*
X123600000Y-165625000D01*
X123600000Y-165475000D01*
G37*
G36*
X123600000Y-165625000D02*
G01*
X123900000Y-165625000D01*
X123900000Y-165775000D01*
X123600000Y-165775000D01*
X123600000Y-165625000D01*
G37*
G36*
X123600000Y-165775000D02*
G01*
X123900000Y-165775000D01*
X123900000Y-165925000D01*
X123600000Y-165925000D01*
X123600000Y-165775000D01*
G37*
G36*
X123600000Y-165925000D02*
G01*
X123900000Y-165925000D01*
X123900000Y-166075000D01*
X123600000Y-166075000D01*
X123600000Y-165925000D01*
G37*
G36*
X123600000Y-166075000D02*
G01*
X123900000Y-166075000D01*
X123900000Y-166225000D01*
X123600000Y-166225000D01*
X123600000Y-166075000D01*
G37*
G36*
X123600000Y-166225000D02*
G01*
X123900000Y-166225000D01*
X123900000Y-166375000D01*
X123600000Y-166375000D01*
X123600000Y-166225000D01*
G37*
G36*
X123600000Y-166375000D02*
G01*
X123900000Y-166375000D01*
X123900000Y-166525000D01*
X123600000Y-166525000D01*
X123600000Y-166375000D01*
G37*
G36*
X123600000Y-166525000D02*
G01*
X123900000Y-166525000D01*
X123900000Y-166675000D01*
X123600000Y-166675000D01*
X123600000Y-166525000D01*
G37*
G36*
X123600000Y-166675000D02*
G01*
X123900000Y-166675000D01*
X123900000Y-166825000D01*
X123600000Y-166825000D01*
X123600000Y-166675000D01*
G37*
G36*
X123600000Y-167575000D02*
G01*
X123750000Y-167575000D01*
X123750000Y-167725000D01*
X123600000Y-167725000D01*
X123600000Y-167575000D01*
G37*
G36*
X123600000Y-168325000D02*
G01*
X128400000Y-168325000D01*
X128400000Y-168475000D01*
X123600000Y-168475000D01*
X123600000Y-168325000D01*
G37*
G36*
X123600000Y-168475000D02*
G01*
X128400000Y-168475000D01*
X128400000Y-168625000D01*
X123600000Y-168625000D01*
X123600000Y-168475000D01*
G37*
G36*
X123750000Y-161875000D02*
G01*
X124350000Y-161875000D01*
X124350000Y-162025000D01*
X123750000Y-162025000D01*
X123750000Y-161875000D01*
G37*
G36*
X123750000Y-162025000D02*
G01*
X124200000Y-162025000D01*
X124200000Y-162175000D01*
X123750000Y-162175000D01*
X123750000Y-162025000D01*
G37*
G36*
X123750000Y-162175000D02*
G01*
X124200000Y-162175000D01*
X124200000Y-162325000D01*
X123750000Y-162325000D01*
X123750000Y-162175000D01*
G37*
G36*
X123750000Y-162325000D02*
G01*
X124200000Y-162325000D01*
X124200000Y-162475000D01*
X123750000Y-162475000D01*
X123750000Y-162325000D01*
G37*
G36*
X123750000Y-162475000D02*
G01*
X125250000Y-162475000D01*
X125250000Y-162625000D01*
X123750000Y-162625000D01*
X123750000Y-162475000D01*
G37*
G36*
X123750000Y-162625000D02*
G01*
X125250000Y-162625000D01*
X125250000Y-162775000D01*
X123750000Y-162775000D01*
X123750000Y-162625000D01*
G37*
G36*
X123750000Y-162775000D02*
G01*
X125250000Y-162775000D01*
X125250000Y-162925000D01*
X123750000Y-162925000D01*
X123750000Y-162775000D01*
G37*
G36*
X123750000Y-164425000D02*
G01*
X125700000Y-164425000D01*
X125700000Y-164575000D01*
X123750000Y-164575000D01*
X123750000Y-164425000D01*
G37*
G36*
X123750000Y-166825000D02*
G01*
X124050000Y-166825000D01*
X124050000Y-166975000D01*
X123750000Y-166975000D01*
X123750000Y-166825000D01*
G37*
G36*
X123750000Y-166975000D02*
G01*
X124200000Y-166975000D01*
X124200000Y-167125000D01*
X123750000Y-167125000D01*
X123750000Y-166975000D01*
G37*
G36*
X123900000Y-161725000D02*
G01*
X124350000Y-161725000D01*
X124350000Y-161875000D01*
X123900000Y-161875000D01*
X123900000Y-161725000D01*
G37*
G36*
X123900000Y-162925000D02*
G01*
X125400000Y-162925000D01*
X125400000Y-163075000D01*
X123900000Y-163075000D01*
X123900000Y-162925000D01*
G37*
G36*
X123900000Y-163075000D02*
G01*
X125700000Y-163075000D01*
X125700000Y-163225000D01*
X123900000Y-163225000D01*
X123900000Y-163075000D01*
G37*
G36*
X123900000Y-167125000D02*
G01*
X124200000Y-167125000D01*
X124200000Y-167275000D01*
X123900000Y-167275000D01*
X123900000Y-167125000D01*
G37*
G36*
X124050000Y-161425000D02*
G01*
X124800000Y-161425000D01*
X124800000Y-161575000D01*
X124050000Y-161575000D01*
X124050000Y-161425000D01*
G37*
G36*
X124050000Y-161575000D02*
G01*
X124500000Y-161575000D01*
X124500000Y-161725000D01*
X124050000Y-161725000D01*
X124050000Y-161575000D01*
G37*
G36*
X124050000Y-163225000D02*
G01*
X126000000Y-163225000D01*
X126000000Y-163375000D01*
X124050000Y-163375000D01*
X124050000Y-163225000D01*
G37*
G36*
X124050000Y-166225000D02*
G01*
X127200000Y-166225000D01*
X127200000Y-166375000D01*
X124050000Y-166375000D01*
X124050000Y-166225000D01*
G37*
G36*
X124050000Y-167275000D02*
G01*
X124350000Y-167275000D01*
X124350000Y-167425000D01*
X124050000Y-167425000D01*
X124050000Y-167275000D01*
G37*
G36*
X124050000Y-167425000D02*
G01*
X124500000Y-167425000D01*
X124500000Y-167575000D01*
X124050000Y-167575000D01*
X124050000Y-167425000D01*
G37*
G36*
X124200000Y-161275000D02*
G01*
X126600000Y-161275000D01*
X126600000Y-161425000D01*
X124200000Y-161425000D01*
X124200000Y-161275000D01*
G37*
G36*
X124200000Y-163375000D02*
G01*
X126150000Y-163375000D01*
X126150000Y-163525000D01*
X124200000Y-163525000D01*
X124200000Y-163375000D01*
G37*
G36*
X124200000Y-166375000D02*
G01*
X127200000Y-166375000D01*
X127200000Y-166525000D01*
X124200000Y-166525000D01*
X124200000Y-166375000D01*
G37*
G36*
X124200000Y-166675000D02*
G01*
X124650000Y-166675000D01*
X124650000Y-166825000D01*
X124200000Y-166825000D01*
X124200000Y-166675000D01*
G37*
G36*
X124200000Y-167575000D02*
G01*
X124500000Y-167575000D01*
X124500000Y-167725000D01*
X124200000Y-167725000D01*
X124200000Y-167575000D01*
G37*
G36*
X124350000Y-162175000D02*
G01*
X125550000Y-162175000D01*
X125550000Y-162325000D01*
X124350000Y-162325000D01*
X124350000Y-162175000D01*
G37*
G36*
X124350000Y-162325000D02*
G01*
X125250000Y-162325000D01*
X125250000Y-162475000D01*
X124350000Y-162475000D01*
X124350000Y-162325000D01*
G37*
G36*
X124350000Y-163525000D02*
G01*
X126300000Y-163525000D01*
X126300000Y-163675000D01*
X124350000Y-163675000D01*
X124350000Y-163525000D01*
G37*
G36*
X124350000Y-164275000D02*
G01*
X125700000Y-164275000D01*
X125700000Y-164425000D01*
X124350000Y-164425000D01*
X124350000Y-164275000D01*
G37*
G36*
X124350000Y-165025000D02*
G01*
X127950000Y-165025000D01*
X127950000Y-165175000D01*
X124350000Y-165175000D01*
X124350000Y-165025000D01*
G37*
G36*
X124350000Y-166825000D02*
G01*
X124650000Y-166825000D01*
X124650000Y-166975000D01*
X124350000Y-166975000D01*
X124350000Y-166825000D01*
G37*
G36*
X124350000Y-167725000D02*
G01*
X124650000Y-167725000D01*
X124650000Y-167875000D01*
X124350000Y-167875000D01*
X124350000Y-167725000D01*
G37*
G36*
X124350000Y-167875000D02*
G01*
X124800000Y-167875000D01*
X124800000Y-168025000D01*
X124350000Y-168025000D01*
X124350000Y-167875000D01*
G37*
G36*
X124500000Y-160225000D02*
G01*
X124800000Y-160225000D01*
X124800000Y-160375000D01*
X124500000Y-160375000D01*
X124500000Y-160225000D01*
G37*
G36*
X124500000Y-160375000D02*
G01*
X124800000Y-160375000D01*
X124800000Y-160525000D01*
X124500000Y-160525000D01*
X124500000Y-160375000D01*
G37*
G36*
X124500000Y-161125000D02*
G01*
X126750000Y-161125000D01*
X126750000Y-161275000D01*
X124500000Y-161275000D01*
X124500000Y-161125000D01*
G37*
G36*
X124500000Y-161875000D02*
G01*
X126600000Y-161875000D01*
X126600000Y-162025000D01*
X124500000Y-162025000D01*
X124500000Y-161875000D01*
G37*
G36*
X124500000Y-162025000D02*
G01*
X126600000Y-162025000D01*
X126600000Y-162175000D01*
X124500000Y-162175000D01*
X124500000Y-162025000D01*
G37*
G36*
X124500000Y-166975000D02*
G01*
X124650000Y-166975000D01*
X124650000Y-167125000D01*
X124500000Y-167125000D01*
X124500000Y-166975000D01*
G37*
G36*
X124500000Y-167125000D02*
G01*
X124650000Y-167125000D01*
X124650000Y-167275000D01*
X124500000Y-167275000D01*
X124500000Y-167125000D01*
G37*
G36*
X124500000Y-168025000D02*
G01*
X124950000Y-168025000D01*
X124950000Y-168175000D01*
X124500000Y-168175000D01*
X124500000Y-168025000D01*
G37*
G36*
X124650000Y-161725000D02*
G01*
X126600000Y-161725000D01*
X126600000Y-161875000D01*
X124650000Y-161875000D01*
X124650000Y-161725000D01*
G37*
G36*
X124650000Y-168175000D02*
G01*
X125100000Y-168175000D01*
X125100000Y-168325000D01*
X124650000Y-168325000D01*
X124650000Y-168175000D01*
G37*
G36*
X124950000Y-158125000D02*
G01*
X125100000Y-158125000D01*
X125100000Y-158275000D01*
X124950000Y-158275000D01*
X124950000Y-158125000D01*
G37*
G36*
X124950000Y-158275000D02*
G01*
X125100000Y-158275000D01*
X125100000Y-158425000D01*
X124950000Y-158425000D01*
X124950000Y-158275000D01*
G37*
G36*
X124950000Y-161425000D02*
G01*
X126600000Y-161425000D01*
X126600000Y-161575000D01*
X124950000Y-161575000D01*
X124950000Y-161425000D01*
G37*
G36*
X124950000Y-161575000D02*
G01*
X126600000Y-161575000D01*
X126600000Y-161725000D01*
X124950000Y-161725000D01*
X124950000Y-161575000D01*
G37*
G36*
X124950000Y-166525000D02*
G01*
X127200000Y-166525000D01*
X127200000Y-166675000D01*
X124950000Y-166675000D01*
X124950000Y-166525000D01*
G37*
G36*
X124950000Y-166675000D02*
G01*
X127200000Y-166675000D01*
X127200000Y-166825000D01*
X124950000Y-166825000D01*
X124950000Y-166675000D01*
G37*
G36*
X124950000Y-166825000D02*
G01*
X127200000Y-166825000D01*
X127200000Y-166975000D01*
X124950000Y-166975000D01*
X124950000Y-166825000D01*
G37*
G36*
X124950000Y-166975000D02*
G01*
X127200000Y-166975000D01*
X127200000Y-167125000D01*
X124950000Y-167125000D01*
X124950000Y-166975000D01*
G37*
G36*
X124950000Y-167125000D02*
G01*
X127200000Y-167125000D01*
X127200000Y-167275000D01*
X124950000Y-167275000D01*
X124950000Y-167125000D01*
G37*
G36*
X124950000Y-167275000D02*
G01*
X127200000Y-167275000D01*
X127200000Y-167425000D01*
X124950000Y-167425000D01*
X124950000Y-167275000D01*
G37*
G36*
X124950000Y-167425000D02*
G01*
X127200000Y-167425000D01*
X127200000Y-167575000D01*
X124950000Y-167575000D01*
X124950000Y-167425000D01*
G37*
G36*
X124950000Y-167575000D02*
G01*
X127050000Y-167575000D01*
X127050000Y-167725000D01*
X124950000Y-167725000D01*
X124950000Y-167575000D01*
G37*
G36*
X124950000Y-167725000D02*
G01*
X127050000Y-167725000D01*
X127050000Y-167875000D01*
X124950000Y-167875000D01*
X124950000Y-167725000D01*
G37*
G36*
X125100000Y-160975000D02*
G01*
X125250000Y-160975000D01*
X125250000Y-161125000D01*
X125100000Y-161125000D01*
X125100000Y-160975000D01*
G37*
G36*
X125100000Y-163675000D02*
G01*
X126450000Y-163675000D01*
X126450000Y-163825000D01*
X125100000Y-163825000D01*
X125100000Y-163675000D01*
G37*
G36*
X125100000Y-167875000D02*
G01*
X126900000Y-167875000D01*
X126900000Y-168025000D01*
X125100000Y-168025000D01*
X125100000Y-167875000D01*
G37*
G36*
X125250000Y-160525000D02*
G01*
X126600000Y-160525000D01*
X126600000Y-160675000D01*
X125250000Y-160675000D01*
X125250000Y-160525000D01*
G37*
G36*
X125250000Y-160675000D02*
G01*
X125850000Y-160675000D01*
X125850000Y-160825000D01*
X125250000Y-160825000D01*
X125250000Y-160675000D01*
G37*
G36*
X125400000Y-160225000D02*
G01*
X126450000Y-160225000D01*
X126450000Y-160375000D01*
X125400000Y-160375000D01*
X125400000Y-160225000D01*
G37*
G36*
X125400000Y-160375000D02*
G01*
X126450000Y-160375000D01*
X126450000Y-160525000D01*
X125400000Y-160525000D01*
X125400000Y-160375000D01*
G37*
G36*
X125400000Y-166075000D02*
G01*
X127200000Y-166075000D01*
X127200000Y-166225000D01*
X125400000Y-166225000D01*
X125400000Y-166075000D01*
G37*
G36*
X125550000Y-160075000D02*
G01*
X126300000Y-160075000D01*
X126300000Y-160225000D01*
X125550000Y-160225000D01*
X125550000Y-160075000D01*
G37*
G36*
X125550000Y-160975000D02*
G01*
X126750000Y-160975000D01*
X126750000Y-161125000D01*
X125550000Y-161125000D01*
X125550000Y-160975000D01*
G37*
G36*
X125550000Y-163825000D02*
G01*
X126450000Y-163825000D01*
X126450000Y-163975000D01*
X125550000Y-163975000D01*
X125550000Y-163825000D01*
G37*
G36*
X125550000Y-168025000D02*
G01*
X125850000Y-168025000D01*
X125850000Y-168175000D01*
X125550000Y-168175000D01*
X125550000Y-168025000D01*
G37*
G36*
X125700000Y-157375000D02*
G01*
X125850000Y-157375000D01*
X125850000Y-157525000D01*
X125700000Y-157525000D01*
X125700000Y-157375000D01*
G37*
G36*
X125700000Y-159925000D02*
G01*
X126150000Y-159925000D01*
X126150000Y-160075000D01*
X125700000Y-160075000D01*
X125700000Y-159925000D01*
G37*
G36*
X125700000Y-162175000D02*
G01*
X127950000Y-162175000D01*
X127950000Y-162325000D01*
X125700000Y-162325000D01*
X125700000Y-162175000D01*
G37*
G36*
X125850000Y-158425000D02*
G01*
X126450000Y-158425000D01*
X126450000Y-158575000D01*
X125850000Y-158575000D01*
X125850000Y-158425000D01*
G37*
G36*
X125850000Y-158575000D02*
G01*
X126300000Y-158575000D01*
X126300000Y-158725000D01*
X125850000Y-158725000D01*
X125850000Y-158575000D01*
G37*
G36*
X125850000Y-158725000D02*
G01*
X126300000Y-158725000D01*
X126300000Y-158875000D01*
X125850000Y-158875000D01*
X125850000Y-158725000D01*
G37*
G36*
X125850000Y-158875000D02*
G01*
X126300000Y-158875000D01*
X126300000Y-159025000D01*
X125850000Y-159025000D01*
X125850000Y-158875000D01*
G37*
G36*
X125850000Y-159025000D02*
G01*
X126300000Y-159025000D01*
X126300000Y-159175000D01*
X125850000Y-159175000D01*
X125850000Y-159025000D01*
G37*
G36*
X125850000Y-159175000D02*
G01*
X126450000Y-159175000D01*
X126450000Y-159325000D01*
X125850000Y-159325000D01*
X125850000Y-159175000D01*
G37*
G36*
X125850000Y-159775000D02*
G01*
X126000000Y-159775000D01*
X126000000Y-159925000D01*
X125850000Y-159925000D01*
X125850000Y-159775000D01*
G37*
G36*
X125850000Y-163975000D02*
G01*
X126450000Y-163975000D01*
X126450000Y-164125000D01*
X125850000Y-164125000D01*
X125850000Y-163975000D01*
G37*
G36*
X125850000Y-164125000D02*
G01*
X126450000Y-164125000D01*
X126450000Y-164275000D01*
X125850000Y-164275000D01*
X125850000Y-164125000D01*
G37*
G36*
X125850000Y-165925000D02*
G01*
X127200000Y-165925000D01*
X127200000Y-166075000D01*
X125850000Y-166075000D01*
X125850000Y-165925000D01*
G37*
G36*
X126000000Y-158125000D02*
G01*
X126450000Y-158125000D01*
X126450000Y-158275000D01*
X126000000Y-158275000D01*
X126000000Y-158125000D01*
G37*
G36*
X126000000Y-158275000D02*
G01*
X126450000Y-158275000D01*
X126450000Y-158425000D01*
X126000000Y-158425000D01*
X126000000Y-158275000D01*
G37*
G36*
X126000000Y-159325000D02*
G01*
X126450000Y-159325000D01*
X126450000Y-159475000D01*
X126000000Y-159475000D01*
X126000000Y-159325000D01*
G37*
G36*
X126000000Y-159475000D02*
G01*
X126450000Y-159475000D01*
X126450000Y-159625000D01*
X126000000Y-159625000D01*
X126000000Y-159475000D01*
G37*
G36*
X126000000Y-160825000D02*
G01*
X126750000Y-160825000D01*
X126750000Y-160975000D01*
X126000000Y-160975000D01*
X126000000Y-160825000D01*
G37*
G36*
X126000000Y-162325000D02*
G01*
X128700000Y-162325000D01*
X128700000Y-162475000D01*
X126000000Y-162475000D01*
X126000000Y-162325000D01*
G37*
G36*
X126000000Y-164275000D02*
G01*
X126300000Y-164275000D01*
X126300000Y-164425000D01*
X126000000Y-164425000D01*
X126000000Y-164275000D01*
G37*
G36*
X126000000Y-164425000D02*
G01*
X126300000Y-164425000D01*
X126300000Y-164575000D01*
X126000000Y-164575000D01*
X126000000Y-164425000D01*
G37*
G36*
X126000000Y-164575000D02*
G01*
X126150000Y-164575000D01*
X126150000Y-164725000D01*
X126000000Y-164725000D01*
X126000000Y-164575000D01*
G37*
G36*
X126150000Y-157975000D02*
G01*
X126450000Y-157975000D01*
X126450000Y-158125000D01*
X126150000Y-158125000D01*
X126150000Y-157975000D01*
G37*
G36*
X126150000Y-159625000D02*
G01*
X126450000Y-159625000D01*
X126450000Y-159775000D01*
X126150000Y-159775000D01*
X126150000Y-159625000D01*
G37*
G36*
X126150000Y-160675000D02*
G01*
X126600000Y-160675000D01*
X126600000Y-160825000D01*
X126150000Y-160825000D01*
X126150000Y-160675000D01*
G37*
G36*
X126150000Y-165775000D02*
G01*
X127200000Y-165775000D01*
X127200000Y-165925000D01*
X126150000Y-165925000D01*
X126150000Y-165775000D01*
G37*
G36*
X126300000Y-157825000D02*
G01*
X126600000Y-157825000D01*
X126600000Y-157975000D01*
X126300000Y-157975000D01*
X126300000Y-157825000D01*
G37*
G36*
X126300000Y-159775000D02*
G01*
X126600000Y-159775000D01*
X126600000Y-159925000D01*
X126300000Y-159925000D01*
X126300000Y-159775000D01*
G37*
G36*
X126300000Y-162475000D02*
G01*
X128550000Y-162475000D01*
X128550000Y-162625000D01*
X126300000Y-162625000D01*
X126300000Y-162475000D01*
G37*
G36*
X126300000Y-165625000D02*
G01*
X127200000Y-165625000D01*
X127200000Y-165775000D01*
X126300000Y-165775000D01*
X126300000Y-165625000D01*
G37*
G36*
X126300000Y-168025000D02*
G01*
X126450000Y-168025000D01*
X126450000Y-168175000D01*
X126300000Y-168175000D01*
X126300000Y-168025000D01*
G37*
G36*
X126450000Y-157675000D02*
G01*
X126600000Y-157675000D01*
X126600000Y-157825000D01*
X126450000Y-157825000D01*
X126450000Y-157675000D01*
G37*
G36*
X126450000Y-159925000D02*
G01*
X126600000Y-159925000D01*
X126600000Y-160075000D01*
X126450000Y-160075000D01*
X126450000Y-159925000D01*
G37*
G36*
X126600000Y-158125000D02*
G01*
X127800000Y-158125000D01*
X127800000Y-158275000D01*
X126600000Y-158275000D01*
X126600000Y-158125000D01*
G37*
G36*
X126600000Y-158275000D02*
G01*
X127800000Y-158275000D01*
X127800000Y-158425000D01*
X126600000Y-158425000D01*
X126600000Y-158275000D01*
G37*
G36*
X126600000Y-158425000D02*
G01*
X127800000Y-158425000D01*
X127800000Y-158575000D01*
X126600000Y-158575000D01*
X126600000Y-158425000D01*
G37*
G36*
X126600000Y-158575000D02*
G01*
X127800000Y-158575000D01*
X127800000Y-158725000D01*
X126600000Y-158725000D01*
X126600000Y-158575000D01*
G37*
G36*
X126600000Y-158725000D02*
G01*
X127800000Y-158725000D01*
X127800000Y-158875000D01*
X126600000Y-158875000D01*
X126600000Y-158725000D01*
G37*
G36*
X126600000Y-158875000D02*
G01*
X127800000Y-158875000D01*
X127800000Y-159025000D01*
X126600000Y-159025000D01*
X126600000Y-158875000D01*
G37*
G36*
X126600000Y-159025000D02*
G01*
X127800000Y-159025000D01*
X127800000Y-159175000D01*
X126600000Y-159175000D01*
X126600000Y-159025000D01*
G37*
G36*
X126600000Y-159175000D02*
G01*
X127800000Y-159175000D01*
X127800000Y-159325000D01*
X126600000Y-159325000D01*
X126600000Y-159175000D01*
G37*
G36*
X126600000Y-159325000D02*
G01*
X127650000Y-159325000D01*
X127650000Y-159475000D01*
X126600000Y-159475000D01*
X126600000Y-159325000D01*
G37*
G36*
X126600000Y-159475000D02*
G01*
X127650000Y-159475000D01*
X127650000Y-159625000D01*
X126600000Y-159625000D01*
X126600000Y-159475000D01*
G37*
G36*
X126600000Y-162625000D02*
G01*
X128100000Y-162625000D01*
X128100000Y-162775000D01*
X126600000Y-162775000D01*
X126600000Y-162625000D01*
G37*
G36*
X126600000Y-164275000D02*
G01*
X127950000Y-164275000D01*
X127950000Y-164425000D01*
X126600000Y-164425000D01*
X126600000Y-164275000D01*
G37*
G36*
X126600000Y-164425000D02*
G01*
X128400000Y-164425000D01*
X128400000Y-164575000D01*
X126600000Y-164575000D01*
X126600000Y-164425000D01*
G37*
G36*
X126750000Y-157825000D02*
G01*
X127650000Y-157825000D01*
X127650000Y-157975000D01*
X126750000Y-157975000D01*
X126750000Y-157825000D01*
G37*
G36*
X126750000Y-157975000D02*
G01*
X127650000Y-157975000D01*
X127650000Y-158125000D01*
X126750000Y-158125000D01*
X126750000Y-157975000D01*
G37*
G36*
X126750000Y-159625000D02*
G01*
X127650000Y-159625000D01*
X127650000Y-159775000D01*
X126750000Y-159775000D01*
X126750000Y-159625000D01*
G37*
G36*
X126750000Y-159775000D02*
G01*
X127500000Y-159775000D01*
X127500000Y-159925000D01*
X126750000Y-159925000D01*
X126750000Y-159775000D01*
G37*
G36*
X126750000Y-160525000D02*
G01*
X126900000Y-160525000D01*
X126900000Y-160675000D01*
X126750000Y-160675000D01*
X126750000Y-160525000D01*
G37*
G36*
X126750000Y-165475000D02*
G01*
X127200000Y-165475000D01*
X127200000Y-165625000D01*
X126750000Y-165625000D01*
X126750000Y-165475000D01*
G37*
G36*
X126900000Y-157675000D02*
G01*
X127500000Y-157675000D01*
X127500000Y-157825000D01*
X126900000Y-157825000D01*
X126900000Y-157675000D01*
G37*
G36*
X126900000Y-159925000D02*
G01*
X127500000Y-159925000D01*
X127500000Y-160075000D01*
X126900000Y-160075000D01*
X126900000Y-159925000D01*
G37*
G36*
X126900000Y-160075000D02*
G01*
X127350000Y-160075000D01*
X127350000Y-160225000D01*
X126900000Y-160225000D01*
X126900000Y-160075000D01*
G37*
G36*
X126900000Y-160675000D02*
G01*
X127050000Y-160675000D01*
X127050000Y-160825000D01*
X126900000Y-160825000D01*
X126900000Y-160675000D01*
G37*
G36*
X126900000Y-160825000D02*
G01*
X127050000Y-160825000D01*
X127050000Y-160975000D01*
X126900000Y-160975000D01*
X126900000Y-160825000D01*
G37*
G36*
X126900000Y-161725000D02*
G01*
X127050000Y-161725000D01*
X127050000Y-161875000D01*
X126900000Y-161875000D01*
X126900000Y-161725000D01*
G37*
G36*
X126900000Y-161875000D02*
G01*
X127050000Y-161875000D01*
X127050000Y-162025000D01*
X126900000Y-162025000D01*
X126900000Y-161875000D01*
G37*
G36*
X126900000Y-163075000D02*
G01*
X127050000Y-163075000D01*
X127050000Y-163225000D01*
X126900000Y-163225000D01*
X126900000Y-163075000D01*
G37*
G36*
X126900000Y-163225000D02*
G01*
X127200000Y-163225000D01*
X127200000Y-163375000D01*
X126900000Y-163375000D01*
X126900000Y-163225000D01*
G37*
G36*
X126900000Y-163375000D02*
G01*
X127050000Y-163375000D01*
X127050000Y-163525000D01*
X126900000Y-163525000D01*
X126900000Y-163375000D01*
G37*
G36*
X126900000Y-163525000D02*
G01*
X127050000Y-163525000D01*
X127050000Y-163675000D01*
X126900000Y-163675000D01*
X126900000Y-163525000D01*
G37*
G36*
X126900000Y-163675000D02*
G01*
X127050000Y-163675000D01*
X127050000Y-163825000D01*
X126900000Y-163825000D01*
X126900000Y-163675000D01*
G37*
G36*
X126900000Y-163825000D02*
G01*
X127050000Y-163825000D01*
X127050000Y-163975000D01*
X126900000Y-163975000D01*
X126900000Y-163825000D01*
G37*
G36*
X126900000Y-168175000D02*
G01*
X127500000Y-168175000D01*
X127500000Y-168325000D01*
X126900000Y-168325000D01*
X126900000Y-168175000D01*
G37*
G36*
X127050000Y-157525000D02*
G01*
X127350000Y-157525000D01*
X127350000Y-157675000D01*
X127050000Y-157675000D01*
X127050000Y-157525000D01*
G37*
G36*
X127050000Y-160225000D02*
G01*
X127350000Y-160225000D01*
X127350000Y-160375000D01*
X127050000Y-160375000D01*
X127050000Y-160225000D01*
G37*
G36*
X127050000Y-160375000D02*
G01*
X127200000Y-160375000D01*
X127200000Y-160525000D01*
X127050000Y-160525000D01*
X127050000Y-160375000D01*
G37*
G36*
X127050000Y-161125000D02*
G01*
X127200000Y-161125000D01*
X127200000Y-161275000D01*
X127050000Y-161275000D01*
X127050000Y-161125000D01*
G37*
G36*
X127200000Y-160675000D02*
G01*
X127500000Y-160675000D01*
X127500000Y-160825000D01*
X127200000Y-160825000D01*
X127200000Y-160675000D01*
G37*
G36*
X127200000Y-160825000D02*
G01*
X127350000Y-160825000D01*
X127350000Y-160975000D01*
X127200000Y-160975000D01*
X127200000Y-160825000D01*
G37*
G36*
X127200000Y-161425000D02*
G01*
X127500000Y-161425000D01*
X127500000Y-161575000D01*
X127200000Y-161575000D01*
X127200000Y-161425000D01*
G37*
G36*
X127200000Y-167875000D02*
G01*
X127650000Y-167875000D01*
X127650000Y-168025000D01*
X127200000Y-168025000D01*
X127200000Y-167875000D01*
G37*
G36*
X127200000Y-168025000D02*
G01*
X127500000Y-168025000D01*
X127500000Y-168175000D01*
X127200000Y-168175000D01*
X127200000Y-168025000D01*
G37*
G36*
X127350000Y-160525000D02*
G01*
X127500000Y-160525000D01*
X127500000Y-160675000D01*
X127350000Y-160675000D01*
X127350000Y-160525000D01*
G37*
G36*
X127350000Y-165475000D02*
G01*
X128100000Y-165475000D01*
X128100000Y-165625000D01*
X127350000Y-165625000D01*
X127350000Y-165475000D01*
G37*
G36*
X127350000Y-165625000D02*
G01*
X128100000Y-165625000D01*
X128100000Y-165775000D01*
X127350000Y-165775000D01*
X127350000Y-165625000D01*
G37*
G36*
X127350000Y-165775000D02*
G01*
X128100000Y-165775000D01*
X128100000Y-165925000D01*
X127350000Y-165925000D01*
X127350000Y-165775000D01*
G37*
G36*
X127350000Y-165925000D02*
G01*
X128100000Y-165925000D01*
X128100000Y-166075000D01*
X127350000Y-166075000D01*
X127350000Y-165925000D01*
G37*
G36*
X127350000Y-166075000D02*
G01*
X128100000Y-166075000D01*
X128100000Y-166225000D01*
X127350000Y-166225000D01*
X127350000Y-166075000D01*
G37*
G36*
X127350000Y-166225000D02*
G01*
X128100000Y-166225000D01*
X128100000Y-166375000D01*
X127350000Y-166375000D01*
X127350000Y-166225000D01*
G37*
G36*
X127350000Y-166375000D02*
G01*
X128100000Y-166375000D01*
X128100000Y-166525000D01*
X127350000Y-166525000D01*
X127350000Y-166375000D01*
G37*
G36*
X127350000Y-166525000D02*
G01*
X127950000Y-166525000D01*
X127950000Y-166675000D01*
X127350000Y-166675000D01*
X127350000Y-166525000D01*
G37*
G36*
X127350000Y-166675000D02*
G01*
X127950000Y-166675000D01*
X127950000Y-166825000D01*
X127350000Y-166825000D01*
X127350000Y-166675000D01*
G37*
G36*
X127350000Y-166825000D02*
G01*
X127800000Y-166825000D01*
X127800000Y-166975000D01*
X127350000Y-166975000D01*
X127350000Y-166825000D01*
G37*
G36*
X127350000Y-166975000D02*
G01*
X127650000Y-166975000D01*
X127650000Y-167125000D01*
X127350000Y-167125000D01*
X127350000Y-166975000D01*
G37*
G36*
X127350000Y-167125000D02*
G01*
X127500000Y-167125000D01*
X127500000Y-167275000D01*
X127350000Y-167275000D01*
X127350000Y-167125000D01*
G37*
G36*
X127350000Y-167275000D02*
G01*
X127500000Y-167275000D01*
X127500000Y-167425000D01*
X127350000Y-167425000D01*
X127350000Y-167275000D01*
G37*
G36*
X127350000Y-167725000D02*
G01*
X127800000Y-167725000D01*
X127800000Y-167875000D01*
X127350000Y-167875000D01*
X127350000Y-167725000D01*
G37*
G36*
X127500000Y-160975000D02*
G01*
X129600000Y-160975000D01*
X129600000Y-161125000D01*
X127500000Y-161125000D01*
X127500000Y-160975000D01*
G37*
G36*
X127500000Y-161125000D02*
G01*
X129450000Y-161125000D01*
X129450000Y-161275000D01*
X127500000Y-161275000D01*
X127500000Y-161125000D01*
G37*
G36*
X127500000Y-163825000D02*
G01*
X127950000Y-163825000D01*
X127950000Y-163975000D01*
X127500000Y-163975000D01*
X127500000Y-163825000D01*
G37*
G36*
X127500000Y-165325000D02*
G01*
X128100000Y-165325000D01*
X128100000Y-165475000D01*
X127500000Y-165475000D01*
X127500000Y-165325000D01*
G37*
G36*
X127500000Y-167575000D02*
G01*
X127800000Y-167575000D01*
X127800000Y-167725000D01*
X127500000Y-167725000D01*
X127500000Y-167575000D01*
G37*
G36*
X127650000Y-159925000D02*
G01*
X127950000Y-159925000D01*
X127950000Y-160075000D01*
X127650000Y-160075000D01*
X127650000Y-159925000D01*
G37*
G36*
X127650000Y-160675000D02*
G01*
X129000000Y-160675000D01*
X129000000Y-160825000D01*
X127650000Y-160825000D01*
X127650000Y-160675000D01*
G37*
G36*
X127650000Y-160825000D02*
G01*
X129600000Y-160825000D01*
X129600000Y-160975000D01*
X127650000Y-160975000D01*
X127650000Y-160825000D01*
G37*
G36*
X127650000Y-161275000D02*
G01*
X128850000Y-161275000D01*
X128850000Y-161425000D01*
X127650000Y-161425000D01*
X127650000Y-161275000D01*
G37*
G36*
X127650000Y-161425000D02*
G01*
X128700000Y-161425000D01*
X128700000Y-161575000D01*
X127650000Y-161575000D01*
X127650000Y-161425000D01*
G37*
G36*
X127650000Y-161575000D02*
G01*
X128700000Y-161575000D01*
X128700000Y-161725000D01*
X127650000Y-161725000D01*
X127650000Y-161575000D01*
G37*
G36*
X127650000Y-161725000D02*
G01*
X128550000Y-161725000D01*
X128550000Y-161875000D01*
X127650000Y-161875000D01*
X127650000Y-161725000D01*
G37*
G36*
X127650000Y-161875000D02*
G01*
X128400000Y-161875000D01*
X128400000Y-162025000D01*
X127650000Y-162025000D01*
X127650000Y-161875000D01*
G37*
G36*
X127650000Y-162025000D02*
G01*
X128100000Y-162025000D01*
X128100000Y-162175000D01*
X127650000Y-162175000D01*
X127650000Y-162025000D01*
G37*
G36*
X127650000Y-163075000D02*
G01*
X127800000Y-163075000D01*
X127800000Y-163225000D01*
X127650000Y-163225000D01*
X127650000Y-163075000D01*
G37*
G36*
X127650000Y-163375000D02*
G01*
X127800000Y-163375000D01*
X127800000Y-163525000D01*
X127650000Y-163525000D01*
X127650000Y-163375000D01*
G37*
G36*
X127650000Y-163675000D02*
G01*
X127800000Y-163675000D01*
X127800000Y-163825000D01*
X127650000Y-163825000D01*
X127650000Y-163675000D01*
G37*
G36*
X127650000Y-167275000D02*
G01*
X128100000Y-167275000D01*
X128100000Y-167425000D01*
X127650000Y-167425000D01*
X127650000Y-167275000D01*
G37*
G36*
X127650000Y-167425000D02*
G01*
X127950000Y-167425000D01*
X127950000Y-167575000D01*
X127650000Y-167575000D01*
X127650000Y-167425000D01*
G37*
G36*
X127800000Y-157675000D02*
G01*
X127950000Y-157675000D01*
X127950000Y-157825000D01*
X127800000Y-157825000D01*
X127800000Y-157675000D01*
G37*
G36*
X127800000Y-157825000D02*
G01*
X128100000Y-157825000D01*
X128100000Y-157975000D01*
X127800000Y-157975000D01*
X127800000Y-157825000D01*
G37*
G36*
X127800000Y-159625000D02*
G01*
X128250000Y-159625000D01*
X128250000Y-159775000D01*
X127800000Y-159775000D01*
X127800000Y-159625000D01*
G37*
G36*
X127800000Y-159775000D02*
G01*
X128100000Y-159775000D01*
X128100000Y-159925000D01*
X127800000Y-159925000D01*
X127800000Y-159775000D01*
G37*
G36*
X127800000Y-160375000D02*
G01*
X129600000Y-160375000D01*
X129600000Y-160525000D01*
X127800000Y-160525000D01*
X127800000Y-160375000D01*
G37*
G36*
X127800000Y-160525000D02*
G01*
X129600000Y-160525000D01*
X129600000Y-160675000D01*
X127800000Y-160675000D01*
X127800000Y-160525000D01*
G37*
G36*
X127800000Y-167125000D02*
G01*
X128550000Y-167125000D01*
X128550000Y-167275000D01*
X127800000Y-167275000D01*
X127800000Y-167125000D01*
G37*
G36*
X127950000Y-157975000D02*
G01*
X128250000Y-157975000D01*
X128250000Y-158125000D01*
X127950000Y-158125000D01*
X127950000Y-157975000D01*
G37*
G36*
X127950000Y-158125000D02*
G01*
X128400000Y-158125000D01*
X128400000Y-158275000D01*
X127950000Y-158275000D01*
X127950000Y-158125000D01*
G37*
G36*
X127950000Y-158275000D02*
G01*
X128400000Y-158275000D01*
X128400000Y-158425000D01*
X127950000Y-158425000D01*
X127950000Y-158275000D01*
G37*
G36*
X127950000Y-158425000D02*
G01*
X128550000Y-158425000D01*
X128550000Y-158575000D01*
X127950000Y-158575000D01*
X127950000Y-158425000D01*
G37*
G36*
X127950000Y-158575000D02*
G01*
X128550000Y-158575000D01*
X128550000Y-158725000D01*
X127950000Y-158725000D01*
X127950000Y-158575000D01*
G37*
G36*
X127950000Y-158725000D02*
G01*
X128550000Y-158725000D01*
X128550000Y-158875000D01*
X127950000Y-158875000D01*
X127950000Y-158725000D01*
G37*
G36*
X127950000Y-158875000D02*
G01*
X128550000Y-158875000D01*
X128550000Y-159025000D01*
X127950000Y-159025000D01*
X127950000Y-158875000D01*
G37*
G36*
X127950000Y-159025000D02*
G01*
X128550000Y-159025000D01*
X128550000Y-159175000D01*
X127950000Y-159175000D01*
X127950000Y-159025000D01*
G37*
G36*
X127950000Y-159175000D02*
G01*
X128400000Y-159175000D01*
X128400000Y-159325000D01*
X127950000Y-159325000D01*
X127950000Y-159175000D01*
G37*
G36*
X127950000Y-159325000D02*
G01*
X128400000Y-159325000D01*
X128400000Y-159475000D01*
X127950000Y-159475000D01*
X127950000Y-159325000D01*
G37*
G36*
X127950000Y-159475000D02*
G01*
X128250000Y-159475000D01*
X128250000Y-159625000D01*
X127950000Y-159625000D01*
X127950000Y-159475000D01*
G37*
G36*
X127950000Y-160225000D02*
G01*
X129450000Y-160225000D01*
X129450000Y-160375000D01*
X127950000Y-160375000D01*
X127950000Y-160225000D01*
G37*
G36*
X127950000Y-164575000D02*
G01*
X128550000Y-164575000D01*
X128550000Y-164725000D01*
X127950000Y-164725000D01*
X127950000Y-164575000D01*
G37*
G36*
X127950000Y-164725000D02*
G01*
X128700000Y-164725000D01*
X128700000Y-164875000D01*
X127950000Y-164875000D01*
X127950000Y-164725000D01*
G37*
G36*
X127950000Y-166975000D02*
G01*
X128850000Y-166975000D01*
X128850000Y-167125000D01*
X127950000Y-167125000D01*
X127950000Y-166975000D01*
G37*
G36*
X128100000Y-160075000D02*
G01*
X129450000Y-160075000D01*
X129450000Y-160225000D01*
X128100000Y-160225000D01*
X128100000Y-160075000D01*
G37*
G36*
X128100000Y-166825000D02*
G01*
X129150000Y-166825000D01*
X129150000Y-166975000D01*
X128100000Y-166975000D01*
X128100000Y-166825000D01*
G37*
G36*
X128250000Y-159775000D02*
G01*
X129300000Y-159775000D01*
X129300000Y-159925000D01*
X128250000Y-159925000D01*
X128250000Y-159775000D01*
G37*
G36*
X128250000Y-159925000D02*
G01*
X129450000Y-159925000D01*
X129450000Y-160075000D01*
X128250000Y-160075000D01*
X128250000Y-159925000D01*
G37*
G36*
X128250000Y-162175000D02*
G01*
X128850000Y-162175000D01*
X128850000Y-162325000D01*
X128250000Y-162325000D01*
X128250000Y-162175000D01*
G37*
G36*
X128250000Y-165025000D02*
G01*
X128700000Y-165025000D01*
X128700000Y-165175000D01*
X128250000Y-165175000D01*
X128250000Y-165025000D01*
G37*
G36*
X128250000Y-165175000D02*
G01*
X129450000Y-165175000D01*
X129450000Y-165325000D01*
X128250000Y-165325000D01*
X128250000Y-165175000D01*
G37*
G36*
X128250000Y-165325000D02*
G01*
X129600000Y-165325000D01*
X129600000Y-165475000D01*
X128250000Y-165475000D01*
X128250000Y-165325000D01*
G37*
G36*
X128250000Y-165475000D02*
G01*
X128550000Y-165475000D01*
X128550000Y-165625000D01*
X128250000Y-165625000D01*
X128250000Y-165475000D01*
G37*
G36*
X128250000Y-165625000D02*
G01*
X128550000Y-165625000D01*
X128550000Y-165775000D01*
X128250000Y-165775000D01*
X128250000Y-165625000D01*
G37*
G36*
X128250000Y-165775000D02*
G01*
X128550000Y-165775000D01*
X128550000Y-165925000D01*
X128250000Y-165925000D01*
X128250000Y-165775000D01*
G37*
G36*
X128250000Y-165925000D02*
G01*
X128550000Y-165925000D01*
X128550000Y-166075000D01*
X128250000Y-166075000D01*
X128250000Y-165925000D01*
G37*
G36*
X128250000Y-166075000D02*
G01*
X128550000Y-166075000D01*
X128550000Y-166225000D01*
X128250000Y-166225000D01*
X128250000Y-166075000D01*
G37*
G36*
X128250000Y-166225000D02*
G01*
X128550000Y-166225000D01*
X128550000Y-166375000D01*
X128250000Y-166375000D01*
X128250000Y-166225000D01*
G37*
G36*
X128250000Y-166375000D02*
G01*
X128550000Y-166375000D01*
X128550000Y-166525000D01*
X128250000Y-166525000D01*
X128250000Y-166375000D01*
G37*
G36*
X128250000Y-166525000D02*
G01*
X128550000Y-166525000D01*
X128550000Y-166675000D01*
X128250000Y-166675000D01*
X128250000Y-166525000D01*
G37*
G36*
X128250000Y-166675000D02*
G01*
X128550000Y-166675000D01*
X128550000Y-166825000D01*
X128250000Y-166825000D01*
X128250000Y-166675000D01*
G37*
G36*
X128400000Y-159625000D02*
G01*
X129150000Y-159625000D01*
X129150000Y-159775000D01*
X128400000Y-159775000D01*
X128400000Y-159625000D01*
G37*
G36*
X128400000Y-162025000D02*
G01*
X129000000Y-162025000D01*
X129000000Y-162175000D01*
X128400000Y-162175000D01*
X128400000Y-162025000D01*
G37*
G36*
X128550000Y-159325000D02*
G01*
X129000000Y-159325000D01*
X129000000Y-159475000D01*
X128550000Y-159475000D01*
X128550000Y-159325000D01*
G37*
G36*
X128550000Y-159475000D02*
G01*
X129150000Y-159475000D01*
X129150000Y-159625000D01*
X128550000Y-159625000D01*
X128550000Y-159475000D01*
G37*
G36*
X128550000Y-161875000D02*
G01*
X129150000Y-161875000D01*
X129150000Y-162025000D01*
X128550000Y-162025000D01*
X128550000Y-161875000D01*
G37*
G36*
X128550000Y-163225000D02*
G01*
X129150000Y-163225000D01*
X129150000Y-163375000D01*
X128550000Y-163375000D01*
X128550000Y-163225000D01*
G37*
G36*
X128700000Y-159175000D02*
G01*
X128850000Y-159175000D01*
X128850000Y-159325000D01*
X128700000Y-159325000D01*
X128700000Y-159175000D01*
G37*
G36*
X128700000Y-161725000D02*
G01*
X129300000Y-161725000D01*
X129300000Y-161875000D01*
X128700000Y-161875000D01*
X128700000Y-161725000D01*
G37*
G36*
X128700000Y-163075000D02*
G01*
X129000000Y-163075000D01*
X129000000Y-163225000D01*
X128700000Y-163225000D01*
X128700000Y-163075000D01*
G37*
G36*
X128700000Y-163375000D02*
G01*
X129000000Y-163375000D01*
X129000000Y-163525000D01*
X128700000Y-163525000D01*
X128700000Y-163375000D01*
G37*
G36*
X128700000Y-167575000D02*
G01*
X129000000Y-167575000D01*
X129000000Y-167725000D01*
X128700000Y-167725000D01*
X128700000Y-167575000D01*
G37*
G36*
X128700000Y-167725000D02*
G01*
X129000000Y-167725000D01*
X129000000Y-167875000D01*
X128700000Y-167875000D01*
X128700000Y-167725000D01*
G37*
G36*
X128700000Y-167875000D02*
G01*
X129000000Y-167875000D01*
X129000000Y-168025000D01*
X128700000Y-168025000D01*
X128700000Y-167875000D01*
G37*
G36*
X128850000Y-157975000D02*
G01*
X129450000Y-157975000D01*
X129450000Y-158125000D01*
X128850000Y-158125000D01*
X128850000Y-157975000D01*
G37*
G36*
X128850000Y-161575000D02*
G01*
X129300000Y-161575000D01*
X129300000Y-161725000D01*
X128850000Y-161725000D01*
X128850000Y-161575000D01*
G37*
G36*
X128850000Y-163525000D02*
G01*
X129000000Y-163525000D01*
X129000000Y-163675000D01*
X128850000Y-163675000D01*
X128850000Y-163525000D01*
G37*
G36*
X128850000Y-166675000D02*
G01*
X129300000Y-166675000D01*
X129300000Y-166825000D01*
X128850000Y-166825000D01*
X128850000Y-166675000D01*
G37*
G36*
X129000000Y-161275000D02*
G01*
X129450000Y-161275000D01*
X129450000Y-161425000D01*
X129000000Y-161425000D01*
X129000000Y-161275000D01*
G37*
G36*
X129000000Y-161425000D02*
G01*
X129450000Y-161425000D01*
X129450000Y-161575000D01*
X129000000Y-161575000D01*
X129000000Y-161425000D01*
G37*
G36*
X129000000Y-164125000D02*
G01*
X129150000Y-164125000D01*
X129150000Y-164275000D01*
X129000000Y-164275000D01*
X129000000Y-164125000D01*
G37*
G36*
X129000000Y-164275000D02*
G01*
X129150000Y-164275000D01*
X129150000Y-164425000D01*
X129000000Y-164425000D01*
X129000000Y-164275000D01*
G37*
G36*
X129000000Y-166525000D02*
G01*
X129450000Y-166525000D01*
X129450000Y-166675000D01*
X129000000Y-166675000D01*
X129000000Y-166525000D01*
G37*
G36*
X129150000Y-157825000D02*
G01*
X129300000Y-157825000D01*
X129300000Y-157975000D01*
X129150000Y-157975000D01*
X129150000Y-157825000D01*
G37*
G36*
X129150000Y-158125000D02*
G01*
X129300000Y-158125000D01*
X129300000Y-158275000D01*
X129150000Y-158275000D01*
X129150000Y-158125000D01*
G37*
G36*
X129150000Y-160675000D02*
G01*
X129600000Y-160675000D01*
X129600000Y-160825000D01*
X129150000Y-160825000D01*
X129150000Y-160675000D01*
G37*
G36*
X129150000Y-166375000D02*
G01*
X129600000Y-166375000D01*
X129600000Y-166525000D01*
X129150000Y-166525000D01*
X129150000Y-166375000D01*
G37*
G36*
X129300000Y-165475000D02*
G01*
X129600000Y-165475000D01*
X129600000Y-165625000D01*
X129300000Y-165625000D01*
X129300000Y-165475000D01*
G37*
G36*
X129300000Y-166225000D02*
G01*
X129600000Y-166225000D01*
X129600000Y-166375000D01*
X129300000Y-166375000D01*
X129300000Y-166225000D01*
G37*
G36*
X129450000Y-159025000D02*
G01*
X129750000Y-159025000D01*
X129750000Y-159175000D01*
X129450000Y-159175000D01*
X129450000Y-159025000D01*
G37*
G36*
X129450000Y-165625000D02*
G01*
X129750000Y-165625000D01*
X129750000Y-165775000D01*
X129450000Y-165775000D01*
X129450000Y-165625000D01*
G37*
G36*
X129450000Y-165775000D02*
G01*
X129750000Y-165775000D01*
X129750000Y-165925000D01*
X129450000Y-165925000D01*
X129450000Y-165775000D01*
G37*
G36*
X129450000Y-165925000D02*
G01*
X129750000Y-165925000D01*
X129750000Y-166075000D01*
X129450000Y-166075000D01*
X129450000Y-165925000D01*
G37*
G36*
X129450000Y-166075000D02*
G01*
X129750000Y-166075000D01*
X129750000Y-166225000D01*
X129450000Y-166225000D01*
X129450000Y-166075000D01*
G37*
G36*
X129450000Y-167275000D02*
G01*
X129600000Y-167275000D01*
X129600000Y-167425000D01*
X129450000Y-167425000D01*
X129450000Y-167275000D01*
G37*
G36*
X129450000Y-167425000D02*
G01*
X129600000Y-167425000D01*
X129600000Y-167575000D01*
X129450000Y-167575000D01*
X129450000Y-167425000D01*
G37*
%TO.C,J2*%
X135120000Y-107620000D02*
X136500000Y-107620000D01*
X135120000Y-109000000D02*
X135120000Y-107620000D01*
X135120000Y-110270000D02*
X135120000Y-130700000D01*
X135120000Y-110270000D02*
X137880000Y-110270000D01*
X135120000Y-130700000D02*
X137880000Y-130700000D01*
X137880000Y-110270000D02*
X137880000Y-130700000D01*
%TO.C,J3*%
X142620000Y-153620000D02*
X144000000Y-153620000D01*
X142620000Y-155000000D02*
X142620000Y-153620000D01*
X142620000Y-156270000D02*
X142620000Y-158920000D01*
X142620000Y-156270000D02*
X145380000Y-156270000D01*
X142620000Y-158920000D02*
X145380000Y-158920000D01*
X145380000Y-156270000D02*
X145380000Y-158920000D01*
%TO.C,C1*%
D13*
X115800000Y-129765000D02*
X121280000Y-129765000D01*
X115800000Y-134235000D02*
X121280000Y-134235000D01*
%TO.C,R1*%
D12*
X110540000Y-114630000D02*
X117080000Y-114630000D01*
X110540000Y-114960000D02*
X110540000Y-114630000D01*
X110540000Y-117040000D02*
X110540000Y-117370000D01*
X110540000Y-117370000D02*
X117080000Y-117370000D01*
X117080000Y-114630000D02*
X117080000Y-114960000D01*
X117080000Y-117370000D02*
X117080000Y-117040000D01*
%TO.C,R2*%
X110540000Y-118630000D02*
X117080000Y-118630000D01*
X110540000Y-118960000D02*
X110540000Y-118630000D01*
X110540000Y-121040000D02*
X110540000Y-121370000D01*
X110540000Y-121370000D02*
X117080000Y-121370000D01*
X117080000Y-118630000D02*
X117080000Y-118960000D01*
X117080000Y-121370000D02*
X117080000Y-121040000D01*
%TO.C,D1*%
X122990000Y-114920000D02*
X122990000Y-114764000D01*
X122990000Y-117236000D02*
X122990000Y-117080000D01*
X119758563Y-114920000D02*
G75*
G02*
X122990000Y-114764484I1671437J-1080000D01*
G01*
X120389039Y-114920000D02*
G75*
G02*
X122470961Y-114920000I1040961J-1080000D01*
G01*
X122470961Y-117080000D02*
G75*
G02*
X120389039Y-117080000I-1040961J1080000D01*
G01*
X122990000Y-117235516D02*
G75*
G02*
X119758563Y-117080000I-1560000J1235516D01*
G01*
%TO.C,C2*%
D13*
X115165000Y-136530000D02*
X119375000Y-136530000D01*
X115165000Y-139470000D02*
X119375000Y-139470000D01*
%TO.C,A1*%
X102530000Y-92220000D02*
X102530000Y-108300000D01*
X102530000Y-92220000D02*
X117770000Y-92220000D01*
X117770000Y-92220000D02*
X117770000Y-108300000D01*
%TO.C,A2*%
X101095000Y-124760000D02*
X101095000Y-138650000D01*
X101095000Y-124760000D02*
X112525000Y-124760000D01*
X112525000Y-124760000D02*
X112525000Y-138650000D01*
D14*
X111020000Y-138250000D02*
G75*
G02*
X110220000Y-138250000I-400000J0D01*
G01*
X110220000Y-138250000D02*
G75*
G02*
X111020000Y-138250000I400000J0D01*
G01*
%TO.C,J5*%
D12*
X103440000Y-148690000D02*
X103440000Y-160410000D01*
X103440000Y-160410000D02*
X104860000Y-160410000D01*
X104860000Y-155910000D02*
X107250000Y-155910000D01*
X104860000Y-160410000D02*
X104860000Y-155910000D01*
X107250000Y-148690000D02*
X103440000Y-148690000D01*
X107250000Y-148690000D02*
X111060000Y-148690000D01*
X108200000Y-160100000D02*
X108500000Y-159500000D01*
X108500000Y-159500000D02*
X108800000Y-160100000D01*
X108800000Y-160100000D02*
X108200000Y-160100000D01*
X109640000Y-155910000D02*
X107250000Y-155910000D01*
X109640000Y-160410000D02*
X109640000Y-155910000D01*
X111060000Y-148690000D02*
X111060000Y-160410000D01*
X111060000Y-160410000D02*
X109640000Y-160410000D01*
X105750000Y-149300000D02*
X106250000Y-149300000D01*
X106250000Y-154800000D01*
X105750000Y-154800000D01*
X105750000Y-149300000D01*
X108250000Y-149300000D02*
X108750000Y-149300000D01*
X108750000Y-154800000D01*
X108250000Y-154800000D01*
X108250000Y-149300000D01*
%TO.C,J1*%
X142620000Y-140620000D02*
X144000000Y-140620000D01*
X142620000Y-142000000D02*
X142620000Y-140620000D01*
X142620000Y-143270000D02*
X142620000Y-145920000D01*
X142620000Y-143270000D02*
X145380000Y-143270000D01*
X142620000Y-145920000D02*
X145380000Y-145920000D01*
X145380000Y-143270000D02*
X145380000Y-145920000D01*
%TD*%
M02*
