%TF.GenerationSoftware,KiCad,Pcbnew,10.0.6*%
%TF.CreationDate,2026-09-16T22:44:02-07:00*%
%TF.ProjectId,weather-balloon-logger,77656174-6865-4722-9d62-616c6c6f6f6e,rev?*%
%TF.SameCoordinates,Original*%
%TF.FileFunction,AssemblyDrawing,Top*%
%FSLAX46Y46*%
G04 Gerber Fmt 4.6, Leading zero omitted, Abs format (unit mm)*
G04 Created by KiCad (PCBNEW 10.0.6) date 2026-09-16 22:44:02*
%MOMM*%
%LPD*%
G01*
G04 APERTURE LIST*
%ADD10C,0.150000*%
%ADD11C,0.120000*%
%ADD12C,0.100000*%
%ADD13C,0.250000*%
G04 APERTURE END LIST*
D10*
X161333809Y-142064819D02*
X161333809Y-141064819D01*
X161333809Y-141064819D02*
X161714761Y-141064819D01*
X161714761Y-141064819D02*
X161809999Y-141112438D01*
X161809999Y-141112438D02*
X161857618Y-141160057D01*
X161857618Y-141160057D02*
X161905237Y-141255295D01*
X161905237Y-141255295D02*
X161905237Y-141398152D01*
X161905237Y-141398152D02*
X161857618Y-141493390D01*
X161857618Y-141493390D02*
X161809999Y-141541009D01*
X161809999Y-141541009D02*
X161714761Y-141588628D01*
X161714761Y-141588628D02*
X161333809Y-141588628D01*
X162905237Y-141969580D02*
X162857618Y-142017200D01*
X162857618Y-142017200D02*
X162714761Y-142064819D01*
X162714761Y-142064819D02*
X162619523Y-142064819D01*
X162619523Y-142064819D02*
X162476666Y-142017200D01*
X162476666Y-142017200D02*
X162381428Y-141921961D01*
X162381428Y-141921961D02*
X162333809Y-141826723D01*
X162333809Y-141826723D02*
X162286190Y-141636247D01*
X162286190Y-141636247D02*
X162286190Y-141493390D01*
X162286190Y-141493390D02*
X162333809Y-141302914D01*
X162333809Y-141302914D02*
X162381428Y-141207676D01*
X162381428Y-141207676D02*
X162476666Y-141112438D01*
X162476666Y-141112438D02*
X162619523Y-141064819D01*
X162619523Y-141064819D02*
X162714761Y-141064819D01*
X162714761Y-141064819D02*
X162857618Y-141112438D01*
X162857618Y-141112438D02*
X162905237Y-141160057D01*
X163667142Y-141541009D02*
X163333809Y-141541009D01*
X163333809Y-142064819D02*
X163333809Y-141064819D01*
X163333809Y-141064819D02*
X163809999Y-141064819D01*
X164333809Y-141493390D02*
X164238571Y-141445771D01*
X164238571Y-141445771D02*
X164190952Y-141398152D01*
X164190952Y-141398152D02*
X164143333Y-141302914D01*
X164143333Y-141302914D02*
X164143333Y-141255295D01*
X164143333Y-141255295D02*
X164190952Y-141160057D01*
X164190952Y-141160057D02*
X164238571Y-141112438D01*
X164238571Y-141112438D02*
X164333809Y-141064819D01*
X164333809Y-141064819D02*
X164524285Y-141064819D01*
X164524285Y-141064819D02*
X164619523Y-141112438D01*
X164619523Y-141112438D02*
X164667142Y-141160057D01*
X164667142Y-141160057D02*
X164714761Y-141255295D01*
X164714761Y-141255295D02*
X164714761Y-141302914D01*
X164714761Y-141302914D02*
X164667142Y-141398152D01*
X164667142Y-141398152D02*
X164619523Y-141445771D01*
X164619523Y-141445771D02*
X164524285Y-141493390D01*
X164524285Y-141493390D02*
X164333809Y-141493390D01*
X164333809Y-141493390D02*
X164238571Y-141541009D01*
X164238571Y-141541009D02*
X164190952Y-141588628D01*
X164190952Y-141588628D02*
X164143333Y-141683866D01*
X164143333Y-141683866D02*
X164143333Y-141874342D01*
X164143333Y-141874342D02*
X164190952Y-141969580D01*
X164190952Y-141969580D02*
X164238571Y-142017200D01*
X164238571Y-142017200D02*
X164333809Y-142064819D01*
X164333809Y-142064819D02*
X164524285Y-142064819D01*
X164524285Y-142064819D02*
X164619523Y-142017200D01*
X164619523Y-142017200D02*
X164667142Y-141969580D01*
X164667142Y-141969580D02*
X164714761Y-141874342D01*
X164714761Y-141874342D02*
X164714761Y-141683866D01*
X164714761Y-141683866D02*
X164667142Y-141588628D01*
X164667142Y-141588628D02*
X164619523Y-141541009D01*
X164619523Y-141541009D02*
X164524285Y-141493390D01*
X165619523Y-141064819D02*
X165143333Y-141064819D01*
X165143333Y-141064819D02*
X165095714Y-141541009D01*
X165095714Y-141541009D02*
X165143333Y-141493390D01*
X165143333Y-141493390D02*
X165238571Y-141445771D01*
X165238571Y-141445771D02*
X165476666Y-141445771D01*
X165476666Y-141445771D02*
X165571904Y-141493390D01*
X165571904Y-141493390D02*
X165619523Y-141541009D01*
X165619523Y-141541009D02*
X165667142Y-141636247D01*
X165667142Y-141636247D02*
X165667142Y-141874342D01*
X165667142Y-141874342D02*
X165619523Y-141969580D01*
X165619523Y-141969580D02*
X165571904Y-142017200D01*
X165571904Y-142017200D02*
X165476666Y-142064819D01*
X165476666Y-142064819D02*
X165238571Y-142064819D01*
X165238571Y-142064819D02*
X165143333Y-142017200D01*
X165143333Y-142017200D02*
X165095714Y-141969580D01*
X166000476Y-141064819D02*
X166667142Y-141064819D01*
X166667142Y-141064819D02*
X166238571Y-142064819D01*
X167476666Y-141398152D02*
X167476666Y-142064819D01*
X167238571Y-141017200D02*
X167000476Y-141731485D01*
X167000476Y-141731485D02*
X167619523Y-141731485D01*
X167857619Y-141064819D02*
X168429047Y-141064819D01*
X168143333Y-142064819D02*
X168143333Y-141064819D01*
X164264819Y-131151904D02*
X165074342Y-131151904D01*
X165074342Y-131151904D02*
X165169580Y-131104285D01*
X165169580Y-131104285D02*
X165217200Y-131056666D01*
X165217200Y-131056666D02*
X165264819Y-130961428D01*
X165264819Y-130961428D02*
X165264819Y-130770952D01*
X165264819Y-130770952D02*
X165217200Y-130675714D01*
X165217200Y-130675714D02*
X165169580Y-130628095D01*
X165169580Y-130628095D02*
X165074342Y-130580476D01*
X165074342Y-130580476D02*
X164264819Y-130580476D01*
X165264819Y-129580476D02*
X165264819Y-130151904D01*
X165264819Y-129866190D02*
X164264819Y-129866190D01*
X164264819Y-129866190D02*
X164407676Y-129961428D01*
X164407676Y-129961428D02*
X164502914Y-130056666D01*
X164502914Y-130056666D02*
X164550533Y-130151904D01*
X149219047Y-118954819D02*
X149219047Y-117954819D01*
X149219047Y-117954819D02*
X149552380Y-118669104D01*
X149552380Y-118669104D02*
X149885713Y-117954819D01*
X149885713Y-117954819D02*
X149885713Y-118954819D01*
X150314285Y-118050057D02*
X150361904Y-118002438D01*
X150361904Y-118002438D02*
X150457142Y-117954819D01*
X150457142Y-117954819D02*
X150695237Y-117954819D01*
X150695237Y-117954819D02*
X150790475Y-118002438D01*
X150790475Y-118002438D02*
X150838094Y-118050057D01*
X150838094Y-118050057D02*
X150885713Y-118145295D01*
X150885713Y-118145295D02*
X150885713Y-118240533D01*
X150885713Y-118240533D02*
X150838094Y-118383390D01*
X150838094Y-118383390D02*
X150266666Y-118954819D01*
X150266666Y-118954819D02*
X150885713Y-118954819D01*
X151076190Y-119050057D02*
X151838094Y-119050057D01*
X152028571Y-118907200D02*
X152171428Y-118954819D01*
X152171428Y-118954819D02*
X152409523Y-118954819D01*
X152409523Y-118954819D02*
X152504761Y-118907200D01*
X152504761Y-118907200D02*
X152552380Y-118859580D01*
X152552380Y-118859580D02*
X152599999Y-118764342D01*
X152599999Y-118764342D02*
X152599999Y-118669104D01*
X152599999Y-118669104D02*
X152552380Y-118573866D01*
X152552380Y-118573866D02*
X152504761Y-118526247D01*
X152504761Y-118526247D02*
X152409523Y-118478628D01*
X152409523Y-118478628D02*
X152219047Y-118431009D01*
X152219047Y-118431009D02*
X152123809Y-118383390D01*
X152123809Y-118383390D02*
X152076190Y-118335771D01*
X152076190Y-118335771D02*
X152028571Y-118240533D01*
X152028571Y-118240533D02*
X152028571Y-118145295D01*
X152028571Y-118145295D02*
X152076190Y-118050057D01*
X152076190Y-118050057D02*
X152123809Y-118002438D01*
X152123809Y-118002438D02*
X152219047Y-117954819D01*
X152219047Y-117954819D02*
X152457142Y-117954819D01*
X152457142Y-117954819D02*
X152599999Y-118002438D01*
X152885714Y-117954819D02*
X153457142Y-117954819D01*
X153171428Y-118954819D02*
X153171428Y-117954819D01*
X153742857Y-118669104D02*
X154219047Y-118669104D01*
X153647619Y-118954819D02*
X153980952Y-117954819D01*
X153980952Y-117954819D02*
X154314285Y-118954819D01*
X154647619Y-118954819D02*
X154647619Y-117954819D01*
X154647619Y-117954819D02*
X155219047Y-118954819D01*
X155219047Y-118954819D02*
X155219047Y-117954819D01*
X155695238Y-118954819D02*
X155695238Y-117954819D01*
X155695238Y-117954819D02*
X155933333Y-117954819D01*
X155933333Y-117954819D02*
X156076190Y-118002438D01*
X156076190Y-118002438D02*
X156171428Y-118097676D01*
X156171428Y-118097676D02*
X156219047Y-118192914D01*
X156219047Y-118192914D02*
X156266666Y-118383390D01*
X156266666Y-118383390D02*
X156266666Y-118526247D01*
X156266666Y-118526247D02*
X156219047Y-118716723D01*
X156219047Y-118716723D02*
X156171428Y-118811961D01*
X156171428Y-118811961D02*
X156076190Y-118907200D01*
X156076190Y-118907200D02*
X155933333Y-118954819D01*
X155933333Y-118954819D02*
X155695238Y-118954819D01*
X156885714Y-117954819D02*
X157076190Y-117954819D01*
X157076190Y-117954819D02*
X157171428Y-118002438D01*
X157171428Y-118002438D02*
X157266666Y-118097676D01*
X157266666Y-118097676D02*
X157314285Y-118288152D01*
X157314285Y-118288152D02*
X157314285Y-118621485D01*
X157314285Y-118621485D02*
X157266666Y-118811961D01*
X157266666Y-118811961D02*
X157171428Y-118907200D01*
X157171428Y-118907200D02*
X157076190Y-118954819D01*
X157076190Y-118954819D02*
X156885714Y-118954819D01*
X156885714Y-118954819D02*
X156790476Y-118907200D01*
X156790476Y-118907200D02*
X156695238Y-118811961D01*
X156695238Y-118811961D02*
X156647619Y-118621485D01*
X156647619Y-118621485D02*
X156647619Y-118288152D01*
X156647619Y-118288152D02*
X156695238Y-118097676D01*
X156695238Y-118097676D02*
X156790476Y-118002438D01*
X156790476Y-118002438D02*
X156885714Y-117954819D01*
X158076190Y-118431009D02*
X157742857Y-118431009D01*
X157742857Y-118954819D02*
X157742857Y-117954819D01*
X157742857Y-117954819D02*
X158219047Y-117954819D01*
X158933333Y-118431009D02*
X158600000Y-118431009D01*
X158600000Y-118954819D02*
X158600000Y-117954819D01*
X158600000Y-117954819D02*
X159076190Y-117954819D01*
X153338095Y-115804819D02*
X153338095Y-114804819D01*
X153338095Y-115281009D02*
X153909523Y-115281009D01*
X153909523Y-115804819D02*
X153909523Y-114804819D01*
X154338095Y-114900057D02*
X154385714Y-114852438D01*
X154385714Y-114852438D02*
X154480952Y-114804819D01*
X154480952Y-114804819D02*
X154719047Y-114804819D01*
X154719047Y-114804819D02*
X154814285Y-114852438D01*
X154814285Y-114852438D02*
X154861904Y-114900057D01*
X154861904Y-114900057D02*
X154909523Y-114995295D01*
X154909523Y-114995295D02*
X154909523Y-115090533D01*
X154909523Y-115090533D02*
X154861904Y-115233390D01*
X154861904Y-115233390D02*
X154290476Y-115804819D01*
X154290476Y-115804819D02*
X154909523Y-115804819D01*
X155014286Y-156834819D02*
X155347619Y-157834819D01*
X155347619Y-157834819D02*
X155680952Y-156834819D01*
X156014286Y-157834819D02*
X156014286Y-156834819D01*
X156014286Y-157311009D02*
X156585714Y-157311009D01*
X156585714Y-157834819D02*
X156585714Y-156834819D01*
X157395238Y-157311009D02*
X157061905Y-157311009D01*
X157061905Y-157834819D02*
X157061905Y-156834819D01*
X157061905Y-156834819D02*
X157538095Y-156834819D01*
X155754819Y-155333333D02*
X156469104Y-155333333D01*
X156469104Y-155333333D02*
X156611961Y-155380952D01*
X156611961Y-155380952D02*
X156707200Y-155476190D01*
X156707200Y-155476190D02*
X156754819Y-155619047D01*
X156754819Y-155619047D02*
X156754819Y-155714285D01*
X155754819Y-154428571D02*
X155754819Y-154619047D01*
X155754819Y-154619047D02*
X155802438Y-154714285D01*
X155802438Y-154714285D02*
X155850057Y-154761904D01*
X155850057Y-154761904D02*
X155992914Y-154857142D01*
X155992914Y-154857142D02*
X156183390Y-154904761D01*
X156183390Y-154904761D02*
X156564342Y-154904761D01*
X156564342Y-154904761D02*
X156659580Y-154857142D01*
X156659580Y-154857142D02*
X156707200Y-154809523D01*
X156707200Y-154809523D02*
X156754819Y-154714285D01*
X156754819Y-154714285D02*
X156754819Y-154523809D01*
X156754819Y-154523809D02*
X156707200Y-154428571D01*
X156707200Y-154428571D02*
X156659580Y-154380952D01*
X156659580Y-154380952D02*
X156564342Y-154333333D01*
X156564342Y-154333333D02*
X156326247Y-154333333D01*
X156326247Y-154333333D02*
X156231009Y-154380952D01*
X156231009Y-154380952D02*
X156183390Y-154428571D01*
X156183390Y-154428571D02*
X156135771Y-154523809D01*
X156135771Y-154523809D02*
X156135771Y-154714285D01*
X156135771Y-154714285D02*
X156183390Y-154809523D01*
X156183390Y-154809523D02*
X156231009Y-154857142D01*
X156231009Y-154857142D02*
X156326247Y-154904761D01*
X174135238Y-118138152D02*
X174135238Y-118804819D01*
X173897143Y-117757200D02*
X173659048Y-118471485D01*
X173659048Y-118471485D02*
X174278095Y-118471485D01*
X174659048Y-118709580D02*
X174706667Y-118757200D01*
X174706667Y-118757200D02*
X174659048Y-118804819D01*
X174659048Y-118804819D02*
X174611429Y-118757200D01*
X174611429Y-118757200D02*
X174659048Y-118709580D01*
X174659048Y-118709580D02*
X174659048Y-118804819D01*
X175040000Y-117804819D02*
X175706666Y-117804819D01*
X175706666Y-117804819D02*
X175278095Y-118804819D01*
X176516190Y-118138152D02*
X176516190Y-118804819D01*
X176087619Y-118138152D02*
X176087619Y-118661961D01*
X176087619Y-118661961D02*
X176135238Y-118757200D01*
X176135238Y-118757200D02*
X176230476Y-118804819D01*
X176230476Y-118804819D02*
X176373333Y-118804819D01*
X176373333Y-118804819D02*
X176468571Y-118757200D01*
X176468571Y-118757200D02*
X176516190Y-118709580D01*
X177325714Y-118281009D02*
X176992381Y-118281009D01*
X176992381Y-118804819D02*
X176992381Y-117804819D01*
X176992381Y-117804819D02*
X177468571Y-117804819D01*
X172722380Y-124004819D02*
X172150952Y-124004819D01*
X172436666Y-124004819D02*
X172436666Y-123004819D01*
X172436666Y-123004819D02*
X172341428Y-123147676D01*
X172341428Y-123147676D02*
X172246190Y-123242914D01*
X172246190Y-123242914D02*
X172150952Y-123290533D01*
X173341428Y-123004819D02*
X173436666Y-123004819D01*
X173436666Y-123004819D02*
X173531904Y-123052438D01*
X173531904Y-123052438D02*
X173579523Y-123100057D01*
X173579523Y-123100057D02*
X173627142Y-123195295D01*
X173627142Y-123195295D02*
X173674761Y-123385771D01*
X173674761Y-123385771D02*
X173674761Y-123623866D01*
X173674761Y-123623866D02*
X173627142Y-123814342D01*
X173627142Y-123814342D02*
X173579523Y-123909580D01*
X173579523Y-123909580D02*
X173531904Y-123957200D01*
X173531904Y-123957200D02*
X173436666Y-124004819D01*
X173436666Y-124004819D02*
X173341428Y-124004819D01*
X173341428Y-124004819D02*
X173246190Y-123957200D01*
X173246190Y-123957200D02*
X173198571Y-123909580D01*
X173198571Y-123909580D02*
X173150952Y-123814342D01*
X173150952Y-123814342D02*
X173103333Y-123623866D01*
X173103333Y-123623866D02*
X173103333Y-123385771D01*
X173103333Y-123385771D02*
X173150952Y-123195295D01*
X173150952Y-123195295D02*
X173198571Y-123100057D01*
X173198571Y-123100057D02*
X173246190Y-123052438D01*
X173246190Y-123052438D02*
X173341428Y-123004819D01*
X174293809Y-123004819D02*
X174389047Y-123004819D01*
X174389047Y-123004819D02*
X174484285Y-123052438D01*
X174484285Y-123052438D02*
X174531904Y-123100057D01*
X174531904Y-123100057D02*
X174579523Y-123195295D01*
X174579523Y-123195295D02*
X174627142Y-123385771D01*
X174627142Y-123385771D02*
X174627142Y-123623866D01*
X174627142Y-123623866D02*
X174579523Y-123814342D01*
X174579523Y-123814342D02*
X174531904Y-123909580D01*
X174531904Y-123909580D02*
X174484285Y-123957200D01*
X174484285Y-123957200D02*
X174389047Y-124004819D01*
X174389047Y-124004819D02*
X174293809Y-124004819D01*
X174293809Y-124004819D02*
X174198571Y-123957200D01*
X174198571Y-123957200D02*
X174150952Y-123909580D01*
X174150952Y-123909580D02*
X174103333Y-123814342D01*
X174103333Y-123814342D02*
X174055714Y-123623866D01*
X174055714Y-123623866D02*
X174055714Y-123385771D01*
X174055714Y-123385771D02*
X174103333Y-123195295D01*
X174103333Y-123195295D02*
X174150952Y-123100057D01*
X174150952Y-123100057D02*
X174198571Y-123052438D01*
X174198571Y-123052438D02*
X174293809Y-123004819D01*
X175055714Y-123338152D02*
X175055714Y-124004819D01*
X175055714Y-123433390D02*
X175103333Y-123385771D01*
X175103333Y-123385771D02*
X175198571Y-123338152D01*
X175198571Y-123338152D02*
X175341428Y-123338152D01*
X175341428Y-123338152D02*
X175436666Y-123385771D01*
X175436666Y-123385771D02*
X175484285Y-123481009D01*
X175484285Y-123481009D02*
X175484285Y-124004819D01*
X176293809Y-123481009D02*
X175960476Y-123481009D01*
X175960476Y-124004819D02*
X175960476Y-123004819D01*
X175960476Y-123004819D02*
X176436666Y-123004819D01*
X121019047Y-157124819D02*
X121019047Y-156124819D01*
X121019047Y-156124819D02*
X121352380Y-156839104D01*
X121352380Y-156839104D02*
X121685713Y-156124819D01*
X121685713Y-156124819D02*
X121685713Y-157124819D01*
X122114285Y-156220057D02*
X122161904Y-156172438D01*
X122161904Y-156172438D02*
X122257142Y-156124819D01*
X122257142Y-156124819D02*
X122495237Y-156124819D01*
X122495237Y-156124819D02*
X122590475Y-156172438D01*
X122590475Y-156172438D02*
X122638094Y-156220057D01*
X122638094Y-156220057D02*
X122685713Y-156315295D01*
X122685713Y-156315295D02*
X122685713Y-156410533D01*
X122685713Y-156410533D02*
X122638094Y-156553390D01*
X122638094Y-156553390D02*
X122066666Y-157124819D01*
X122066666Y-157124819D02*
X122685713Y-157124819D01*
X122876190Y-157220057D02*
X123638094Y-157220057D01*
X123828571Y-157077200D02*
X123971428Y-157124819D01*
X123971428Y-157124819D02*
X124209523Y-157124819D01*
X124209523Y-157124819D02*
X124304761Y-157077200D01*
X124304761Y-157077200D02*
X124352380Y-157029580D01*
X124352380Y-157029580D02*
X124399999Y-156934342D01*
X124399999Y-156934342D02*
X124399999Y-156839104D01*
X124399999Y-156839104D02*
X124352380Y-156743866D01*
X124352380Y-156743866D02*
X124304761Y-156696247D01*
X124304761Y-156696247D02*
X124209523Y-156648628D01*
X124209523Y-156648628D02*
X124019047Y-156601009D01*
X124019047Y-156601009D02*
X123923809Y-156553390D01*
X123923809Y-156553390D02*
X123876190Y-156505771D01*
X123876190Y-156505771D02*
X123828571Y-156410533D01*
X123828571Y-156410533D02*
X123828571Y-156315295D01*
X123828571Y-156315295D02*
X123876190Y-156220057D01*
X123876190Y-156220057D02*
X123923809Y-156172438D01*
X123923809Y-156172438D02*
X124019047Y-156124819D01*
X124019047Y-156124819D02*
X124257142Y-156124819D01*
X124257142Y-156124819D02*
X124399999Y-156172438D01*
X124685714Y-156124819D02*
X125257142Y-156124819D01*
X124971428Y-157124819D02*
X124971428Y-156124819D01*
X125542857Y-156839104D02*
X126019047Y-156839104D01*
X125447619Y-157124819D02*
X125780952Y-156124819D01*
X125780952Y-156124819D02*
X126114285Y-157124819D01*
X126447619Y-157124819D02*
X126447619Y-156124819D01*
X126447619Y-156124819D02*
X127019047Y-157124819D01*
X127019047Y-157124819D02*
X127019047Y-156124819D01*
X127495238Y-157124819D02*
X127495238Y-156124819D01*
X127495238Y-156124819D02*
X127733333Y-156124819D01*
X127733333Y-156124819D02*
X127876190Y-156172438D01*
X127876190Y-156172438D02*
X127971428Y-156267676D01*
X127971428Y-156267676D02*
X128019047Y-156362914D01*
X128019047Y-156362914D02*
X128066666Y-156553390D01*
X128066666Y-156553390D02*
X128066666Y-156696247D01*
X128066666Y-156696247D02*
X128019047Y-156886723D01*
X128019047Y-156886723D02*
X127971428Y-156981961D01*
X127971428Y-156981961D02*
X127876190Y-157077200D01*
X127876190Y-157077200D02*
X127733333Y-157124819D01*
X127733333Y-157124819D02*
X127495238Y-157124819D01*
X128685714Y-156124819D02*
X128876190Y-156124819D01*
X128876190Y-156124819D02*
X128971428Y-156172438D01*
X128971428Y-156172438D02*
X129066666Y-156267676D01*
X129066666Y-156267676D02*
X129114285Y-156458152D01*
X129114285Y-156458152D02*
X129114285Y-156791485D01*
X129114285Y-156791485D02*
X129066666Y-156981961D01*
X129066666Y-156981961D02*
X128971428Y-157077200D01*
X128971428Y-157077200D02*
X128876190Y-157124819D01*
X128876190Y-157124819D02*
X128685714Y-157124819D01*
X128685714Y-157124819D02*
X128590476Y-157077200D01*
X128590476Y-157077200D02*
X128495238Y-156981961D01*
X128495238Y-156981961D02*
X128447619Y-156791485D01*
X128447619Y-156791485D02*
X128447619Y-156458152D01*
X128447619Y-156458152D02*
X128495238Y-156267676D01*
X128495238Y-156267676D02*
X128590476Y-156172438D01*
X128590476Y-156172438D02*
X128685714Y-156124819D01*
X129876190Y-156601009D02*
X129542857Y-156601009D01*
X129542857Y-157124819D02*
X129542857Y-156124819D01*
X129542857Y-156124819D02*
X130019047Y-156124819D01*
X130733333Y-156601009D02*
X130400000Y-156601009D01*
X130400000Y-157124819D02*
X130400000Y-156124819D01*
X130400000Y-156124819D02*
X130876190Y-156124819D01*
X125138095Y-153974819D02*
X125138095Y-152974819D01*
X125138095Y-153451009D02*
X125709523Y-153451009D01*
X125709523Y-153974819D02*
X125709523Y-152974819D01*
X126090476Y-152974819D02*
X126709523Y-152974819D01*
X126709523Y-152974819D02*
X126376190Y-153355771D01*
X126376190Y-153355771D02*
X126519047Y-153355771D01*
X126519047Y-153355771D02*
X126614285Y-153403390D01*
X126614285Y-153403390D02*
X126661904Y-153451009D01*
X126661904Y-153451009D02*
X126709523Y-153546247D01*
X126709523Y-153546247D02*
X126709523Y-153784342D01*
X126709523Y-153784342D02*
X126661904Y-153879580D01*
X126661904Y-153879580D02*
X126614285Y-153927200D01*
X126614285Y-153927200D02*
X126519047Y-153974819D01*
X126519047Y-153974819D02*
X126233333Y-153974819D01*
X126233333Y-153974819D02*
X126138095Y-153927200D01*
X126138095Y-153927200D02*
X126090476Y-153879580D01*
X149219047Y-157124819D02*
X149219047Y-156124819D01*
X149219047Y-156124819D02*
X149552380Y-156839104D01*
X149552380Y-156839104D02*
X149885713Y-156124819D01*
X149885713Y-156124819D02*
X149885713Y-157124819D01*
X150314285Y-156220057D02*
X150361904Y-156172438D01*
X150361904Y-156172438D02*
X150457142Y-156124819D01*
X150457142Y-156124819D02*
X150695237Y-156124819D01*
X150695237Y-156124819D02*
X150790475Y-156172438D01*
X150790475Y-156172438D02*
X150838094Y-156220057D01*
X150838094Y-156220057D02*
X150885713Y-156315295D01*
X150885713Y-156315295D02*
X150885713Y-156410533D01*
X150885713Y-156410533D02*
X150838094Y-156553390D01*
X150838094Y-156553390D02*
X150266666Y-157124819D01*
X150266666Y-157124819D02*
X150885713Y-157124819D01*
X151076190Y-157220057D02*
X151838094Y-157220057D01*
X152028571Y-157077200D02*
X152171428Y-157124819D01*
X152171428Y-157124819D02*
X152409523Y-157124819D01*
X152409523Y-157124819D02*
X152504761Y-157077200D01*
X152504761Y-157077200D02*
X152552380Y-157029580D01*
X152552380Y-157029580D02*
X152599999Y-156934342D01*
X152599999Y-156934342D02*
X152599999Y-156839104D01*
X152599999Y-156839104D02*
X152552380Y-156743866D01*
X152552380Y-156743866D02*
X152504761Y-156696247D01*
X152504761Y-156696247D02*
X152409523Y-156648628D01*
X152409523Y-156648628D02*
X152219047Y-156601009D01*
X152219047Y-156601009D02*
X152123809Y-156553390D01*
X152123809Y-156553390D02*
X152076190Y-156505771D01*
X152076190Y-156505771D02*
X152028571Y-156410533D01*
X152028571Y-156410533D02*
X152028571Y-156315295D01*
X152028571Y-156315295D02*
X152076190Y-156220057D01*
X152076190Y-156220057D02*
X152123809Y-156172438D01*
X152123809Y-156172438D02*
X152219047Y-156124819D01*
X152219047Y-156124819D02*
X152457142Y-156124819D01*
X152457142Y-156124819D02*
X152599999Y-156172438D01*
X152885714Y-156124819D02*
X153457142Y-156124819D01*
X153171428Y-157124819D02*
X153171428Y-156124819D01*
X153742857Y-156839104D02*
X154219047Y-156839104D01*
X153647619Y-157124819D02*
X153980952Y-156124819D01*
X153980952Y-156124819D02*
X154314285Y-157124819D01*
X154647619Y-157124819D02*
X154647619Y-156124819D01*
X154647619Y-156124819D02*
X155219047Y-157124819D01*
X155219047Y-157124819D02*
X155219047Y-156124819D01*
X155695238Y-157124819D02*
X155695238Y-156124819D01*
X155695238Y-156124819D02*
X155933333Y-156124819D01*
X155933333Y-156124819D02*
X156076190Y-156172438D01*
X156076190Y-156172438D02*
X156171428Y-156267676D01*
X156171428Y-156267676D02*
X156219047Y-156362914D01*
X156219047Y-156362914D02*
X156266666Y-156553390D01*
X156266666Y-156553390D02*
X156266666Y-156696247D01*
X156266666Y-156696247D02*
X156219047Y-156886723D01*
X156219047Y-156886723D02*
X156171428Y-156981961D01*
X156171428Y-156981961D02*
X156076190Y-157077200D01*
X156076190Y-157077200D02*
X155933333Y-157124819D01*
X155933333Y-157124819D02*
X155695238Y-157124819D01*
X156885714Y-156124819D02*
X157076190Y-156124819D01*
X157076190Y-156124819D02*
X157171428Y-156172438D01*
X157171428Y-156172438D02*
X157266666Y-156267676D01*
X157266666Y-156267676D02*
X157314285Y-156458152D01*
X157314285Y-156458152D02*
X157314285Y-156791485D01*
X157314285Y-156791485D02*
X157266666Y-156981961D01*
X157266666Y-156981961D02*
X157171428Y-157077200D01*
X157171428Y-157077200D02*
X157076190Y-157124819D01*
X157076190Y-157124819D02*
X156885714Y-157124819D01*
X156885714Y-157124819D02*
X156790476Y-157077200D01*
X156790476Y-157077200D02*
X156695238Y-156981961D01*
X156695238Y-156981961D02*
X156647619Y-156791485D01*
X156647619Y-156791485D02*
X156647619Y-156458152D01*
X156647619Y-156458152D02*
X156695238Y-156267676D01*
X156695238Y-156267676D02*
X156790476Y-156172438D01*
X156790476Y-156172438D02*
X156885714Y-156124819D01*
X158076190Y-156601009D02*
X157742857Y-156601009D01*
X157742857Y-157124819D02*
X157742857Y-156124819D01*
X157742857Y-156124819D02*
X158219047Y-156124819D01*
X158933333Y-156601009D02*
X158600000Y-156601009D01*
X158600000Y-157124819D02*
X158600000Y-156124819D01*
X158600000Y-156124819D02*
X159076190Y-156124819D01*
X153338095Y-153974819D02*
X153338095Y-152974819D01*
X153338095Y-153451009D02*
X153909523Y-153451009D01*
X153909523Y-153974819D02*
X153909523Y-152974819D01*
X154814285Y-153308152D02*
X154814285Y-153974819D01*
X154576190Y-152927200D02*
X154338095Y-153641485D01*
X154338095Y-153641485D02*
X154957142Y-153641485D01*
X113759580Y-143488095D02*
X113807200Y-143535714D01*
X113807200Y-143535714D02*
X113854819Y-143678571D01*
X113854819Y-143678571D02*
X113854819Y-143773809D01*
X113854819Y-143773809D02*
X113807200Y-143916666D01*
X113807200Y-143916666D02*
X113711961Y-144011904D01*
X113711961Y-144011904D02*
X113616723Y-144059523D01*
X113616723Y-144059523D02*
X113426247Y-144107142D01*
X113426247Y-144107142D02*
X113283390Y-144107142D01*
X113283390Y-144107142D02*
X113092914Y-144059523D01*
X113092914Y-144059523D02*
X112997676Y-144011904D01*
X112997676Y-144011904D02*
X112902438Y-143916666D01*
X112902438Y-143916666D02*
X112854819Y-143773809D01*
X112854819Y-143773809D02*
X112854819Y-143678571D01*
X112854819Y-143678571D02*
X112902438Y-143535714D01*
X112902438Y-143535714D02*
X112950057Y-143488095D01*
X113854819Y-142916666D02*
X113807200Y-143011904D01*
X113807200Y-143011904D02*
X113759580Y-143059523D01*
X113759580Y-143059523D02*
X113664342Y-143107142D01*
X113664342Y-143107142D02*
X113378628Y-143107142D01*
X113378628Y-143107142D02*
X113283390Y-143059523D01*
X113283390Y-143059523D02*
X113235771Y-143011904D01*
X113235771Y-143011904D02*
X113188152Y-142916666D01*
X113188152Y-142916666D02*
X113188152Y-142773809D01*
X113188152Y-142773809D02*
X113235771Y-142678571D01*
X113235771Y-142678571D02*
X113283390Y-142630952D01*
X113283390Y-142630952D02*
X113378628Y-142583333D01*
X113378628Y-142583333D02*
X113664342Y-142583333D01*
X113664342Y-142583333D02*
X113759580Y-142630952D01*
X113759580Y-142630952D02*
X113807200Y-142678571D01*
X113807200Y-142678571D02*
X113854819Y-142773809D01*
X113854819Y-142773809D02*
X113854819Y-142916666D01*
X113188152Y-142154761D02*
X113854819Y-142154761D01*
X113283390Y-142154761D02*
X113235771Y-142107142D01*
X113235771Y-142107142D02*
X113188152Y-142011904D01*
X113188152Y-142011904D02*
X113188152Y-141869047D01*
X113188152Y-141869047D02*
X113235771Y-141773809D01*
X113235771Y-141773809D02*
X113331009Y-141726190D01*
X113331009Y-141726190D02*
X113854819Y-141726190D01*
X113188152Y-141249999D02*
X113854819Y-141249999D01*
X113283390Y-141249999D02*
X113235771Y-141202380D01*
X113235771Y-141202380D02*
X113188152Y-141107142D01*
X113188152Y-141107142D02*
X113188152Y-140964285D01*
X113188152Y-140964285D02*
X113235771Y-140869047D01*
X113235771Y-140869047D02*
X113331009Y-140821428D01*
X113331009Y-140821428D02*
X113854819Y-140821428D01*
X113950057Y-140583333D02*
X113950057Y-139821428D01*
X112854819Y-139392856D02*
X112854819Y-139297618D01*
X112854819Y-139297618D02*
X112902438Y-139202380D01*
X112902438Y-139202380D02*
X112950057Y-139154761D01*
X112950057Y-139154761D02*
X113045295Y-139107142D01*
X113045295Y-139107142D02*
X113235771Y-139059523D01*
X113235771Y-139059523D02*
X113473866Y-139059523D01*
X113473866Y-139059523D02*
X113664342Y-139107142D01*
X113664342Y-139107142D02*
X113759580Y-139154761D01*
X113759580Y-139154761D02*
X113807200Y-139202380D01*
X113807200Y-139202380D02*
X113854819Y-139297618D01*
X113854819Y-139297618D02*
X113854819Y-139392856D01*
X113854819Y-139392856D02*
X113807200Y-139488094D01*
X113807200Y-139488094D02*
X113759580Y-139535713D01*
X113759580Y-139535713D02*
X113664342Y-139583332D01*
X113664342Y-139583332D02*
X113473866Y-139630951D01*
X113473866Y-139630951D02*
X113235771Y-139630951D01*
X113235771Y-139630951D02*
X113045295Y-139583332D01*
X113045295Y-139583332D02*
X112950057Y-139535713D01*
X112950057Y-139535713D02*
X112902438Y-139488094D01*
X112902438Y-139488094D02*
X112854819Y-139392856D01*
X113854819Y-138107142D02*
X113854819Y-138678570D01*
X113854819Y-138392856D02*
X112854819Y-138392856D01*
X112854819Y-138392856D02*
X112997676Y-138488094D01*
X112997676Y-138488094D02*
X113092914Y-138583332D01*
X113092914Y-138583332D02*
X113140533Y-138678570D01*
X113854819Y-137773808D02*
X113188152Y-137249999D01*
X113188152Y-137773808D02*
X113854819Y-137249999D01*
X112854819Y-136678570D02*
X112854819Y-136583332D01*
X112854819Y-136583332D02*
X112902438Y-136488094D01*
X112902438Y-136488094D02*
X112950057Y-136440475D01*
X112950057Y-136440475D02*
X113045295Y-136392856D01*
X113045295Y-136392856D02*
X113235771Y-136345237D01*
X113235771Y-136345237D02*
X113473866Y-136345237D01*
X113473866Y-136345237D02*
X113664342Y-136392856D01*
X113664342Y-136392856D02*
X113759580Y-136440475D01*
X113759580Y-136440475D02*
X113807200Y-136488094D01*
X113807200Y-136488094D02*
X113854819Y-136583332D01*
X113854819Y-136583332D02*
X113854819Y-136678570D01*
X113854819Y-136678570D02*
X113807200Y-136773808D01*
X113807200Y-136773808D02*
X113759580Y-136821427D01*
X113759580Y-136821427D02*
X113664342Y-136869046D01*
X113664342Y-136869046D02*
X113473866Y-136916665D01*
X113473866Y-136916665D02*
X113235771Y-136916665D01*
X113235771Y-136916665D02*
X113045295Y-136869046D01*
X113045295Y-136869046D02*
X112950057Y-136821427D01*
X112950057Y-136821427D02*
X112902438Y-136773808D01*
X112902438Y-136773808D02*
X112854819Y-136678570D01*
X112950057Y-135964284D02*
X112902438Y-135916665D01*
X112902438Y-135916665D02*
X112854819Y-135821427D01*
X112854819Y-135821427D02*
X112854819Y-135583332D01*
X112854819Y-135583332D02*
X112902438Y-135488094D01*
X112902438Y-135488094D02*
X112950057Y-135440475D01*
X112950057Y-135440475D02*
X113045295Y-135392856D01*
X113045295Y-135392856D02*
X113140533Y-135392856D01*
X113140533Y-135392856D02*
X113283390Y-135440475D01*
X113283390Y-135440475D02*
X113854819Y-136011903D01*
X113854819Y-136011903D02*
X113854819Y-135392856D01*
X105904819Y-140083333D02*
X106619104Y-140083333D01*
X106619104Y-140083333D02*
X106761961Y-140130952D01*
X106761961Y-140130952D02*
X106857200Y-140226190D01*
X106857200Y-140226190D02*
X106904819Y-140369047D01*
X106904819Y-140369047D02*
X106904819Y-140464285D01*
X105904819Y-139130952D02*
X105904819Y-139607142D01*
X105904819Y-139607142D02*
X106381009Y-139654761D01*
X106381009Y-139654761D02*
X106333390Y-139607142D01*
X106333390Y-139607142D02*
X106285771Y-139511904D01*
X106285771Y-139511904D02*
X106285771Y-139273809D01*
X106285771Y-139273809D02*
X106333390Y-139178571D01*
X106333390Y-139178571D02*
X106381009Y-139130952D01*
X106381009Y-139130952D02*
X106476247Y-139083333D01*
X106476247Y-139083333D02*
X106714342Y-139083333D01*
X106714342Y-139083333D02*
X106809580Y-139130952D01*
X106809580Y-139130952D02*
X106857200Y-139178571D01*
X106857200Y-139178571D02*
X106904819Y-139273809D01*
X106904819Y-139273809D02*
X106904819Y-139511904D01*
X106904819Y-139511904D02*
X106857200Y-139607142D01*
X106857200Y-139607142D02*
X106809580Y-139654761D01*
X104135238Y-118638152D02*
X104135238Y-119304819D01*
X103897143Y-118257200D02*
X103659048Y-118971485D01*
X103659048Y-118971485D02*
X104278095Y-118971485D01*
X104659048Y-119209580D02*
X104706667Y-119257200D01*
X104706667Y-119257200D02*
X104659048Y-119304819D01*
X104659048Y-119304819D02*
X104611429Y-119257200D01*
X104611429Y-119257200D02*
X104659048Y-119209580D01*
X104659048Y-119209580D02*
X104659048Y-119304819D01*
X105040000Y-118304819D02*
X105706666Y-118304819D01*
X105706666Y-118304819D02*
X105278095Y-119304819D01*
X106516190Y-118638152D02*
X106516190Y-119304819D01*
X106087619Y-118638152D02*
X106087619Y-119161961D01*
X106087619Y-119161961D02*
X106135238Y-119257200D01*
X106135238Y-119257200D02*
X106230476Y-119304819D01*
X106230476Y-119304819D02*
X106373333Y-119304819D01*
X106373333Y-119304819D02*
X106468571Y-119257200D01*
X106468571Y-119257200D02*
X106516190Y-119209580D01*
X107325714Y-118781009D02*
X106992381Y-118781009D01*
X106992381Y-119304819D02*
X106992381Y-118304819D01*
X106992381Y-118304819D02*
X107468571Y-118304819D01*
X110714286Y-167407200D02*
X110857143Y-167454819D01*
X110857143Y-167454819D02*
X111095238Y-167454819D01*
X111095238Y-167454819D02*
X111190476Y-167407200D01*
X111190476Y-167407200D02*
X111238095Y-167359580D01*
X111238095Y-167359580D02*
X111285714Y-167264342D01*
X111285714Y-167264342D02*
X111285714Y-167169104D01*
X111285714Y-167169104D02*
X111238095Y-167073866D01*
X111238095Y-167073866D02*
X111190476Y-167026247D01*
X111190476Y-167026247D02*
X111095238Y-166978628D01*
X111095238Y-166978628D02*
X110904762Y-166931009D01*
X110904762Y-166931009D02*
X110809524Y-166883390D01*
X110809524Y-166883390D02*
X110761905Y-166835771D01*
X110761905Y-166835771D02*
X110714286Y-166740533D01*
X110714286Y-166740533D02*
X110714286Y-166645295D01*
X110714286Y-166645295D02*
X110761905Y-166550057D01*
X110761905Y-166550057D02*
X110809524Y-166502438D01*
X110809524Y-166502438D02*
X110904762Y-166454819D01*
X110904762Y-166454819D02*
X111142857Y-166454819D01*
X111142857Y-166454819D02*
X111285714Y-166502438D01*
X111714286Y-167454819D02*
X111714286Y-166454819D01*
X111714286Y-166454819D02*
X112047619Y-167169104D01*
X112047619Y-167169104D02*
X112380952Y-166454819D01*
X112380952Y-166454819D02*
X112380952Y-167454819D01*
X112809524Y-167169104D02*
X113285714Y-167169104D01*
X112714286Y-167454819D02*
X113047619Y-166454819D01*
X113047619Y-166454819D02*
X113380952Y-167454819D01*
X111666666Y-161454819D02*
X111666666Y-162169104D01*
X111666666Y-162169104D02*
X111619047Y-162311961D01*
X111619047Y-162311961D02*
X111523809Y-162407200D01*
X111523809Y-162407200D02*
X111380952Y-162454819D01*
X111380952Y-162454819D02*
X111285714Y-162454819D01*
X112571428Y-161788152D02*
X112571428Y-162454819D01*
X112333333Y-161407200D02*
X112095238Y-162121485D01*
X112095238Y-162121485D02*
X112714285Y-162121485D01*
X105643333Y-150824819D02*
X105071905Y-150824819D01*
X105357619Y-150824819D02*
X105357619Y-149824819D01*
X105357619Y-149824819D02*
X105262381Y-149967676D01*
X105262381Y-149967676D02*
X105167143Y-150062914D01*
X105167143Y-150062914D02*
X105071905Y-150110533D01*
X106262381Y-149824819D02*
X106357619Y-149824819D01*
X106357619Y-149824819D02*
X106452857Y-149872438D01*
X106452857Y-149872438D02*
X106500476Y-149920057D01*
X106500476Y-149920057D02*
X106548095Y-150015295D01*
X106548095Y-150015295D02*
X106595714Y-150205771D01*
X106595714Y-150205771D02*
X106595714Y-150443866D01*
X106595714Y-150443866D02*
X106548095Y-150634342D01*
X106548095Y-150634342D02*
X106500476Y-150729580D01*
X106500476Y-150729580D02*
X106452857Y-150777200D01*
X106452857Y-150777200D02*
X106357619Y-150824819D01*
X106357619Y-150824819D02*
X106262381Y-150824819D01*
X106262381Y-150824819D02*
X106167143Y-150777200D01*
X106167143Y-150777200D02*
X106119524Y-150729580D01*
X106119524Y-150729580D02*
X106071905Y-150634342D01*
X106071905Y-150634342D02*
X106024286Y-150443866D01*
X106024286Y-150443866D02*
X106024286Y-150205771D01*
X106024286Y-150205771D02*
X106071905Y-150015295D01*
X106071905Y-150015295D02*
X106119524Y-149920057D01*
X106119524Y-149920057D02*
X106167143Y-149872438D01*
X106167143Y-149872438D02*
X106262381Y-149824819D01*
X107214762Y-149824819D02*
X107310000Y-149824819D01*
X107310000Y-149824819D02*
X107405238Y-149872438D01*
X107405238Y-149872438D02*
X107452857Y-149920057D01*
X107452857Y-149920057D02*
X107500476Y-150015295D01*
X107500476Y-150015295D02*
X107548095Y-150205771D01*
X107548095Y-150205771D02*
X107548095Y-150443866D01*
X107548095Y-150443866D02*
X107500476Y-150634342D01*
X107500476Y-150634342D02*
X107452857Y-150729580D01*
X107452857Y-150729580D02*
X107405238Y-150777200D01*
X107405238Y-150777200D02*
X107310000Y-150824819D01*
X107310000Y-150824819D02*
X107214762Y-150824819D01*
X107214762Y-150824819D02*
X107119524Y-150777200D01*
X107119524Y-150777200D02*
X107071905Y-150729580D01*
X107071905Y-150729580D02*
X107024286Y-150634342D01*
X107024286Y-150634342D02*
X106976667Y-150443866D01*
X106976667Y-150443866D02*
X106976667Y-150205771D01*
X106976667Y-150205771D02*
X107024286Y-150015295D01*
X107024286Y-150015295D02*
X107071905Y-149920057D01*
X107071905Y-149920057D02*
X107119524Y-149872438D01*
X107119524Y-149872438D02*
X107214762Y-149824819D01*
X108548095Y-150824819D02*
X108214762Y-150348628D01*
X107976667Y-150824819D02*
X107976667Y-149824819D01*
X107976667Y-149824819D02*
X108357619Y-149824819D01*
X108357619Y-149824819D02*
X108452857Y-149872438D01*
X108452857Y-149872438D02*
X108500476Y-149920057D01*
X108500476Y-149920057D02*
X108548095Y-150015295D01*
X108548095Y-150015295D02*
X108548095Y-150158152D01*
X108548095Y-150158152D02*
X108500476Y-150253390D01*
X108500476Y-150253390D02*
X108452857Y-150301009D01*
X108452857Y-150301009D02*
X108357619Y-150348628D01*
X108357619Y-150348628D02*
X107976667Y-150348628D01*
X106643333Y-148454819D02*
X106310000Y-147978628D01*
X106071905Y-148454819D02*
X106071905Y-147454819D01*
X106071905Y-147454819D02*
X106452857Y-147454819D01*
X106452857Y-147454819D02*
X106548095Y-147502438D01*
X106548095Y-147502438D02*
X106595714Y-147550057D01*
X106595714Y-147550057D02*
X106643333Y-147645295D01*
X106643333Y-147645295D02*
X106643333Y-147788152D01*
X106643333Y-147788152D02*
X106595714Y-147883390D01*
X106595714Y-147883390D02*
X106548095Y-147931009D01*
X106548095Y-147931009D02*
X106452857Y-147978628D01*
X106452857Y-147978628D02*
X106071905Y-147978628D01*
X107024286Y-147550057D02*
X107071905Y-147502438D01*
X107071905Y-147502438D02*
X107167143Y-147454819D01*
X107167143Y-147454819D02*
X107405238Y-147454819D01*
X107405238Y-147454819D02*
X107500476Y-147502438D01*
X107500476Y-147502438D02*
X107548095Y-147550057D01*
X107548095Y-147550057D02*
X107595714Y-147645295D01*
X107595714Y-147645295D02*
X107595714Y-147740533D01*
X107595714Y-147740533D02*
X107548095Y-147883390D01*
X107548095Y-147883390D02*
X106976667Y-148454819D01*
X106976667Y-148454819D02*
X107595714Y-148454819D01*
X166372856Y-142494819D02*
X165896666Y-142494819D01*
X165896666Y-142494819D02*
X165896666Y-141494819D01*
X166563333Y-141494819D02*
X167134761Y-141494819D01*
X166849047Y-142494819D02*
X166849047Y-141494819D01*
X167420476Y-142447200D02*
X167563333Y-142494819D01*
X167563333Y-142494819D02*
X167801428Y-142494819D01*
X167801428Y-142494819D02*
X167896666Y-142447200D01*
X167896666Y-142447200D02*
X167944285Y-142399580D01*
X167944285Y-142399580D02*
X167991904Y-142304342D01*
X167991904Y-142304342D02*
X167991904Y-142209104D01*
X167991904Y-142209104D02*
X167944285Y-142113866D01*
X167944285Y-142113866D02*
X167896666Y-142066247D01*
X167896666Y-142066247D02*
X167801428Y-142018628D01*
X167801428Y-142018628D02*
X167610952Y-141971009D01*
X167610952Y-141971009D02*
X167515714Y-141923390D01*
X167515714Y-141923390D02*
X167468095Y-141875771D01*
X167468095Y-141875771D02*
X167420476Y-141780533D01*
X167420476Y-141780533D02*
X167420476Y-141685295D01*
X167420476Y-141685295D02*
X167468095Y-141590057D01*
X167468095Y-141590057D02*
X167515714Y-141542438D01*
X167515714Y-141542438D02*
X167610952Y-141494819D01*
X167610952Y-141494819D02*
X167849047Y-141494819D01*
X167849047Y-141494819D02*
X167991904Y-141542438D01*
X168277619Y-141494819D02*
X168849047Y-141494819D01*
X168563333Y-142494819D02*
X168563333Y-141494819D01*
X169182381Y-142113866D02*
X169944286Y-142113866D01*
X170991904Y-142399580D02*
X170944285Y-142447200D01*
X170944285Y-142447200D02*
X170801428Y-142494819D01*
X170801428Y-142494819D02*
X170706190Y-142494819D01*
X170706190Y-142494819D02*
X170563333Y-142447200D01*
X170563333Y-142447200D02*
X170468095Y-142351961D01*
X170468095Y-142351961D02*
X170420476Y-142256723D01*
X170420476Y-142256723D02*
X170372857Y-142066247D01*
X170372857Y-142066247D02*
X170372857Y-141923390D01*
X170372857Y-141923390D02*
X170420476Y-141732914D01*
X170420476Y-141732914D02*
X170468095Y-141637676D01*
X170468095Y-141637676D02*
X170563333Y-141542438D01*
X170563333Y-141542438D02*
X170706190Y-141494819D01*
X170706190Y-141494819D02*
X170801428Y-141494819D01*
X170801428Y-141494819D02*
X170944285Y-141542438D01*
X170944285Y-141542438D02*
X170991904Y-141590057D01*
X171944285Y-142494819D02*
X171372857Y-142494819D01*
X171658571Y-142494819D02*
X171658571Y-141494819D01*
X171658571Y-141494819D02*
X171563333Y-141637676D01*
X171563333Y-141637676D02*
X171468095Y-141732914D01*
X171468095Y-141732914D02*
X171372857Y-141780533D01*
X172420476Y-142494819D02*
X172610952Y-142494819D01*
X172610952Y-142494819D02*
X172706190Y-142447200D01*
X172706190Y-142447200D02*
X172753809Y-142399580D01*
X172753809Y-142399580D02*
X172849047Y-142256723D01*
X172849047Y-142256723D02*
X172896666Y-142066247D01*
X172896666Y-142066247D02*
X172896666Y-141685295D01*
X172896666Y-141685295D02*
X172849047Y-141590057D01*
X172849047Y-141590057D02*
X172801428Y-141542438D01*
X172801428Y-141542438D02*
X172706190Y-141494819D01*
X172706190Y-141494819D02*
X172515714Y-141494819D01*
X172515714Y-141494819D02*
X172420476Y-141542438D01*
X172420476Y-141542438D02*
X172372857Y-141590057D01*
X172372857Y-141590057D02*
X172325238Y-141685295D01*
X172325238Y-141685295D02*
X172325238Y-141923390D01*
X172325238Y-141923390D02*
X172372857Y-142018628D01*
X172372857Y-142018628D02*
X172420476Y-142066247D01*
X172420476Y-142066247D02*
X172515714Y-142113866D01*
X172515714Y-142113866D02*
X172706190Y-142113866D01*
X172706190Y-142113866D02*
X172801428Y-142066247D01*
X172801428Y-142066247D02*
X172849047Y-142018628D01*
X172849047Y-142018628D02*
X172896666Y-141923390D01*
X173515714Y-141494819D02*
X173610952Y-141494819D01*
X173610952Y-141494819D02*
X173706190Y-141542438D01*
X173706190Y-141542438D02*
X173753809Y-141590057D01*
X173753809Y-141590057D02*
X173801428Y-141685295D01*
X173801428Y-141685295D02*
X173849047Y-141875771D01*
X173849047Y-141875771D02*
X173849047Y-142113866D01*
X173849047Y-142113866D02*
X173801428Y-142304342D01*
X173801428Y-142304342D02*
X173753809Y-142399580D01*
X173753809Y-142399580D02*
X173706190Y-142447200D01*
X173706190Y-142447200D02*
X173610952Y-142494819D01*
X173610952Y-142494819D02*
X173515714Y-142494819D01*
X173515714Y-142494819D02*
X173420476Y-142447200D01*
X173420476Y-142447200D02*
X173372857Y-142399580D01*
X173372857Y-142399580D02*
X173325238Y-142304342D01*
X173325238Y-142304342D02*
X173277619Y-142113866D01*
X173277619Y-142113866D02*
X173277619Y-141875771D01*
X173277619Y-141875771D02*
X173325238Y-141685295D01*
X173325238Y-141685295D02*
X173372857Y-141590057D01*
X173372857Y-141590057D02*
X173420476Y-141542438D01*
X173420476Y-141542438D02*
X173515714Y-141494819D01*
X174277619Y-142494819D02*
X174277619Y-141494819D01*
X174849047Y-142494819D02*
X174420476Y-141923390D01*
X174849047Y-141494819D02*
X174277619Y-142066247D01*
X175801428Y-141542438D02*
X175706190Y-141494819D01*
X175706190Y-141494819D02*
X175563333Y-141494819D01*
X175563333Y-141494819D02*
X175420476Y-141542438D01*
X175420476Y-141542438D02*
X175325238Y-141637676D01*
X175325238Y-141637676D02*
X175277619Y-141732914D01*
X175277619Y-141732914D02*
X175230000Y-141923390D01*
X175230000Y-141923390D02*
X175230000Y-142066247D01*
X175230000Y-142066247D02*
X175277619Y-142256723D01*
X175277619Y-142256723D02*
X175325238Y-142351961D01*
X175325238Y-142351961D02*
X175420476Y-142447200D01*
X175420476Y-142447200D02*
X175563333Y-142494819D01*
X175563333Y-142494819D02*
X175658571Y-142494819D01*
X175658571Y-142494819D02*
X175801428Y-142447200D01*
X175801428Y-142447200D02*
X175849047Y-142399580D01*
X175849047Y-142399580D02*
X175849047Y-142066247D01*
X175849047Y-142066247D02*
X175658571Y-142066247D01*
X176277619Y-142494819D02*
X176277619Y-141494819D01*
X176849047Y-142494819D02*
X176420476Y-141923390D01*
X176849047Y-141494819D02*
X176277619Y-142066247D01*
X177134762Y-141494819D02*
X177706190Y-141494819D01*
X177420476Y-142494819D02*
X177420476Y-141494819D01*
D11*
X171139524Y-145363855D02*
X171139524Y-144563855D01*
X171139524Y-144563855D02*
X171330000Y-144563855D01*
X171330000Y-144563855D02*
X171444286Y-144601950D01*
X171444286Y-144601950D02*
X171520476Y-144678140D01*
X171520476Y-144678140D02*
X171558571Y-144754331D01*
X171558571Y-144754331D02*
X171596667Y-144906712D01*
X171596667Y-144906712D02*
X171596667Y-145020998D01*
X171596667Y-145020998D02*
X171558571Y-145173379D01*
X171558571Y-145173379D02*
X171520476Y-145249569D01*
X171520476Y-145249569D02*
X171444286Y-145325760D01*
X171444286Y-145325760D02*
X171330000Y-145363855D01*
X171330000Y-145363855D02*
X171139524Y-145363855D01*
X172358571Y-145363855D02*
X171901428Y-145363855D01*
X172130000Y-145363855D02*
X172130000Y-144563855D01*
X172130000Y-144563855D02*
X172053809Y-144678140D01*
X172053809Y-144678140D02*
X171977619Y-144754331D01*
X171977619Y-144754331D02*
X171901428Y-144792426D01*
D10*
X161911904Y-112454819D02*
X162102380Y-112454819D01*
X162102380Y-112454819D02*
X162197618Y-112502438D01*
X162197618Y-112502438D02*
X162292856Y-112597676D01*
X162292856Y-112597676D02*
X162340475Y-112788152D01*
X162340475Y-112788152D02*
X162340475Y-113121485D01*
X162340475Y-113121485D02*
X162292856Y-113311961D01*
X162292856Y-113311961D02*
X162197618Y-113407200D01*
X162197618Y-113407200D02*
X162102380Y-113454819D01*
X162102380Y-113454819D02*
X161911904Y-113454819D01*
X161911904Y-113454819D02*
X161816666Y-113407200D01*
X161816666Y-113407200D02*
X161721428Y-113311961D01*
X161721428Y-113311961D02*
X161673809Y-113121485D01*
X161673809Y-113121485D02*
X161673809Y-112788152D01*
X161673809Y-112788152D02*
X161721428Y-112597676D01*
X161721428Y-112597676D02*
X161816666Y-112502438D01*
X161816666Y-112502438D02*
X161911904Y-112454819D01*
X162769047Y-112788152D02*
X162769047Y-113788152D01*
X162769047Y-112835771D02*
X162864285Y-112788152D01*
X162864285Y-112788152D02*
X163054761Y-112788152D01*
X163054761Y-112788152D02*
X163149999Y-112835771D01*
X163149999Y-112835771D02*
X163197618Y-112883390D01*
X163197618Y-112883390D02*
X163245237Y-112978628D01*
X163245237Y-112978628D02*
X163245237Y-113264342D01*
X163245237Y-113264342D02*
X163197618Y-113359580D01*
X163197618Y-113359580D02*
X163149999Y-113407200D01*
X163149999Y-113407200D02*
X163054761Y-113454819D01*
X163054761Y-113454819D02*
X162864285Y-113454819D01*
X162864285Y-113454819D02*
X162769047Y-113407200D01*
X164054761Y-113407200D02*
X163959523Y-113454819D01*
X163959523Y-113454819D02*
X163769047Y-113454819D01*
X163769047Y-113454819D02*
X163673809Y-113407200D01*
X163673809Y-113407200D02*
X163626190Y-113311961D01*
X163626190Y-113311961D02*
X163626190Y-112931009D01*
X163626190Y-112931009D02*
X163673809Y-112835771D01*
X163673809Y-112835771D02*
X163769047Y-112788152D01*
X163769047Y-112788152D02*
X163959523Y-112788152D01*
X163959523Y-112788152D02*
X164054761Y-112835771D01*
X164054761Y-112835771D02*
X164102380Y-112931009D01*
X164102380Y-112931009D02*
X164102380Y-113026247D01*
X164102380Y-113026247D02*
X163626190Y-113121485D01*
X164530952Y-112788152D02*
X164530952Y-113454819D01*
X164530952Y-112883390D02*
X164578571Y-112835771D01*
X164578571Y-112835771D02*
X164673809Y-112788152D01*
X164673809Y-112788152D02*
X164816666Y-112788152D01*
X164816666Y-112788152D02*
X164911904Y-112835771D01*
X164911904Y-112835771D02*
X164959523Y-112931009D01*
X164959523Y-112931009D02*
X164959523Y-113454819D01*
X165911904Y-113454819D02*
X165435714Y-113454819D01*
X165435714Y-113454819D02*
X165435714Y-112454819D01*
X166388095Y-113454819D02*
X166292857Y-113407200D01*
X166292857Y-113407200D02*
X166245238Y-113359580D01*
X166245238Y-113359580D02*
X166197619Y-113264342D01*
X166197619Y-113264342D02*
X166197619Y-112978628D01*
X166197619Y-112978628D02*
X166245238Y-112883390D01*
X166245238Y-112883390D02*
X166292857Y-112835771D01*
X166292857Y-112835771D02*
X166388095Y-112788152D01*
X166388095Y-112788152D02*
X166530952Y-112788152D01*
X166530952Y-112788152D02*
X166626190Y-112835771D01*
X166626190Y-112835771D02*
X166673809Y-112883390D01*
X166673809Y-112883390D02*
X166721428Y-112978628D01*
X166721428Y-112978628D02*
X166721428Y-113264342D01*
X166721428Y-113264342D02*
X166673809Y-113359580D01*
X166673809Y-113359580D02*
X166626190Y-113407200D01*
X166626190Y-113407200D02*
X166530952Y-113454819D01*
X166530952Y-113454819D02*
X166388095Y-113454819D01*
X167578571Y-112788152D02*
X167578571Y-113597676D01*
X167578571Y-113597676D02*
X167530952Y-113692914D01*
X167530952Y-113692914D02*
X167483333Y-113740533D01*
X167483333Y-113740533D02*
X167388095Y-113788152D01*
X167388095Y-113788152D02*
X167245238Y-113788152D01*
X167245238Y-113788152D02*
X167150000Y-113740533D01*
X167578571Y-113407200D02*
X167483333Y-113454819D01*
X167483333Y-113454819D02*
X167292857Y-113454819D01*
X167292857Y-113454819D02*
X167197619Y-113407200D01*
X167197619Y-113407200D02*
X167150000Y-113359580D01*
X167150000Y-113359580D02*
X167102381Y-113264342D01*
X167102381Y-113264342D02*
X167102381Y-112978628D01*
X167102381Y-112978628D02*
X167150000Y-112883390D01*
X167150000Y-112883390D02*
X167197619Y-112835771D01*
X167197619Y-112835771D02*
X167292857Y-112788152D01*
X167292857Y-112788152D02*
X167483333Y-112788152D01*
X167483333Y-112788152D02*
X167578571Y-112835771D01*
D12*
X157766667Y-107451966D02*
X157700000Y-107418633D01*
X157700000Y-107418633D02*
X157600000Y-107418633D01*
X157600000Y-107418633D02*
X157500000Y-107451966D01*
X157500000Y-107451966D02*
X157433334Y-107518633D01*
X157433334Y-107518633D02*
X157400000Y-107585300D01*
X157400000Y-107585300D02*
X157366667Y-107718633D01*
X157366667Y-107718633D02*
X157366667Y-107818633D01*
X157366667Y-107818633D02*
X157400000Y-107951966D01*
X157400000Y-107951966D02*
X157433334Y-108018633D01*
X157433334Y-108018633D02*
X157500000Y-108085300D01*
X157500000Y-108085300D02*
X157600000Y-108118633D01*
X157600000Y-108118633D02*
X157666667Y-108118633D01*
X157666667Y-108118633D02*
X157766667Y-108085300D01*
X157766667Y-108085300D02*
X157800000Y-108051966D01*
X157800000Y-108051966D02*
X157800000Y-107818633D01*
X157800000Y-107818633D02*
X157666667Y-107818633D01*
X158500000Y-108118633D02*
X158266667Y-107785300D01*
X158100000Y-108118633D02*
X158100000Y-107418633D01*
X158100000Y-107418633D02*
X158366667Y-107418633D01*
X158366667Y-107418633D02*
X158433334Y-107451966D01*
X158433334Y-107451966D02*
X158466667Y-107485300D01*
X158466667Y-107485300D02*
X158500000Y-107551966D01*
X158500000Y-107551966D02*
X158500000Y-107651966D01*
X158500000Y-107651966D02*
X158466667Y-107718633D01*
X158466667Y-107718633D02*
X158433334Y-107751966D01*
X158433334Y-107751966D02*
X158366667Y-107785300D01*
X158366667Y-107785300D02*
X158100000Y-107785300D01*
X158800000Y-108118633D02*
X158800000Y-107418633D01*
X158800000Y-107418633D02*
X159200000Y-108118633D01*
X159200000Y-108118633D02*
X159200000Y-107418633D01*
X170416667Y-107751966D02*
X170516667Y-107785300D01*
X170516667Y-107785300D02*
X170550000Y-107818633D01*
X170550000Y-107818633D02*
X170583333Y-107885300D01*
X170583333Y-107885300D02*
X170583333Y-107985300D01*
X170583333Y-107985300D02*
X170550000Y-108051966D01*
X170550000Y-108051966D02*
X170516667Y-108085300D01*
X170516667Y-108085300D02*
X170450000Y-108118633D01*
X170450000Y-108118633D02*
X170183333Y-108118633D01*
X170183333Y-108118633D02*
X170183333Y-107418633D01*
X170183333Y-107418633D02*
X170416667Y-107418633D01*
X170416667Y-107418633D02*
X170483333Y-107451966D01*
X170483333Y-107451966D02*
X170516667Y-107485300D01*
X170516667Y-107485300D02*
X170550000Y-107551966D01*
X170550000Y-107551966D02*
X170550000Y-107618633D01*
X170550000Y-107618633D02*
X170516667Y-107685300D01*
X170516667Y-107685300D02*
X170483333Y-107718633D01*
X170483333Y-107718633D02*
X170416667Y-107751966D01*
X170416667Y-107751966D02*
X170183333Y-107751966D01*
X171216667Y-108118633D02*
X170883333Y-108118633D01*
X170883333Y-108118633D02*
X170883333Y-107418633D01*
X171450000Y-108118633D02*
X171450000Y-107418633D01*
X171850000Y-108118633D02*
X171550000Y-107718633D01*
X171850000Y-107418633D02*
X171450000Y-107818633D01*
D10*
X163690952Y-147824819D02*
X163119524Y-147824819D01*
X163405238Y-147824819D02*
X163405238Y-146824819D01*
X163405238Y-146824819D02*
X163310000Y-146967676D01*
X163310000Y-146967676D02*
X163214762Y-147062914D01*
X163214762Y-147062914D02*
X163119524Y-147110533D01*
X164119524Y-147824819D02*
X164119524Y-146824819D01*
X164214762Y-147443866D02*
X164500476Y-147824819D01*
X164500476Y-147158152D02*
X164119524Y-147539104D01*
X163643333Y-145454819D02*
X163310000Y-144978628D01*
X163071905Y-145454819D02*
X163071905Y-144454819D01*
X163071905Y-144454819D02*
X163452857Y-144454819D01*
X163452857Y-144454819D02*
X163548095Y-144502438D01*
X163548095Y-144502438D02*
X163595714Y-144550057D01*
X163595714Y-144550057D02*
X163643333Y-144645295D01*
X163643333Y-144645295D02*
X163643333Y-144788152D01*
X163643333Y-144788152D02*
X163595714Y-144883390D01*
X163595714Y-144883390D02*
X163548095Y-144931009D01*
X163548095Y-144931009D02*
X163452857Y-144978628D01*
X163452857Y-144978628D02*
X163071905Y-144978628D01*
X164595714Y-145454819D02*
X164024286Y-145454819D01*
X164310000Y-145454819D02*
X164310000Y-144454819D01*
X164310000Y-144454819D02*
X164214762Y-144597676D01*
X164214762Y-144597676D02*
X164119524Y-144692914D01*
X164119524Y-144692914D02*
X164024286Y-144740533D01*
X151161904Y-149859580D02*
X151114285Y-149907200D01*
X151114285Y-149907200D02*
X150971428Y-149954819D01*
X150971428Y-149954819D02*
X150876190Y-149954819D01*
X150876190Y-149954819D02*
X150733333Y-149907200D01*
X150733333Y-149907200D02*
X150638095Y-149811961D01*
X150638095Y-149811961D02*
X150590476Y-149716723D01*
X150590476Y-149716723D02*
X150542857Y-149526247D01*
X150542857Y-149526247D02*
X150542857Y-149383390D01*
X150542857Y-149383390D02*
X150590476Y-149192914D01*
X150590476Y-149192914D02*
X150638095Y-149097676D01*
X150638095Y-149097676D02*
X150733333Y-149002438D01*
X150733333Y-149002438D02*
X150876190Y-148954819D01*
X150876190Y-148954819D02*
X150971428Y-148954819D01*
X150971428Y-148954819D02*
X151114285Y-149002438D01*
X151114285Y-149002438D02*
X151161904Y-149050057D01*
X151733333Y-149954819D02*
X151638095Y-149907200D01*
X151638095Y-149907200D02*
X151590476Y-149859580D01*
X151590476Y-149859580D02*
X151542857Y-149764342D01*
X151542857Y-149764342D02*
X151542857Y-149478628D01*
X151542857Y-149478628D02*
X151590476Y-149383390D01*
X151590476Y-149383390D02*
X151638095Y-149335771D01*
X151638095Y-149335771D02*
X151733333Y-149288152D01*
X151733333Y-149288152D02*
X151876190Y-149288152D01*
X151876190Y-149288152D02*
X151971428Y-149335771D01*
X151971428Y-149335771D02*
X152019047Y-149383390D01*
X152019047Y-149383390D02*
X152066666Y-149478628D01*
X152066666Y-149478628D02*
X152066666Y-149764342D01*
X152066666Y-149764342D02*
X152019047Y-149859580D01*
X152019047Y-149859580D02*
X151971428Y-149907200D01*
X151971428Y-149907200D02*
X151876190Y-149954819D01*
X151876190Y-149954819D02*
X151733333Y-149954819D01*
X152495238Y-149288152D02*
X152495238Y-149954819D01*
X152495238Y-149383390D02*
X152542857Y-149335771D01*
X152542857Y-149335771D02*
X152638095Y-149288152D01*
X152638095Y-149288152D02*
X152780952Y-149288152D01*
X152780952Y-149288152D02*
X152876190Y-149335771D01*
X152876190Y-149335771D02*
X152923809Y-149431009D01*
X152923809Y-149431009D02*
X152923809Y-149954819D01*
X153400000Y-149288152D02*
X153400000Y-149954819D01*
X153400000Y-149383390D02*
X153447619Y-149335771D01*
X153447619Y-149335771D02*
X153542857Y-149288152D01*
X153542857Y-149288152D02*
X153685714Y-149288152D01*
X153685714Y-149288152D02*
X153780952Y-149335771D01*
X153780952Y-149335771D02*
X153828571Y-149431009D01*
X153828571Y-149431009D02*
X153828571Y-149954819D01*
X154066667Y-150050057D02*
X154828571Y-150050057D01*
X155257143Y-148954819D02*
X155352381Y-148954819D01*
X155352381Y-148954819D02*
X155447619Y-149002438D01*
X155447619Y-149002438D02*
X155495238Y-149050057D01*
X155495238Y-149050057D02*
X155542857Y-149145295D01*
X155542857Y-149145295D02*
X155590476Y-149335771D01*
X155590476Y-149335771D02*
X155590476Y-149573866D01*
X155590476Y-149573866D02*
X155542857Y-149764342D01*
X155542857Y-149764342D02*
X155495238Y-149859580D01*
X155495238Y-149859580D02*
X155447619Y-149907200D01*
X155447619Y-149907200D02*
X155352381Y-149954819D01*
X155352381Y-149954819D02*
X155257143Y-149954819D01*
X155257143Y-149954819D02*
X155161905Y-149907200D01*
X155161905Y-149907200D02*
X155114286Y-149859580D01*
X155114286Y-149859580D02*
X155066667Y-149764342D01*
X155066667Y-149764342D02*
X155019048Y-149573866D01*
X155019048Y-149573866D02*
X155019048Y-149335771D01*
X155019048Y-149335771D02*
X155066667Y-149145295D01*
X155066667Y-149145295D02*
X155114286Y-149050057D01*
X155114286Y-149050057D02*
X155161905Y-149002438D01*
X155161905Y-149002438D02*
X155257143Y-148954819D01*
X156542857Y-149954819D02*
X155971429Y-149954819D01*
X156257143Y-149954819D02*
X156257143Y-148954819D01*
X156257143Y-148954819D02*
X156161905Y-149097676D01*
X156161905Y-149097676D02*
X156066667Y-149192914D01*
X156066667Y-149192914D02*
X155971429Y-149240533D01*
X156876191Y-149954819D02*
X157400000Y-149288152D01*
X156876191Y-149288152D02*
X157400000Y-149954819D01*
X158304762Y-149954819D02*
X157733334Y-149954819D01*
X158019048Y-149954819D02*
X158019048Y-148954819D01*
X158019048Y-148954819D02*
X157923810Y-149097676D01*
X157923810Y-149097676D02*
X157828572Y-149192914D01*
X157828572Y-149192914D02*
X157733334Y-149240533D01*
X159257143Y-149954819D02*
X158685715Y-149954819D01*
X158971429Y-149954819D02*
X158971429Y-148954819D01*
X158971429Y-148954819D02*
X158876191Y-149097676D01*
X158876191Y-149097676D02*
X158780953Y-149192914D01*
X158780953Y-149192914D02*
X158685715Y-149240533D01*
X154354819Y-134753333D02*
X155069104Y-134753333D01*
X155069104Y-134753333D02*
X155211961Y-134800952D01*
X155211961Y-134800952D02*
X155307200Y-134896190D01*
X155307200Y-134896190D02*
X155354819Y-135039047D01*
X155354819Y-135039047D02*
X155354819Y-135134285D01*
X154450057Y-134324761D02*
X154402438Y-134277142D01*
X154402438Y-134277142D02*
X154354819Y-134181904D01*
X154354819Y-134181904D02*
X154354819Y-133943809D01*
X154354819Y-133943809D02*
X154402438Y-133848571D01*
X154402438Y-133848571D02*
X154450057Y-133800952D01*
X154450057Y-133800952D02*
X154545295Y-133753333D01*
X154545295Y-133753333D02*
X154640533Y-133753333D01*
X154640533Y-133753333D02*
X154783390Y-133800952D01*
X154783390Y-133800952D02*
X155354819Y-134372380D01*
X155354819Y-134372380D02*
X155354819Y-133753333D01*
X107422380Y-136304819D02*
X106850952Y-136304819D01*
X107136666Y-136304819D02*
X107136666Y-135304819D01*
X107136666Y-135304819D02*
X107041428Y-135447676D01*
X107041428Y-135447676D02*
X106946190Y-135542914D01*
X106946190Y-135542914D02*
X106850952Y-135590533D01*
X108041428Y-135304819D02*
X108136666Y-135304819D01*
X108136666Y-135304819D02*
X108231904Y-135352438D01*
X108231904Y-135352438D02*
X108279523Y-135400057D01*
X108279523Y-135400057D02*
X108327142Y-135495295D01*
X108327142Y-135495295D02*
X108374761Y-135685771D01*
X108374761Y-135685771D02*
X108374761Y-135923866D01*
X108374761Y-135923866D02*
X108327142Y-136114342D01*
X108327142Y-136114342D02*
X108279523Y-136209580D01*
X108279523Y-136209580D02*
X108231904Y-136257200D01*
X108231904Y-136257200D02*
X108136666Y-136304819D01*
X108136666Y-136304819D02*
X108041428Y-136304819D01*
X108041428Y-136304819D02*
X107946190Y-136257200D01*
X107946190Y-136257200D02*
X107898571Y-136209580D01*
X107898571Y-136209580D02*
X107850952Y-136114342D01*
X107850952Y-136114342D02*
X107803333Y-135923866D01*
X107803333Y-135923866D02*
X107803333Y-135685771D01*
X107803333Y-135685771D02*
X107850952Y-135495295D01*
X107850952Y-135495295D02*
X107898571Y-135400057D01*
X107898571Y-135400057D02*
X107946190Y-135352438D01*
X107946190Y-135352438D02*
X108041428Y-135304819D01*
X108993809Y-135304819D02*
X109089047Y-135304819D01*
X109089047Y-135304819D02*
X109184285Y-135352438D01*
X109184285Y-135352438D02*
X109231904Y-135400057D01*
X109231904Y-135400057D02*
X109279523Y-135495295D01*
X109279523Y-135495295D02*
X109327142Y-135685771D01*
X109327142Y-135685771D02*
X109327142Y-135923866D01*
X109327142Y-135923866D02*
X109279523Y-136114342D01*
X109279523Y-136114342D02*
X109231904Y-136209580D01*
X109231904Y-136209580D02*
X109184285Y-136257200D01*
X109184285Y-136257200D02*
X109089047Y-136304819D01*
X109089047Y-136304819D02*
X108993809Y-136304819D01*
X108993809Y-136304819D02*
X108898571Y-136257200D01*
X108898571Y-136257200D02*
X108850952Y-136209580D01*
X108850952Y-136209580D02*
X108803333Y-136114342D01*
X108803333Y-136114342D02*
X108755714Y-135923866D01*
X108755714Y-135923866D02*
X108755714Y-135685771D01*
X108755714Y-135685771D02*
X108803333Y-135495295D01*
X108803333Y-135495295D02*
X108850952Y-135400057D01*
X108850952Y-135400057D02*
X108898571Y-135352438D01*
X108898571Y-135352438D02*
X108993809Y-135304819D01*
X109755714Y-135638152D02*
X109755714Y-136304819D01*
X109755714Y-135733390D02*
X109803333Y-135685771D01*
X109803333Y-135685771D02*
X109898571Y-135638152D01*
X109898571Y-135638152D02*
X110041428Y-135638152D01*
X110041428Y-135638152D02*
X110136666Y-135685771D01*
X110136666Y-135685771D02*
X110184285Y-135781009D01*
X110184285Y-135781009D02*
X110184285Y-136304819D01*
X110993809Y-135781009D02*
X110660476Y-135781009D01*
X110660476Y-136304819D02*
X110660476Y-135304819D01*
X110660476Y-135304819D02*
X111136666Y-135304819D01*
X98164285Y-125264819D02*
X98164285Y-124264819D01*
X98164285Y-124264819D02*
X98545237Y-124264819D01*
X98545237Y-124264819D02*
X98640475Y-124312438D01*
X98640475Y-124312438D02*
X98688094Y-124360057D01*
X98688094Y-124360057D02*
X98735713Y-124455295D01*
X98735713Y-124455295D02*
X98735713Y-124598152D01*
X98735713Y-124598152D02*
X98688094Y-124693390D01*
X98688094Y-124693390D02*
X98640475Y-124741009D01*
X98640475Y-124741009D02*
X98545237Y-124788628D01*
X98545237Y-124788628D02*
X98164285Y-124788628D01*
X99307142Y-125264819D02*
X99211904Y-125217200D01*
X99211904Y-125217200D02*
X99164285Y-125169580D01*
X99164285Y-125169580D02*
X99116666Y-125074342D01*
X99116666Y-125074342D02*
X99116666Y-124788628D01*
X99116666Y-124788628D02*
X99164285Y-124693390D01*
X99164285Y-124693390D02*
X99211904Y-124645771D01*
X99211904Y-124645771D02*
X99307142Y-124598152D01*
X99307142Y-124598152D02*
X99449999Y-124598152D01*
X99449999Y-124598152D02*
X99545237Y-124645771D01*
X99545237Y-124645771D02*
X99592856Y-124693390D01*
X99592856Y-124693390D02*
X99640475Y-124788628D01*
X99640475Y-124788628D02*
X99640475Y-125074342D01*
X99640475Y-125074342D02*
X99592856Y-125169580D01*
X99592856Y-125169580D02*
X99545237Y-125217200D01*
X99545237Y-125217200D02*
X99449999Y-125264819D01*
X99449999Y-125264819D02*
X99307142Y-125264819D01*
X100211904Y-125264819D02*
X100116666Y-125217200D01*
X100116666Y-125217200D02*
X100069047Y-125121961D01*
X100069047Y-125121961D02*
X100069047Y-124264819D01*
X100735714Y-125264819D02*
X100640476Y-125217200D01*
X100640476Y-125217200D02*
X100592857Y-125169580D01*
X100592857Y-125169580D02*
X100545238Y-125074342D01*
X100545238Y-125074342D02*
X100545238Y-124788628D01*
X100545238Y-124788628D02*
X100592857Y-124693390D01*
X100592857Y-124693390D02*
X100640476Y-124645771D01*
X100640476Y-124645771D02*
X100735714Y-124598152D01*
X100735714Y-124598152D02*
X100878571Y-124598152D01*
X100878571Y-124598152D02*
X100973809Y-124645771D01*
X100973809Y-124645771D02*
X101021428Y-124693390D01*
X101021428Y-124693390D02*
X101069047Y-124788628D01*
X101069047Y-124788628D02*
X101069047Y-125074342D01*
X101069047Y-125074342D02*
X101021428Y-125169580D01*
X101021428Y-125169580D02*
X100973809Y-125217200D01*
X100973809Y-125217200D02*
X100878571Y-125264819D01*
X100878571Y-125264819D02*
X100735714Y-125264819D01*
X101640476Y-125264819D02*
X101545238Y-125217200D01*
X101545238Y-125217200D02*
X101497619Y-125121961D01*
X101497619Y-125121961D02*
X101497619Y-124264819D01*
X102450000Y-124598152D02*
X102450000Y-125264819D01*
X102021429Y-124598152D02*
X102021429Y-125121961D01*
X102021429Y-125121961D02*
X102069048Y-125217200D01*
X102069048Y-125217200D02*
X102164286Y-125264819D01*
X102164286Y-125264819D02*
X102307143Y-125264819D01*
X102307143Y-125264819D02*
X102402381Y-125217200D01*
X102402381Y-125217200D02*
X102450000Y-125169580D01*
X103640477Y-125217200D02*
X103783334Y-125264819D01*
X103783334Y-125264819D02*
X104021429Y-125264819D01*
X104021429Y-125264819D02*
X104116667Y-125217200D01*
X104116667Y-125217200D02*
X104164286Y-125169580D01*
X104164286Y-125169580D02*
X104211905Y-125074342D01*
X104211905Y-125074342D02*
X104211905Y-124979104D01*
X104211905Y-124979104D02*
X104164286Y-124883866D01*
X104164286Y-124883866D02*
X104116667Y-124836247D01*
X104116667Y-124836247D02*
X104021429Y-124788628D01*
X104021429Y-124788628D02*
X103830953Y-124741009D01*
X103830953Y-124741009D02*
X103735715Y-124693390D01*
X103735715Y-124693390D02*
X103688096Y-124645771D01*
X103688096Y-124645771D02*
X103640477Y-124550533D01*
X103640477Y-124550533D02*
X103640477Y-124455295D01*
X103640477Y-124455295D02*
X103688096Y-124360057D01*
X103688096Y-124360057D02*
X103735715Y-124312438D01*
X103735715Y-124312438D02*
X103830953Y-124264819D01*
X103830953Y-124264819D02*
X104069048Y-124264819D01*
X104069048Y-124264819D02*
X104211905Y-124312438D01*
X104545239Y-124264819D02*
X105211905Y-124264819D01*
X105211905Y-124264819D02*
X104783334Y-125264819D01*
X105450001Y-124264819D02*
X105783334Y-125264819D01*
X105783334Y-125264819D02*
X106116667Y-124264819D01*
X106592858Y-124693390D02*
X106497620Y-124645771D01*
X106497620Y-124645771D02*
X106450001Y-124598152D01*
X106450001Y-124598152D02*
X106402382Y-124502914D01*
X106402382Y-124502914D02*
X106402382Y-124455295D01*
X106402382Y-124455295D02*
X106450001Y-124360057D01*
X106450001Y-124360057D02*
X106497620Y-124312438D01*
X106497620Y-124312438D02*
X106592858Y-124264819D01*
X106592858Y-124264819D02*
X106783334Y-124264819D01*
X106783334Y-124264819D02*
X106878572Y-124312438D01*
X106878572Y-124312438D02*
X106926191Y-124360057D01*
X106926191Y-124360057D02*
X106973810Y-124455295D01*
X106973810Y-124455295D02*
X106973810Y-124502914D01*
X106973810Y-124502914D02*
X106926191Y-124598152D01*
X106926191Y-124598152D02*
X106878572Y-124645771D01*
X106878572Y-124645771D02*
X106783334Y-124693390D01*
X106783334Y-124693390D02*
X106592858Y-124693390D01*
X106592858Y-124693390D02*
X106497620Y-124741009D01*
X106497620Y-124741009D02*
X106450001Y-124788628D01*
X106450001Y-124788628D02*
X106402382Y-124883866D01*
X106402382Y-124883866D02*
X106402382Y-125074342D01*
X106402382Y-125074342D02*
X106450001Y-125169580D01*
X106450001Y-125169580D02*
X106497620Y-125217200D01*
X106497620Y-125217200D02*
X106592858Y-125264819D01*
X106592858Y-125264819D02*
X106783334Y-125264819D01*
X106783334Y-125264819D02*
X106878572Y-125217200D01*
X106878572Y-125217200D02*
X106926191Y-125169580D01*
X106926191Y-125169580D02*
X106973810Y-125074342D01*
X106973810Y-125074342D02*
X106973810Y-124883866D01*
X106973810Y-124883866D02*
X106926191Y-124788628D01*
X106926191Y-124788628D02*
X106878572Y-124741009D01*
X106878572Y-124741009D02*
X106783334Y-124693390D01*
X107735715Y-124741009D02*
X107402382Y-124741009D01*
X107402382Y-125264819D02*
X107402382Y-124264819D01*
X107402382Y-124264819D02*
X107878572Y-124264819D01*
X108735715Y-124264819D02*
X108259525Y-124264819D01*
X108259525Y-124264819D02*
X108211906Y-124741009D01*
X108211906Y-124741009D02*
X108259525Y-124693390D01*
X108259525Y-124693390D02*
X108354763Y-124645771D01*
X108354763Y-124645771D02*
X108592858Y-124645771D01*
X108592858Y-124645771D02*
X108688096Y-124693390D01*
X108688096Y-124693390D02*
X108735715Y-124741009D01*
X108735715Y-124741009D02*
X108783334Y-124836247D01*
X108783334Y-124836247D02*
X108783334Y-125074342D01*
X108783334Y-125074342D02*
X108735715Y-125169580D01*
X108735715Y-125169580D02*
X108688096Y-125217200D01*
X108688096Y-125217200D02*
X108592858Y-125264819D01*
X108592858Y-125264819D02*
X108354763Y-125264819D01*
X108354763Y-125264819D02*
X108259525Y-125217200D01*
X108259525Y-125217200D02*
X108211906Y-125169580D01*
D12*
X107795502Y-126791904D02*
X108445502Y-126575237D01*
X108445502Y-126575237D02*
X107795502Y-126358570D01*
X108445502Y-126141904D02*
X107795502Y-126141904D01*
X108445502Y-125832380D02*
X107795502Y-125832380D01*
X107795502Y-125832380D02*
X108445502Y-125460951D01*
X108445502Y-125460951D02*
X107795502Y-125460951D01*
X107876454Y-124035237D02*
X107845502Y-124097142D01*
X107845502Y-124097142D02*
X107845502Y-124189999D01*
X107845502Y-124189999D02*
X107876454Y-124282856D01*
X107876454Y-124282856D02*
X107938359Y-124344761D01*
X107938359Y-124344761D02*
X108000264Y-124375714D01*
X108000264Y-124375714D02*
X108124073Y-124406666D01*
X108124073Y-124406666D02*
X108216930Y-124406666D01*
X108216930Y-124406666D02*
X108340740Y-124375714D01*
X108340740Y-124375714D02*
X108402645Y-124344761D01*
X108402645Y-124344761D02*
X108464550Y-124282856D01*
X108464550Y-124282856D02*
X108495502Y-124189999D01*
X108495502Y-124189999D02*
X108495502Y-124128095D01*
X108495502Y-124128095D02*
X108464550Y-124035237D01*
X108464550Y-124035237D02*
X108433597Y-124004285D01*
X108433597Y-124004285D02*
X108216930Y-124004285D01*
X108216930Y-124004285D02*
X108216930Y-124128095D01*
X108495502Y-123725714D02*
X107845502Y-123725714D01*
X107845502Y-123725714D02*
X108495502Y-123354285D01*
X108495502Y-123354285D02*
X107845502Y-123354285D01*
X108495502Y-123044762D02*
X107845502Y-123044762D01*
X107845502Y-123044762D02*
X107845502Y-122890000D01*
X107845502Y-122890000D02*
X107876454Y-122797143D01*
X107876454Y-122797143D02*
X107938359Y-122735238D01*
X107938359Y-122735238D02*
X108000264Y-122704285D01*
X108000264Y-122704285D02*
X108124073Y-122673333D01*
X108124073Y-122673333D02*
X108216930Y-122673333D01*
X108216930Y-122673333D02*
X108340740Y-122704285D01*
X108340740Y-122704285D02*
X108402645Y-122735238D01*
X108402645Y-122735238D02*
X108464550Y-122797143D01*
X108464550Y-122797143D02*
X108495502Y-122890000D01*
X108495502Y-122890000D02*
X108495502Y-123044762D01*
X108045502Y-122145237D02*
X108695502Y-121928570D01*
X108695502Y-121928570D02*
X108045502Y-121711903D01*
X108045502Y-121371427D02*
X108045502Y-121247618D01*
X108045502Y-121247618D02*
X108076454Y-121185713D01*
X108076454Y-121185713D02*
X108138359Y-121123808D01*
X108138359Y-121123808D02*
X108262169Y-121092856D01*
X108262169Y-121092856D02*
X108478835Y-121092856D01*
X108478835Y-121092856D02*
X108602645Y-121123808D01*
X108602645Y-121123808D02*
X108664550Y-121185713D01*
X108664550Y-121185713D02*
X108695502Y-121247618D01*
X108695502Y-121247618D02*
X108695502Y-121371427D01*
X108695502Y-121371427D02*
X108664550Y-121433332D01*
X108664550Y-121433332D02*
X108602645Y-121495237D01*
X108602645Y-121495237D02*
X108478835Y-121526189D01*
X108478835Y-121526189D02*
X108262169Y-121526189D01*
X108262169Y-121526189D02*
X108138359Y-121495237D01*
X108138359Y-121495237D02*
X108076454Y-121433332D01*
X108076454Y-121433332D02*
X108045502Y-121371427D01*
X108045502Y-120814285D02*
X108571692Y-120814285D01*
X108571692Y-120814285D02*
X108633597Y-120783332D01*
X108633597Y-120783332D02*
X108664550Y-120752380D01*
X108664550Y-120752380D02*
X108695502Y-120690475D01*
X108695502Y-120690475D02*
X108695502Y-120566666D01*
X108695502Y-120566666D02*
X108664550Y-120504761D01*
X108664550Y-120504761D02*
X108633597Y-120473808D01*
X108633597Y-120473808D02*
X108571692Y-120442856D01*
X108571692Y-120442856D02*
X108045502Y-120442856D01*
X108045502Y-120226190D02*
X108045502Y-119854761D01*
X108695502Y-120040475D02*
X108045502Y-120040475D01*
X108714550Y-129811666D02*
X108745502Y-129718809D01*
X108745502Y-129718809D02*
X108745502Y-129564047D01*
X108745502Y-129564047D02*
X108714550Y-129502142D01*
X108714550Y-129502142D02*
X108683597Y-129471190D01*
X108683597Y-129471190D02*
X108621692Y-129440237D01*
X108621692Y-129440237D02*
X108559788Y-129440237D01*
X108559788Y-129440237D02*
X108497883Y-129471190D01*
X108497883Y-129471190D02*
X108466930Y-129502142D01*
X108466930Y-129502142D02*
X108435978Y-129564047D01*
X108435978Y-129564047D02*
X108405026Y-129687856D01*
X108405026Y-129687856D02*
X108374073Y-129749761D01*
X108374073Y-129749761D02*
X108343121Y-129780714D01*
X108343121Y-129780714D02*
X108281216Y-129811666D01*
X108281216Y-129811666D02*
X108219311Y-129811666D01*
X108219311Y-129811666D02*
X108157407Y-129780714D01*
X108157407Y-129780714D02*
X108126454Y-129749761D01*
X108126454Y-129749761D02*
X108095502Y-129687856D01*
X108095502Y-129687856D02*
X108095502Y-129533095D01*
X108095502Y-129533095D02*
X108126454Y-129440237D01*
X108745502Y-129161666D02*
X108095502Y-129161666D01*
X108405026Y-129161666D02*
X108405026Y-128790237D01*
X108745502Y-128790237D02*
X108095502Y-128790237D01*
X108745502Y-128480714D02*
X108095502Y-128480714D01*
X108095502Y-128480714D02*
X108095502Y-128325952D01*
X108095502Y-128325952D02*
X108126454Y-128233095D01*
X108126454Y-128233095D02*
X108188359Y-128171190D01*
X108188359Y-128171190D02*
X108250264Y-128140237D01*
X108250264Y-128140237D02*
X108374073Y-128109285D01*
X108374073Y-128109285D02*
X108466930Y-128109285D01*
X108466930Y-128109285D02*
X108590740Y-128140237D01*
X108590740Y-128140237D02*
X108652645Y-128171190D01*
X108652645Y-128171190D02*
X108714550Y-128233095D01*
X108714550Y-128233095D02*
X108745502Y-128325952D01*
X108745502Y-128325952D02*
X108745502Y-128480714D01*
X108745502Y-127830714D02*
X108095502Y-127830714D01*
X108095502Y-127830714D02*
X108745502Y-127459285D01*
X108745502Y-127459285D02*
X108095502Y-127459285D01*
D11*
X115963855Y-133248095D02*
X115963855Y-132790952D01*
X116763855Y-133019524D02*
X115963855Y-133019524D01*
X115963855Y-132371904D02*
X115963855Y-132219523D01*
X115963855Y-132219523D02*
X116001950Y-132143333D01*
X116001950Y-132143333D02*
X116078140Y-132067142D01*
X116078140Y-132067142D02*
X116230521Y-132029047D01*
X116230521Y-132029047D02*
X116497188Y-132029047D01*
X116497188Y-132029047D02*
X116649569Y-132067142D01*
X116649569Y-132067142D02*
X116725760Y-132143333D01*
X116725760Y-132143333D02*
X116763855Y-132219523D01*
X116763855Y-132219523D02*
X116763855Y-132371904D01*
X116763855Y-132371904D02*
X116725760Y-132448095D01*
X116725760Y-132448095D02*
X116649569Y-132524285D01*
X116649569Y-132524285D02*
X116497188Y-132562381D01*
X116497188Y-132562381D02*
X116230521Y-132562381D01*
X116230521Y-132562381D02*
X116078140Y-132524285D01*
X116078140Y-132524285D02*
X116001950Y-132448095D01*
X116001950Y-132448095D02*
X115963855Y-132371904D01*
X116763855Y-131686190D02*
X115963855Y-131686190D01*
X115963855Y-131686190D02*
X115963855Y-131381428D01*
X115963855Y-131381428D02*
X116001950Y-131305238D01*
X116001950Y-131305238D02*
X116040045Y-131267143D01*
X116040045Y-131267143D02*
X116116236Y-131229047D01*
X116116236Y-131229047D02*
X116230521Y-131229047D01*
X116230521Y-131229047D02*
X116306712Y-131267143D01*
X116306712Y-131267143D02*
X116344807Y-131305238D01*
X116344807Y-131305238D02*
X116382902Y-131381428D01*
X116382902Y-131381428D02*
X116382902Y-131686190D01*
X116725760Y-130314762D02*
X116763855Y-130200476D01*
X116763855Y-130200476D02*
X116763855Y-130010000D01*
X116763855Y-130010000D02*
X116725760Y-129933809D01*
X116725760Y-129933809D02*
X116687664Y-129895714D01*
X116687664Y-129895714D02*
X116611474Y-129857619D01*
X116611474Y-129857619D02*
X116535283Y-129857619D01*
X116535283Y-129857619D02*
X116459093Y-129895714D01*
X116459093Y-129895714D02*
X116420998Y-129933809D01*
X116420998Y-129933809D02*
X116382902Y-130010000D01*
X116382902Y-130010000D02*
X116344807Y-130162381D01*
X116344807Y-130162381D02*
X116306712Y-130238571D01*
X116306712Y-130238571D02*
X116268617Y-130276666D01*
X116268617Y-130276666D02*
X116192426Y-130314762D01*
X116192426Y-130314762D02*
X116116236Y-130314762D01*
X116116236Y-130314762D02*
X116040045Y-130276666D01*
X116040045Y-130276666D02*
X116001950Y-130238571D01*
X116001950Y-130238571D02*
X115963855Y-130162381D01*
X115963855Y-130162381D02*
X115963855Y-129971904D01*
X115963855Y-129971904D02*
X116001950Y-129857619D01*
X116763855Y-129514761D02*
X115963855Y-129514761D01*
X116763855Y-129133809D02*
X115963855Y-129133809D01*
X115963855Y-129133809D02*
X115963855Y-128943333D01*
X115963855Y-128943333D02*
X116001950Y-128829047D01*
X116001950Y-128829047D02*
X116078140Y-128752857D01*
X116078140Y-128752857D02*
X116154331Y-128714762D01*
X116154331Y-128714762D02*
X116306712Y-128676666D01*
X116306712Y-128676666D02*
X116420998Y-128676666D01*
X116420998Y-128676666D02*
X116573379Y-128714762D01*
X116573379Y-128714762D02*
X116649569Y-128752857D01*
X116649569Y-128752857D02*
X116725760Y-128829047D01*
X116725760Y-128829047D02*
X116763855Y-128943333D01*
X116763855Y-128943333D02*
X116763855Y-129133809D01*
X116344807Y-128333809D02*
X116344807Y-128067143D01*
X116763855Y-127952857D02*
X116763855Y-128333809D01*
X116763855Y-128333809D02*
X115963855Y-128333809D01*
X115963855Y-128333809D02*
X115963855Y-127952857D01*
X116459093Y-127000475D02*
X116459093Y-126390952D01*
X116763855Y-125400475D02*
X115963855Y-125400475D01*
X115963855Y-125400475D02*
X115963855Y-125209999D01*
X115963855Y-125209999D02*
X116001950Y-125095713D01*
X116001950Y-125095713D02*
X116078140Y-125019523D01*
X116078140Y-125019523D02*
X116154331Y-124981428D01*
X116154331Y-124981428D02*
X116306712Y-124943332D01*
X116306712Y-124943332D02*
X116420998Y-124943332D01*
X116420998Y-124943332D02*
X116573379Y-124981428D01*
X116573379Y-124981428D02*
X116649569Y-125019523D01*
X116649569Y-125019523D02*
X116725760Y-125095713D01*
X116725760Y-125095713D02*
X116763855Y-125209999D01*
X116763855Y-125209999D02*
X116763855Y-125400475D01*
X116763855Y-124600475D02*
X115963855Y-124600475D01*
X116763855Y-123762380D02*
X116382902Y-124029047D01*
X116763855Y-124219523D02*
X115963855Y-124219523D01*
X115963855Y-124219523D02*
X115963855Y-123914761D01*
X115963855Y-123914761D02*
X116001950Y-123838571D01*
X116001950Y-123838571D02*
X116040045Y-123800476D01*
X116040045Y-123800476D02*
X116116236Y-123762380D01*
X116116236Y-123762380D02*
X116230521Y-123762380D01*
X116230521Y-123762380D02*
X116306712Y-123800476D01*
X116306712Y-123800476D02*
X116344807Y-123838571D01*
X116344807Y-123838571D02*
X116382902Y-123914761D01*
X116382902Y-123914761D02*
X116382902Y-124219523D01*
X116344807Y-123419523D02*
X116344807Y-123152857D01*
X116763855Y-123038571D02*
X116763855Y-123419523D01*
X116763855Y-123419523D02*
X115963855Y-123419523D01*
X115963855Y-123419523D02*
X115963855Y-123038571D01*
X116687664Y-122238570D02*
X116725760Y-122276666D01*
X116725760Y-122276666D02*
X116763855Y-122390951D01*
X116763855Y-122390951D02*
X116763855Y-122467142D01*
X116763855Y-122467142D02*
X116725760Y-122581428D01*
X116725760Y-122581428D02*
X116649569Y-122657618D01*
X116649569Y-122657618D02*
X116573379Y-122695713D01*
X116573379Y-122695713D02*
X116420998Y-122733809D01*
X116420998Y-122733809D02*
X116306712Y-122733809D01*
X116306712Y-122733809D02*
X116154331Y-122695713D01*
X116154331Y-122695713D02*
X116078140Y-122657618D01*
X116078140Y-122657618D02*
X116001950Y-122581428D01*
X116001950Y-122581428D02*
X115963855Y-122467142D01*
X115963855Y-122467142D02*
X115963855Y-122390951D01*
X115963855Y-122390951D02*
X116001950Y-122276666D01*
X116001950Y-122276666D02*
X116040045Y-122238570D01*
X115963855Y-122009999D02*
X115963855Y-121552856D01*
X116763855Y-121781428D02*
X115963855Y-121781428D01*
X116725760Y-120714761D02*
X116763855Y-120600475D01*
X116763855Y-120600475D02*
X116763855Y-120409999D01*
X116763855Y-120409999D02*
X116725760Y-120333808D01*
X116725760Y-120333808D02*
X116687664Y-120295713D01*
X116687664Y-120295713D02*
X116611474Y-120257618D01*
X116611474Y-120257618D02*
X116535283Y-120257618D01*
X116535283Y-120257618D02*
X116459093Y-120295713D01*
X116459093Y-120295713D02*
X116420998Y-120333808D01*
X116420998Y-120333808D02*
X116382902Y-120409999D01*
X116382902Y-120409999D02*
X116344807Y-120562380D01*
X116344807Y-120562380D02*
X116306712Y-120638570D01*
X116306712Y-120638570D02*
X116268617Y-120676665D01*
X116268617Y-120676665D02*
X116192426Y-120714761D01*
X116192426Y-120714761D02*
X116116236Y-120714761D01*
X116116236Y-120714761D02*
X116040045Y-120676665D01*
X116040045Y-120676665D02*
X116001950Y-120638570D01*
X116001950Y-120638570D02*
X115963855Y-120562380D01*
X115963855Y-120562380D02*
X115963855Y-120371903D01*
X115963855Y-120371903D02*
X116001950Y-120257618D01*
X115963855Y-119762379D02*
X115963855Y-119609998D01*
X115963855Y-119609998D02*
X116001950Y-119533808D01*
X116001950Y-119533808D02*
X116078140Y-119457617D01*
X116078140Y-119457617D02*
X116230521Y-119419522D01*
X116230521Y-119419522D02*
X116497188Y-119419522D01*
X116497188Y-119419522D02*
X116649569Y-119457617D01*
X116649569Y-119457617D02*
X116725760Y-119533808D01*
X116725760Y-119533808D02*
X116763855Y-119609998D01*
X116763855Y-119609998D02*
X116763855Y-119762379D01*
X116763855Y-119762379D02*
X116725760Y-119838570D01*
X116725760Y-119838570D02*
X116649569Y-119914760D01*
X116649569Y-119914760D02*
X116497188Y-119952856D01*
X116497188Y-119952856D02*
X116230521Y-119952856D01*
X116230521Y-119952856D02*
X116078140Y-119914760D01*
X116078140Y-119914760D02*
X116001950Y-119838570D01*
X116001950Y-119838570D02*
X115963855Y-119762379D01*
X116763855Y-118695713D02*
X116763855Y-119076665D01*
X116763855Y-119076665D02*
X115963855Y-119076665D01*
X116763855Y-118429046D02*
X115963855Y-118429046D01*
X115963855Y-118429046D02*
X115963855Y-118238570D01*
X115963855Y-118238570D02*
X116001950Y-118124284D01*
X116001950Y-118124284D02*
X116078140Y-118048094D01*
X116078140Y-118048094D02*
X116154331Y-118009999D01*
X116154331Y-118009999D02*
X116306712Y-117971903D01*
X116306712Y-117971903D02*
X116420998Y-117971903D01*
X116420998Y-117971903D02*
X116573379Y-118009999D01*
X116573379Y-118009999D02*
X116649569Y-118048094D01*
X116649569Y-118048094D02*
X116725760Y-118124284D01*
X116725760Y-118124284D02*
X116763855Y-118238570D01*
X116763855Y-118238570D02*
X116763855Y-118429046D01*
X116344807Y-117629046D02*
X116344807Y-117362380D01*
X116763855Y-117248094D02*
X116763855Y-117629046D01*
X116763855Y-117629046D02*
X115963855Y-117629046D01*
X115963855Y-117629046D02*
X115963855Y-117248094D01*
X116763855Y-116448093D02*
X116382902Y-116714760D01*
X116763855Y-116905236D02*
X115963855Y-116905236D01*
X115963855Y-116905236D02*
X115963855Y-116600474D01*
X115963855Y-116600474D02*
X116001950Y-116524284D01*
X116001950Y-116524284D02*
X116040045Y-116486189D01*
X116040045Y-116486189D02*
X116116236Y-116448093D01*
X116116236Y-116448093D02*
X116230521Y-116448093D01*
X116230521Y-116448093D02*
X116306712Y-116486189D01*
X116306712Y-116486189D02*
X116344807Y-116524284D01*
X116344807Y-116524284D02*
X116382902Y-116600474D01*
X116382902Y-116600474D02*
X116382902Y-116905236D01*
D10*
X162690952Y-116084819D02*
X162119524Y-116084819D01*
X162405238Y-116084819D02*
X162405238Y-115084819D01*
X162405238Y-115084819D02*
X162310000Y-115227676D01*
X162310000Y-115227676D02*
X162214762Y-115322914D01*
X162214762Y-115322914D02*
X162119524Y-115370533D01*
X163119524Y-116084819D02*
X163119524Y-115084819D01*
X163214762Y-115703866D02*
X163500476Y-116084819D01*
X163500476Y-115418152D02*
X163119524Y-115799104D01*
X162643333Y-118454819D02*
X162310000Y-117978628D01*
X162071905Y-118454819D02*
X162071905Y-117454819D01*
X162071905Y-117454819D02*
X162452857Y-117454819D01*
X162452857Y-117454819D02*
X162548095Y-117502438D01*
X162548095Y-117502438D02*
X162595714Y-117550057D01*
X162595714Y-117550057D02*
X162643333Y-117645295D01*
X162643333Y-117645295D02*
X162643333Y-117788152D01*
X162643333Y-117788152D02*
X162595714Y-117883390D01*
X162595714Y-117883390D02*
X162548095Y-117931009D01*
X162548095Y-117931009D02*
X162452857Y-117978628D01*
X162452857Y-117978628D02*
X162071905Y-117978628D01*
X163500476Y-117788152D02*
X163500476Y-118454819D01*
X163262381Y-117407200D02*
X163024286Y-118121485D01*
X163024286Y-118121485D02*
X163643333Y-118121485D01*
X110809580Y-110738095D02*
X110857200Y-110785714D01*
X110857200Y-110785714D02*
X110904819Y-110928571D01*
X110904819Y-110928571D02*
X110904819Y-111023809D01*
X110904819Y-111023809D02*
X110857200Y-111166666D01*
X110857200Y-111166666D02*
X110761961Y-111261904D01*
X110761961Y-111261904D02*
X110666723Y-111309523D01*
X110666723Y-111309523D02*
X110476247Y-111357142D01*
X110476247Y-111357142D02*
X110333390Y-111357142D01*
X110333390Y-111357142D02*
X110142914Y-111309523D01*
X110142914Y-111309523D02*
X110047676Y-111261904D01*
X110047676Y-111261904D02*
X109952438Y-111166666D01*
X109952438Y-111166666D02*
X109904819Y-111023809D01*
X109904819Y-111023809D02*
X109904819Y-110928571D01*
X109904819Y-110928571D02*
X109952438Y-110785714D01*
X109952438Y-110785714D02*
X110000057Y-110738095D01*
X110904819Y-110166666D02*
X110857200Y-110261904D01*
X110857200Y-110261904D02*
X110809580Y-110309523D01*
X110809580Y-110309523D02*
X110714342Y-110357142D01*
X110714342Y-110357142D02*
X110428628Y-110357142D01*
X110428628Y-110357142D02*
X110333390Y-110309523D01*
X110333390Y-110309523D02*
X110285771Y-110261904D01*
X110285771Y-110261904D02*
X110238152Y-110166666D01*
X110238152Y-110166666D02*
X110238152Y-110023809D01*
X110238152Y-110023809D02*
X110285771Y-109928571D01*
X110285771Y-109928571D02*
X110333390Y-109880952D01*
X110333390Y-109880952D02*
X110428628Y-109833333D01*
X110428628Y-109833333D02*
X110714342Y-109833333D01*
X110714342Y-109833333D02*
X110809580Y-109880952D01*
X110809580Y-109880952D02*
X110857200Y-109928571D01*
X110857200Y-109928571D02*
X110904819Y-110023809D01*
X110904819Y-110023809D02*
X110904819Y-110166666D01*
X110238152Y-109404761D02*
X110904819Y-109404761D01*
X110333390Y-109404761D02*
X110285771Y-109357142D01*
X110285771Y-109357142D02*
X110238152Y-109261904D01*
X110238152Y-109261904D02*
X110238152Y-109119047D01*
X110238152Y-109119047D02*
X110285771Y-109023809D01*
X110285771Y-109023809D02*
X110381009Y-108976190D01*
X110381009Y-108976190D02*
X110904819Y-108976190D01*
X110238152Y-108499999D02*
X110904819Y-108499999D01*
X110333390Y-108499999D02*
X110285771Y-108452380D01*
X110285771Y-108452380D02*
X110238152Y-108357142D01*
X110238152Y-108357142D02*
X110238152Y-108214285D01*
X110238152Y-108214285D02*
X110285771Y-108119047D01*
X110285771Y-108119047D02*
X110381009Y-108071428D01*
X110381009Y-108071428D02*
X110904819Y-108071428D01*
X111000057Y-107833333D02*
X111000057Y-107071428D01*
X109904819Y-106642856D02*
X109904819Y-106547618D01*
X109904819Y-106547618D02*
X109952438Y-106452380D01*
X109952438Y-106452380D02*
X110000057Y-106404761D01*
X110000057Y-106404761D02*
X110095295Y-106357142D01*
X110095295Y-106357142D02*
X110285771Y-106309523D01*
X110285771Y-106309523D02*
X110523866Y-106309523D01*
X110523866Y-106309523D02*
X110714342Y-106357142D01*
X110714342Y-106357142D02*
X110809580Y-106404761D01*
X110809580Y-106404761D02*
X110857200Y-106452380D01*
X110857200Y-106452380D02*
X110904819Y-106547618D01*
X110904819Y-106547618D02*
X110904819Y-106642856D01*
X110904819Y-106642856D02*
X110857200Y-106738094D01*
X110857200Y-106738094D02*
X110809580Y-106785713D01*
X110809580Y-106785713D02*
X110714342Y-106833332D01*
X110714342Y-106833332D02*
X110523866Y-106880951D01*
X110523866Y-106880951D02*
X110285771Y-106880951D01*
X110285771Y-106880951D02*
X110095295Y-106833332D01*
X110095295Y-106833332D02*
X110000057Y-106785713D01*
X110000057Y-106785713D02*
X109952438Y-106738094D01*
X109952438Y-106738094D02*
X109904819Y-106642856D01*
X110904819Y-105357142D02*
X110904819Y-105928570D01*
X110904819Y-105642856D02*
X109904819Y-105642856D01*
X109904819Y-105642856D02*
X110047676Y-105738094D01*
X110047676Y-105738094D02*
X110142914Y-105833332D01*
X110142914Y-105833332D02*
X110190533Y-105928570D01*
X110904819Y-105023808D02*
X110238152Y-104499999D01*
X110238152Y-105023808D02*
X110904819Y-104499999D01*
X109904819Y-103928570D02*
X109904819Y-103833332D01*
X109904819Y-103833332D02*
X109952438Y-103738094D01*
X109952438Y-103738094D02*
X110000057Y-103690475D01*
X110000057Y-103690475D02*
X110095295Y-103642856D01*
X110095295Y-103642856D02*
X110285771Y-103595237D01*
X110285771Y-103595237D02*
X110523866Y-103595237D01*
X110523866Y-103595237D02*
X110714342Y-103642856D01*
X110714342Y-103642856D02*
X110809580Y-103690475D01*
X110809580Y-103690475D02*
X110857200Y-103738094D01*
X110857200Y-103738094D02*
X110904819Y-103833332D01*
X110904819Y-103833332D02*
X110904819Y-103928570D01*
X110904819Y-103928570D02*
X110857200Y-104023808D01*
X110857200Y-104023808D02*
X110809580Y-104071427D01*
X110809580Y-104071427D02*
X110714342Y-104119046D01*
X110714342Y-104119046D02*
X110523866Y-104166665D01*
X110523866Y-104166665D02*
X110285771Y-104166665D01*
X110285771Y-104166665D02*
X110095295Y-104119046D01*
X110095295Y-104119046D02*
X110000057Y-104071427D01*
X110000057Y-104071427D02*
X109952438Y-104023808D01*
X109952438Y-104023808D02*
X109904819Y-103928570D01*
X110000057Y-103214284D02*
X109952438Y-103166665D01*
X109952438Y-103166665D02*
X109904819Y-103071427D01*
X109904819Y-103071427D02*
X109904819Y-102833332D01*
X109904819Y-102833332D02*
X109952438Y-102738094D01*
X109952438Y-102738094D02*
X110000057Y-102690475D01*
X110000057Y-102690475D02*
X110095295Y-102642856D01*
X110095295Y-102642856D02*
X110190533Y-102642856D01*
X110190533Y-102642856D02*
X110333390Y-102690475D01*
X110333390Y-102690475D02*
X110904819Y-103261903D01*
X110904819Y-103261903D02*
X110904819Y-102642856D01*
X104954819Y-107333333D02*
X105669104Y-107333333D01*
X105669104Y-107333333D02*
X105811961Y-107380952D01*
X105811961Y-107380952D02*
X105907200Y-107476190D01*
X105907200Y-107476190D02*
X105954819Y-107619047D01*
X105954819Y-107619047D02*
X105954819Y-107714285D01*
X105954819Y-106333333D02*
X105954819Y-106904761D01*
X105954819Y-106619047D02*
X104954819Y-106619047D01*
X104954819Y-106619047D02*
X105097676Y-106714285D01*
X105097676Y-106714285D02*
X105192914Y-106809523D01*
X105192914Y-106809523D02*
X105240533Y-106904761D01*
X115144762Y-151369104D02*
X115620952Y-151369104D01*
X115049524Y-151654819D02*
X115382857Y-150654819D01*
X115382857Y-150654819D02*
X115716190Y-151654819D01*
X116240000Y-150654819D02*
X116430476Y-150654819D01*
X116430476Y-150654819D02*
X116525714Y-150702438D01*
X116525714Y-150702438D02*
X116620952Y-150797676D01*
X116620952Y-150797676D02*
X116668571Y-150988152D01*
X116668571Y-150988152D02*
X116668571Y-151321485D01*
X116668571Y-151321485D02*
X116620952Y-151511961D01*
X116620952Y-151511961D02*
X116525714Y-151607200D01*
X116525714Y-151607200D02*
X116430476Y-151654819D01*
X116430476Y-151654819D02*
X116240000Y-151654819D01*
X116240000Y-151654819D02*
X116144762Y-151607200D01*
X116144762Y-151607200D02*
X116049524Y-151511961D01*
X116049524Y-151511961D02*
X116001905Y-151321485D01*
X116001905Y-151321485D02*
X116001905Y-150988152D01*
X116001905Y-150988152D02*
X116049524Y-150797676D01*
X116049524Y-150797676D02*
X116144762Y-150702438D01*
X116144762Y-150702438D02*
X116240000Y-150654819D01*
X117001905Y-150654819D02*
X117620952Y-150654819D01*
X117620952Y-150654819D02*
X117287619Y-151035771D01*
X117287619Y-151035771D02*
X117430476Y-151035771D01*
X117430476Y-151035771D02*
X117525714Y-151083390D01*
X117525714Y-151083390D02*
X117573333Y-151131009D01*
X117573333Y-151131009D02*
X117620952Y-151226247D01*
X117620952Y-151226247D02*
X117620952Y-151464342D01*
X117620952Y-151464342D02*
X117573333Y-151559580D01*
X117573333Y-151559580D02*
X117525714Y-151607200D01*
X117525714Y-151607200D02*
X117430476Y-151654819D01*
X117430476Y-151654819D02*
X117144762Y-151654819D01*
X117144762Y-151654819D02*
X117049524Y-151607200D01*
X117049524Y-151607200D02*
X117001905Y-151559580D01*
X118478095Y-150988152D02*
X118478095Y-151654819D01*
X118240000Y-150607200D02*
X118001905Y-151321485D01*
X118001905Y-151321485D02*
X118620952Y-151321485D01*
X119192381Y-150654819D02*
X119287619Y-150654819D01*
X119287619Y-150654819D02*
X119382857Y-150702438D01*
X119382857Y-150702438D02*
X119430476Y-150750057D01*
X119430476Y-150750057D02*
X119478095Y-150845295D01*
X119478095Y-150845295D02*
X119525714Y-151035771D01*
X119525714Y-151035771D02*
X119525714Y-151273866D01*
X119525714Y-151273866D02*
X119478095Y-151464342D01*
X119478095Y-151464342D02*
X119430476Y-151559580D01*
X119430476Y-151559580D02*
X119382857Y-151607200D01*
X119382857Y-151607200D02*
X119287619Y-151654819D01*
X119287619Y-151654819D02*
X119192381Y-151654819D01*
X119192381Y-151654819D02*
X119097143Y-151607200D01*
X119097143Y-151607200D02*
X119049524Y-151559580D01*
X119049524Y-151559580D02*
X119001905Y-151464342D01*
X119001905Y-151464342D02*
X118954286Y-151273866D01*
X118954286Y-151273866D02*
X118954286Y-151035771D01*
X118954286Y-151035771D02*
X119001905Y-150845295D01*
X119001905Y-150845295D02*
X119049524Y-150750057D01*
X119049524Y-150750057D02*
X119097143Y-150702438D01*
X119097143Y-150702438D02*
X119192381Y-150654819D01*
X120144762Y-150654819D02*
X120240000Y-150654819D01*
X120240000Y-150654819D02*
X120335238Y-150702438D01*
X120335238Y-150702438D02*
X120382857Y-150750057D01*
X120382857Y-150750057D02*
X120430476Y-150845295D01*
X120430476Y-150845295D02*
X120478095Y-151035771D01*
X120478095Y-151035771D02*
X120478095Y-151273866D01*
X120478095Y-151273866D02*
X120430476Y-151464342D01*
X120430476Y-151464342D02*
X120382857Y-151559580D01*
X120382857Y-151559580D02*
X120335238Y-151607200D01*
X120335238Y-151607200D02*
X120240000Y-151654819D01*
X120240000Y-151654819D02*
X120144762Y-151654819D01*
X120144762Y-151654819D02*
X120049524Y-151607200D01*
X120049524Y-151607200D02*
X120001905Y-151559580D01*
X120001905Y-151559580D02*
X119954286Y-151464342D01*
X119954286Y-151464342D02*
X119906667Y-151273866D01*
X119906667Y-151273866D02*
X119906667Y-151035771D01*
X119906667Y-151035771D02*
X119954286Y-150845295D01*
X119954286Y-150845295D02*
X120001905Y-150750057D01*
X120001905Y-150750057D02*
X120049524Y-150702438D01*
X120049524Y-150702438D02*
X120144762Y-150654819D01*
X120859048Y-151369104D02*
X121335238Y-151369104D01*
X120763810Y-151654819D02*
X121097143Y-150654819D01*
X121097143Y-150654819D02*
X121430476Y-151654819D01*
X118144761Y-148600057D02*
X118049523Y-148552438D01*
X118049523Y-148552438D02*
X117954285Y-148457200D01*
X117954285Y-148457200D02*
X117811428Y-148314342D01*
X117811428Y-148314342D02*
X117716190Y-148266723D01*
X117716190Y-148266723D02*
X117620952Y-148266723D01*
X117668571Y-148504819D02*
X117573333Y-148457200D01*
X117573333Y-148457200D02*
X117478095Y-148361961D01*
X117478095Y-148361961D02*
X117430476Y-148171485D01*
X117430476Y-148171485D02*
X117430476Y-147838152D01*
X117430476Y-147838152D02*
X117478095Y-147647676D01*
X117478095Y-147647676D02*
X117573333Y-147552438D01*
X117573333Y-147552438D02*
X117668571Y-147504819D01*
X117668571Y-147504819D02*
X117859047Y-147504819D01*
X117859047Y-147504819D02*
X117954285Y-147552438D01*
X117954285Y-147552438D02*
X118049523Y-147647676D01*
X118049523Y-147647676D02*
X118097142Y-147838152D01*
X118097142Y-147838152D02*
X118097142Y-148171485D01*
X118097142Y-148171485D02*
X118049523Y-148361961D01*
X118049523Y-148361961D02*
X117954285Y-148457200D01*
X117954285Y-148457200D02*
X117859047Y-148504819D01*
X117859047Y-148504819D02*
X117668571Y-148504819D01*
X119049523Y-148504819D02*
X118478095Y-148504819D01*
X118763809Y-148504819D02*
X118763809Y-147504819D01*
X118763809Y-147504819D02*
X118668571Y-147647676D01*
X118668571Y-147647676D02*
X118573333Y-147742914D01*
X118573333Y-147742914D02*
X118478095Y-147790533D01*
X112333333Y-116657200D02*
X112476190Y-116704819D01*
X112476190Y-116704819D02*
X112714285Y-116704819D01*
X112714285Y-116704819D02*
X112809523Y-116657200D01*
X112809523Y-116657200D02*
X112857142Y-116609580D01*
X112857142Y-116609580D02*
X112904761Y-116514342D01*
X112904761Y-116514342D02*
X112904761Y-116419104D01*
X112904761Y-116419104D02*
X112857142Y-116323866D01*
X112857142Y-116323866D02*
X112809523Y-116276247D01*
X112809523Y-116276247D02*
X112714285Y-116228628D01*
X112714285Y-116228628D02*
X112523809Y-116181009D01*
X112523809Y-116181009D02*
X112428571Y-116133390D01*
X112428571Y-116133390D02*
X112380952Y-116085771D01*
X112380952Y-116085771D02*
X112333333Y-115990533D01*
X112333333Y-115990533D02*
X112333333Y-115895295D01*
X112333333Y-115895295D02*
X112380952Y-115800057D01*
X112380952Y-115800057D02*
X112428571Y-115752438D01*
X112428571Y-115752438D02*
X112523809Y-115704819D01*
X112523809Y-115704819D02*
X112761904Y-115704819D01*
X112761904Y-115704819D02*
X112904761Y-115752438D01*
X113333333Y-116704819D02*
X113333333Y-115704819D01*
X113333333Y-115704819D02*
X113714285Y-115704819D01*
X113714285Y-115704819D02*
X113809523Y-115752438D01*
X113809523Y-115752438D02*
X113857142Y-115800057D01*
X113857142Y-115800057D02*
X113904761Y-115895295D01*
X113904761Y-115895295D02*
X113904761Y-116038152D01*
X113904761Y-116038152D02*
X113857142Y-116133390D01*
X113857142Y-116133390D02*
X113809523Y-116181009D01*
X113809523Y-116181009D02*
X113714285Y-116228628D01*
X113714285Y-116228628D02*
X113333333Y-116228628D01*
X114333333Y-116704819D02*
X114333333Y-115704819D01*
X114333333Y-115704819D02*
X114571428Y-115704819D01*
X114571428Y-115704819D02*
X114714285Y-115752438D01*
X114714285Y-115752438D02*
X114809523Y-115847676D01*
X114809523Y-115847676D02*
X114857142Y-115942914D01*
X114857142Y-115942914D02*
X114904761Y-116133390D01*
X114904761Y-116133390D02*
X114904761Y-116276247D01*
X114904761Y-116276247D02*
X114857142Y-116466723D01*
X114857142Y-116466723D02*
X114809523Y-116561961D01*
X114809523Y-116561961D02*
X114714285Y-116657200D01*
X114714285Y-116657200D02*
X114571428Y-116704819D01*
X114571428Y-116704819D02*
X114333333Y-116704819D01*
X115190476Y-115704819D02*
X115761904Y-115704819D01*
X115476190Y-116704819D02*
X115476190Y-115704819D01*
X121019047Y-118954819D02*
X121019047Y-117954819D01*
X121019047Y-117954819D02*
X121352380Y-118669104D01*
X121352380Y-118669104D02*
X121685713Y-117954819D01*
X121685713Y-117954819D02*
X121685713Y-118954819D01*
X122114285Y-118050057D02*
X122161904Y-118002438D01*
X122161904Y-118002438D02*
X122257142Y-117954819D01*
X122257142Y-117954819D02*
X122495237Y-117954819D01*
X122495237Y-117954819D02*
X122590475Y-118002438D01*
X122590475Y-118002438D02*
X122638094Y-118050057D01*
X122638094Y-118050057D02*
X122685713Y-118145295D01*
X122685713Y-118145295D02*
X122685713Y-118240533D01*
X122685713Y-118240533D02*
X122638094Y-118383390D01*
X122638094Y-118383390D02*
X122066666Y-118954819D01*
X122066666Y-118954819D02*
X122685713Y-118954819D01*
X122876190Y-119050057D02*
X123638094Y-119050057D01*
X123828571Y-118907200D02*
X123971428Y-118954819D01*
X123971428Y-118954819D02*
X124209523Y-118954819D01*
X124209523Y-118954819D02*
X124304761Y-118907200D01*
X124304761Y-118907200D02*
X124352380Y-118859580D01*
X124352380Y-118859580D02*
X124399999Y-118764342D01*
X124399999Y-118764342D02*
X124399999Y-118669104D01*
X124399999Y-118669104D02*
X124352380Y-118573866D01*
X124352380Y-118573866D02*
X124304761Y-118526247D01*
X124304761Y-118526247D02*
X124209523Y-118478628D01*
X124209523Y-118478628D02*
X124019047Y-118431009D01*
X124019047Y-118431009D02*
X123923809Y-118383390D01*
X123923809Y-118383390D02*
X123876190Y-118335771D01*
X123876190Y-118335771D02*
X123828571Y-118240533D01*
X123828571Y-118240533D02*
X123828571Y-118145295D01*
X123828571Y-118145295D02*
X123876190Y-118050057D01*
X123876190Y-118050057D02*
X123923809Y-118002438D01*
X123923809Y-118002438D02*
X124019047Y-117954819D01*
X124019047Y-117954819D02*
X124257142Y-117954819D01*
X124257142Y-117954819D02*
X124399999Y-118002438D01*
X124685714Y-117954819D02*
X125257142Y-117954819D01*
X124971428Y-118954819D02*
X124971428Y-117954819D01*
X125542857Y-118669104D02*
X126019047Y-118669104D01*
X125447619Y-118954819D02*
X125780952Y-117954819D01*
X125780952Y-117954819D02*
X126114285Y-118954819D01*
X126447619Y-118954819D02*
X126447619Y-117954819D01*
X126447619Y-117954819D02*
X127019047Y-118954819D01*
X127019047Y-118954819D02*
X127019047Y-117954819D01*
X127495238Y-118954819D02*
X127495238Y-117954819D01*
X127495238Y-117954819D02*
X127733333Y-117954819D01*
X127733333Y-117954819D02*
X127876190Y-118002438D01*
X127876190Y-118002438D02*
X127971428Y-118097676D01*
X127971428Y-118097676D02*
X128019047Y-118192914D01*
X128019047Y-118192914D02*
X128066666Y-118383390D01*
X128066666Y-118383390D02*
X128066666Y-118526247D01*
X128066666Y-118526247D02*
X128019047Y-118716723D01*
X128019047Y-118716723D02*
X127971428Y-118811961D01*
X127971428Y-118811961D02*
X127876190Y-118907200D01*
X127876190Y-118907200D02*
X127733333Y-118954819D01*
X127733333Y-118954819D02*
X127495238Y-118954819D01*
X128685714Y-117954819D02*
X128876190Y-117954819D01*
X128876190Y-117954819D02*
X128971428Y-118002438D01*
X128971428Y-118002438D02*
X129066666Y-118097676D01*
X129066666Y-118097676D02*
X129114285Y-118288152D01*
X129114285Y-118288152D02*
X129114285Y-118621485D01*
X129114285Y-118621485D02*
X129066666Y-118811961D01*
X129066666Y-118811961D02*
X128971428Y-118907200D01*
X128971428Y-118907200D02*
X128876190Y-118954819D01*
X128876190Y-118954819D02*
X128685714Y-118954819D01*
X128685714Y-118954819D02*
X128590476Y-118907200D01*
X128590476Y-118907200D02*
X128495238Y-118811961D01*
X128495238Y-118811961D02*
X128447619Y-118621485D01*
X128447619Y-118621485D02*
X128447619Y-118288152D01*
X128447619Y-118288152D02*
X128495238Y-118097676D01*
X128495238Y-118097676D02*
X128590476Y-118002438D01*
X128590476Y-118002438D02*
X128685714Y-117954819D01*
X129876190Y-118431009D02*
X129542857Y-118431009D01*
X129542857Y-118954819D02*
X129542857Y-117954819D01*
X129542857Y-117954819D02*
X130019047Y-117954819D01*
X130733333Y-118431009D02*
X130400000Y-118431009D01*
X130400000Y-118954819D02*
X130400000Y-117954819D01*
X130400000Y-117954819D02*
X130876190Y-117954819D01*
X125138095Y-115804819D02*
X125138095Y-114804819D01*
X125138095Y-115281009D02*
X125709523Y-115281009D01*
X125709523Y-115804819D02*
X125709523Y-114804819D01*
X126709523Y-115804819D02*
X126138095Y-115804819D01*
X126423809Y-115804819D02*
X126423809Y-114804819D01*
X126423809Y-114804819D02*
X126328571Y-114947676D01*
X126328571Y-114947676D02*
X126233333Y-115042914D01*
X126233333Y-115042914D02*
X126138095Y-115090533D01*
X122985714Y-157834819D02*
X122985714Y-156834819D01*
X122985714Y-157311009D02*
X123557142Y-157311009D01*
X123557142Y-157834819D02*
X123557142Y-156834819D01*
X124366666Y-157311009D02*
X124033333Y-157311009D01*
X124033333Y-157834819D02*
X124033333Y-156834819D01*
X124033333Y-156834819D02*
X124509523Y-156834819D01*
X123154819Y-155333333D02*
X123869104Y-155333333D01*
X123869104Y-155333333D02*
X124011961Y-155380952D01*
X124011961Y-155380952D02*
X124107200Y-155476190D01*
X124107200Y-155476190D02*
X124154819Y-155619047D01*
X124154819Y-155619047D02*
X124154819Y-155714285D01*
X123154819Y-154952380D02*
X123154819Y-154285714D01*
X123154819Y-154285714D02*
X124154819Y-154714285D01*
X117524285Y-146824819D02*
X116952857Y-146824819D01*
X117238571Y-146824819D02*
X117238571Y-145824819D01*
X117238571Y-145824819D02*
X117143333Y-145967676D01*
X117143333Y-145967676D02*
X117048095Y-146062914D01*
X117048095Y-146062914D02*
X116952857Y-146110533D01*
X117952857Y-146824819D02*
X117952857Y-145824819D01*
X117952857Y-145824819D02*
X118286190Y-146539104D01*
X118286190Y-146539104D02*
X118619523Y-145824819D01*
X118619523Y-145824819D02*
X118619523Y-146824819D01*
X117643333Y-144454819D02*
X117310000Y-143978628D01*
X117071905Y-144454819D02*
X117071905Y-143454819D01*
X117071905Y-143454819D02*
X117452857Y-143454819D01*
X117452857Y-143454819D02*
X117548095Y-143502438D01*
X117548095Y-143502438D02*
X117595714Y-143550057D01*
X117595714Y-143550057D02*
X117643333Y-143645295D01*
X117643333Y-143645295D02*
X117643333Y-143788152D01*
X117643333Y-143788152D02*
X117595714Y-143883390D01*
X117595714Y-143883390D02*
X117548095Y-143931009D01*
X117548095Y-143931009D02*
X117452857Y-143978628D01*
X117452857Y-143978628D02*
X117071905Y-143978628D01*
X117976667Y-143454819D02*
X118595714Y-143454819D01*
X118595714Y-143454819D02*
X118262381Y-143835771D01*
X118262381Y-143835771D02*
X118405238Y-143835771D01*
X118405238Y-143835771D02*
X118500476Y-143883390D01*
X118500476Y-143883390D02*
X118548095Y-143931009D01*
X118548095Y-143931009D02*
X118595714Y-144026247D01*
X118595714Y-144026247D02*
X118595714Y-144264342D01*
X118595714Y-144264342D02*
X118548095Y-144359580D01*
X118548095Y-144359580D02*
X118500476Y-144407200D01*
X118500476Y-144407200D02*
X118405238Y-144454819D01*
X118405238Y-144454819D02*
X118119524Y-144454819D01*
X118119524Y-144454819D02*
X118024286Y-144407200D01*
X118024286Y-144407200D02*
X117976667Y-144359580D01*
X113333809Y-142404819D02*
X113905237Y-142404819D01*
X113619523Y-143404819D02*
X113619523Y-142404819D01*
X114809999Y-143309580D02*
X114762380Y-143357200D01*
X114762380Y-143357200D02*
X114619523Y-143404819D01*
X114619523Y-143404819D02*
X114524285Y-143404819D01*
X114524285Y-143404819D02*
X114381428Y-143357200D01*
X114381428Y-143357200D02*
X114286190Y-143261961D01*
X114286190Y-143261961D02*
X114238571Y-143166723D01*
X114238571Y-143166723D02*
X114190952Y-142976247D01*
X114190952Y-142976247D02*
X114190952Y-142833390D01*
X114190952Y-142833390D02*
X114238571Y-142642914D01*
X114238571Y-142642914D02*
X114286190Y-142547676D01*
X114286190Y-142547676D02*
X114381428Y-142452438D01*
X114381428Y-142452438D02*
X114524285Y-142404819D01*
X114524285Y-142404819D02*
X114619523Y-142404819D01*
X114619523Y-142404819D02*
X114762380Y-142452438D01*
X114762380Y-142452438D02*
X114809999Y-142500057D01*
X115667142Y-142738152D02*
X115667142Y-143404819D01*
X115429047Y-142357200D02*
X115190952Y-143071485D01*
X115190952Y-143071485D02*
X115809999Y-143071485D01*
X116619523Y-142738152D02*
X116619523Y-143404819D01*
X116381428Y-142357200D02*
X116143333Y-143071485D01*
X116143333Y-143071485D02*
X116762380Y-143071485D01*
X117095714Y-142500057D02*
X117143333Y-142452438D01*
X117143333Y-142452438D02*
X117238571Y-142404819D01*
X117238571Y-142404819D02*
X117476666Y-142404819D01*
X117476666Y-142404819D02*
X117571904Y-142452438D01*
X117571904Y-142452438D02*
X117619523Y-142500057D01*
X117619523Y-142500057D02*
X117667142Y-142595295D01*
X117667142Y-142595295D02*
X117667142Y-142690533D01*
X117667142Y-142690533D02*
X117619523Y-142833390D01*
X117619523Y-142833390D02*
X117048095Y-143404819D01*
X117048095Y-143404819D02*
X117667142Y-143404819D01*
X118048095Y-142500057D02*
X118095714Y-142452438D01*
X118095714Y-142452438D02*
X118190952Y-142404819D01*
X118190952Y-142404819D02*
X118429047Y-142404819D01*
X118429047Y-142404819D02*
X118524285Y-142452438D01*
X118524285Y-142452438D02*
X118571904Y-142500057D01*
X118571904Y-142500057D02*
X118619523Y-142595295D01*
X118619523Y-142595295D02*
X118619523Y-142690533D01*
X118619523Y-142690533D02*
X118571904Y-142833390D01*
X118571904Y-142833390D02*
X118000476Y-143404819D01*
X118000476Y-143404819D02*
X118619523Y-143404819D01*
X119000476Y-143119104D02*
X119476666Y-143119104D01*
X118905238Y-143404819D02*
X119238571Y-142404819D01*
X119238571Y-142404819D02*
X119571904Y-143404819D01*
X119762381Y-142404819D02*
X120095714Y-143404819D01*
X120095714Y-143404819D02*
X120429047Y-142404819D01*
X120762381Y-143404819D02*
X120762381Y-142404819D01*
X120762381Y-142404819D02*
X121143333Y-142404819D01*
X121143333Y-142404819D02*
X121238571Y-142452438D01*
X121238571Y-142452438D02*
X121286190Y-142500057D01*
X121286190Y-142500057D02*
X121333809Y-142595295D01*
X121333809Y-142595295D02*
X121333809Y-142738152D01*
X121333809Y-142738152D02*
X121286190Y-142833390D01*
X121286190Y-142833390D02*
X121238571Y-142881009D01*
X121238571Y-142881009D02*
X121143333Y-142928628D01*
X121143333Y-142928628D02*
X120762381Y-142928628D01*
X121714762Y-143119104D02*
X122190952Y-143119104D01*
X121619524Y-143404819D02*
X121952857Y-142404819D01*
X121952857Y-142404819D02*
X122286190Y-143404819D01*
X117264819Y-137571904D02*
X118074342Y-137571904D01*
X118074342Y-137571904D02*
X118169580Y-137524285D01*
X118169580Y-137524285D02*
X118217200Y-137476666D01*
X118217200Y-137476666D02*
X118264819Y-137381428D01*
X118264819Y-137381428D02*
X118264819Y-137190952D01*
X118264819Y-137190952D02*
X118217200Y-137095714D01*
X118217200Y-137095714D02*
X118169580Y-137048095D01*
X118169580Y-137048095D02*
X118074342Y-137000476D01*
X118074342Y-137000476D02*
X117264819Y-137000476D01*
X117360057Y-136571904D02*
X117312438Y-136524285D01*
X117312438Y-136524285D02*
X117264819Y-136429047D01*
X117264819Y-136429047D02*
X117264819Y-136190952D01*
X117264819Y-136190952D02*
X117312438Y-136095714D01*
X117312438Y-136095714D02*
X117360057Y-136048095D01*
X117360057Y-136048095D02*
X117455295Y-136000476D01*
X117455295Y-136000476D02*
X117550533Y-136000476D01*
X117550533Y-136000476D02*
X117693390Y-136048095D01*
X117693390Y-136048095D02*
X118264819Y-136619523D01*
X118264819Y-136619523D02*
X118264819Y-136000476D01*
X172722380Y-135004819D02*
X172150952Y-135004819D01*
X172436666Y-135004819D02*
X172436666Y-134004819D01*
X172436666Y-134004819D02*
X172341428Y-134147676D01*
X172341428Y-134147676D02*
X172246190Y-134242914D01*
X172246190Y-134242914D02*
X172150952Y-134290533D01*
X173341428Y-134004819D02*
X173436666Y-134004819D01*
X173436666Y-134004819D02*
X173531904Y-134052438D01*
X173531904Y-134052438D02*
X173579523Y-134100057D01*
X173579523Y-134100057D02*
X173627142Y-134195295D01*
X173627142Y-134195295D02*
X173674761Y-134385771D01*
X173674761Y-134385771D02*
X173674761Y-134623866D01*
X173674761Y-134623866D02*
X173627142Y-134814342D01*
X173627142Y-134814342D02*
X173579523Y-134909580D01*
X173579523Y-134909580D02*
X173531904Y-134957200D01*
X173531904Y-134957200D02*
X173436666Y-135004819D01*
X173436666Y-135004819D02*
X173341428Y-135004819D01*
X173341428Y-135004819D02*
X173246190Y-134957200D01*
X173246190Y-134957200D02*
X173198571Y-134909580D01*
X173198571Y-134909580D02*
X173150952Y-134814342D01*
X173150952Y-134814342D02*
X173103333Y-134623866D01*
X173103333Y-134623866D02*
X173103333Y-134385771D01*
X173103333Y-134385771D02*
X173150952Y-134195295D01*
X173150952Y-134195295D02*
X173198571Y-134100057D01*
X173198571Y-134100057D02*
X173246190Y-134052438D01*
X173246190Y-134052438D02*
X173341428Y-134004819D01*
X174293809Y-134004819D02*
X174389047Y-134004819D01*
X174389047Y-134004819D02*
X174484285Y-134052438D01*
X174484285Y-134052438D02*
X174531904Y-134100057D01*
X174531904Y-134100057D02*
X174579523Y-134195295D01*
X174579523Y-134195295D02*
X174627142Y-134385771D01*
X174627142Y-134385771D02*
X174627142Y-134623866D01*
X174627142Y-134623866D02*
X174579523Y-134814342D01*
X174579523Y-134814342D02*
X174531904Y-134909580D01*
X174531904Y-134909580D02*
X174484285Y-134957200D01*
X174484285Y-134957200D02*
X174389047Y-135004819D01*
X174389047Y-135004819D02*
X174293809Y-135004819D01*
X174293809Y-135004819D02*
X174198571Y-134957200D01*
X174198571Y-134957200D02*
X174150952Y-134909580D01*
X174150952Y-134909580D02*
X174103333Y-134814342D01*
X174103333Y-134814342D02*
X174055714Y-134623866D01*
X174055714Y-134623866D02*
X174055714Y-134385771D01*
X174055714Y-134385771D02*
X174103333Y-134195295D01*
X174103333Y-134195295D02*
X174150952Y-134100057D01*
X174150952Y-134100057D02*
X174198571Y-134052438D01*
X174198571Y-134052438D02*
X174293809Y-134004819D01*
X175055714Y-134338152D02*
X175055714Y-135004819D01*
X175055714Y-134433390D02*
X175103333Y-134385771D01*
X175103333Y-134385771D02*
X175198571Y-134338152D01*
X175198571Y-134338152D02*
X175341428Y-134338152D01*
X175341428Y-134338152D02*
X175436666Y-134385771D01*
X175436666Y-134385771D02*
X175484285Y-134481009D01*
X175484285Y-134481009D02*
X175484285Y-135004819D01*
X176293809Y-134481009D02*
X175960476Y-134481009D01*
X175960476Y-135004819D02*
X175960476Y-134004819D01*
X175960476Y-134004819D02*
X176436666Y-134004819D01*
X166714286Y-167407200D02*
X166857143Y-167454819D01*
X166857143Y-167454819D02*
X167095238Y-167454819D01*
X167095238Y-167454819D02*
X167190476Y-167407200D01*
X167190476Y-167407200D02*
X167238095Y-167359580D01*
X167238095Y-167359580D02*
X167285714Y-167264342D01*
X167285714Y-167264342D02*
X167285714Y-167169104D01*
X167285714Y-167169104D02*
X167238095Y-167073866D01*
X167238095Y-167073866D02*
X167190476Y-167026247D01*
X167190476Y-167026247D02*
X167095238Y-166978628D01*
X167095238Y-166978628D02*
X166904762Y-166931009D01*
X166904762Y-166931009D02*
X166809524Y-166883390D01*
X166809524Y-166883390D02*
X166761905Y-166835771D01*
X166761905Y-166835771D02*
X166714286Y-166740533D01*
X166714286Y-166740533D02*
X166714286Y-166645295D01*
X166714286Y-166645295D02*
X166761905Y-166550057D01*
X166761905Y-166550057D02*
X166809524Y-166502438D01*
X166809524Y-166502438D02*
X166904762Y-166454819D01*
X166904762Y-166454819D02*
X167142857Y-166454819D01*
X167142857Y-166454819D02*
X167285714Y-166502438D01*
X167714286Y-167454819D02*
X167714286Y-166454819D01*
X167714286Y-166454819D02*
X168047619Y-167169104D01*
X168047619Y-167169104D02*
X168380952Y-166454819D01*
X168380952Y-166454819D02*
X168380952Y-167454819D01*
X168809524Y-167169104D02*
X169285714Y-167169104D01*
X168714286Y-167454819D02*
X169047619Y-166454819D01*
X169047619Y-166454819D02*
X169380952Y-167454819D01*
X167666666Y-161454819D02*
X167666666Y-162169104D01*
X167666666Y-162169104D02*
X167619047Y-162311961D01*
X167619047Y-162311961D02*
X167523809Y-162407200D01*
X167523809Y-162407200D02*
X167380952Y-162454819D01*
X167380952Y-162454819D02*
X167285714Y-162454819D01*
X168047619Y-161454819D02*
X168666666Y-161454819D01*
X168666666Y-161454819D02*
X168333333Y-161835771D01*
X168333333Y-161835771D02*
X168476190Y-161835771D01*
X168476190Y-161835771D02*
X168571428Y-161883390D01*
X168571428Y-161883390D02*
X168619047Y-161931009D01*
X168619047Y-161931009D02*
X168666666Y-162026247D01*
X168666666Y-162026247D02*
X168666666Y-162264342D01*
X168666666Y-162264342D02*
X168619047Y-162359580D01*
X168619047Y-162359580D02*
X168571428Y-162407200D01*
X168571428Y-162407200D02*
X168476190Y-162454819D01*
X168476190Y-162454819D02*
X168190476Y-162454819D01*
X168190476Y-162454819D02*
X168095238Y-162407200D01*
X168095238Y-162407200D02*
X168047619Y-162359580D01*
%TO.C,U1*%
D12*
X161635000Y-121230000D02*
X162635000Y-120230000D01*
X161635000Y-140550000D02*
X161635000Y-121230000D01*
X162635000Y-120230000D02*
X167985000Y-120230000D01*
X167985000Y-120230000D02*
X167985000Y-140550000D01*
X167985000Y-140550000D02*
X161635000Y-140550000D01*
%TO.C,J6*%
D11*
X154920000Y-153620000D02*
X156300000Y-153620000D01*
X154920000Y-155000000D02*
X154920000Y-153620000D01*
D12*
X155030000Y-154365000D02*
X155665000Y-153730000D01*
X155030000Y-156270000D02*
X155030000Y-154365000D01*
X155665000Y-153730000D02*
X157570000Y-153730000D01*
X157570000Y-153730000D02*
X157570000Y-156270000D01*
X157570000Y-156270000D02*
X155030000Y-156270000D01*
%TO.C,C1*%
X173000000Y-112965000D02*
X173800000Y-113765000D01*
X173000000Y-112965000D02*
X178080000Y-112965000D01*
X178080000Y-117035000D01*
X173000000Y-117035000D01*
X173000000Y-112965000D01*
%TO.C,C2*%
X172365000Y-119730000D02*
X173165000Y-120530000D01*
X172365000Y-119730000D02*
X176175000Y-119730000D01*
X176175000Y-122270000D01*
X172365000Y-122270000D01*
X172365000Y-119730000D01*
%TO.C,J5*%
X100700000Y-136050000D02*
X100700000Y-137250000D01*
X100700000Y-137250000D02*
X105200000Y-137250000D01*
X100700000Y-142250000D02*
X105200000Y-142250000D01*
X100700000Y-143450000D02*
X100700000Y-142250000D01*
X104200000Y-141000000D02*
X105200000Y-140375000D01*
X105200000Y-137250000D02*
X105200000Y-139750000D01*
X105200000Y-141625000D02*
X104200000Y-141000000D01*
X105200000Y-142250000D02*
X105200000Y-139750000D01*
X112200000Y-136050000D02*
X100700000Y-136050000D01*
X112200000Y-139750000D02*
X112200000Y-136050000D01*
X112200000Y-139750000D02*
X112200000Y-143450000D01*
X112200000Y-143450000D02*
X100700000Y-143450000D01*
%TO.C,C5*%
X103000000Y-113465000D02*
X103800000Y-114265000D01*
X103000000Y-113465000D02*
X108080000Y-113465000D01*
X108080000Y-117535000D01*
X103000000Y-117535000D01*
X103000000Y-113465000D01*
%TO.C,J4*%
X108500000Y-158500000D02*
X108500000Y-165500000D01*
X108500000Y-158500000D02*
X115500000Y-158500000D01*
X108500000Y-165500000D02*
X115500000Y-165500000D01*
X115500000Y-158500000D02*
X115500000Y-165500000D01*
X115175000Y-162000000D02*
G75*
G02*
X108825000Y-162000000I-3175000J0D01*
G01*
X108825000Y-162000000D02*
G75*
G02*
X115175000Y-162000000I3175000J0D01*
G01*
%TO.C,R2*%
X103000000Y-148000000D02*
X103660000Y-148000000D01*
X110620000Y-148000000D02*
X109960000Y-148000000D01*
X103660000Y-146750000D02*
X109960000Y-146750000D01*
X109960000Y-149250000D01*
X103660000Y-149250000D01*
X103660000Y-146750000D01*
%TO.C,D1*%
X173230000Y-146166190D02*
X173230000Y-143833810D01*
X173230000Y-146166190D02*
G75*
G02*
X173230000Y-143833810I-1500000J1166190D01*
G01*
X173230000Y-145000000D02*
G75*
G02*
X170230000Y-145000000I-1500000J0D01*
G01*
X170230000Y-145000000D02*
G75*
G02*
X173230000Y-145000000I1500000J0D01*
G01*
%TO.C,A1*%
X157030000Y-92220000D02*
X172270000Y-92220000D01*
X172270000Y-111270000D01*
X157030000Y-111270000D01*
X157030000Y-92220000D01*
%TO.C,R1*%
X160000000Y-145000000D02*
X160660000Y-145000000D01*
X167620000Y-145000000D02*
X166960000Y-145000000D01*
X160660000Y-143750000D02*
X166960000Y-143750000D01*
X166960000Y-146250000D01*
X160660000Y-146250000D01*
X160660000Y-143750000D01*
%TO.C,J2*%
X153630000Y-121085000D02*
X154265000Y-120450000D01*
X153630000Y-148390000D02*
X153630000Y-121085000D01*
X154265000Y-120450000D02*
X156170000Y-120450000D01*
X156170000Y-120450000D02*
X156170000Y-148390000D01*
X156170000Y-148390000D02*
X153630000Y-148390000D01*
%TO.C,C4*%
X107065000Y-132030000D02*
X107865000Y-132830000D01*
X107065000Y-132030000D02*
X110875000Y-132030000D01*
X110875000Y-134570000D01*
X107065000Y-134570000D01*
X107065000Y-132030000D01*
%TO.C,A2*%
X104730000Y-119095000D02*
X121240000Y-119095000D01*
X121240000Y-130525000D01*
X104730000Y-130525000D01*
X104730000Y-119095000D01*
%TO.C,R4*%
X159000000Y-118000000D02*
X159660000Y-118000000D01*
X166620000Y-118000000D02*
X165960000Y-118000000D01*
X159660000Y-116750000D02*
X165960000Y-116750000D01*
X165960000Y-119250000D01*
X159660000Y-119250000D01*
X159660000Y-116750000D01*
%TO.C,J1*%
X101650000Y-104050000D02*
X101650000Y-104750000D01*
X101650000Y-104750000D02*
X103250000Y-104750000D01*
X101650000Y-109250000D02*
X101650000Y-109950000D01*
X101650000Y-109950000D02*
X109250000Y-109950000D01*
X103250000Y-104750000D02*
X103250000Y-109250000D01*
X103250000Y-109250000D02*
X101650000Y-109250000D01*
X103875000Y-108000000D02*
X104375000Y-108500000D01*
X104375000Y-107500000D02*
X103875000Y-108000000D01*
X104375000Y-108500000D02*
X104375000Y-107500000D01*
X109250000Y-104050000D02*
X101650000Y-104050000D01*
X109250000Y-109950000D02*
X109250000Y-104050000D01*
%TO.C,Q1*%
X113240000Y-147120000D02*
X123240000Y-147120000D01*
X116390000Y-145850000D02*
X116390000Y-147120000D01*
X120090000Y-145850000D02*
X120090000Y-147120000D01*
X113240000Y-145850000D02*
X123240000Y-145850000D01*
X123240000Y-150250000D01*
X113240000Y-150250000D01*
X113240000Y-145850000D01*
%TO.C,SW1*%
D13*
X112800000Y-113250000D02*
X114000000Y-114450000D01*
X114000000Y-114450000D02*
X115200000Y-113250000D01*
X110450000Y-101530000D02*
X117550000Y-101530000D01*
X117550000Y-114470000D01*
X110450000Y-114470000D01*
X110450000Y-101530000D01*
D12*
X110570000Y-101650000D02*
X117430000Y-101650000D01*
X117430000Y-114350000D01*
X110570000Y-114350000D01*
X110570000Y-101650000D01*
X117175000Y-108000000D02*
G75*
G02*
X110825000Y-108000000I-3175000J0D01*
G01*
X110825000Y-108000000D02*
G75*
G02*
X117175000Y-108000000I3175000J0D01*
G01*
%TO.C,J7*%
X122430000Y-154365000D02*
X123065000Y-153730000D01*
X122430000Y-156270000D02*
X122430000Y-154365000D01*
X123065000Y-153730000D02*
X124970000Y-153730000D01*
X124970000Y-153730000D02*
X124970000Y-156270000D01*
X124970000Y-156270000D02*
X122430000Y-156270000D01*
%TO.C,R3*%
X121620000Y-144000000D02*
X120960000Y-144000000D01*
X114000000Y-144000000D02*
X114660000Y-144000000D01*
X114660000Y-142750000D02*
X120960000Y-142750000D01*
X120960000Y-145250000D01*
X114660000Y-145250000D01*
X114660000Y-142750000D01*
%TO.C,U2*%
X114635000Y-132730000D02*
X115635000Y-131730000D01*
X114635000Y-141890000D02*
X114635000Y-132730000D01*
X115635000Y-131730000D02*
X120985000Y-131730000D01*
X120985000Y-131730000D02*
X120985000Y-141890000D01*
X120985000Y-141890000D02*
X114635000Y-141890000D01*
%TO.C,C3*%
X172365000Y-130730000D02*
X173165000Y-131530000D01*
X172365000Y-130730000D02*
X176175000Y-130730000D01*
X176175000Y-133270000D01*
X172365000Y-133270000D01*
X172365000Y-130730000D01*
%TO.C,J3*%
X164500000Y-158500000D02*
X164500000Y-165500000D01*
X164500000Y-158500000D02*
X171500000Y-158500000D01*
X164500000Y-165500000D02*
X171500000Y-165500000D01*
X171500000Y-158500000D02*
X171500000Y-165500000D01*
X171175000Y-162000000D02*
G75*
G02*
X164825000Y-162000000I-3175000J0D01*
G01*
X164825000Y-162000000D02*
G75*
G02*
X171175000Y-162000000I3175000J0D01*
G01*
%TD*%
M02*
