%TF.GenerationSoftware,KiCad,Pcbnew,10.0.6*%
%TF.CreationDate,2026-09-22T17:20:21-07:00*%
%TF.ProjectId,weather-balloon-logger,77656174-6865-4722-9d62-616c6c6f6f6e,rev?*%
%TF.SameCoordinates,Original*%
%TF.FileFunction,Copper,L1,Top*%
%TF.FilePolarity,Positive*%
%FSLAX46Y46*%
G04 Gerber Fmt 4.6, Leading zero omitted, Abs format (unit mm)*
G04 Created by KiCad (PCBNEW 10.0.6) date 2026-09-22 17:20:21*
%MOMM*%
%LPD*%
G01*
G04 APERTURE LIST*
G04 Aperture macros list*
%AMRoundRect*
0 Rectangle with rounded corners*
0 $1 Rounding radius*
0 $2 $3 $4 $5 $6 $7 $8 $9 X,Y pos of 4 corners*
0 Add a 4 corners polygon primitive as box body*
4,1,4,$2,$3,$4,$5,$6,$7,$8,$9,$2,$3,0*
0 Add four circle primitives for the rounded corners*
1,1,$1+$1,$2,$3*
1,1,$1+$1,$4,$5*
1,1,$1+$1,$6,$7*
1,1,$1+$1,$8,$9*
0 Add four rect primitives between the rounded corners*
20,1,$1+$1,$2,$3,$4,$5,0*
20,1,$1+$1,$4,$5,$6,$7,0*
20,1,$1+$1,$6,$7,$8,$9,0*
20,1,$1+$1,$8,$9,$2,$3,0*%
G04 Aperture macros list end*
%TA.AperFunction,ComponentPad*%
%ADD10R,1.700000X1.700000*%
%TD*%
%TA.AperFunction,ComponentPad*%
%ADD11C,1.700000*%
%TD*%
%TA.AperFunction,ComponentPad*%
%ADD12C,1.600000*%
%TD*%
%TA.AperFunction,ComponentPad*%
%ADD13R,1.600000X1.600000*%
%TD*%
%TA.AperFunction,ComponentPad*%
%ADD14RoundRect,0.250000X0.600000X0.750000X-0.600000X0.750000X-0.600000X-0.750000X0.600000X-0.750000X0*%
%TD*%
%TA.AperFunction,ComponentPad*%
%ADD15O,1.700000X2.000000*%
%TD*%
%TA.AperFunction,ComponentPad*%
%ADD16R,1.800000X1.800000*%
%TD*%
%TA.AperFunction,ComponentPad*%
%ADD17C,1.800000*%
%TD*%
%TA.AperFunction,Conductor*%
%ADD18C,0.350000*%
%TD*%
%TA.AperFunction,Conductor*%
%ADD19C,0.500000*%
%TD*%
%TA.AperFunction,Conductor*%
%ADD20C,0.800000*%
%TD*%
G04 APERTURE END LIST*
D10*
%TO.P,A1,1*%
%TO.N,N/C*%
X116500000Y-110000000D03*
D11*
%TO.P,A1,2*%
%TO.N,GND*%
X113960000Y-110000000D03*
%TO.P,A1,3*%
%TO.N,3V3*%
X111420000Y-110000000D03*
%TO.P,A1,4*%
%TO.N,N/C*%
X108880000Y-110000000D03*
%TO.P,A1,5*%
%TO.N,OPENLOG_RXI*%
X106340000Y-110000000D03*
%TO.P,A1,6*%
%TO.N,N/C*%
X103800000Y-110000000D03*
%TD*%
D12*
%TO.P,R1,1*%
%TO.N,3V3*%
X110000000Y-116000000D03*
%TO.P,R1,2*%
%TO.N,LED_A*%
X117620000Y-116000000D03*
%TD*%
D13*
%TO.P,C1,1*%
%TO.N,3V3*%
X116000000Y-132000000D03*
D12*
%TO.P,C1,2*%
%TO.N,GND*%
X121080000Y-132000000D03*
%TD*%
D14*
%TO.P,J5,1*%
%TO.N,OUT1*%
X108500000Y-158000000D03*
D15*
%TO.P,J5,2*%
%TO.N,GND*%
X106000000Y-158000000D03*
%TD*%
D12*
%TO.P,R4,1*%
%TO.N,UART_TX*%
X128000000Y-106000000D03*
%TO.P,R4,2*%
%TO.N,OPENLOG_RXI*%
X120380000Y-106000000D03*
%TD*%
%TO.P,R2,1*%
%TO.N,3V3*%
X110000000Y-120000000D03*
%TO.P,R2,2*%
%TO.N,LED_N*%
X117620000Y-120000000D03*
%TD*%
D16*
%TO.P,D1,1*%
%TO.N,LED_N*%
X122700000Y-116000000D03*
D17*
%TO.P,D1,2*%
%TO.N,LED_A*%
X120160000Y-116000000D03*
%TD*%
D13*
%TO.P,C2,1*%
%TO.N,3V3*%
X116000000Y-138000000D03*
D12*
%TO.P,C2,2*%
%TO.N,GND*%
X118540000Y-138000000D03*
%TD*%
D10*
%TO.P,J3,1*%
%TO.N,OUT1*%
X144000000Y-155000000D03*
D11*
%TO.P,J3,2*%
%TO.N,GND*%
X144000000Y-157540000D03*
%TD*%
D10*
%TO.P,J2,1*%
%TO.N,UART_TX*%
X136500000Y-109000000D03*
D11*
%TO.P,J2,2*%
%TO.N,LED_N*%
X136500000Y-111540000D03*
%TO.P,J2,3*%
%TO.N,3V3*%
X136500000Y-114080000D03*
%TO.P,J2,4*%
%TO.N,GND*%
X136500000Y-116620000D03*
%TO.P,J2,5*%
%TO.N,N/C*%
X136500000Y-119160000D03*
%TO.P,J2,6*%
X136500000Y-121700000D03*
%TO.P,J2,7*%
X136500000Y-124240000D03*
%TO.P,J2,8*%
X136500000Y-126780000D03*
%TO.P,J2,9*%
X136500000Y-129320000D03*
%TD*%
%TO.N,3V3*%
D18*
X132000000Y-114080000D02*
X132000000Y-122000000D01*
X108000000Y-116000000D02*
X110000000Y-116000000D01*
D19*
X108000000Y-138000000D02*
X116000000Y-138000000D01*
D18*
X108000000Y-120000000D02*
X110000000Y-120000000D01*
X136500000Y-114080000D02*
X132000000Y-114080000D01*
X108000000Y-122000000D02*
X108000000Y-116000000D01*
X132000000Y-122000000D02*
X108000000Y-122000000D01*
D19*
X108000000Y-132000000D02*
X108000000Y-138000000D01*
X108000000Y-132000000D02*
X116000000Y-132000000D01*
X108000000Y-122000000D02*
X108000000Y-132000000D01*
%TO.N,UART_TX*%
D18*
X132000000Y-106000000D02*
X128000000Y-106000000D01*
X136500000Y-109000000D02*
X132000000Y-109000000D01*
X132000000Y-109000000D02*
X132000000Y-106000000D01*
%TO.N,OPENLOG_RXI*%
X106340000Y-106000000D02*
X106340000Y-110000000D01*
X120380000Y-106000000D02*
X106340000Y-106000000D01*
%TO.N,LED_A*%
X117620000Y-116000000D02*
X120160000Y-116000000D01*
%TO.N,LED_N*%
X136500000Y-111540000D02*
X130000000Y-111540000D01*
X130000000Y-118000000D02*
X124500000Y-118000000D01*
X124500000Y-118000000D02*
X122700000Y-116000000D01*
X124500000Y-118000000D02*
X124500000Y-120000000D01*
X124500000Y-120000000D02*
X117620000Y-120000000D01*
X130000000Y-111540000D02*
X130000000Y-118000000D01*
%TO.N,OUT1*%
D20*
X140000000Y-151000000D02*
X110000000Y-151000000D01*
X144000000Y-155000000D02*
X140000000Y-151000000D01*
X110000000Y-151000000D02*
X110000000Y-158000000D01*
X110000000Y-158000000D02*
X108500000Y-158000000D01*
%TD*%
M02*
