%TF.GenerationSoftware,KiCad,Pcbnew,10.0.6*%
%TF.CreationDate,2026-09-16T22:44:02-07:00*%
%TF.ProjectId,weather-balloon-logger,77656174-6865-4722-9d62-616c6c6f6f6e,rev?*%
%TF.SameCoordinates,Original*%
%TF.FileFunction,OtherDrawing,Comment*%
%FSLAX46Y46*%
G04 Gerber Fmt 4.6, Leading zero omitted, Abs format (unit mm)*
G04 Created by KiCad (PCBNEW 10.0.6) date 2026-09-16 22:44:02*
%MOMM*%
%LPD*%
G01*
G04 APERTURE LIST*
%ADD10C,0.300000*%
%ADD11C,0.120000*%
G04 APERTURE END LIST*
D10*
X102000000Y-152000000D02*
X105300000Y-152000000D01*
X106500000Y-152000000D02*
X109800000Y-152000000D01*
X111000000Y-152000000D02*
X114300000Y-152000000D01*
X115500000Y-152000000D02*
X118800000Y-152000000D01*
X120000000Y-152000000D02*
X122000000Y-152000000D01*
X122000000Y-152000000D02*
X122000000Y-155300000D01*
X122000000Y-156500000D02*
X122000000Y-159800000D01*
X122000000Y-161000000D02*
X122000000Y-164300000D01*
X122000000Y-165500000D02*
X122000000Y-168800000D01*
X122000000Y-170000000D02*
X122000000Y-170000000D01*
X122000000Y-170000000D02*
X118700000Y-170000000D01*
X117500000Y-170000000D02*
X114200000Y-170000000D01*
X113000000Y-170000000D02*
X109700000Y-170000000D01*
X108500000Y-170000000D02*
X105200000Y-170000000D01*
X104000000Y-170000000D02*
X102000000Y-170000000D01*
X102000000Y-170000000D02*
X102000000Y-166700000D01*
X102000000Y-165500000D02*
X102000000Y-162200000D01*
X102000000Y-161000000D02*
X102000000Y-157700000D01*
X102000000Y-156500000D02*
X102000000Y-153200000D01*
X102000000Y-152000000D02*
X102000000Y-152000000D01*
X123615000Y-101000000D02*
X126915000Y-101000000D01*
X128115000Y-101000000D02*
X131415000Y-101000000D01*
X132615000Y-101000000D02*
X135915000Y-101000000D01*
X137115000Y-101000000D02*
X140415000Y-101000000D01*
X141615000Y-101000000D02*
X144915000Y-101000000D01*
X146115000Y-101000000D02*
X149415000Y-101000000D01*
X150615000Y-101000000D02*
X153915000Y-101000000D01*
X155115000Y-101000000D02*
X156385000Y-101000000D01*
X156385000Y-101000000D02*
X156385000Y-104300000D01*
X156385000Y-105500000D02*
X156385000Y-108800000D01*
X156385000Y-110000000D02*
X156385000Y-113300000D01*
X156385000Y-114500000D02*
X156385000Y-117800000D01*
X156385000Y-119000000D02*
X156385000Y-122300000D01*
X156385000Y-123500000D02*
X156385000Y-126800000D01*
X156385000Y-128000000D02*
X156385000Y-131300000D01*
X156385000Y-132500000D02*
X156385000Y-135800000D01*
X156385000Y-137000000D02*
X156385000Y-140300000D01*
X156385000Y-141500000D02*
X156385000Y-144800000D01*
X156385000Y-146000000D02*
X156385000Y-149300000D01*
X156385000Y-150500000D02*
X156385000Y-153800000D01*
X156385000Y-155000000D02*
X156385000Y-155800000D01*
X156385000Y-155800000D02*
X153085000Y-155800000D01*
X151885000Y-155800000D02*
X148585000Y-155800000D01*
X147385000Y-155800000D02*
X144085000Y-155800000D01*
X142885000Y-155800000D02*
X139585000Y-155800000D01*
X138385000Y-155800000D02*
X135085000Y-155800000D01*
X133885000Y-155800000D02*
X130585000Y-155800000D01*
X129385000Y-155800000D02*
X126085000Y-155800000D01*
X124885000Y-155800000D02*
X123615000Y-155800000D01*
X123615000Y-155800000D02*
X123615000Y-152500000D01*
X123615000Y-151300000D02*
X123615000Y-148000000D01*
X123615000Y-146800000D02*
X123615000Y-143500000D01*
X123615000Y-142300000D02*
X123615000Y-139000000D01*
X123615000Y-137800000D02*
X123615000Y-134500000D01*
X123615000Y-133300000D02*
X123615000Y-130000000D01*
X123615000Y-128800000D02*
X123615000Y-125500000D01*
X123615000Y-124300000D02*
X123615000Y-121000000D01*
X123615000Y-119800000D02*
X123615000Y-116500000D01*
X123615000Y-115300000D02*
X123615000Y-112000000D01*
X123615000Y-110800000D02*
X123615000Y-107500000D01*
X123615000Y-106300000D02*
X123615000Y-103000000D01*
X123615000Y-101800000D02*
X123615000Y-101000000D01*
X158000000Y-152000000D02*
X161300000Y-152000000D01*
X162500000Y-152000000D02*
X165800000Y-152000000D01*
X167000000Y-152000000D02*
X170300000Y-152000000D01*
X171500000Y-152000000D02*
X174800000Y-152000000D01*
X176000000Y-152000000D02*
X178000000Y-152000000D01*
X178000000Y-152000000D02*
X178000000Y-155300000D01*
X178000000Y-156500000D02*
X178000000Y-159800000D01*
X178000000Y-161000000D02*
X178000000Y-164300000D01*
X178000000Y-165500000D02*
X178000000Y-168800000D01*
X178000000Y-170000000D02*
X178000000Y-170000000D01*
X178000000Y-170000000D02*
X174700000Y-170000000D01*
X173500000Y-170000000D02*
X170200000Y-170000000D01*
X169000000Y-170000000D02*
X165700000Y-170000000D01*
X164500000Y-170000000D02*
X161200000Y-170000000D01*
X160000000Y-170000000D02*
X158000000Y-170000000D01*
X158000000Y-170000000D02*
X158000000Y-166700000D01*
X158000000Y-165500000D02*
X158000000Y-162200000D01*
X158000000Y-161000000D02*
X158000000Y-157700000D01*
X158000000Y-156500000D02*
X158000000Y-153200000D01*
X158000000Y-152000000D02*
X158000000Y-152000000D01*
D11*
X104019046Y-167563855D02*
X104209522Y-168363855D01*
X104209522Y-168363855D02*
X104361903Y-167792426D01*
X104361903Y-167792426D02*
X104514284Y-168363855D01*
X104514284Y-168363855D02*
X104704761Y-167563855D01*
X104971427Y-168325760D02*
X105085713Y-168363855D01*
X105085713Y-168363855D02*
X105276189Y-168363855D01*
X105276189Y-168363855D02*
X105352380Y-168325760D01*
X105352380Y-168325760D02*
X105390475Y-168287664D01*
X105390475Y-168287664D02*
X105428570Y-168211474D01*
X105428570Y-168211474D02*
X105428570Y-168135283D01*
X105428570Y-168135283D02*
X105390475Y-168059093D01*
X105390475Y-168059093D02*
X105352380Y-168020998D01*
X105352380Y-168020998D02*
X105276189Y-167982902D01*
X105276189Y-167982902D02*
X105123808Y-167944807D01*
X105123808Y-167944807D02*
X105047618Y-167906712D01*
X105047618Y-167906712D02*
X105009523Y-167868617D01*
X105009523Y-167868617D02*
X104971427Y-167792426D01*
X104971427Y-167792426D02*
X104971427Y-167716236D01*
X104971427Y-167716236D02*
X105009523Y-167640045D01*
X105009523Y-167640045D02*
X105047618Y-167601950D01*
X105047618Y-167601950D02*
X105123808Y-167563855D01*
X105123808Y-167563855D02*
X105314285Y-167563855D01*
X105314285Y-167563855D02*
X105428570Y-167601950D01*
X105771428Y-168363855D02*
X105771428Y-167563855D01*
X105771428Y-167563855D02*
X106076190Y-167563855D01*
X106076190Y-167563855D02*
X106152380Y-167601950D01*
X106152380Y-167601950D02*
X106190475Y-167640045D01*
X106190475Y-167640045D02*
X106228571Y-167716236D01*
X106228571Y-167716236D02*
X106228571Y-167830521D01*
X106228571Y-167830521D02*
X106190475Y-167906712D01*
X106190475Y-167906712D02*
X106152380Y-167944807D01*
X106152380Y-167944807D02*
X106076190Y-167982902D01*
X106076190Y-167982902D02*
X105771428Y-167982902D01*
X107028571Y-168363855D02*
X106761904Y-167982902D01*
X106571428Y-168363855D02*
X106571428Y-167563855D01*
X106571428Y-167563855D02*
X106876190Y-167563855D01*
X106876190Y-167563855D02*
X106952380Y-167601950D01*
X106952380Y-167601950D02*
X106990475Y-167640045D01*
X106990475Y-167640045D02*
X107028571Y-167716236D01*
X107028571Y-167716236D02*
X107028571Y-167830521D01*
X107028571Y-167830521D02*
X106990475Y-167906712D01*
X106990475Y-167906712D02*
X106952380Y-167944807D01*
X106952380Y-167944807D02*
X106876190Y-167982902D01*
X106876190Y-167982902D02*
X106571428Y-167982902D01*
X108361904Y-167563855D02*
X107980952Y-167563855D01*
X107980952Y-167563855D02*
X107942856Y-167944807D01*
X107942856Y-167944807D02*
X107980952Y-167906712D01*
X107980952Y-167906712D02*
X108057142Y-167868617D01*
X108057142Y-167868617D02*
X108247618Y-167868617D01*
X108247618Y-167868617D02*
X108323809Y-167906712D01*
X108323809Y-167906712D02*
X108361904Y-167944807D01*
X108361904Y-167944807D02*
X108399999Y-168020998D01*
X108399999Y-168020998D02*
X108399999Y-168211474D01*
X108399999Y-168211474D02*
X108361904Y-168287664D01*
X108361904Y-168287664D02*
X108323809Y-168325760D01*
X108323809Y-168325760D02*
X108247618Y-168363855D01*
X108247618Y-168363855D02*
X108057142Y-168363855D01*
X108057142Y-168363855D02*
X107980952Y-168325760D01*
X107980952Y-168325760D02*
X107942856Y-168287664D01*
X108742857Y-168363855D02*
X108742857Y-167830521D01*
X108742857Y-167906712D02*
X108780952Y-167868617D01*
X108780952Y-167868617D02*
X108857142Y-167830521D01*
X108857142Y-167830521D02*
X108971428Y-167830521D01*
X108971428Y-167830521D02*
X109047619Y-167868617D01*
X109047619Y-167868617D02*
X109085714Y-167944807D01*
X109085714Y-167944807D02*
X109085714Y-168363855D01*
X109085714Y-167944807D02*
X109123809Y-167868617D01*
X109123809Y-167868617D02*
X109200000Y-167830521D01*
X109200000Y-167830521D02*
X109314285Y-167830521D01*
X109314285Y-167830521D02*
X109390476Y-167868617D01*
X109390476Y-167868617D02*
X109428571Y-167944807D01*
X109428571Y-167944807D02*
X109428571Y-168363855D01*
X109809524Y-168363855D02*
X109809524Y-167830521D01*
X109809524Y-167906712D02*
X109847619Y-167868617D01*
X109847619Y-167868617D02*
X109923809Y-167830521D01*
X109923809Y-167830521D02*
X110038095Y-167830521D01*
X110038095Y-167830521D02*
X110114286Y-167868617D01*
X110114286Y-167868617D02*
X110152381Y-167944807D01*
X110152381Y-167944807D02*
X110152381Y-168363855D01*
X110152381Y-167944807D02*
X110190476Y-167868617D01*
X110190476Y-167868617D02*
X110266667Y-167830521D01*
X110266667Y-167830521D02*
X110380952Y-167830521D01*
X110380952Y-167830521D02*
X110457143Y-167868617D01*
X110457143Y-167868617D02*
X110495238Y-167944807D01*
X110495238Y-167944807D02*
X110495238Y-168363855D01*
X111942858Y-168363855D02*
X111676191Y-167982902D01*
X111485715Y-168363855D02*
X111485715Y-167563855D01*
X111485715Y-167563855D02*
X111790477Y-167563855D01*
X111790477Y-167563855D02*
X111866667Y-167601950D01*
X111866667Y-167601950D02*
X111904762Y-167640045D01*
X111904762Y-167640045D02*
X111942858Y-167716236D01*
X111942858Y-167716236D02*
X111942858Y-167830521D01*
X111942858Y-167830521D02*
X111904762Y-167906712D01*
X111904762Y-167906712D02*
X111866667Y-167944807D01*
X111866667Y-167944807D02*
X111790477Y-167982902D01*
X111790477Y-167982902D02*
X111485715Y-167982902D01*
X112552381Y-167944807D02*
X112285715Y-167944807D01*
X112285715Y-168363855D02*
X112285715Y-167563855D01*
X112285715Y-167563855D02*
X112666667Y-167563855D01*
X114038096Y-168287664D02*
X114000000Y-168325760D01*
X114000000Y-168325760D02*
X113885715Y-168363855D01*
X113885715Y-168363855D02*
X113809524Y-168363855D01*
X113809524Y-168363855D02*
X113695238Y-168325760D01*
X113695238Y-168325760D02*
X113619048Y-168249569D01*
X113619048Y-168249569D02*
X113580953Y-168173379D01*
X113580953Y-168173379D02*
X113542857Y-168020998D01*
X113542857Y-168020998D02*
X113542857Y-167906712D01*
X113542857Y-167906712D02*
X113580953Y-167754331D01*
X113580953Y-167754331D02*
X113619048Y-167678140D01*
X113619048Y-167678140D02*
X113695238Y-167601950D01*
X113695238Y-167601950D02*
X113809524Y-167563855D01*
X113809524Y-167563855D02*
X113885715Y-167563855D01*
X113885715Y-167563855D02*
X114000000Y-167601950D01*
X114000000Y-167601950D02*
X114038096Y-167640045D01*
X114761905Y-168363855D02*
X114380953Y-168363855D01*
X114380953Y-168363855D02*
X114380953Y-167563855D01*
X115028572Y-167944807D02*
X115295238Y-167944807D01*
X115409524Y-168363855D02*
X115028572Y-168363855D01*
X115028572Y-168363855D02*
X115028572Y-167563855D01*
X115028572Y-167563855D02*
X115409524Y-167563855D01*
X115714286Y-168135283D02*
X116095239Y-168135283D01*
X115638096Y-168363855D02*
X115904763Y-167563855D01*
X115904763Y-167563855D02*
X116171429Y-168363855D01*
X116895239Y-168363855D02*
X116628572Y-167982902D01*
X116438096Y-168363855D02*
X116438096Y-167563855D01*
X116438096Y-167563855D02*
X116742858Y-167563855D01*
X116742858Y-167563855D02*
X116819048Y-167601950D01*
X116819048Y-167601950D02*
X116857143Y-167640045D01*
X116857143Y-167640045D02*
X116895239Y-167716236D01*
X116895239Y-167716236D02*
X116895239Y-167830521D01*
X116895239Y-167830521D02*
X116857143Y-167906712D01*
X116857143Y-167906712D02*
X116819048Y-167944807D01*
X116819048Y-167944807D02*
X116742858Y-167982902D01*
X116742858Y-167982902D02*
X116438096Y-167982902D01*
X117200000Y-168135283D02*
X117580953Y-168135283D01*
X117123810Y-168363855D02*
X117390477Y-167563855D01*
X117390477Y-167563855D02*
X117657143Y-168363855D01*
X117923810Y-168363855D02*
X117923810Y-167563855D01*
X117923810Y-167563855D02*
X118380953Y-168363855D01*
X118380953Y-168363855D02*
X118380953Y-167563855D01*
X119219048Y-168287664D02*
X119180952Y-168325760D01*
X119180952Y-168325760D02*
X119066667Y-168363855D01*
X119066667Y-168363855D02*
X118990476Y-168363855D01*
X118990476Y-168363855D02*
X118876190Y-168325760D01*
X118876190Y-168325760D02*
X118800000Y-168249569D01*
X118800000Y-168249569D02*
X118761905Y-168173379D01*
X118761905Y-168173379D02*
X118723809Y-168020998D01*
X118723809Y-168020998D02*
X118723809Y-167906712D01*
X118723809Y-167906712D02*
X118761905Y-167754331D01*
X118761905Y-167754331D02*
X118800000Y-167678140D01*
X118800000Y-167678140D02*
X118876190Y-167601950D01*
X118876190Y-167601950D02*
X118990476Y-167563855D01*
X118990476Y-167563855D02*
X119066667Y-167563855D01*
X119066667Y-167563855D02*
X119180952Y-167601950D01*
X119180952Y-167601950D02*
X119219048Y-167640045D01*
X119561905Y-167944807D02*
X119828571Y-167944807D01*
X119942857Y-168363855D02*
X119561905Y-168363855D01*
X119561905Y-168363855D02*
X119561905Y-167563855D01*
X119561905Y-167563855D02*
X119942857Y-167563855D01*
X124209522Y-102863855D02*
X123828570Y-102863855D01*
X123828570Y-102863855D02*
X123828570Y-102063855D01*
X124476189Y-102863855D02*
X124476189Y-102063855D01*
X125276188Y-102101950D02*
X125199998Y-102063855D01*
X125199998Y-102063855D02*
X125085712Y-102063855D01*
X125085712Y-102063855D02*
X124971426Y-102101950D01*
X124971426Y-102101950D02*
X124895236Y-102178140D01*
X124895236Y-102178140D02*
X124857141Y-102254331D01*
X124857141Y-102254331D02*
X124819045Y-102406712D01*
X124819045Y-102406712D02*
X124819045Y-102520998D01*
X124819045Y-102520998D02*
X124857141Y-102673379D01*
X124857141Y-102673379D02*
X124895236Y-102749569D01*
X124895236Y-102749569D02*
X124971426Y-102825760D01*
X124971426Y-102825760D02*
X125085712Y-102863855D01*
X125085712Y-102863855D02*
X125161903Y-102863855D01*
X125161903Y-102863855D02*
X125276188Y-102825760D01*
X125276188Y-102825760D02*
X125314284Y-102787664D01*
X125314284Y-102787664D02*
X125314284Y-102520998D01*
X125314284Y-102520998D02*
X125161903Y-102520998D01*
X125657141Y-102863855D02*
X125657141Y-102063855D01*
X125657141Y-102444807D02*
X126114284Y-102444807D01*
X126114284Y-102863855D02*
X126114284Y-102063855D01*
X126380950Y-102063855D02*
X126838093Y-102063855D01*
X126609521Y-102863855D02*
X126609521Y-102063855D01*
X127066664Y-102635283D02*
X127447617Y-102635283D01*
X126990474Y-102863855D02*
X127257141Y-102063855D01*
X127257141Y-102063855D02*
X127523807Y-102863855D01*
X127790474Y-102863855D02*
X127790474Y-102063855D01*
X127790474Y-102063855D02*
X128095236Y-102063855D01*
X128095236Y-102063855D02*
X128171426Y-102101950D01*
X128171426Y-102101950D02*
X128209521Y-102140045D01*
X128209521Y-102140045D02*
X128247617Y-102216236D01*
X128247617Y-102216236D02*
X128247617Y-102330521D01*
X128247617Y-102330521D02*
X128209521Y-102406712D01*
X128209521Y-102406712D02*
X128171426Y-102444807D01*
X128171426Y-102444807D02*
X128095236Y-102482902D01*
X128095236Y-102482902D02*
X127790474Y-102482902D01*
X129047617Y-102863855D02*
X128780950Y-102482902D01*
X128590474Y-102863855D02*
X128590474Y-102063855D01*
X128590474Y-102063855D02*
X128895236Y-102063855D01*
X128895236Y-102063855D02*
X128971426Y-102101950D01*
X128971426Y-102101950D02*
X129009521Y-102140045D01*
X129009521Y-102140045D02*
X129047617Y-102216236D01*
X129047617Y-102216236D02*
X129047617Y-102330521D01*
X129047617Y-102330521D02*
X129009521Y-102406712D01*
X129009521Y-102406712D02*
X128971426Y-102444807D01*
X128971426Y-102444807D02*
X128895236Y-102482902D01*
X128895236Y-102482902D02*
X128590474Y-102482902D01*
X129352378Y-102825760D02*
X129466664Y-102863855D01*
X129466664Y-102863855D02*
X129657140Y-102863855D01*
X129657140Y-102863855D02*
X129733331Y-102825760D01*
X129733331Y-102825760D02*
X129771426Y-102787664D01*
X129771426Y-102787664D02*
X129809521Y-102711474D01*
X129809521Y-102711474D02*
X129809521Y-102635283D01*
X129809521Y-102635283D02*
X129771426Y-102559093D01*
X129771426Y-102559093D02*
X129733331Y-102520998D01*
X129733331Y-102520998D02*
X129657140Y-102482902D01*
X129657140Y-102482902D02*
X129504759Y-102444807D01*
X129504759Y-102444807D02*
X129428569Y-102406712D01*
X129428569Y-102406712D02*
X129390474Y-102368617D01*
X129390474Y-102368617D02*
X129352378Y-102292426D01*
X129352378Y-102292426D02*
X129352378Y-102216236D01*
X129352378Y-102216236D02*
X129390474Y-102140045D01*
X129390474Y-102140045D02*
X129428569Y-102101950D01*
X129428569Y-102101950D02*
X129504759Y-102063855D01*
X129504759Y-102063855D02*
X129695236Y-102063855D01*
X129695236Y-102063855D02*
X129809521Y-102101950D01*
X130152379Y-102559093D02*
X130761903Y-102559093D01*
X131066664Y-102063855D02*
X131257140Y-102863855D01*
X131257140Y-102863855D02*
X131409521Y-102292426D01*
X131409521Y-102292426D02*
X131561902Y-102863855D01*
X131561902Y-102863855D02*
X131752379Y-102063855D01*
X132628569Y-102140045D02*
X132666665Y-102101950D01*
X132666665Y-102101950D02*
X132742855Y-102063855D01*
X132742855Y-102063855D02*
X132933331Y-102063855D01*
X132933331Y-102063855D02*
X133009522Y-102101950D01*
X133009522Y-102101950D02*
X133047617Y-102140045D01*
X133047617Y-102140045D02*
X133085712Y-102216236D01*
X133085712Y-102216236D02*
X133085712Y-102292426D01*
X133085712Y-102292426D02*
X133047617Y-102406712D01*
X133047617Y-102406712D02*
X132590474Y-102863855D01*
X132590474Y-102863855D02*
X133085712Y-102863855D01*
X133428570Y-102787664D02*
X133466665Y-102825760D01*
X133466665Y-102825760D02*
X133428570Y-102863855D01*
X133428570Y-102863855D02*
X133390474Y-102825760D01*
X133390474Y-102825760D02*
X133428570Y-102787664D01*
X133428570Y-102787664D02*
X133428570Y-102863855D01*
X133961903Y-102063855D02*
X134038093Y-102063855D01*
X134038093Y-102063855D02*
X134114284Y-102101950D01*
X134114284Y-102101950D02*
X134152379Y-102140045D01*
X134152379Y-102140045D02*
X134190474Y-102216236D01*
X134190474Y-102216236D02*
X134228569Y-102368617D01*
X134228569Y-102368617D02*
X134228569Y-102559093D01*
X134228569Y-102559093D02*
X134190474Y-102711474D01*
X134190474Y-102711474D02*
X134152379Y-102787664D01*
X134152379Y-102787664D02*
X134114284Y-102825760D01*
X134114284Y-102825760D02*
X134038093Y-102863855D01*
X134038093Y-102863855D02*
X133961903Y-102863855D01*
X133961903Y-102863855D02*
X133885712Y-102825760D01*
X133885712Y-102825760D02*
X133847617Y-102787664D01*
X133847617Y-102787664D02*
X133809522Y-102711474D01*
X133809522Y-102711474D02*
X133771426Y-102559093D01*
X133771426Y-102559093D02*
X133771426Y-102368617D01*
X133771426Y-102368617D02*
X133809522Y-102216236D01*
X133809522Y-102216236D02*
X133847617Y-102140045D01*
X133847617Y-102140045D02*
X133885712Y-102101950D01*
X133885712Y-102101950D02*
X133961903Y-102063855D01*
X135447617Y-102444807D02*
X135180951Y-102444807D01*
X135180951Y-102863855D02*
X135180951Y-102063855D01*
X135180951Y-102063855D02*
X135561903Y-102063855D01*
X135828569Y-102635283D02*
X136209522Y-102635283D01*
X135752379Y-102863855D02*
X136019046Y-102063855D01*
X136019046Y-102063855D02*
X136285712Y-102863855D01*
X137009522Y-102787664D02*
X136971426Y-102825760D01*
X136971426Y-102825760D02*
X136857141Y-102863855D01*
X136857141Y-102863855D02*
X136780950Y-102863855D01*
X136780950Y-102863855D02*
X136666664Y-102825760D01*
X136666664Y-102825760D02*
X136590474Y-102749569D01*
X136590474Y-102749569D02*
X136552379Y-102673379D01*
X136552379Y-102673379D02*
X136514283Y-102520998D01*
X136514283Y-102520998D02*
X136514283Y-102406712D01*
X136514283Y-102406712D02*
X136552379Y-102254331D01*
X136552379Y-102254331D02*
X136590474Y-102178140D01*
X136590474Y-102178140D02*
X136666664Y-102101950D01*
X136666664Y-102101950D02*
X136780950Y-102063855D01*
X136780950Y-102063855D02*
X136857141Y-102063855D01*
X136857141Y-102063855D02*
X136971426Y-102101950D01*
X136971426Y-102101950D02*
X137009522Y-102140045D01*
X137352379Y-102444807D02*
X137619045Y-102444807D01*
X137733331Y-102863855D02*
X137352379Y-102863855D01*
X137352379Y-102863855D02*
X137352379Y-102063855D01*
X137352379Y-102063855D02*
X137733331Y-102063855D01*
X138076189Y-102559093D02*
X138685713Y-102559093D01*
X139066665Y-102063855D02*
X139066665Y-102711474D01*
X139066665Y-102711474D02*
X139104760Y-102787664D01*
X139104760Y-102787664D02*
X139142855Y-102825760D01*
X139142855Y-102825760D02*
X139219046Y-102863855D01*
X139219046Y-102863855D02*
X139371427Y-102863855D01*
X139371427Y-102863855D02*
X139447617Y-102825760D01*
X139447617Y-102825760D02*
X139485712Y-102787664D01*
X139485712Y-102787664D02*
X139523808Y-102711474D01*
X139523808Y-102711474D02*
X139523808Y-102063855D01*
X139904760Y-102863855D02*
X139904760Y-102063855D01*
X139904760Y-102063855D02*
X140209522Y-102063855D01*
X140209522Y-102063855D02*
X140285712Y-102101950D01*
X140285712Y-102101950D02*
X140323807Y-102140045D01*
X140323807Y-102140045D02*
X140361903Y-102216236D01*
X140361903Y-102216236D02*
X140361903Y-102330521D01*
X140361903Y-102330521D02*
X140323807Y-102406712D01*
X140323807Y-102406712D02*
X140285712Y-102444807D01*
X140285712Y-102444807D02*
X140209522Y-102482902D01*
X140209522Y-102482902D02*
X139904760Y-102482902D01*
X141238093Y-102063855D02*
X141771427Y-102063855D01*
X141771427Y-102063855D02*
X141238093Y-102863855D01*
X141238093Y-102863855D02*
X141771427Y-102863855D01*
X142228570Y-102063855D02*
X142380951Y-102063855D01*
X142380951Y-102063855D02*
X142457141Y-102101950D01*
X142457141Y-102101950D02*
X142533332Y-102178140D01*
X142533332Y-102178140D02*
X142571427Y-102330521D01*
X142571427Y-102330521D02*
X142571427Y-102597188D01*
X142571427Y-102597188D02*
X142533332Y-102749569D01*
X142533332Y-102749569D02*
X142457141Y-102825760D01*
X142457141Y-102825760D02*
X142380951Y-102863855D01*
X142380951Y-102863855D02*
X142228570Y-102863855D01*
X142228570Y-102863855D02*
X142152379Y-102825760D01*
X142152379Y-102825760D02*
X142076189Y-102749569D01*
X142076189Y-102749569D02*
X142038093Y-102597188D01*
X142038093Y-102597188D02*
X142038093Y-102330521D01*
X142038093Y-102330521D02*
X142076189Y-102178140D01*
X142076189Y-102178140D02*
X142152379Y-102101950D01*
X142152379Y-102101950D02*
X142228570Y-102063855D01*
X142914284Y-102863855D02*
X142914284Y-102063855D01*
X142914284Y-102063855D02*
X143371427Y-102863855D01*
X143371427Y-102863855D02*
X143371427Y-102063855D01*
X143752379Y-102444807D02*
X144019045Y-102444807D01*
X144133331Y-102863855D02*
X143752379Y-102863855D01*
X143752379Y-102863855D02*
X143752379Y-102063855D01*
X143752379Y-102063855D02*
X144133331Y-102063855D01*
X145009522Y-102063855D02*
X145504760Y-102063855D01*
X145504760Y-102063855D02*
X145238094Y-102368617D01*
X145238094Y-102368617D02*
X145352379Y-102368617D01*
X145352379Y-102368617D02*
X145428570Y-102406712D01*
X145428570Y-102406712D02*
X145466665Y-102444807D01*
X145466665Y-102444807D02*
X145504760Y-102520998D01*
X145504760Y-102520998D02*
X145504760Y-102711474D01*
X145504760Y-102711474D02*
X145466665Y-102787664D01*
X145466665Y-102787664D02*
X145428570Y-102825760D01*
X145428570Y-102825760D02*
X145352379Y-102863855D01*
X145352379Y-102863855D02*
X145123808Y-102863855D01*
X145123808Y-102863855D02*
X145047617Y-102825760D01*
X145047617Y-102825760D02*
X145009522Y-102787664D01*
X145809522Y-102140045D02*
X145847618Y-102101950D01*
X145847618Y-102101950D02*
X145923808Y-102063855D01*
X145923808Y-102063855D02*
X146114284Y-102063855D01*
X146114284Y-102063855D02*
X146190475Y-102101950D01*
X146190475Y-102101950D02*
X146228570Y-102140045D01*
X146228570Y-102140045D02*
X146266665Y-102216236D01*
X146266665Y-102216236D02*
X146266665Y-102292426D01*
X146266665Y-102292426D02*
X146228570Y-102406712D01*
X146228570Y-102406712D02*
X145771427Y-102863855D01*
X145771427Y-102863855D02*
X146266665Y-102863855D01*
X146609523Y-102787664D02*
X146647618Y-102825760D01*
X146647618Y-102825760D02*
X146609523Y-102863855D01*
X146609523Y-102863855D02*
X146571427Y-102825760D01*
X146571427Y-102825760D02*
X146609523Y-102787664D01*
X146609523Y-102787664D02*
X146609523Y-102863855D01*
X146914284Y-102063855D02*
X147447618Y-102063855D01*
X147447618Y-102063855D02*
X147104760Y-102863855D01*
X147676189Y-102063855D02*
X148209523Y-102063855D01*
X148209523Y-102063855D02*
X147866665Y-102863855D01*
X149047618Y-102863855D02*
X149466666Y-102330521D01*
X149047618Y-102330521D02*
X149466666Y-102863855D01*
X150761904Y-102063855D02*
X150380952Y-102063855D01*
X150380952Y-102063855D02*
X150342856Y-102444807D01*
X150342856Y-102444807D02*
X150380952Y-102406712D01*
X150380952Y-102406712D02*
X150457142Y-102368617D01*
X150457142Y-102368617D02*
X150647618Y-102368617D01*
X150647618Y-102368617D02*
X150723809Y-102406712D01*
X150723809Y-102406712D02*
X150761904Y-102444807D01*
X150761904Y-102444807D02*
X150799999Y-102520998D01*
X150799999Y-102520998D02*
X150799999Y-102711474D01*
X150799999Y-102711474D02*
X150761904Y-102787664D01*
X150761904Y-102787664D02*
X150723809Y-102825760D01*
X150723809Y-102825760D02*
X150647618Y-102863855D01*
X150647618Y-102863855D02*
X150457142Y-102863855D01*
X150457142Y-102863855D02*
X150380952Y-102825760D01*
X150380952Y-102825760D02*
X150342856Y-102787664D01*
X151485714Y-102330521D02*
X151485714Y-102863855D01*
X151295238Y-102025760D02*
X151104761Y-102597188D01*
X151104761Y-102597188D02*
X151600000Y-102597188D01*
X151904762Y-102787664D02*
X151942857Y-102825760D01*
X151942857Y-102825760D02*
X151904762Y-102863855D01*
X151904762Y-102863855D02*
X151866666Y-102825760D01*
X151866666Y-102825760D02*
X151904762Y-102787664D01*
X151904762Y-102787664D02*
X151904762Y-102863855D01*
X152399999Y-102406712D02*
X152323809Y-102368617D01*
X152323809Y-102368617D02*
X152285714Y-102330521D01*
X152285714Y-102330521D02*
X152247618Y-102254331D01*
X152247618Y-102254331D02*
X152247618Y-102216236D01*
X152247618Y-102216236D02*
X152285714Y-102140045D01*
X152285714Y-102140045D02*
X152323809Y-102101950D01*
X152323809Y-102101950D02*
X152399999Y-102063855D01*
X152399999Y-102063855D02*
X152552380Y-102063855D01*
X152552380Y-102063855D02*
X152628571Y-102101950D01*
X152628571Y-102101950D02*
X152666666Y-102140045D01*
X152666666Y-102140045D02*
X152704761Y-102216236D01*
X152704761Y-102216236D02*
X152704761Y-102254331D01*
X152704761Y-102254331D02*
X152666666Y-102330521D01*
X152666666Y-102330521D02*
X152628571Y-102368617D01*
X152628571Y-102368617D02*
X152552380Y-102406712D01*
X152552380Y-102406712D02*
X152399999Y-102406712D01*
X152399999Y-102406712D02*
X152323809Y-102444807D01*
X152323809Y-102444807D02*
X152285714Y-102482902D01*
X152285714Y-102482902D02*
X152247618Y-102559093D01*
X152247618Y-102559093D02*
X152247618Y-102711474D01*
X152247618Y-102711474D02*
X152285714Y-102787664D01*
X152285714Y-102787664D02*
X152323809Y-102825760D01*
X152323809Y-102825760D02*
X152399999Y-102863855D01*
X152399999Y-102863855D02*
X152552380Y-102863855D01*
X152552380Y-102863855D02*
X152628571Y-102825760D01*
X152628571Y-102825760D02*
X152666666Y-102787664D01*
X152666666Y-102787664D02*
X152704761Y-102711474D01*
X152704761Y-102711474D02*
X152704761Y-102559093D01*
X152704761Y-102559093D02*
X152666666Y-102482902D01*
X152666666Y-102482902D02*
X152628571Y-102444807D01*
X152628571Y-102444807D02*
X152552380Y-102406712D01*
X153200000Y-102063855D02*
X153276190Y-102063855D01*
X153276190Y-102063855D02*
X153352381Y-102101950D01*
X153352381Y-102101950D02*
X153390476Y-102140045D01*
X153390476Y-102140045D02*
X153428571Y-102216236D01*
X153428571Y-102216236D02*
X153466666Y-102368617D01*
X153466666Y-102368617D02*
X153466666Y-102559093D01*
X153466666Y-102559093D02*
X153428571Y-102711474D01*
X153428571Y-102711474D02*
X153390476Y-102787664D01*
X153390476Y-102787664D02*
X153352381Y-102825760D01*
X153352381Y-102825760D02*
X153276190Y-102863855D01*
X153276190Y-102863855D02*
X153200000Y-102863855D01*
X153200000Y-102863855D02*
X153123809Y-102825760D01*
X153123809Y-102825760D02*
X153085714Y-102787664D01*
X153085714Y-102787664D02*
X153047619Y-102711474D01*
X153047619Y-102711474D02*
X153009523Y-102559093D01*
X153009523Y-102559093D02*
X153009523Y-102368617D01*
X153009523Y-102368617D02*
X153047619Y-102216236D01*
X153047619Y-102216236D02*
X153085714Y-102140045D01*
X153085714Y-102140045D02*
X153123809Y-102101950D01*
X153123809Y-102101950D02*
X153200000Y-102063855D01*
X154419048Y-102863855D02*
X154419048Y-102330521D01*
X154419048Y-102406712D02*
X154457143Y-102368617D01*
X154457143Y-102368617D02*
X154533333Y-102330521D01*
X154533333Y-102330521D02*
X154647619Y-102330521D01*
X154647619Y-102330521D02*
X154723810Y-102368617D01*
X154723810Y-102368617D02*
X154761905Y-102444807D01*
X154761905Y-102444807D02*
X154761905Y-102863855D01*
X154761905Y-102444807D02*
X154800000Y-102368617D01*
X154800000Y-102368617D02*
X154876191Y-102330521D01*
X154876191Y-102330521D02*
X154990476Y-102330521D01*
X154990476Y-102330521D02*
X155066667Y-102368617D01*
X155066667Y-102368617D02*
X155104762Y-102444807D01*
X155104762Y-102444807D02*
X155104762Y-102863855D01*
X155485715Y-102863855D02*
X155485715Y-102330521D01*
X155485715Y-102406712D02*
X155523810Y-102368617D01*
X155523810Y-102368617D02*
X155600000Y-102330521D01*
X155600000Y-102330521D02*
X155714286Y-102330521D01*
X155714286Y-102330521D02*
X155790477Y-102368617D01*
X155790477Y-102368617D02*
X155828572Y-102444807D01*
X155828572Y-102444807D02*
X155828572Y-102863855D01*
X155828572Y-102444807D02*
X155866667Y-102368617D01*
X155866667Y-102368617D02*
X155942858Y-102330521D01*
X155942858Y-102330521D02*
X156057143Y-102330521D01*
X156057143Y-102330521D02*
X156133334Y-102368617D01*
X156133334Y-102368617D02*
X156171429Y-102444807D01*
X156171429Y-102444807D02*
X156171429Y-102863855D01*
X160171427Y-168135283D02*
X160552380Y-168135283D01*
X160095237Y-168363855D02*
X160361904Y-167563855D01*
X160361904Y-167563855D02*
X160628570Y-168363855D01*
X160895237Y-168363855D02*
X160895237Y-167563855D01*
X160895237Y-167563855D02*
X161199999Y-167563855D01*
X161199999Y-167563855D02*
X161276189Y-167601950D01*
X161276189Y-167601950D02*
X161314284Y-167640045D01*
X161314284Y-167640045D02*
X161352380Y-167716236D01*
X161352380Y-167716236D02*
X161352380Y-167830521D01*
X161352380Y-167830521D02*
X161314284Y-167906712D01*
X161314284Y-167906712D02*
X161276189Y-167944807D01*
X161276189Y-167944807D02*
X161199999Y-167982902D01*
X161199999Y-167982902D02*
X160895237Y-167982902D01*
X162152380Y-168363855D02*
X161885713Y-167982902D01*
X161695237Y-168363855D02*
X161695237Y-167563855D01*
X161695237Y-167563855D02*
X161999999Y-167563855D01*
X161999999Y-167563855D02*
X162076189Y-167601950D01*
X162076189Y-167601950D02*
X162114284Y-167640045D01*
X162114284Y-167640045D02*
X162152380Y-167716236D01*
X162152380Y-167716236D02*
X162152380Y-167830521D01*
X162152380Y-167830521D02*
X162114284Y-167906712D01*
X162114284Y-167906712D02*
X162076189Y-167944807D01*
X162076189Y-167944807D02*
X161999999Y-167982902D01*
X161999999Y-167982902D02*
X161695237Y-167982902D01*
X162457141Y-168325760D02*
X162571427Y-168363855D01*
X162571427Y-168363855D02*
X162761903Y-168363855D01*
X162761903Y-168363855D02*
X162838094Y-168325760D01*
X162838094Y-168325760D02*
X162876189Y-168287664D01*
X162876189Y-168287664D02*
X162914284Y-168211474D01*
X162914284Y-168211474D02*
X162914284Y-168135283D01*
X162914284Y-168135283D02*
X162876189Y-168059093D01*
X162876189Y-168059093D02*
X162838094Y-168020998D01*
X162838094Y-168020998D02*
X162761903Y-167982902D01*
X162761903Y-167982902D02*
X162609522Y-167944807D01*
X162609522Y-167944807D02*
X162533332Y-167906712D01*
X162533332Y-167906712D02*
X162495237Y-167868617D01*
X162495237Y-167868617D02*
X162457141Y-167792426D01*
X162457141Y-167792426D02*
X162457141Y-167716236D01*
X162457141Y-167716236D02*
X162495237Y-167640045D01*
X162495237Y-167640045D02*
X162533332Y-167601950D01*
X162533332Y-167601950D02*
X162609522Y-167563855D01*
X162609522Y-167563855D02*
X162799999Y-167563855D01*
X162799999Y-167563855D02*
X162914284Y-167601950D01*
X164247618Y-167563855D02*
X163866666Y-167563855D01*
X163866666Y-167563855D02*
X163828570Y-167944807D01*
X163828570Y-167944807D02*
X163866666Y-167906712D01*
X163866666Y-167906712D02*
X163942856Y-167868617D01*
X163942856Y-167868617D02*
X164133332Y-167868617D01*
X164133332Y-167868617D02*
X164209523Y-167906712D01*
X164209523Y-167906712D02*
X164247618Y-167944807D01*
X164247618Y-167944807D02*
X164285713Y-168020998D01*
X164285713Y-168020998D02*
X164285713Y-168211474D01*
X164285713Y-168211474D02*
X164247618Y-168287664D01*
X164247618Y-168287664D02*
X164209523Y-168325760D01*
X164209523Y-168325760D02*
X164133332Y-168363855D01*
X164133332Y-168363855D02*
X163942856Y-168363855D01*
X163942856Y-168363855D02*
X163866666Y-168325760D01*
X163866666Y-168325760D02*
X163828570Y-168287664D01*
X164628571Y-168363855D02*
X164628571Y-167830521D01*
X164628571Y-167906712D02*
X164666666Y-167868617D01*
X164666666Y-167868617D02*
X164742856Y-167830521D01*
X164742856Y-167830521D02*
X164857142Y-167830521D01*
X164857142Y-167830521D02*
X164933333Y-167868617D01*
X164933333Y-167868617D02*
X164971428Y-167944807D01*
X164971428Y-167944807D02*
X164971428Y-168363855D01*
X164971428Y-167944807D02*
X165009523Y-167868617D01*
X165009523Y-167868617D02*
X165085714Y-167830521D01*
X165085714Y-167830521D02*
X165199999Y-167830521D01*
X165199999Y-167830521D02*
X165276190Y-167868617D01*
X165276190Y-167868617D02*
X165314285Y-167944807D01*
X165314285Y-167944807D02*
X165314285Y-168363855D01*
X165695238Y-168363855D02*
X165695238Y-167830521D01*
X165695238Y-167906712D02*
X165733333Y-167868617D01*
X165733333Y-167868617D02*
X165809523Y-167830521D01*
X165809523Y-167830521D02*
X165923809Y-167830521D01*
X165923809Y-167830521D02*
X166000000Y-167868617D01*
X166000000Y-167868617D02*
X166038095Y-167944807D01*
X166038095Y-167944807D02*
X166038095Y-168363855D01*
X166038095Y-167944807D02*
X166076190Y-167868617D01*
X166076190Y-167868617D02*
X166152381Y-167830521D01*
X166152381Y-167830521D02*
X166266666Y-167830521D01*
X166266666Y-167830521D02*
X166342857Y-167868617D01*
X166342857Y-167868617D02*
X166380952Y-167944807D01*
X166380952Y-167944807D02*
X166380952Y-168363855D01*
X167828572Y-168363855D02*
X167561905Y-167982902D01*
X167371429Y-168363855D02*
X167371429Y-167563855D01*
X167371429Y-167563855D02*
X167676191Y-167563855D01*
X167676191Y-167563855D02*
X167752381Y-167601950D01*
X167752381Y-167601950D02*
X167790476Y-167640045D01*
X167790476Y-167640045D02*
X167828572Y-167716236D01*
X167828572Y-167716236D02*
X167828572Y-167830521D01*
X167828572Y-167830521D02*
X167790476Y-167906712D01*
X167790476Y-167906712D02*
X167752381Y-167944807D01*
X167752381Y-167944807D02*
X167676191Y-167982902D01*
X167676191Y-167982902D02*
X167371429Y-167982902D01*
X168438095Y-167944807D02*
X168171429Y-167944807D01*
X168171429Y-168363855D02*
X168171429Y-167563855D01*
X168171429Y-167563855D02*
X168552381Y-167563855D01*
X169923810Y-168287664D02*
X169885714Y-168325760D01*
X169885714Y-168325760D02*
X169771429Y-168363855D01*
X169771429Y-168363855D02*
X169695238Y-168363855D01*
X169695238Y-168363855D02*
X169580952Y-168325760D01*
X169580952Y-168325760D02*
X169504762Y-168249569D01*
X169504762Y-168249569D02*
X169466667Y-168173379D01*
X169466667Y-168173379D02*
X169428571Y-168020998D01*
X169428571Y-168020998D02*
X169428571Y-167906712D01*
X169428571Y-167906712D02*
X169466667Y-167754331D01*
X169466667Y-167754331D02*
X169504762Y-167678140D01*
X169504762Y-167678140D02*
X169580952Y-167601950D01*
X169580952Y-167601950D02*
X169695238Y-167563855D01*
X169695238Y-167563855D02*
X169771429Y-167563855D01*
X169771429Y-167563855D02*
X169885714Y-167601950D01*
X169885714Y-167601950D02*
X169923810Y-167640045D01*
X170647619Y-168363855D02*
X170266667Y-168363855D01*
X170266667Y-168363855D02*
X170266667Y-167563855D01*
X170914286Y-167944807D02*
X171180952Y-167944807D01*
X171295238Y-168363855D02*
X170914286Y-168363855D01*
X170914286Y-168363855D02*
X170914286Y-167563855D01*
X170914286Y-167563855D02*
X171295238Y-167563855D01*
X171600000Y-168135283D02*
X171980953Y-168135283D01*
X171523810Y-168363855D02*
X171790477Y-167563855D01*
X171790477Y-167563855D02*
X172057143Y-168363855D01*
X172780953Y-168363855D02*
X172514286Y-167982902D01*
X172323810Y-168363855D02*
X172323810Y-167563855D01*
X172323810Y-167563855D02*
X172628572Y-167563855D01*
X172628572Y-167563855D02*
X172704762Y-167601950D01*
X172704762Y-167601950D02*
X172742857Y-167640045D01*
X172742857Y-167640045D02*
X172780953Y-167716236D01*
X172780953Y-167716236D02*
X172780953Y-167830521D01*
X172780953Y-167830521D02*
X172742857Y-167906712D01*
X172742857Y-167906712D02*
X172704762Y-167944807D01*
X172704762Y-167944807D02*
X172628572Y-167982902D01*
X172628572Y-167982902D02*
X172323810Y-167982902D01*
X173085714Y-168135283D02*
X173466667Y-168135283D01*
X173009524Y-168363855D02*
X173276191Y-167563855D01*
X173276191Y-167563855D02*
X173542857Y-168363855D01*
X173809524Y-168363855D02*
X173809524Y-167563855D01*
X173809524Y-167563855D02*
X174266667Y-168363855D01*
X174266667Y-168363855D02*
X174266667Y-167563855D01*
X175104762Y-168287664D02*
X175066666Y-168325760D01*
X175066666Y-168325760D02*
X174952381Y-168363855D01*
X174952381Y-168363855D02*
X174876190Y-168363855D01*
X174876190Y-168363855D02*
X174761904Y-168325760D01*
X174761904Y-168325760D02*
X174685714Y-168249569D01*
X174685714Y-168249569D02*
X174647619Y-168173379D01*
X174647619Y-168173379D02*
X174609523Y-168020998D01*
X174609523Y-168020998D02*
X174609523Y-167906712D01*
X174609523Y-167906712D02*
X174647619Y-167754331D01*
X174647619Y-167754331D02*
X174685714Y-167678140D01*
X174685714Y-167678140D02*
X174761904Y-167601950D01*
X174761904Y-167601950D02*
X174876190Y-167563855D01*
X174876190Y-167563855D02*
X174952381Y-167563855D01*
X174952381Y-167563855D02*
X175066666Y-167601950D01*
X175066666Y-167601950D02*
X175104762Y-167640045D01*
X175447619Y-167944807D02*
X175714285Y-167944807D01*
X175828571Y-168363855D02*
X175447619Y-168363855D01*
X175447619Y-168363855D02*
X175447619Y-167563855D01*
X175447619Y-167563855D02*
X175828571Y-167563855D01*
M02*
