%TF.GenerationSoftware,KiCad,Pcbnew,10.0.6*%
%TF.CreationDate,2026-09-22T12:02:17-07:00*%
%TF.ProjectId,weather-balloon-logger,77656174-6865-4722-9d62-616c6c6f6f6e,rev?*%
%TF.SameCoordinates,Original*%
%TF.FileFunction,Soldermask,Top*%
%TF.FilePolarity,Negative*%
%FSLAX46Y46*%
G04 Gerber Fmt 4.6, Leading zero omitted, Abs format (unit mm)*
G04 Created by KiCad (PCBNEW 10.0.6) date 2026-09-22 12:02:17*
%MOMM*%
%LPD*%
G01*
G04 APERTURE LIST*
G04 Aperture macros list*
%AMRoundRect*
0 Rectangle with rounded corners*
0 $1 Rounding radius*
0 $2 $3 $4 $5 $6 $7 $8 $9 X,Y pos of 4 corners*
0 Add a 4 corners polygon primitive as box body*
4,1,4,$2,$3,$4,$5,$6,$7,$8,$9,$2,$3,0*
0 Add four circle primitives for the rounded corners*
1,1,$1+$1,$2,$3*
1,1,$1+$1,$4,$5*
1,1,$1+$1,$6,$7*
1,1,$1+$1,$8,$9*
0 Add four rect primitives between the rounded corners*
20,1,$1+$1,$2,$3,$4,$5,0*
20,1,$1+$1,$4,$5,$6,$7,0*
20,1,$1+$1,$6,$7,$8,$9,0*
20,1,$1+$1,$8,$9,$2,$3,0*%
G04 Aperture macros list end*
%ADD10R,1.600000X1.600000*%
%ADD11C,1.600000*%
%ADD12R,1.700000X1.700000*%
%ADD13C,1.700000*%
%ADD14C,3.200000*%
%ADD15R,1.800000X1.800000*%
%ADD16C,1.800000*%
%ADD17RoundRect,0.250000X0.600000X0.750000X-0.600000X0.750000X-0.600000X-0.750000X0.600000X-0.750000X0*%
%ADD18O,1.700000X2.000000*%
%ADD19C,0.350000*%
G04 APERTURE END LIST*
D10*
%TO.C,C1*%
X116000000Y-132000000D03*
D11*
X121080000Y-132000000D03*
%TD*%
D12*
%TO.C,J3*%
X144000000Y-155000000D03*
D13*
X144000000Y-157540000D03*
%TD*%
D14*
%TO.C,H1*%
X138000000Y-99000000D03*
%TD*%
D11*
%TO.C,R4*%
X128000000Y-106000000D03*
X120380000Y-106000000D03*
%TD*%
D12*
%TO.C,J2*%
X136500000Y-109000000D03*
D13*
X136500000Y-111540000D03*
X136500000Y-114080000D03*
X136500000Y-116620000D03*
X136500000Y-119160000D03*
X136500000Y-121700000D03*
X136500000Y-124240000D03*
X136500000Y-126780000D03*
X136500000Y-129320000D03*
%TD*%
D15*
%TO.C,A2*%
X110620000Y-140000000D03*
D16*
X108080000Y-140000000D03*
X105540000Y-140000000D03*
X103000000Y-140000000D03*
%TD*%
D14*
%TO.C,H3*%
X138000000Y-166000000D03*
%TD*%
D10*
%TO.C,C2*%
X116000000Y-138000000D03*
D11*
X118540000Y-138000000D03*
%TD*%
D12*
%TO.C,J1*%
X144000000Y-142000000D03*
D13*
X144000000Y-144540000D03*
%TD*%
D14*
%TO.C,H4*%
X186000000Y-166000000D03*
%TD*%
D15*
%TO.C,D1*%
X122700000Y-116000000D03*
D16*
X120160000Y-116000000D03*
%TD*%
D14*
%TO.C,H2*%
X186000000Y-99000000D03*
%TD*%
D11*
%TO.C,R1*%
X110000000Y-116000000D03*
X117620000Y-116000000D03*
%TD*%
D17*
%TO.C,J5*%
X108500000Y-158000000D03*
D18*
X106000000Y-158000000D03*
%TD*%
D11*
%TO.C,R2*%
X110000000Y-120000000D03*
X117620000Y-120000000D03*
%TD*%
D12*
%TO.C,A1*%
X116500000Y-110000000D03*
D13*
X113960000Y-110000000D03*
X111420000Y-110000000D03*
X108880000Y-110000000D03*
X106340000Y-110000000D03*
X103800000Y-110000000D03*
%TD*%
D19*
X116000000Y-132000000D03*
X121080000Y-132000000D03*
X144000000Y-155000000D03*
X144000000Y-157540000D03*
X138000000Y-99000000D03*
X128000000Y-106000000D03*
X120380000Y-106000000D03*
X136500000Y-109000000D03*
X136500000Y-111540000D03*
X136500000Y-114080000D03*
X136500000Y-116620000D03*
X136500000Y-119160000D03*
X136500000Y-121700000D03*
X136500000Y-124240000D03*
X136500000Y-126780000D03*
X136500000Y-129320000D03*
X110620000Y-140000000D03*
X108080000Y-140000000D03*
X105540000Y-140000000D03*
X103000000Y-140000000D03*
X138000000Y-166000000D03*
X116000000Y-138000000D03*
X118540000Y-138000000D03*
X144000000Y-142000000D03*
X144000000Y-144540000D03*
X186000000Y-166000000D03*
X122700000Y-116000000D03*
X120160000Y-116000000D03*
X186000000Y-99000000D03*
X110000000Y-116000000D03*
X117620000Y-116000000D03*
X108500000Y-158000000D03*
X106000000Y-158000000D03*
X110000000Y-120000000D03*
X117620000Y-120000000D03*
X116500000Y-110000000D03*
X113960000Y-110000000D03*
X111420000Y-110000000D03*
X108880000Y-110000000D03*
X106340000Y-110000000D03*
X103800000Y-110000000D03*
M02*
