%TF.GenerationSoftware,KiCad,Pcbnew,10.0.6*%
%TF.CreationDate,2026-09-16T22:44:02-07:00*%
%TF.ProjectId,weather-balloon-logger,77656174-6865-4722-9d62-616c6c6f6f6e,rev?*%
%TF.SameCoordinates,Original*%
%TF.FileFunction,Soldermask,Top*%
%TF.FilePolarity,Negative*%
%FSLAX46Y46*%
G04 Gerber Fmt 4.6, Leading zero omitted, Abs format (unit mm)*
G04 Created by KiCad (PCBNEW 10.0.6) date 2026-09-16 22:44:02*
%MOMM*%
%LPD*%
G01*
G04 APERTURE LIST*
G04 Aperture macros list*
%AMRoundRect*
0 Rectangle with rounded corners*
0 $1 Rounding radius*
0 $2 $3 $4 $5 $6 $7 $8 $9 X,Y pos of 4 corners*
0 Add a 4 corners polygon primitive as box body*
4,1,4,$2,$3,$4,$5,$6,$7,$8,$9,$2,$3,0*
0 Add four circle primitives for the rounded corners*
1,1,$1+$1,$2,$3*
1,1,$1+$1,$4,$5*
1,1,$1+$1,$6,$7*
1,1,$1+$1,$8,$9*
0 Add four rect primitives between the rounded corners*
20,1,$1+$1,$2,$3,$4,$5,0*
20,1,$1+$1,$4,$5,$6,$7,0*
20,1,$1+$1,$6,$7,$8,$9,0*
20,1,$1+$1,$8,$9,$2,$3,0*%
G04 Aperture macros list end*
%ADD10RoundRect,0.250000X-0.550000X-0.550000X0.550000X-0.550000X0.550000X0.550000X-0.550000X0.550000X0*%
%ADD11C,1.600000*%
%ADD12C,2.200000*%
%ADD13R,1.700000X1.700000*%
%ADD14R,1.600000X1.600000*%
%ADD15RoundRect,0.250000X0.750000X-0.600000X0.750000X0.600000X-0.750000X0.600000X-0.750000X-0.600000X0*%
%ADD16O,2.000000X1.700000*%
%ADD17C,2.050000*%
%ADD18C,2.250000*%
%ADD19R,1.800000X1.800000*%
%ADD20C,1.800000*%
%ADD21C,1.700000*%
%ADD22RoundRect,0.250000X0.625000X-0.350000X0.625000X0.350000X-0.625000X0.350000X-0.625000X-0.350000X0*%
%ADD23O,1.750000X1.200000*%
%ADD24R,1.905000X2.000000*%
%ADD25O,1.905000X2.000000*%
%ADD26RoundRect,0.520000X-1.380000X-0.780000X1.380000X-0.780000X1.380000X0.780000X-1.380000X0.780000X0*%
%ADD27O,3.800000X2.600000*%
G04 APERTURE END LIST*
D10*
%TO.C,U1*%
X161000000Y-121500000D03*
D11*
X161000000Y-124040000D03*
X161000000Y-126580000D03*
X161000000Y-129120000D03*
X161000000Y-131660000D03*
X161000000Y-134200000D03*
X161000000Y-136740000D03*
X161000000Y-139280000D03*
X168620000Y-139280000D03*
X168620000Y-136740000D03*
X168620000Y-134200000D03*
X168620000Y-131660000D03*
X168620000Y-129120000D03*
X168620000Y-126580000D03*
X168620000Y-124040000D03*
X168620000Y-121500000D03*
%TD*%
D12*
%TO.C,H2*%
X154100000Y-115350000D03*
%TD*%
D13*
%TO.C,J6*%
X156300000Y-155000000D03*
%TD*%
D14*
%TO.C,C1*%
X173000000Y-115000000D03*
D11*
X178080000Y-115000000D03*
%TD*%
D14*
%TO.C,C2*%
X173000000Y-121000000D03*
D11*
X175540000Y-121000000D03*
%TD*%
D12*
%TO.C,H3*%
X125900000Y-153520000D03*
%TD*%
%TO.C,H4*%
X154100000Y-153520000D03*
%TD*%
D15*
%TO.C,J5*%
X103000000Y-141000000D03*
D16*
X103000000Y-138500000D03*
%TD*%
D14*
%TO.C,C5*%
X103000000Y-115500000D03*
D11*
X108080000Y-115500000D03*
%TD*%
D17*
%TO.C,J4*%
X112000000Y-162000000D03*
D18*
X109460000Y-159460000D03*
X109460000Y-164540000D03*
X114540000Y-159460000D03*
X114540000Y-164540000D03*
%TD*%
D11*
%TO.C,R2*%
X103000000Y-148000000D03*
X110620000Y-148000000D03*
%TD*%
D19*
%TO.C,D1*%
X173000000Y-145000000D03*
D20*
X170460000Y-145000000D03*
%TD*%
D13*
%TO.C,A1*%
X171000000Y-110000000D03*
D21*
X168460000Y-110000000D03*
X165920000Y-110000000D03*
X163380000Y-110000000D03*
X160840000Y-110000000D03*
X158300000Y-110000000D03*
%TD*%
D11*
%TO.C,R1*%
X160000000Y-145000000D03*
X167620000Y-145000000D03*
%TD*%
D13*
%TO.C,J2*%
X154900000Y-121720000D03*
D21*
X154900000Y-124260000D03*
X154900000Y-126800000D03*
X154900000Y-129340000D03*
X154900000Y-131880000D03*
X154900000Y-134420000D03*
X154900000Y-136960000D03*
X154900000Y-139500000D03*
X154900000Y-142040000D03*
X154900000Y-144580000D03*
X154900000Y-147120000D03*
%TD*%
D14*
%TO.C,C4*%
X107700000Y-133300000D03*
D11*
X110240000Y-133300000D03*
%TD*%
D19*
%TO.C,A2*%
X106000000Y-128620000D03*
D20*
X106000000Y-126080000D03*
X106000000Y-123540000D03*
X106000000Y-121000000D03*
%TD*%
D11*
%TO.C,R4*%
X166620000Y-118000000D03*
X159000000Y-118000000D03*
%TD*%
D22*
%TO.C,J1*%
X103000000Y-108000000D03*
D23*
X103000000Y-106000000D03*
%TD*%
D24*
%TO.C,Q1*%
X115700000Y-149000000D03*
D25*
X118240000Y-149000000D03*
X120780000Y-149000000D03*
%TD*%
D26*
%TO.C,SW1*%
X114000000Y-112700000D03*
D27*
X114000000Y-108000000D03*
X114000000Y-103300000D03*
%TD*%
D12*
%TO.C,H1*%
X125900000Y-115350000D03*
%TD*%
D13*
%TO.C,J7*%
X123700000Y-155000000D03*
%TD*%
D11*
%TO.C,R3*%
X114000000Y-144000000D03*
X121620000Y-144000000D03*
%TD*%
D10*
%TO.C,U2*%
X114000000Y-133000000D03*
D11*
X114000000Y-135540000D03*
X114000000Y-138080000D03*
X114000000Y-140620000D03*
X121620000Y-140620000D03*
X121620000Y-138080000D03*
X121620000Y-135540000D03*
X121620000Y-133000000D03*
%TD*%
D14*
%TO.C,C3*%
X173000000Y-132000000D03*
D11*
X175540000Y-132000000D03*
%TD*%
D17*
%TO.C,J3*%
X168000000Y-162000000D03*
D18*
X165460000Y-159460000D03*
X165460000Y-164540000D03*
X170540000Y-159460000D03*
X170540000Y-164540000D03*
%TD*%
M02*
