M48
; DRILL file KiCad 10.0.6 date 2026-09-16T22:44:02
; FORMAT={-:-/ absolute / metric / decimal}
; #@! TF.CreationDate,2026-09-16T22:44:02-07:00
; #@! TF.GenerationSoftware,Kicad,Pcbnew,10.0.6
; #@! TF.FileFunction,MixedPlating,1,2
FMAT,2
METRIC
; #@! TA.AperFunction,Plated,PTH,ViaDrill
T1C0.400
; #@! TA.AperFunction,Plated,PTH,ComponentDrill
T2C0.750
; #@! TA.AperFunction,Plated,PTH,ComponentDrill
T3C0.800
; #@! TA.AperFunction,Plated,PTH,ComponentDrill
T4C0.900
; #@! TA.AperFunction,Plated,PTH,ComponentDrill
T5C1.000
; #@! TA.AperFunction,Plated,PTH,ComponentDrill
T6C1.100
; #@! TA.AperFunction,Plated,PTH,ComponentDrill
T7C1.500
; #@! TA.AperFunction,Plated,PTH,ComponentDrill
T8C1.700
; #@! TA.AperFunction,NonPlated,NPTH,ComponentDrill
T9C2.200
%
G90
G05
T1
X147.0Y-116.8
X147.0Y-119.2
X147.0Y-120.5
X147.0Y-123.0
X150.0Y-139.556
X160.84Y-111.2
X160.84Y-112.8
T2
X103.0Y-106.0
X103.0Y-108.0
T3
X103.0Y-115.5
X103.0Y-148.0
X107.7Y-133.3
X108.08Y-115.5
X110.24Y-133.3
X110.62Y-148.0
X114.0Y-133.0
X114.0Y-135.54
X114.0Y-138.08
X114.0Y-140.62
X114.0Y-144.0
X121.62Y-133.0
X121.62Y-135.54
X121.62Y-138.08
X121.62Y-140.62
X121.62Y-144.0
X159.0Y-118.0
X160.0Y-145.0
X161.0Y-121.5
X161.0Y-124.04
X161.0Y-126.58
X161.0Y-129.12
X161.0Y-131.66
X161.0Y-134.2
X161.0Y-136.74
X161.0Y-139.28
X166.62Y-118.0
X167.62Y-145.0
X168.62Y-121.5
X168.62Y-124.04
X168.62Y-126.58
X168.62Y-129.12
X168.62Y-131.66
X168.62Y-134.2
X168.62Y-136.74
X168.62Y-139.28
X173.0Y-115.0
X173.0Y-121.0
X173.0Y-132.0
X175.54Y-121.0
X175.54Y-132.0
X178.08Y-115.0
T4
X170.46Y-145.0
X173.0Y-145.0
T5
X103.0Y-138.5
X103.0Y-141.0
X106.0Y-121.0
X106.0Y-123.54
X106.0Y-126.08
X106.0Y-128.62
X123.7Y-155.0
X154.9Y-121.72
X154.9Y-124.26
X154.9Y-126.8
X154.9Y-129.34
X154.9Y-131.88
X154.9Y-134.42
X154.9Y-136.96
X154.9Y-139.5
X154.9Y-142.04
X154.9Y-144.58
X154.9Y-147.12
X156.3Y-155.0
X158.3Y-110.0
X160.84Y-110.0
X163.38Y-110.0
X165.92Y-110.0
X168.46Y-110.0
X171.0Y-110.0
T6
X115.7Y-149.0
X118.24Y-149.0
X120.78Y-149.0
T7
X112.0Y-162.0
X168.0Y-162.0
T8
X109.46Y-159.46
X109.46Y-164.54
X114.54Y-159.46
X114.54Y-164.54
X165.46Y-159.46
X165.46Y-164.54
X170.54Y-159.46
X170.54Y-164.54
T9
X125.9Y-115.35
X125.9Y-153.52
X154.1Y-115.35
X154.1Y-153.52
T6
X113.4Y-103.3G85X114.6Y-103.3
G05
X113.4Y-108.0G85X114.6Y-108.0
G05
X113.4Y-112.7G85X114.6Y-112.7
G05
M30
