%TF.GenerationSoftware,KiCad,Pcbnew,10.0.6*%
%TF.CreationDate,2026-09-17T18:43:16-07:00*%
%TF.ProjectId,weather-balloon-logger,77656174-6865-4722-9d62-616c6c6f6f6e,rev?*%
%TF.SameCoordinates,Original*%
%TF.FileFunction,Legend,Top*%
%TF.FilePolarity,Positive*%
%FSLAX46Y46*%
G04 Gerber Fmt 4.6, Leading zero omitted, Abs format (unit mm)*
G04 Created by KiCad (PCBNEW 10.0.6) date 2026-09-17 18:43:16*
%MOMM*%
%LPD*%
G01*
G04 APERTURE LIST*
%ADD10C,0.150000*%
%ADD11C,0.180000*%
%ADD12C,0.200000*%
%ADD13C,0.300000*%
%ADD14C,0.120000*%
%ADD15C,0.250000*%
G04 APERTURE END LIST*
D10*
X133257143Y-156562295D02*
X133257143Y-157209914D01*
X133257143Y-157209914D02*
X133295238Y-157286104D01*
X133295238Y-157286104D02*
X133333333Y-157324200D01*
X133333333Y-157324200D02*
X133409524Y-157362295D01*
X133409524Y-157362295D02*
X133561905Y-157362295D01*
X133561905Y-157362295D02*
X133638095Y-157324200D01*
X133638095Y-157324200D02*
X133676190Y-157286104D01*
X133676190Y-157286104D02*
X133714286Y-157209914D01*
X133714286Y-157209914D02*
X133714286Y-156562295D01*
X134057142Y-156638485D02*
X134095238Y-156600390D01*
X134095238Y-156600390D02*
X134171428Y-156562295D01*
X134171428Y-156562295D02*
X134361904Y-156562295D01*
X134361904Y-156562295D02*
X134438095Y-156600390D01*
X134438095Y-156600390D02*
X134476190Y-156638485D01*
X134476190Y-156638485D02*
X134514285Y-156714676D01*
X134514285Y-156714676D02*
X134514285Y-156790866D01*
X134514285Y-156790866D02*
X134476190Y-156905152D01*
X134476190Y-156905152D02*
X134019047Y-157362295D01*
X134019047Y-157362295D02*
X134514285Y-157362295D01*
X135466667Y-157362295D02*
X135466667Y-156562295D01*
X135466667Y-156562295D02*
X135657143Y-156562295D01*
X135657143Y-156562295D02*
X135771429Y-156600390D01*
X135771429Y-156600390D02*
X135847619Y-156676580D01*
X135847619Y-156676580D02*
X135885714Y-156752771D01*
X135885714Y-156752771D02*
X135923810Y-156905152D01*
X135923810Y-156905152D02*
X135923810Y-157019438D01*
X135923810Y-157019438D02*
X135885714Y-157171819D01*
X135885714Y-157171819D02*
X135847619Y-157248009D01*
X135847619Y-157248009D02*
X135771429Y-157324200D01*
X135771429Y-157324200D02*
X135657143Y-157362295D01*
X135657143Y-157362295D02*
X135466667Y-157362295D01*
X136723810Y-157362295D02*
X136457143Y-156981342D01*
X136266667Y-157362295D02*
X136266667Y-156562295D01*
X136266667Y-156562295D02*
X136571429Y-156562295D01*
X136571429Y-156562295D02*
X136647619Y-156600390D01*
X136647619Y-156600390D02*
X136685714Y-156638485D01*
X136685714Y-156638485D02*
X136723810Y-156714676D01*
X136723810Y-156714676D02*
X136723810Y-156828961D01*
X136723810Y-156828961D02*
X136685714Y-156905152D01*
X136685714Y-156905152D02*
X136647619Y-156943247D01*
X136647619Y-156943247D02*
X136571429Y-156981342D01*
X136571429Y-156981342D02*
X136266667Y-156981342D01*
X137066667Y-157362295D02*
X137066667Y-156562295D01*
X137333333Y-156562295D02*
X137600000Y-157362295D01*
X137600000Y-157362295D02*
X137866666Y-156562295D01*
X138133333Y-156943247D02*
X138399999Y-156943247D01*
X138514285Y-157362295D02*
X138133333Y-157362295D01*
X138133333Y-157362295D02*
X138133333Y-156562295D01*
X138133333Y-156562295D02*
X138514285Y-156562295D01*
X139314286Y-157362295D02*
X139047619Y-156981342D01*
X138857143Y-157362295D02*
X138857143Y-156562295D01*
X138857143Y-156562295D02*
X139161905Y-156562295D01*
X139161905Y-156562295D02*
X139238095Y-156600390D01*
X139238095Y-156600390D02*
X139276190Y-156638485D01*
X139276190Y-156638485D02*
X139314286Y-156714676D01*
X139314286Y-156714676D02*
X139314286Y-156828961D01*
X139314286Y-156828961D02*
X139276190Y-156905152D01*
X139276190Y-156905152D02*
X139238095Y-156943247D01*
X139238095Y-156943247D02*
X139161905Y-156981342D01*
X139161905Y-156981342D02*
X138857143Y-156981342D01*
X140266667Y-157057533D02*
X140876191Y-157057533D01*
X142247619Y-157362295D02*
X141866667Y-157362295D01*
X141866667Y-157362295D02*
X141866667Y-156562295D01*
X142514286Y-156943247D02*
X142780952Y-156943247D01*
X142895238Y-157362295D02*
X142514286Y-157362295D01*
X142514286Y-157362295D02*
X142514286Y-156562295D01*
X142514286Y-156562295D02*
X142895238Y-156562295D01*
X143504762Y-156943247D02*
X143238096Y-156943247D01*
X143238096Y-157362295D02*
X143238096Y-156562295D01*
X143238096Y-156562295D02*
X143619048Y-156562295D01*
X143809524Y-156562295D02*
X144266667Y-156562295D01*
X144038095Y-157362295D02*
X144038095Y-156562295D01*
X145142858Y-157362295D02*
X145142858Y-156562295D01*
X145142858Y-156562295D02*
X145333334Y-156562295D01*
X145333334Y-156562295D02*
X145447620Y-156600390D01*
X145447620Y-156600390D02*
X145523810Y-156676580D01*
X145523810Y-156676580D02*
X145561905Y-156752771D01*
X145561905Y-156752771D02*
X145600001Y-156905152D01*
X145600001Y-156905152D02*
X145600001Y-157019438D01*
X145600001Y-157019438D02*
X145561905Y-157171819D01*
X145561905Y-157171819D02*
X145523810Y-157248009D01*
X145523810Y-157248009D02*
X145447620Y-157324200D01*
X145447620Y-157324200D02*
X145333334Y-157362295D01*
X145333334Y-157362295D02*
X145142858Y-157362295D01*
X145942858Y-157362295D02*
X145942858Y-156562295D01*
X146323810Y-157362295D02*
X146323810Y-156562295D01*
X146323810Y-156562295D02*
X146628572Y-156562295D01*
X146628572Y-156562295D02*
X146704762Y-156600390D01*
X146704762Y-156600390D02*
X146742857Y-156638485D01*
X146742857Y-156638485D02*
X146780953Y-156714676D01*
X146780953Y-156714676D02*
X146780953Y-156828961D01*
X146780953Y-156828961D02*
X146742857Y-156905152D01*
X146742857Y-156905152D02*
X146704762Y-156943247D01*
X146704762Y-156943247D02*
X146628572Y-156981342D01*
X146628572Y-156981342D02*
X146323810Y-156981342D01*
D11*
X100419048Y-106072306D02*
X101180953Y-106072306D01*
X100419048Y-108072306D02*
X101180953Y-108072306D01*
X100800000Y-108453259D02*
X100800000Y-107691354D01*
X100419048Y-138572306D02*
X101180953Y-138572306D01*
X100419048Y-145072306D02*
X101180953Y-145072306D01*
X100800000Y-145453259D02*
X100800000Y-144691354D01*
X111342856Y-153558020D02*
X111295237Y-153605640D01*
X111295237Y-153605640D02*
X111152380Y-153653259D01*
X111152380Y-153653259D02*
X111057142Y-153653259D01*
X111057142Y-153653259D02*
X110914285Y-153605640D01*
X110914285Y-153605640D02*
X110819047Y-153510401D01*
X110819047Y-153510401D02*
X110771428Y-153415163D01*
X110771428Y-153415163D02*
X110723809Y-153224687D01*
X110723809Y-153224687D02*
X110723809Y-153081830D01*
X110723809Y-153081830D02*
X110771428Y-152891354D01*
X110771428Y-152891354D02*
X110819047Y-152796116D01*
X110819047Y-152796116D02*
X110914285Y-152700878D01*
X110914285Y-152700878D02*
X111057142Y-152653259D01*
X111057142Y-152653259D02*
X111152380Y-152653259D01*
X111152380Y-152653259D02*
X111295237Y-152700878D01*
X111295237Y-152700878D02*
X111342856Y-152748497D01*
X111771428Y-152653259D02*
X111771428Y-153462782D01*
X111771428Y-153462782D02*
X111819047Y-153558020D01*
X111819047Y-153558020D02*
X111866666Y-153605640D01*
X111866666Y-153605640D02*
X111961904Y-153653259D01*
X111961904Y-153653259D02*
X112152380Y-153653259D01*
X112152380Y-153653259D02*
X112247618Y-153605640D01*
X112247618Y-153605640D02*
X112295237Y-153558020D01*
X112295237Y-153558020D02*
X112342856Y-153462782D01*
X112342856Y-153462782D02*
X112342856Y-152653259D01*
X112676190Y-152653259D02*
X113247618Y-152653259D01*
X112961904Y-153653259D02*
X112961904Y-152653259D01*
X113580952Y-153653259D02*
X113580952Y-152653259D01*
X113580952Y-152653259D02*
X113819047Y-152653259D01*
X113819047Y-152653259D02*
X113961904Y-152700878D01*
X113961904Y-152700878D02*
X114057142Y-152796116D01*
X114057142Y-152796116D02*
X114104761Y-152891354D01*
X114104761Y-152891354D02*
X114152380Y-153081830D01*
X114152380Y-153081830D02*
X114152380Y-153224687D01*
X114152380Y-153224687D02*
X114104761Y-153415163D01*
X114104761Y-153415163D02*
X114057142Y-153510401D01*
X114057142Y-153510401D02*
X113961904Y-153605640D01*
X113961904Y-153605640D02*
X113819047Y-153653259D01*
X113819047Y-153653259D02*
X113580952Y-153653259D01*
X114771428Y-152653259D02*
X114961904Y-152653259D01*
X114961904Y-152653259D02*
X115057142Y-152700878D01*
X115057142Y-152700878D02*
X115152380Y-152796116D01*
X115152380Y-152796116D02*
X115199999Y-152986592D01*
X115199999Y-152986592D02*
X115199999Y-153319925D01*
X115199999Y-153319925D02*
X115152380Y-153510401D01*
X115152380Y-153510401D02*
X115057142Y-153605640D01*
X115057142Y-153605640D02*
X114961904Y-153653259D01*
X114961904Y-153653259D02*
X114771428Y-153653259D01*
X114771428Y-153653259D02*
X114676190Y-153605640D01*
X114676190Y-153605640D02*
X114580952Y-153510401D01*
X114580952Y-153510401D02*
X114533333Y-153319925D01*
X114533333Y-153319925D02*
X114533333Y-152986592D01*
X114533333Y-152986592D02*
X114580952Y-152796116D01*
X114580952Y-152796116D02*
X114676190Y-152700878D01*
X114676190Y-152700878D02*
X114771428Y-152653259D01*
X115533333Y-152653259D02*
X115771428Y-153653259D01*
X115771428Y-153653259D02*
X115961904Y-152938973D01*
X115961904Y-152938973D02*
X116152380Y-153653259D01*
X116152380Y-153653259D02*
X116390476Y-152653259D01*
X116771428Y-153653259D02*
X116771428Y-152653259D01*
X116771428Y-152653259D02*
X117342856Y-153653259D01*
X117342856Y-153653259D02*
X117342856Y-152653259D01*
X118914285Y-153129449D02*
X118580952Y-153129449D01*
X118580952Y-153653259D02*
X118580952Y-152653259D01*
X118580952Y-152653259D02*
X119057142Y-152653259D01*
X119438095Y-153129449D02*
X119771428Y-153129449D01*
X119914285Y-153653259D02*
X119438095Y-153653259D01*
X119438095Y-153653259D02*
X119438095Y-152653259D01*
X119438095Y-152653259D02*
X119914285Y-152653259D01*
X120200000Y-152653259D02*
X120771428Y-152653259D01*
X120485714Y-153653259D02*
X120485714Y-152653259D01*
X120085714Y-154953259D02*
X120085714Y-153953259D01*
X120085714Y-154429449D02*
X120657142Y-154429449D01*
X120657142Y-154953259D02*
X120657142Y-153953259D01*
X121466666Y-154429449D02*
X121133333Y-154429449D01*
X121133333Y-154953259D02*
X121133333Y-153953259D01*
X121133333Y-153953259D02*
X121609523Y-153953259D01*
X157914286Y-153953259D02*
X158247619Y-154953259D01*
X158247619Y-154953259D02*
X158580952Y-153953259D01*
X158914286Y-154953259D02*
X158914286Y-153953259D01*
X158914286Y-154429449D02*
X159485714Y-154429449D01*
X159485714Y-154953259D02*
X159485714Y-153953259D01*
X160295238Y-154429449D02*
X159961905Y-154429449D01*
X159961905Y-154953259D02*
X159961905Y-153953259D01*
X159961905Y-153953259D02*
X160438095Y-153953259D01*
X169261905Y-149953259D02*
X169500000Y-150953259D01*
X169500000Y-150953259D02*
X169690476Y-150238973D01*
X169690476Y-150238973D02*
X169880952Y-150953259D01*
X169880952Y-150953259D02*
X170119048Y-149953259D01*
X171071428Y-150953259D02*
X170738095Y-150477068D01*
X170500000Y-150953259D02*
X170500000Y-149953259D01*
X170500000Y-149953259D02*
X170880952Y-149953259D01*
X170880952Y-149953259D02*
X170976190Y-150000878D01*
X170976190Y-150000878D02*
X171023809Y-150048497D01*
X171023809Y-150048497D02*
X171071428Y-150143735D01*
X171071428Y-150143735D02*
X171071428Y-150286592D01*
X171071428Y-150286592D02*
X171023809Y-150381830D01*
X171023809Y-150381830D02*
X170976190Y-150429449D01*
X170976190Y-150429449D02*
X170880952Y-150477068D01*
X170880952Y-150477068D02*
X170500000Y-150477068D01*
X171500000Y-150953259D02*
X171500000Y-149953259D01*
X171833333Y-149953259D02*
X172404761Y-149953259D01*
X172119047Y-150953259D02*
X172119047Y-149953259D01*
X172738095Y-150429449D02*
X173071428Y-150429449D01*
X173214285Y-150953259D02*
X172738095Y-150953259D01*
X172738095Y-150953259D02*
X172738095Y-149953259D01*
X172738095Y-149953259D02*
X173214285Y-149953259D01*
X174880952Y-150953259D02*
X174404762Y-150953259D01*
X174404762Y-150953259D02*
X174404762Y-149953259D01*
X175214286Y-150429449D02*
X175547619Y-150429449D01*
X175690476Y-150953259D02*
X175214286Y-150953259D01*
X175214286Y-150953259D02*
X175214286Y-149953259D01*
X175214286Y-149953259D02*
X175690476Y-149953259D01*
X176119048Y-150953259D02*
X176119048Y-149953259D01*
X176119048Y-149953259D02*
X176357143Y-149953259D01*
X176357143Y-149953259D02*
X176500000Y-150000878D01*
X176500000Y-150000878D02*
X176595238Y-150096116D01*
X176595238Y-150096116D02*
X176642857Y-150191354D01*
X176642857Y-150191354D02*
X176690476Y-150381830D01*
X176690476Y-150381830D02*
X176690476Y-150524687D01*
X176690476Y-150524687D02*
X176642857Y-150715163D01*
X176642857Y-150715163D02*
X176595238Y-150810401D01*
X176595238Y-150810401D02*
X176500000Y-150905640D01*
X176500000Y-150905640D02*
X176357143Y-150953259D01*
X176357143Y-150953259D02*
X176119048Y-150953259D01*
X101858020Y-136214285D02*
X101905640Y-136261904D01*
X101905640Y-136261904D02*
X101953259Y-136404761D01*
X101953259Y-136404761D02*
X101953259Y-136499999D01*
X101953259Y-136499999D02*
X101905640Y-136642856D01*
X101905640Y-136642856D02*
X101810401Y-136738094D01*
X101810401Y-136738094D02*
X101715163Y-136785713D01*
X101715163Y-136785713D02*
X101524687Y-136833332D01*
X101524687Y-136833332D02*
X101381830Y-136833332D01*
X101381830Y-136833332D02*
X101191354Y-136785713D01*
X101191354Y-136785713D02*
X101096116Y-136738094D01*
X101096116Y-136738094D02*
X101000878Y-136642856D01*
X101000878Y-136642856D02*
X100953259Y-136499999D01*
X100953259Y-136499999D02*
X100953259Y-136404761D01*
X100953259Y-136404761D02*
X101000878Y-136261904D01*
X101000878Y-136261904D02*
X101048497Y-136214285D01*
X100953259Y-135785713D02*
X101762782Y-135785713D01*
X101762782Y-135785713D02*
X101858020Y-135738094D01*
X101858020Y-135738094D02*
X101905640Y-135690475D01*
X101905640Y-135690475D02*
X101953259Y-135595237D01*
X101953259Y-135595237D02*
X101953259Y-135404761D01*
X101953259Y-135404761D02*
X101905640Y-135309523D01*
X101905640Y-135309523D02*
X101858020Y-135261904D01*
X101858020Y-135261904D02*
X101762782Y-135214285D01*
X101762782Y-135214285D02*
X100953259Y-135214285D01*
X100953259Y-134880951D02*
X100953259Y-134309523D01*
X101953259Y-134595237D02*
X100953259Y-134595237D01*
X101953259Y-133976189D02*
X100953259Y-133976189D01*
X100953259Y-133976189D02*
X100953259Y-133738094D01*
X100953259Y-133738094D02*
X101000878Y-133595237D01*
X101000878Y-133595237D02*
X101096116Y-133499999D01*
X101096116Y-133499999D02*
X101191354Y-133452380D01*
X101191354Y-133452380D02*
X101381830Y-133404761D01*
X101381830Y-133404761D02*
X101524687Y-133404761D01*
X101524687Y-133404761D02*
X101715163Y-133452380D01*
X101715163Y-133452380D02*
X101810401Y-133499999D01*
X101810401Y-133499999D02*
X101905640Y-133595237D01*
X101905640Y-133595237D02*
X101953259Y-133738094D01*
X101953259Y-133738094D02*
X101953259Y-133976189D01*
X100953259Y-132785713D02*
X100953259Y-132595237D01*
X100953259Y-132595237D02*
X101000878Y-132499999D01*
X101000878Y-132499999D02*
X101096116Y-132404761D01*
X101096116Y-132404761D02*
X101286592Y-132357142D01*
X101286592Y-132357142D02*
X101619925Y-132357142D01*
X101619925Y-132357142D02*
X101810401Y-132404761D01*
X101810401Y-132404761D02*
X101905640Y-132499999D01*
X101905640Y-132499999D02*
X101953259Y-132595237D01*
X101953259Y-132595237D02*
X101953259Y-132785713D01*
X101953259Y-132785713D02*
X101905640Y-132880951D01*
X101905640Y-132880951D02*
X101810401Y-132976189D01*
X101810401Y-132976189D02*
X101619925Y-133023808D01*
X101619925Y-133023808D02*
X101286592Y-133023808D01*
X101286592Y-133023808D02*
X101096116Y-132976189D01*
X101096116Y-132976189D02*
X101000878Y-132880951D01*
X101000878Y-132880951D02*
X100953259Y-132785713D01*
X100953259Y-132023808D02*
X101953259Y-131785713D01*
X101953259Y-131785713D02*
X101238973Y-131595237D01*
X101238973Y-131595237D02*
X101953259Y-131404761D01*
X101953259Y-131404761D02*
X100953259Y-131166666D01*
X101953259Y-130785713D02*
X100953259Y-130785713D01*
X100953259Y-130785713D02*
X101953259Y-130214285D01*
X101953259Y-130214285D02*
X100953259Y-130214285D01*
X158953259Y-139404761D02*
X157953259Y-139404761D01*
X158429449Y-139404761D02*
X158429449Y-138833333D01*
X158953259Y-138833333D02*
X157953259Y-138833333D01*
X157953259Y-138166666D02*
X157953259Y-137976190D01*
X157953259Y-137976190D02*
X158000878Y-137880952D01*
X158000878Y-137880952D02*
X158096116Y-137785714D01*
X158096116Y-137785714D02*
X158286592Y-137738095D01*
X158286592Y-137738095D02*
X158619925Y-137738095D01*
X158619925Y-137738095D02*
X158810401Y-137785714D01*
X158810401Y-137785714D02*
X158905640Y-137880952D01*
X158905640Y-137880952D02*
X158953259Y-137976190D01*
X158953259Y-137976190D02*
X158953259Y-138166666D01*
X158953259Y-138166666D02*
X158905640Y-138261904D01*
X158905640Y-138261904D02*
X158810401Y-138357142D01*
X158810401Y-138357142D02*
X158619925Y-138404761D01*
X158619925Y-138404761D02*
X158286592Y-138404761D01*
X158286592Y-138404761D02*
X158096116Y-138357142D01*
X158096116Y-138357142D02*
X158000878Y-138261904D01*
X158000878Y-138261904D02*
X157953259Y-138166666D01*
X158905640Y-137357142D02*
X158953259Y-137214285D01*
X158953259Y-137214285D02*
X158953259Y-136976190D01*
X158953259Y-136976190D02*
X158905640Y-136880952D01*
X158905640Y-136880952D02*
X158858020Y-136833333D01*
X158858020Y-136833333D02*
X158762782Y-136785714D01*
X158762782Y-136785714D02*
X158667544Y-136785714D01*
X158667544Y-136785714D02*
X158572306Y-136833333D01*
X158572306Y-136833333D02*
X158524687Y-136880952D01*
X158524687Y-136880952D02*
X158477068Y-136976190D01*
X158477068Y-136976190D02*
X158429449Y-137166666D01*
X158429449Y-137166666D02*
X158381830Y-137261904D01*
X158381830Y-137261904D02*
X158334211Y-137309523D01*
X158334211Y-137309523D02*
X158238973Y-137357142D01*
X158238973Y-137357142D02*
X158143735Y-137357142D01*
X158143735Y-137357142D02*
X158048497Y-137309523D01*
X158048497Y-137309523D02*
X158000878Y-137261904D01*
X158000878Y-137261904D02*
X157953259Y-137166666D01*
X157953259Y-137166666D02*
X157953259Y-136928571D01*
X157953259Y-136928571D02*
X158000878Y-136785714D01*
X157953259Y-136499999D02*
X157953259Y-135928571D01*
X158953259Y-136214285D02*
X157953259Y-136214285D01*
X158953259Y-134833332D02*
X157953259Y-134833332D01*
X158429449Y-134833332D02*
X158429449Y-134261904D01*
X158953259Y-134261904D02*
X157953259Y-134261904D01*
X158429449Y-133785713D02*
X158429449Y-133452380D01*
X158953259Y-133309523D02*
X158953259Y-133785713D01*
X158953259Y-133785713D02*
X157953259Y-133785713D01*
X157953259Y-133785713D02*
X157953259Y-133309523D01*
X158667544Y-132928570D02*
X158667544Y-132452380D01*
X158953259Y-133023808D02*
X157953259Y-132690475D01*
X157953259Y-132690475D02*
X158953259Y-132357142D01*
X158953259Y-132023808D02*
X157953259Y-132023808D01*
X157953259Y-132023808D02*
X157953259Y-131785713D01*
X157953259Y-131785713D02*
X158000878Y-131642856D01*
X158000878Y-131642856D02*
X158096116Y-131547618D01*
X158096116Y-131547618D02*
X158191354Y-131499999D01*
X158191354Y-131499999D02*
X158381830Y-131452380D01*
X158381830Y-131452380D02*
X158524687Y-131452380D01*
X158524687Y-131452380D02*
X158715163Y-131499999D01*
X158715163Y-131499999D02*
X158810401Y-131547618D01*
X158810401Y-131547618D02*
X158905640Y-131642856D01*
X158905640Y-131642856D02*
X158953259Y-131785713D01*
X158953259Y-131785713D02*
X158953259Y-132023808D01*
X158429449Y-131023808D02*
X158429449Y-130690475D01*
X158953259Y-130547618D02*
X158953259Y-131023808D01*
X158953259Y-131023808D02*
X157953259Y-131023808D01*
X157953259Y-131023808D02*
X157953259Y-130547618D01*
X158953259Y-129547618D02*
X158477068Y-129880951D01*
X158953259Y-130119046D02*
X157953259Y-130119046D01*
X157953259Y-130119046D02*
X157953259Y-129738094D01*
X157953259Y-129738094D02*
X158000878Y-129642856D01*
X158000878Y-129642856D02*
X158048497Y-129595237D01*
X158048497Y-129595237D02*
X158143735Y-129547618D01*
X158143735Y-129547618D02*
X158286592Y-129547618D01*
X158286592Y-129547618D02*
X158381830Y-129595237D01*
X158381830Y-129595237D02*
X158429449Y-129642856D01*
X158429449Y-129642856D02*
X158477068Y-129738094D01*
X158477068Y-129738094D02*
X158477068Y-130119046D01*
X178253259Y-139357143D02*
X178253259Y-139833333D01*
X178253259Y-139833333D02*
X177253259Y-139833333D01*
X177729449Y-139023809D02*
X177729449Y-138690476D01*
X178253259Y-138547619D02*
X178253259Y-139023809D01*
X178253259Y-139023809D02*
X177253259Y-139023809D01*
X177253259Y-139023809D02*
X177253259Y-138547619D01*
X178253259Y-138119047D02*
X177253259Y-138119047D01*
X177253259Y-138119047D02*
X177253259Y-137880952D01*
X177253259Y-137880952D02*
X177300878Y-137738095D01*
X177300878Y-137738095D02*
X177396116Y-137642857D01*
X177396116Y-137642857D02*
X177491354Y-137595238D01*
X177491354Y-137595238D02*
X177681830Y-137547619D01*
X177681830Y-137547619D02*
X177824687Y-137547619D01*
X177824687Y-137547619D02*
X178015163Y-137595238D01*
X178015163Y-137595238D02*
X178110401Y-137642857D01*
X178110401Y-137642857D02*
X178205640Y-137738095D01*
X178205640Y-137738095D02*
X178253259Y-137880952D01*
X178253259Y-137880952D02*
X178253259Y-138119047D01*
X177729449Y-136357142D02*
X177729449Y-136023809D01*
X178253259Y-135880952D02*
X178253259Y-136357142D01*
X178253259Y-136357142D02*
X177253259Y-136357142D01*
X177253259Y-136357142D02*
X177253259Y-135880952D01*
X177253259Y-135547618D02*
X178253259Y-134880952D01*
X177253259Y-134880952D02*
X178253259Y-135547618D01*
X178253259Y-134499999D02*
X177253259Y-134499999D01*
X177253259Y-134499999D02*
X177253259Y-134119047D01*
X177253259Y-134119047D02*
X177300878Y-134023809D01*
X177300878Y-134023809D02*
X177348497Y-133976190D01*
X177348497Y-133976190D02*
X177443735Y-133928571D01*
X177443735Y-133928571D02*
X177586592Y-133928571D01*
X177586592Y-133928571D02*
X177681830Y-133976190D01*
X177681830Y-133976190D02*
X177729449Y-134023809D01*
X177729449Y-134023809D02*
X177777068Y-134119047D01*
X177777068Y-134119047D02*
X177777068Y-134499999D01*
X177967544Y-133547618D02*
X177967544Y-133071428D01*
X178253259Y-133642856D02*
X177253259Y-133309523D01*
X177253259Y-133309523D02*
X178253259Y-132976190D01*
X178253259Y-132642856D02*
X177253259Y-132642856D01*
X177253259Y-132642856D02*
X178253259Y-132071428D01*
X178253259Y-132071428D02*
X177253259Y-132071428D01*
X178253259Y-131595237D02*
X177253259Y-131595237D01*
X177253259Y-131595237D02*
X177253259Y-131357142D01*
X177253259Y-131357142D02*
X177300878Y-131214285D01*
X177300878Y-131214285D02*
X177396116Y-131119047D01*
X177396116Y-131119047D02*
X177491354Y-131071428D01*
X177491354Y-131071428D02*
X177681830Y-131023809D01*
X177681830Y-131023809D02*
X177824687Y-131023809D01*
X177824687Y-131023809D02*
X178015163Y-131071428D01*
X178015163Y-131071428D02*
X178110401Y-131119047D01*
X178110401Y-131119047D02*
X178205640Y-131214285D01*
X178205640Y-131214285D02*
X178253259Y-131357142D01*
X178253259Y-131357142D02*
X178253259Y-131595237D01*
X177729449Y-130595237D02*
X177729449Y-130261904D01*
X178253259Y-130119047D02*
X178253259Y-130595237D01*
X178253259Y-130595237D02*
X177253259Y-130595237D01*
X177253259Y-130595237D02*
X177253259Y-130119047D01*
X178253259Y-129119047D02*
X177777068Y-129452380D01*
X178253259Y-129690475D02*
X177253259Y-129690475D01*
X177253259Y-129690475D02*
X177253259Y-129309523D01*
X177253259Y-129309523D02*
X177300878Y-129214285D01*
X177300878Y-129214285D02*
X177348497Y-129166666D01*
X177348497Y-129166666D02*
X177443735Y-129119047D01*
X177443735Y-129119047D02*
X177586592Y-129119047D01*
X177586592Y-129119047D02*
X177681830Y-129166666D01*
X177681830Y-129166666D02*
X177729449Y-129214285D01*
X177729449Y-129214285D02*
X177777068Y-129309523D01*
X177777068Y-129309523D02*
X177777068Y-129690475D01*
X101492857Y-92723330D02*
X101650000Y-92775711D01*
X101650000Y-92775711D02*
X101702381Y-92828092D01*
X101702381Y-92828092D02*
X101754762Y-92932854D01*
X101754762Y-92932854D02*
X101754762Y-93089997D01*
X101754762Y-93089997D02*
X101702381Y-93194759D01*
X101702381Y-93194759D02*
X101650000Y-93247140D01*
X101650000Y-93247140D02*
X101545238Y-93299520D01*
X101545238Y-93299520D02*
X101126190Y-93299520D01*
X101126190Y-93299520D02*
X101126190Y-92199520D01*
X101126190Y-92199520D02*
X101492857Y-92199520D01*
X101492857Y-92199520D02*
X101597619Y-92251901D01*
X101597619Y-92251901D02*
X101650000Y-92304282D01*
X101650000Y-92304282D02*
X101702381Y-92409044D01*
X101702381Y-92409044D02*
X101702381Y-92513806D01*
X101702381Y-92513806D02*
X101650000Y-92618568D01*
X101650000Y-92618568D02*
X101597619Y-92670949D01*
X101597619Y-92670949D02*
X101492857Y-92723330D01*
X101492857Y-92723330D02*
X101126190Y-92723330D01*
X102173809Y-92985235D02*
X102697619Y-92985235D01*
X102069047Y-93299520D02*
X102435714Y-92199520D01*
X102435714Y-92199520D02*
X102802381Y-93299520D01*
X103011904Y-92199520D02*
X103640476Y-92199520D01*
X103326190Y-93299520D02*
X103326190Y-92199520D01*
X103849999Y-92199520D02*
X104478571Y-92199520D01*
X104164285Y-93299520D02*
X104164285Y-92199520D01*
X104845237Y-92723330D02*
X105211904Y-92723330D01*
X105369047Y-93299520D02*
X104845237Y-93299520D01*
X104845237Y-93299520D02*
X104845237Y-92199520D01*
X104845237Y-92199520D02*
X105369047Y-92199520D01*
X106469047Y-93299520D02*
X106102380Y-92775711D01*
X105840475Y-93299520D02*
X105840475Y-92199520D01*
X105840475Y-92199520D02*
X106259523Y-92199520D01*
X106259523Y-92199520D02*
X106364285Y-92251901D01*
X106364285Y-92251901D02*
X106416666Y-92304282D01*
X106416666Y-92304282D02*
X106469047Y-92409044D01*
X106469047Y-92409044D02*
X106469047Y-92566187D01*
X106469047Y-92566187D02*
X106416666Y-92670949D01*
X106416666Y-92670949D02*
X106364285Y-92723330D01*
X106364285Y-92723330D02*
X106259523Y-92775711D01*
X106259523Y-92775711D02*
X105840475Y-92775711D01*
X107149999Y-92775711D02*
X107149999Y-93299520D01*
X106783332Y-92199520D02*
X107149999Y-92775711D01*
X107149999Y-92775711D02*
X107516666Y-92199520D01*
X108721427Y-93299520D02*
X108721427Y-92199520D01*
X109245237Y-93299520D02*
X109245237Y-92199520D01*
X109245237Y-92199520D02*
X109873809Y-93299520D01*
X109873809Y-93299520D02*
X109873809Y-92199520D01*
X107861904Y-167399520D02*
X108123809Y-168499520D01*
X108123809Y-168499520D02*
X108333333Y-167713806D01*
X108333333Y-167713806D02*
X108542857Y-168499520D01*
X108542857Y-168499520D02*
X108804762Y-167399520D01*
X109171428Y-168447140D02*
X109328571Y-168499520D01*
X109328571Y-168499520D02*
X109590476Y-168499520D01*
X109590476Y-168499520D02*
X109695238Y-168447140D01*
X109695238Y-168447140D02*
X109747619Y-168394759D01*
X109747619Y-168394759D02*
X109800000Y-168289997D01*
X109800000Y-168289997D02*
X109800000Y-168185235D01*
X109800000Y-168185235D02*
X109747619Y-168080473D01*
X109747619Y-168080473D02*
X109695238Y-168028092D01*
X109695238Y-168028092D02*
X109590476Y-167975711D01*
X109590476Y-167975711D02*
X109380952Y-167923330D01*
X109380952Y-167923330D02*
X109276190Y-167870949D01*
X109276190Y-167870949D02*
X109223809Y-167818568D01*
X109223809Y-167818568D02*
X109171428Y-167713806D01*
X109171428Y-167713806D02*
X109171428Y-167609044D01*
X109171428Y-167609044D02*
X109223809Y-167504282D01*
X109223809Y-167504282D02*
X109276190Y-167451901D01*
X109276190Y-167451901D02*
X109380952Y-167399520D01*
X109380952Y-167399520D02*
X109642857Y-167399520D01*
X109642857Y-167399520D02*
X109800000Y-167451901D01*
X110271428Y-168499520D02*
X110271428Y-167399520D01*
X110271428Y-167399520D02*
X110690476Y-167399520D01*
X110690476Y-167399520D02*
X110795238Y-167451901D01*
X110795238Y-167451901D02*
X110847619Y-167504282D01*
X110847619Y-167504282D02*
X110900000Y-167609044D01*
X110900000Y-167609044D02*
X110900000Y-167766187D01*
X110900000Y-167766187D02*
X110847619Y-167870949D01*
X110847619Y-167870949D02*
X110795238Y-167923330D01*
X110795238Y-167923330D02*
X110690476Y-167975711D01*
X110690476Y-167975711D02*
X110271428Y-167975711D01*
X112000000Y-168499520D02*
X111633333Y-167975711D01*
X111371428Y-168499520D02*
X111371428Y-167399520D01*
X111371428Y-167399520D02*
X111790476Y-167399520D01*
X111790476Y-167399520D02*
X111895238Y-167451901D01*
X111895238Y-167451901D02*
X111947619Y-167504282D01*
X111947619Y-167504282D02*
X112000000Y-167609044D01*
X112000000Y-167609044D02*
X112000000Y-167766187D01*
X112000000Y-167766187D02*
X111947619Y-167870949D01*
X111947619Y-167870949D02*
X111895238Y-167923330D01*
X111895238Y-167923330D02*
X111790476Y-167975711D01*
X111790476Y-167975711D02*
X111371428Y-167975711D01*
X113257142Y-168447140D02*
X113414285Y-168499520D01*
X113414285Y-168499520D02*
X113676190Y-168499520D01*
X113676190Y-168499520D02*
X113780952Y-168447140D01*
X113780952Y-168447140D02*
X113833333Y-168394759D01*
X113833333Y-168394759D02*
X113885714Y-168289997D01*
X113885714Y-168289997D02*
X113885714Y-168185235D01*
X113885714Y-168185235D02*
X113833333Y-168080473D01*
X113833333Y-168080473D02*
X113780952Y-168028092D01*
X113780952Y-168028092D02*
X113676190Y-167975711D01*
X113676190Y-167975711D02*
X113466666Y-167923330D01*
X113466666Y-167923330D02*
X113361904Y-167870949D01*
X113361904Y-167870949D02*
X113309523Y-167818568D01*
X113309523Y-167818568D02*
X113257142Y-167713806D01*
X113257142Y-167713806D02*
X113257142Y-167609044D01*
X113257142Y-167609044D02*
X113309523Y-167504282D01*
X113309523Y-167504282D02*
X113361904Y-167451901D01*
X113361904Y-167451901D02*
X113466666Y-167399520D01*
X113466666Y-167399520D02*
X113728571Y-167399520D01*
X113728571Y-167399520D02*
X113885714Y-167451901D01*
X114357142Y-168499520D02*
X114357142Y-167399520D01*
X114357142Y-167399520D02*
X114723809Y-168185235D01*
X114723809Y-168185235D02*
X115090476Y-167399520D01*
X115090476Y-167399520D02*
X115090476Y-168499520D01*
X115561904Y-168185235D02*
X116085714Y-168185235D01*
X115457142Y-168499520D02*
X115823809Y-167399520D01*
X115823809Y-167399520D02*
X116190476Y-168499520D01*
X115080952Y-93299520D02*
X115080952Y-92199520D01*
X115080952Y-92199520D02*
X115500000Y-92199520D01*
X115500000Y-92199520D02*
X115604762Y-92251901D01*
X115604762Y-92251901D02*
X115657143Y-92304282D01*
X115657143Y-92304282D02*
X115709524Y-92409044D01*
X115709524Y-92409044D02*
X115709524Y-92566187D01*
X115709524Y-92566187D02*
X115657143Y-92670949D01*
X115657143Y-92670949D02*
X115604762Y-92723330D01*
X115604762Y-92723330D02*
X115500000Y-92775711D01*
X115500000Y-92775711D02*
X115080952Y-92775711D01*
X116390476Y-92199520D02*
X116600000Y-92199520D01*
X116600000Y-92199520D02*
X116704762Y-92251901D01*
X116704762Y-92251901D02*
X116809524Y-92356663D01*
X116809524Y-92356663D02*
X116861905Y-92566187D01*
X116861905Y-92566187D02*
X116861905Y-92932854D01*
X116861905Y-92932854D02*
X116809524Y-93142378D01*
X116809524Y-93142378D02*
X116704762Y-93247140D01*
X116704762Y-93247140D02*
X116600000Y-93299520D01*
X116600000Y-93299520D02*
X116390476Y-93299520D01*
X116390476Y-93299520D02*
X116285714Y-93247140D01*
X116285714Y-93247140D02*
X116180952Y-93142378D01*
X116180952Y-93142378D02*
X116128571Y-92932854D01*
X116128571Y-92932854D02*
X116128571Y-92566187D01*
X116128571Y-92566187D02*
X116180952Y-92356663D01*
X116180952Y-92356663D02*
X116285714Y-92251901D01*
X116285714Y-92251901D02*
X116390476Y-92199520D01*
X117228571Y-92199520D02*
X117490476Y-93299520D01*
X117490476Y-93299520D02*
X117700000Y-92513806D01*
X117700000Y-92513806D02*
X117909524Y-93299520D01*
X117909524Y-93299520D02*
X118171429Y-92199520D01*
X118590476Y-92723330D02*
X118957143Y-92723330D01*
X119114286Y-93299520D02*
X118590476Y-93299520D01*
X118590476Y-93299520D02*
X118590476Y-92199520D01*
X118590476Y-92199520D02*
X119114286Y-92199520D01*
X120214286Y-93299520D02*
X119847619Y-92775711D01*
X119585714Y-93299520D02*
X119585714Y-92199520D01*
X119585714Y-92199520D02*
X120004762Y-92199520D01*
X120004762Y-92199520D02*
X120109524Y-92251901D01*
X120109524Y-92251901D02*
X120161905Y-92304282D01*
X120161905Y-92304282D02*
X120214286Y-92409044D01*
X120214286Y-92409044D02*
X120214286Y-92566187D01*
X120214286Y-92566187D02*
X120161905Y-92670949D01*
X120161905Y-92670949D02*
X120109524Y-92723330D01*
X120109524Y-92723330D02*
X120004762Y-92775711D01*
X120004762Y-92775711D02*
X119585714Y-92775711D01*
X121471428Y-93247140D02*
X121628571Y-93299520D01*
X121628571Y-93299520D02*
X121890476Y-93299520D01*
X121890476Y-93299520D02*
X121995238Y-93247140D01*
X121995238Y-93247140D02*
X122047619Y-93194759D01*
X122047619Y-93194759D02*
X122100000Y-93089997D01*
X122100000Y-93089997D02*
X122100000Y-92985235D01*
X122100000Y-92985235D02*
X122047619Y-92880473D01*
X122047619Y-92880473D02*
X121995238Y-92828092D01*
X121995238Y-92828092D02*
X121890476Y-92775711D01*
X121890476Y-92775711D02*
X121680952Y-92723330D01*
X121680952Y-92723330D02*
X121576190Y-92670949D01*
X121576190Y-92670949D02*
X121523809Y-92618568D01*
X121523809Y-92618568D02*
X121471428Y-92513806D01*
X121471428Y-92513806D02*
X121471428Y-92409044D01*
X121471428Y-92409044D02*
X121523809Y-92304282D01*
X121523809Y-92304282D02*
X121576190Y-92251901D01*
X121576190Y-92251901D02*
X121680952Y-92199520D01*
X121680952Y-92199520D02*
X121942857Y-92199520D01*
X121942857Y-92199520D02*
X122100000Y-92251901D01*
X122466666Y-92199520D02*
X122728571Y-93299520D01*
X122728571Y-93299520D02*
X122938095Y-92513806D01*
X122938095Y-92513806D02*
X123147619Y-93299520D01*
X123147619Y-93299520D02*
X123409524Y-92199520D01*
X123828571Y-93299520D02*
X123828571Y-92199520D01*
X124195238Y-92199520D02*
X124823810Y-92199520D01*
X124509524Y-93299520D02*
X124509524Y-92199520D01*
X125819048Y-93194759D02*
X125766667Y-93247140D01*
X125766667Y-93247140D02*
X125609524Y-93299520D01*
X125609524Y-93299520D02*
X125504762Y-93299520D01*
X125504762Y-93299520D02*
X125347619Y-93247140D01*
X125347619Y-93247140D02*
X125242857Y-93142378D01*
X125242857Y-93142378D02*
X125190476Y-93037616D01*
X125190476Y-93037616D02*
X125138095Y-92828092D01*
X125138095Y-92828092D02*
X125138095Y-92670949D01*
X125138095Y-92670949D02*
X125190476Y-92461425D01*
X125190476Y-92461425D02*
X125242857Y-92356663D01*
X125242857Y-92356663D02*
X125347619Y-92251901D01*
X125347619Y-92251901D02*
X125504762Y-92199520D01*
X125504762Y-92199520D02*
X125609524Y-92199520D01*
X125609524Y-92199520D02*
X125766667Y-92251901D01*
X125766667Y-92251901D02*
X125819048Y-92304282D01*
X126290476Y-93299520D02*
X126290476Y-92199520D01*
X126290476Y-92723330D02*
X126919048Y-92723330D01*
X126919048Y-93299520D02*
X126919048Y-92199520D01*
X164071428Y-168185235D02*
X164595238Y-168185235D01*
X163966666Y-168499520D02*
X164333333Y-167399520D01*
X164333333Y-167399520D02*
X164700000Y-168499520D01*
X165066666Y-168499520D02*
X165066666Y-167399520D01*
X165066666Y-167399520D02*
X165485714Y-167399520D01*
X165485714Y-167399520D02*
X165590476Y-167451901D01*
X165590476Y-167451901D02*
X165642857Y-167504282D01*
X165642857Y-167504282D02*
X165695238Y-167609044D01*
X165695238Y-167609044D02*
X165695238Y-167766187D01*
X165695238Y-167766187D02*
X165642857Y-167870949D01*
X165642857Y-167870949D02*
X165590476Y-167923330D01*
X165590476Y-167923330D02*
X165485714Y-167975711D01*
X165485714Y-167975711D02*
X165066666Y-167975711D01*
X166795238Y-168499520D02*
X166428571Y-167975711D01*
X166166666Y-168499520D02*
X166166666Y-167399520D01*
X166166666Y-167399520D02*
X166585714Y-167399520D01*
X166585714Y-167399520D02*
X166690476Y-167451901D01*
X166690476Y-167451901D02*
X166742857Y-167504282D01*
X166742857Y-167504282D02*
X166795238Y-167609044D01*
X166795238Y-167609044D02*
X166795238Y-167766187D01*
X166795238Y-167766187D02*
X166742857Y-167870949D01*
X166742857Y-167870949D02*
X166690476Y-167923330D01*
X166690476Y-167923330D02*
X166585714Y-167975711D01*
X166585714Y-167975711D02*
X166166666Y-167975711D01*
X167214285Y-168447140D02*
X167371428Y-168499520D01*
X167371428Y-168499520D02*
X167633333Y-168499520D01*
X167633333Y-168499520D02*
X167738095Y-168447140D01*
X167738095Y-168447140D02*
X167790476Y-168394759D01*
X167790476Y-168394759D02*
X167842857Y-168289997D01*
X167842857Y-168289997D02*
X167842857Y-168185235D01*
X167842857Y-168185235D02*
X167790476Y-168080473D01*
X167790476Y-168080473D02*
X167738095Y-168028092D01*
X167738095Y-168028092D02*
X167633333Y-167975711D01*
X167633333Y-167975711D02*
X167423809Y-167923330D01*
X167423809Y-167923330D02*
X167319047Y-167870949D01*
X167319047Y-167870949D02*
X167266666Y-167818568D01*
X167266666Y-167818568D02*
X167214285Y-167713806D01*
X167214285Y-167713806D02*
X167214285Y-167609044D01*
X167214285Y-167609044D02*
X167266666Y-167504282D01*
X167266666Y-167504282D02*
X167319047Y-167451901D01*
X167319047Y-167451901D02*
X167423809Y-167399520D01*
X167423809Y-167399520D02*
X167685714Y-167399520D01*
X167685714Y-167399520D02*
X167842857Y-167451901D01*
X169099999Y-168447140D02*
X169257142Y-168499520D01*
X169257142Y-168499520D02*
X169519047Y-168499520D01*
X169519047Y-168499520D02*
X169623809Y-168447140D01*
X169623809Y-168447140D02*
X169676190Y-168394759D01*
X169676190Y-168394759D02*
X169728571Y-168289997D01*
X169728571Y-168289997D02*
X169728571Y-168185235D01*
X169728571Y-168185235D02*
X169676190Y-168080473D01*
X169676190Y-168080473D02*
X169623809Y-168028092D01*
X169623809Y-168028092D02*
X169519047Y-167975711D01*
X169519047Y-167975711D02*
X169309523Y-167923330D01*
X169309523Y-167923330D02*
X169204761Y-167870949D01*
X169204761Y-167870949D02*
X169152380Y-167818568D01*
X169152380Y-167818568D02*
X169099999Y-167713806D01*
X169099999Y-167713806D02*
X169099999Y-167609044D01*
X169099999Y-167609044D02*
X169152380Y-167504282D01*
X169152380Y-167504282D02*
X169204761Y-167451901D01*
X169204761Y-167451901D02*
X169309523Y-167399520D01*
X169309523Y-167399520D02*
X169571428Y-167399520D01*
X169571428Y-167399520D02*
X169728571Y-167451901D01*
X170199999Y-168499520D02*
X170199999Y-167399520D01*
X170199999Y-167399520D02*
X170566666Y-168185235D01*
X170566666Y-168185235D02*
X170933333Y-167399520D01*
X170933333Y-167399520D02*
X170933333Y-168499520D01*
X171404761Y-168185235D02*
X171928571Y-168185235D01*
X171299999Y-168499520D02*
X171666666Y-167399520D01*
X171666666Y-167399520D02*
X172033333Y-168499520D01*
X100899520Y-123226189D02*
X100899520Y-123749999D01*
X100899520Y-123749999D02*
X101423330Y-123802380D01*
X101423330Y-123802380D02*
X101370949Y-123749999D01*
X101370949Y-123749999D02*
X101318568Y-123645237D01*
X101318568Y-123645237D02*
X101318568Y-123383332D01*
X101318568Y-123383332D02*
X101370949Y-123278570D01*
X101370949Y-123278570D02*
X101423330Y-123226189D01*
X101423330Y-123226189D02*
X101528092Y-123173808D01*
X101528092Y-123173808D02*
X101789997Y-123173808D01*
X101789997Y-123173808D02*
X101894759Y-123226189D01*
X101894759Y-123226189D02*
X101947140Y-123278570D01*
X101947140Y-123278570D02*
X101999520Y-123383332D01*
X101999520Y-123383332D02*
X101999520Y-123645237D01*
X101999520Y-123645237D02*
X101947140Y-123749999D01*
X101947140Y-123749999D02*
X101894759Y-123802380D01*
X100899520Y-122859523D02*
X101999520Y-122492856D01*
X101999520Y-122492856D02*
X100899520Y-122126189D01*
X101999520Y-120292856D02*
X101475711Y-120659523D01*
X101999520Y-120921428D02*
X100899520Y-120921428D01*
X100899520Y-120921428D02*
X100899520Y-120502380D01*
X100899520Y-120502380D02*
X100951901Y-120397618D01*
X100951901Y-120397618D02*
X101004282Y-120345237D01*
X101004282Y-120345237D02*
X101109044Y-120292856D01*
X101109044Y-120292856D02*
X101266187Y-120292856D01*
X101266187Y-120292856D02*
X101370949Y-120345237D01*
X101370949Y-120345237D02*
X101423330Y-120397618D01*
X101423330Y-120397618D02*
X101475711Y-120502380D01*
X101475711Y-120502380D02*
X101475711Y-120921428D01*
X101423330Y-119821428D02*
X101423330Y-119454761D01*
X101999520Y-119297618D02*
X101999520Y-119821428D01*
X101999520Y-119821428D02*
X100899520Y-119821428D01*
X100899520Y-119821428D02*
X100899520Y-119297618D01*
X100951901Y-118249999D02*
X100899520Y-118354761D01*
X100899520Y-118354761D02*
X100899520Y-118511904D01*
X100899520Y-118511904D02*
X100951901Y-118669047D01*
X100951901Y-118669047D02*
X101056663Y-118773809D01*
X101056663Y-118773809D02*
X101161425Y-118826190D01*
X101161425Y-118826190D02*
X101370949Y-118878571D01*
X101370949Y-118878571D02*
X101528092Y-118878571D01*
X101528092Y-118878571D02*
X101737616Y-118826190D01*
X101737616Y-118826190D02*
X101842378Y-118773809D01*
X101842378Y-118773809D02*
X101947140Y-118669047D01*
X101947140Y-118669047D02*
X101999520Y-118511904D01*
X101999520Y-118511904D02*
X101999520Y-118407142D01*
X101999520Y-118407142D02*
X101947140Y-118249999D01*
X101947140Y-118249999D02*
X101894759Y-118197618D01*
X101894759Y-118197618D02*
X101528092Y-118197618D01*
X101528092Y-118197618D02*
X101528092Y-118407142D01*
X175899520Y-104299999D02*
X175899520Y-104090475D01*
X175899520Y-104090475D02*
X175951901Y-103985713D01*
X175951901Y-103985713D02*
X176056663Y-103880951D01*
X176056663Y-103880951D02*
X176266187Y-103828570D01*
X176266187Y-103828570D02*
X176632854Y-103828570D01*
X176632854Y-103828570D02*
X176842378Y-103880951D01*
X176842378Y-103880951D02*
X176947140Y-103985713D01*
X176947140Y-103985713D02*
X176999520Y-104090475D01*
X176999520Y-104090475D02*
X176999520Y-104299999D01*
X176999520Y-104299999D02*
X176947140Y-104404761D01*
X176947140Y-104404761D02*
X176842378Y-104509523D01*
X176842378Y-104509523D02*
X176632854Y-104561904D01*
X176632854Y-104561904D02*
X176266187Y-104561904D01*
X176266187Y-104561904D02*
X176056663Y-104509523D01*
X176056663Y-104509523D02*
X175951901Y-104404761D01*
X175951901Y-104404761D02*
X175899520Y-104299999D01*
X176999520Y-103357142D02*
X175899520Y-103357142D01*
X175899520Y-103357142D02*
X175899520Y-102938094D01*
X175899520Y-102938094D02*
X175951901Y-102833332D01*
X175951901Y-102833332D02*
X176004282Y-102780951D01*
X176004282Y-102780951D02*
X176109044Y-102728570D01*
X176109044Y-102728570D02*
X176266187Y-102728570D01*
X176266187Y-102728570D02*
X176370949Y-102780951D01*
X176370949Y-102780951D02*
X176423330Y-102833332D01*
X176423330Y-102833332D02*
X176475711Y-102938094D01*
X176475711Y-102938094D02*
X176475711Y-103357142D01*
X176423330Y-102257142D02*
X176423330Y-101890475D01*
X176999520Y-101733332D02*
X176999520Y-102257142D01*
X176999520Y-102257142D02*
X175899520Y-102257142D01*
X175899520Y-102257142D02*
X175899520Y-101733332D01*
X176999520Y-101261904D02*
X175899520Y-101261904D01*
X175899520Y-101261904D02*
X176999520Y-100633332D01*
X176999520Y-100633332D02*
X175899520Y-100633332D01*
X176999520Y-99585713D02*
X176999520Y-100109523D01*
X176999520Y-100109523D02*
X175899520Y-100109523D01*
X175899520Y-99009523D02*
X175899520Y-98799999D01*
X175899520Y-98799999D02*
X175951901Y-98695237D01*
X175951901Y-98695237D02*
X176056663Y-98590475D01*
X176056663Y-98590475D02*
X176266187Y-98538094D01*
X176266187Y-98538094D02*
X176632854Y-98538094D01*
X176632854Y-98538094D02*
X176842378Y-98590475D01*
X176842378Y-98590475D02*
X176947140Y-98695237D01*
X176947140Y-98695237D02*
X176999520Y-98799999D01*
X176999520Y-98799999D02*
X176999520Y-99009523D01*
X176999520Y-99009523D02*
X176947140Y-99114285D01*
X176947140Y-99114285D02*
X176842378Y-99219047D01*
X176842378Y-99219047D02*
X176632854Y-99271428D01*
X176632854Y-99271428D02*
X176266187Y-99271428D01*
X176266187Y-99271428D02*
X176056663Y-99219047D01*
X176056663Y-99219047D02*
X175951901Y-99114285D01*
X175951901Y-99114285D02*
X175899520Y-99009523D01*
X175951901Y-97490475D02*
X175899520Y-97595237D01*
X175899520Y-97595237D02*
X175899520Y-97752380D01*
X175899520Y-97752380D02*
X175951901Y-97909523D01*
X175951901Y-97909523D02*
X176056663Y-98014285D01*
X176056663Y-98014285D02*
X176161425Y-98066666D01*
X176161425Y-98066666D02*
X176370949Y-98119047D01*
X176370949Y-98119047D02*
X176528092Y-98119047D01*
X176528092Y-98119047D02*
X176737616Y-98066666D01*
X176737616Y-98066666D02*
X176842378Y-98014285D01*
X176842378Y-98014285D02*
X176947140Y-97909523D01*
X176947140Y-97909523D02*
X176999520Y-97752380D01*
X176999520Y-97752380D02*
X176999520Y-97647618D01*
X176999520Y-97647618D02*
X176947140Y-97490475D01*
X176947140Y-97490475D02*
X176894759Y-97438094D01*
X176894759Y-97438094D02*
X176528092Y-97438094D01*
X176528092Y-97438094D02*
X176528092Y-97647618D01*
D12*
X132799999Y-98544742D02*
X132228571Y-98544742D01*
X132228571Y-98544742D02*
X132228571Y-97344742D01*
X133200000Y-98544742D02*
X133200000Y-97344742D01*
X134400000Y-97401885D02*
X134285715Y-97344742D01*
X134285715Y-97344742D02*
X134114286Y-97344742D01*
X134114286Y-97344742D02*
X133942857Y-97401885D01*
X133942857Y-97401885D02*
X133828572Y-97516171D01*
X133828572Y-97516171D02*
X133771429Y-97630457D01*
X133771429Y-97630457D02*
X133714286Y-97859028D01*
X133714286Y-97859028D02*
X133714286Y-98030457D01*
X133714286Y-98030457D02*
X133771429Y-98259028D01*
X133771429Y-98259028D02*
X133828572Y-98373314D01*
X133828572Y-98373314D02*
X133942857Y-98487600D01*
X133942857Y-98487600D02*
X134114286Y-98544742D01*
X134114286Y-98544742D02*
X134228572Y-98544742D01*
X134228572Y-98544742D02*
X134400000Y-98487600D01*
X134400000Y-98487600D02*
X134457143Y-98430457D01*
X134457143Y-98430457D02*
X134457143Y-98030457D01*
X134457143Y-98030457D02*
X134228572Y-98030457D01*
X134971429Y-98544742D02*
X134971429Y-97344742D01*
X134971429Y-97916171D02*
X135657143Y-97916171D01*
X135657143Y-98544742D02*
X135657143Y-97344742D01*
X136057143Y-97344742D02*
X136742858Y-97344742D01*
X136400000Y-98544742D02*
X136400000Y-97344742D01*
X137085715Y-98201885D02*
X137657144Y-98201885D01*
X136971429Y-98544742D02*
X137371429Y-97344742D01*
X137371429Y-97344742D02*
X137771429Y-98544742D01*
X138171429Y-98544742D02*
X138171429Y-97344742D01*
X138171429Y-97344742D02*
X138628572Y-97344742D01*
X138628572Y-97344742D02*
X138742857Y-97401885D01*
X138742857Y-97401885D02*
X138800000Y-97459028D01*
X138800000Y-97459028D02*
X138857143Y-97573314D01*
X138857143Y-97573314D02*
X138857143Y-97744742D01*
X138857143Y-97744742D02*
X138800000Y-97859028D01*
X138800000Y-97859028D02*
X138742857Y-97916171D01*
X138742857Y-97916171D02*
X138628572Y-97973314D01*
X138628572Y-97973314D02*
X138171429Y-97973314D01*
X140057143Y-98544742D02*
X139657143Y-97973314D01*
X139371429Y-98544742D02*
X139371429Y-97344742D01*
X139371429Y-97344742D02*
X139828572Y-97344742D01*
X139828572Y-97344742D02*
X139942857Y-97401885D01*
X139942857Y-97401885D02*
X140000000Y-97459028D01*
X140000000Y-97459028D02*
X140057143Y-97573314D01*
X140057143Y-97573314D02*
X140057143Y-97744742D01*
X140057143Y-97744742D02*
X140000000Y-97859028D01*
X140000000Y-97859028D02*
X139942857Y-97916171D01*
X139942857Y-97916171D02*
X139828572Y-97973314D01*
X139828572Y-97973314D02*
X139371429Y-97973314D01*
X140514286Y-98487600D02*
X140685715Y-98544742D01*
X140685715Y-98544742D02*
X140971429Y-98544742D01*
X140971429Y-98544742D02*
X141085715Y-98487600D01*
X141085715Y-98487600D02*
X141142857Y-98430457D01*
X141142857Y-98430457D02*
X141200000Y-98316171D01*
X141200000Y-98316171D02*
X141200000Y-98201885D01*
X141200000Y-98201885D02*
X141142857Y-98087600D01*
X141142857Y-98087600D02*
X141085715Y-98030457D01*
X141085715Y-98030457D02*
X140971429Y-97973314D01*
X140971429Y-97973314D02*
X140742857Y-97916171D01*
X140742857Y-97916171D02*
X140628572Y-97859028D01*
X140628572Y-97859028D02*
X140571429Y-97801885D01*
X140571429Y-97801885D02*
X140514286Y-97687600D01*
X140514286Y-97687600D02*
X140514286Y-97573314D01*
X140514286Y-97573314D02*
X140571429Y-97459028D01*
X140571429Y-97459028D02*
X140628572Y-97401885D01*
X140628572Y-97401885D02*
X140742857Y-97344742D01*
X140742857Y-97344742D02*
X141028572Y-97344742D01*
X141028572Y-97344742D02*
X141200000Y-97401885D01*
X141714286Y-98087600D02*
X142628572Y-98087600D01*
X143085714Y-97344742D02*
X143371428Y-98544742D01*
X143371428Y-98544742D02*
X143600000Y-97687600D01*
X143600000Y-97687600D02*
X143828571Y-98544742D01*
X143828571Y-98544742D02*
X144114286Y-97344742D01*
X145428572Y-97459028D02*
X145485715Y-97401885D01*
X145485715Y-97401885D02*
X145600001Y-97344742D01*
X145600001Y-97344742D02*
X145885715Y-97344742D01*
X145885715Y-97344742D02*
X146000001Y-97401885D01*
X146000001Y-97401885D02*
X146057143Y-97459028D01*
X146057143Y-97459028D02*
X146114286Y-97573314D01*
X146114286Y-97573314D02*
X146114286Y-97687600D01*
X146114286Y-97687600D02*
X146057143Y-97859028D01*
X146057143Y-97859028D02*
X145371429Y-98544742D01*
X145371429Y-98544742D02*
X146114286Y-98544742D01*
X146628572Y-98430457D02*
X146685715Y-98487600D01*
X146685715Y-98487600D02*
X146628572Y-98544742D01*
X146628572Y-98544742D02*
X146571429Y-98487600D01*
X146571429Y-98487600D02*
X146628572Y-98430457D01*
X146628572Y-98430457D02*
X146628572Y-98544742D01*
X147428572Y-97344742D02*
X147542858Y-97344742D01*
X147542858Y-97344742D02*
X147657144Y-97401885D01*
X147657144Y-97401885D02*
X147714287Y-97459028D01*
X147714287Y-97459028D02*
X147771429Y-97573314D01*
X147771429Y-97573314D02*
X147828572Y-97801885D01*
X147828572Y-97801885D02*
X147828572Y-98087600D01*
X147828572Y-98087600D02*
X147771429Y-98316171D01*
X147771429Y-98316171D02*
X147714287Y-98430457D01*
X147714287Y-98430457D02*
X147657144Y-98487600D01*
X147657144Y-98487600D02*
X147542858Y-98544742D01*
X147542858Y-98544742D02*
X147428572Y-98544742D01*
X147428572Y-98544742D02*
X147314287Y-98487600D01*
X147314287Y-98487600D02*
X147257144Y-98430457D01*
X147257144Y-98430457D02*
X147200001Y-98316171D01*
X147200001Y-98316171D02*
X147142858Y-98087600D01*
X147142858Y-98087600D02*
X147142858Y-97801885D01*
X147142858Y-97801885D02*
X147200001Y-97573314D01*
X147200001Y-97573314D02*
X147257144Y-97459028D01*
X147257144Y-97459028D02*
X147314287Y-97401885D01*
X147314287Y-97401885D02*
X147428572Y-97344742D01*
D13*
X101900000Y-95017114D02*
X101900000Y-96302828D01*
X101900000Y-96302828D02*
X101814285Y-96559971D01*
X101814285Y-96559971D02*
X101642857Y-96731400D01*
X101642857Y-96731400D02*
X101385714Y-96817114D01*
X101385714Y-96817114D02*
X101214285Y-96817114D01*
X102671429Y-96302828D02*
X103528572Y-96302828D01*
X102500000Y-96817114D02*
X103100000Y-95017114D01*
X103100000Y-95017114D02*
X103700000Y-96817114D01*
X104042857Y-95017114D02*
X104642857Y-96817114D01*
X104642857Y-96817114D02*
X105242857Y-95017114D01*
X105757143Y-96302828D02*
X106614286Y-96302828D01*
X105585714Y-96817114D02*
X106185714Y-95017114D01*
X106185714Y-95017114D02*
X106785714Y-96817114D01*
X107300000Y-96731400D02*
X107557143Y-96817114D01*
X107557143Y-96817114D02*
X107985714Y-96817114D01*
X107985714Y-96817114D02*
X108157143Y-96731400D01*
X108157143Y-96731400D02*
X108242857Y-96645685D01*
X108242857Y-96645685D02*
X108328571Y-96474257D01*
X108328571Y-96474257D02*
X108328571Y-96302828D01*
X108328571Y-96302828D02*
X108242857Y-96131400D01*
X108242857Y-96131400D02*
X108157143Y-96045685D01*
X108157143Y-96045685D02*
X107985714Y-95959971D01*
X107985714Y-95959971D02*
X107642857Y-95874257D01*
X107642857Y-95874257D02*
X107471428Y-95788542D01*
X107471428Y-95788542D02*
X107385714Y-95702828D01*
X107385714Y-95702828D02*
X107300000Y-95531400D01*
X107300000Y-95531400D02*
X107300000Y-95359971D01*
X107300000Y-95359971D02*
X107385714Y-95188542D01*
X107385714Y-95188542D02*
X107471428Y-95102828D01*
X107471428Y-95102828D02*
X107642857Y-95017114D01*
X107642857Y-95017114D02*
X108071428Y-95017114D01*
X108071428Y-95017114D02*
X108328571Y-95102828D01*
X111328572Y-96817114D02*
X110471429Y-96817114D01*
X110471429Y-96817114D02*
X110471429Y-95017114D01*
X112185715Y-96817114D02*
X112014286Y-96731400D01*
X112014286Y-96731400D02*
X111928572Y-96645685D01*
X111928572Y-96645685D02*
X111842858Y-96474257D01*
X111842858Y-96474257D02*
X111842858Y-95959971D01*
X111842858Y-95959971D02*
X111928572Y-95788542D01*
X111928572Y-95788542D02*
X112014286Y-95702828D01*
X112014286Y-95702828D02*
X112185715Y-95617114D01*
X112185715Y-95617114D02*
X112442858Y-95617114D01*
X112442858Y-95617114D02*
X112614286Y-95702828D01*
X112614286Y-95702828D02*
X112700001Y-95788542D01*
X112700001Y-95788542D02*
X112785715Y-95959971D01*
X112785715Y-95959971D02*
X112785715Y-96474257D01*
X112785715Y-96474257D02*
X112700001Y-96645685D01*
X112700001Y-96645685D02*
X112614286Y-96731400D01*
X112614286Y-96731400D02*
X112442858Y-96817114D01*
X112442858Y-96817114D02*
X112185715Y-96817114D01*
X114328572Y-95617114D02*
X114328572Y-97074257D01*
X114328572Y-97074257D02*
X114242857Y-97245685D01*
X114242857Y-97245685D02*
X114157143Y-97331400D01*
X114157143Y-97331400D02*
X113985714Y-97417114D01*
X113985714Y-97417114D02*
X113728572Y-97417114D01*
X113728572Y-97417114D02*
X113557143Y-97331400D01*
X114328572Y-96731400D02*
X114157143Y-96817114D01*
X114157143Y-96817114D02*
X113814286Y-96817114D01*
X113814286Y-96817114D02*
X113642857Y-96731400D01*
X113642857Y-96731400D02*
X113557143Y-96645685D01*
X113557143Y-96645685D02*
X113471429Y-96474257D01*
X113471429Y-96474257D02*
X113471429Y-95959971D01*
X113471429Y-95959971D02*
X113557143Y-95788542D01*
X113557143Y-95788542D02*
X113642857Y-95702828D01*
X113642857Y-95702828D02*
X113814286Y-95617114D01*
X113814286Y-95617114D02*
X114157143Y-95617114D01*
X114157143Y-95617114D02*
X114328572Y-95702828D01*
X115957143Y-95617114D02*
X115957143Y-97074257D01*
X115957143Y-97074257D02*
X115871428Y-97245685D01*
X115871428Y-97245685D02*
X115785714Y-97331400D01*
X115785714Y-97331400D02*
X115614285Y-97417114D01*
X115614285Y-97417114D02*
X115357143Y-97417114D01*
X115357143Y-97417114D02*
X115185714Y-97331400D01*
X115957143Y-96731400D02*
X115785714Y-96817114D01*
X115785714Y-96817114D02*
X115442857Y-96817114D01*
X115442857Y-96817114D02*
X115271428Y-96731400D01*
X115271428Y-96731400D02*
X115185714Y-96645685D01*
X115185714Y-96645685D02*
X115100000Y-96474257D01*
X115100000Y-96474257D02*
X115100000Y-95959971D01*
X115100000Y-95959971D02*
X115185714Y-95788542D01*
X115185714Y-95788542D02*
X115271428Y-95702828D01*
X115271428Y-95702828D02*
X115442857Y-95617114D01*
X115442857Y-95617114D02*
X115785714Y-95617114D01*
X115785714Y-95617114D02*
X115957143Y-95702828D01*
X117499999Y-96731400D02*
X117328571Y-96817114D01*
X117328571Y-96817114D02*
X116985714Y-96817114D01*
X116985714Y-96817114D02*
X116814285Y-96731400D01*
X116814285Y-96731400D02*
X116728571Y-96559971D01*
X116728571Y-96559971D02*
X116728571Y-95874257D01*
X116728571Y-95874257D02*
X116814285Y-95702828D01*
X116814285Y-95702828D02*
X116985714Y-95617114D01*
X116985714Y-95617114D02*
X117328571Y-95617114D01*
X117328571Y-95617114D02*
X117499999Y-95702828D01*
X117499999Y-95702828D02*
X117585714Y-95874257D01*
X117585714Y-95874257D02*
X117585714Y-96045685D01*
X117585714Y-96045685D02*
X116728571Y-96217114D01*
X118357142Y-96817114D02*
X118357142Y-95617114D01*
X118357142Y-95959971D02*
X118442856Y-95788542D01*
X118442856Y-95788542D02*
X118528571Y-95702828D01*
X118528571Y-95702828D02*
X118699999Y-95617114D01*
X118699999Y-95617114D02*
X118871428Y-95617114D01*
D10*
X153338095Y-112654819D02*
X153338095Y-111654819D01*
X153338095Y-112131009D02*
X153909523Y-112131009D01*
X153909523Y-112654819D02*
X153909523Y-111654819D01*
X154338095Y-111750057D02*
X154385714Y-111702438D01*
X154385714Y-111702438D02*
X154480952Y-111654819D01*
X154480952Y-111654819D02*
X154719047Y-111654819D01*
X154719047Y-111654819D02*
X154814285Y-111702438D01*
X154814285Y-111702438D02*
X154861904Y-111750057D01*
X154861904Y-111750057D02*
X154909523Y-111845295D01*
X154909523Y-111845295D02*
X154909523Y-111940533D01*
X154909523Y-111940533D02*
X154861904Y-112083390D01*
X154861904Y-112083390D02*
X154290476Y-112654819D01*
X154290476Y-112654819D02*
X154909523Y-112654819D01*
X155966666Y-152074819D02*
X155966666Y-152789104D01*
X155966666Y-152789104D02*
X155919047Y-152931961D01*
X155919047Y-152931961D02*
X155823809Y-153027200D01*
X155823809Y-153027200D02*
X155680952Y-153074819D01*
X155680952Y-153074819D02*
X155585714Y-153074819D01*
X156871428Y-152074819D02*
X156680952Y-152074819D01*
X156680952Y-152074819D02*
X156585714Y-152122438D01*
X156585714Y-152122438D02*
X156538095Y-152170057D01*
X156538095Y-152170057D02*
X156442857Y-152312914D01*
X156442857Y-152312914D02*
X156395238Y-152503390D01*
X156395238Y-152503390D02*
X156395238Y-152884342D01*
X156395238Y-152884342D02*
X156442857Y-152979580D01*
X156442857Y-152979580D02*
X156490476Y-153027200D01*
X156490476Y-153027200D02*
X156585714Y-153074819D01*
X156585714Y-153074819D02*
X156776190Y-153074819D01*
X156776190Y-153074819D02*
X156871428Y-153027200D01*
X156871428Y-153027200D02*
X156919047Y-152979580D01*
X156919047Y-152979580D02*
X156966666Y-152884342D01*
X156966666Y-152884342D02*
X156966666Y-152646247D01*
X156966666Y-152646247D02*
X156919047Y-152551009D01*
X156919047Y-152551009D02*
X156871428Y-152503390D01*
X156871428Y-152503390D02*
X156776190Y-152455771D01*
X156776190Y-152455771D02*
X156585714Y-152455771D01*
X156585714Y-152455771D02*
X156490476Y-152503390D01*
X156490476Y-152503390D02*
X156442857Y-152551009D01*
X156442857Y-152551009D02*
X156395238Y-152646247D01*
X175373333Y-112009580D02*
X175325714Y-112057200D01*
X175325714Y-112057200D02*
X175182857Y-112104819D01*
X175182857Y-112104819D02*
X175087619Y-112104819D01*
X175087619Y-112104819D02*
X174944762Y-112057200D01*
X174944762Y-112057200D02*
X174849524Y-111961961D01*
X174849524Y-111961961D02*
X174801905Y-111866723D01*
X174801905Y-111866723D02*
X174754286Y-111676247D01*
X174754286Y-111676247D02*
X174754286Y-111533390D01*
X174754286Y-111533390D02*
X174801905Y-111342914D01*
X174801905Y-111342914D02*
X174849524Y-111247676D01*
X174849524Y-111247676D02*
X174944762Y-111152438D01*
X174944762Y-111152438D02*
X175087619Y-111104819D01*
X175087619Y-111104819D02*
X175182857Y-111104819D01*
X175182857Y-111104819D02*
X175325714Y-111152438D01*
X175325714Y-111152438D02*
X175373333Y-111200057D01*
X176325714Y-112104819D02*
X175754286Y-112104819D01*
X176040000Y-112104819D02*
X176040000Y-111104819D01*
X176040000Y-111104819D02*
X175944762Y-111247676D01*
X175944762Y-111247676D02*
X175849524Y-111342914D01*
X175849524Y-111342914D02*
X175754286Y-111390533D01*
X174103333Y-118809580D02*
X174055714Y-118857200D01*
X174055714Y-118857200D02*
X173912857Y-118904819D01*
X173912857Y-118904819D02*
X173817619Y-118904819D01*
X173817619Y-118904819D02*
X173674762Y-118857200D01*
X173674762Y-118857200D02*
X173579524Y-118761961D01*
X173579524Y-118761961D02*
X173531905Y-118666723D01*
X173531905Y-118666723D02*
X173484286Y-118476247D01*
X173484286Y-118476247D02*
X173484286Y-118333390D01*
X173484286Y-118333390D02*
X173531905Y-118142914D01*
X173531905Y-118142914D02*
X173579524Y-118047676D01*
X173579524Y-118047676D02*
X173674762Y-117952438D01*
X173674762Y-117952438D02*
X173817619Y-117904819D01*
X173817619Y-117904819D02*
X173912857Y-117904819D01*
X173912857Y-117904819D02*
X174055714Y-117952438D01*
X174055714Y-117952438D02*
X174103333Y-118000057D01*
X174484286Y-118000057D02*
X174531905Y-117952438D01*
X174531905Y-117952438D02*
X174627143Y-117904819D01*
X174627143Y-117904819D02*
X174865238Y-117904819D01*
X174865238Y-117904819D02*
X174960476Y-117952438D01*
X174960476Y-117952438D02*
X175008095Y-118000057D01*
X175008095Y-118000057D02*
X175055714Y-118095295D01*
X175055714Y-118095295D02*
X175055714Y-118190533D01*
X175055714Y-118190533D02*
X175008095Y-118333390D01*
X175008095Y-118333390D02*
X174436667Y-118904819D01*
X174436667Y-118904819D02*
X175055714Y-118904819D01*
X125138095Y-150824819D02*
X125138095Y-149824819D01*
X125138095Y-150301009D02*
X125709523Y-150301009D01*
X125709523Y-150824819D02*
X125709523Y-149824819D01*
X126090476Y-149824819D02*
X126709523Y-149824819D01*
X126709523Y-149824819D02*
X126376190Y-150205771D01*
X126376190Y-150205771D02*
X126519047Y-150205771D01*
X126519047Y-150205771D02*
X126614285Y-150253390D01*
X126614285Y-150253390D02*
X126661904Y-150301009D01*
X126661904Y-150301009D02*
X126709523Y-150396247D01*
X126709523Y-150396247D02*
X126709523Y-150634342D01*
X126709523Y-150634342D02*
X126661904Y-150729580D01*
X126661904Y-150729580D02*
X126614285Y-150777200D01*
X126614285Y-150777200D02*
X126519047Y-150824819D01*
X126519047Y-150824819D02*
X126233333Y-150824819D01*
X126233333Y-150824819D02*
X126138095Y-150777200D01*
X126138095Y-150777200D02*
X126090476Y-150729580D01*
X153338095Y-150824819D02*
X153338095Y-149824819D01*
X153338095Y-150301009D02*
X153909523Y-150301009D01*
X153909523Y-150824819D02*
X153909523Y-149824819D01*
X154814285Y-150158152D02*
X154814285Y-150824819D01*
X154576190Y-149777200D02*
X154338095Y-150491485D01*
X154338095Y-150491485D02*
X154957142Y-150491485D01*
X111666666Y-156704819D02*
X111666666Y-157419104D01*
X111666666Y-157419104D02*
X111619047Y-157561961D01*
X111619047Y-157561961D02*
X111523809Y-157657200D01*
X111523809Y-157657200D02*
X111380952Y-157704819D01*
X111380952Y-157704819D02*
X111285714Y-157704819D01*
X112571428Y-157038152D02*
X112571428Y-157704819D01*
X112333333Y-156657200D02*
X112095238Y-157371485D01*
X112095238Y-157371485D02*
X112714285Y-157371485D01*
X106643333Y-146084819D02*
X106310000Y-145608628D01*
X106071905Y-146084819D02*
X106071905Y-145084819D01*
X106071905Y-145084819D02*
X106452857Y-145084819D01*
X106452857Y-145084819D02*
X106548095Y-145132438D01*
X106548095Y-145132438D02*
X106595714Y-145180057D01*
X106595714Y-145180057D02*
X106643333Y-145275295D01*
X106643333Y-145275295D02*
X106643333Y-145418152D01*
X106643333Y-145418152D02*
X106595714Y-145513390D01*
X106595714Y-145513390D02*
X106548095Y-145561009D01*
X106548095Y-145561009D02*
X106452857Y-145608628D01*
X106452857Y-145608628D02*
X106071905Y-145608628D01*
X107024286Y-145180057D02*
X107071905Y-145132438D01*
X107071905Y-145132438D02*
X107167143Y-145084819D01*
X107167143Y-145084819D02*
X107405238Y-145084819D01*
X107405238Y-145084819D02*
X107500476Y-145132438D01*
X107500476Y-145132438D02*
X107548095Y-145180057D01*
X107548095Y-145180057D02*
X107595714Y-145275295D01*
X107595714Y-145275295D02*
X107595714Y-145370533D01*
X107595714Y-145370533D02*
X107548095Y-145513390D01*
X107548095Y-145513390D02*
X106976667Y-146084819D01*
X106976667Y-146084819D02*
X107595714Y-146084819D01*
X170991905Y-148414819D02*
X170991905Y-147414819D01*
X170991905Y-147414819D02*
X171230000Y-147414819D01*
X171230000Y-147414819D02*
X171372857Y-147462438D01*
X171372857Y-147462438D02*
X171468095Y-147557676D01*
X171468095Y-147557676D02*
X171515714Y-147652914D01*
X171515714Y-147652914D02*
X171563333Y-147843390D01*
X171563333Y-147843390D02*
X171563333Y-147986247D01*
X171563333Y-147986247D02*
X171515714Y-148176723D01*
X171515714Y-148176723D02*
X171468095Y-148271961D01*
X171468095Y-148271961D02*
X171372857Y-148367200D01*
X171372857Y-148367200D02*
X171230000Y-148414819D01*
X171230000Y-148414819D02*
X170991905Y-148414819D01*
X172515714Y-148414819D02*
X171944286Y-148414819D01*
X172230000Y-148414819D02*
X172230000Y-147414819D01*
X172230000Y-147414819D02*
X172134762Y-147557676D01*
X172134762Y-147557676D02*
X172039524Y-147652914D01*
X172039524Y-147652914D02*
X171944286Y-147700533D01*
X163935714Y-90869104D02*
X164411904Y-90869104D01*
X163840476Y-91154819D02*
X164173809Y-90154819D01*
X164173809Y-90154819D02*
X164507142Y-91154819D01*
X165364285Y-91154819D02*
X164792857Y-91154819D01*
X165078571Y-91154819D02*
X165078571Y-90154819D01*
X165078571Y-90154819D02*
X164983333Y-90297676D01*
X164983333Y-90297676D02*
X164888095Y-90392914D01*
X164888095Y-90392914D02*
X164792857Y-90440533D01*
X163643333Y-143084819D02*
X163310000Y-142608628D01*
X163071905Y-143084819D02*
X163071905Y-142084819D01*
X163071905Y-142084819D02*
X163452857Y-142084819D01*
X163452857Y-142084819D02*
X163548095Y-142132438D01*
X163548095Y-142132438D02*
X163595714Y-142180057D01*
X163595714Y-142180057D02*
X163643333Y-142275295D01*
X163643333Y-142275295D02*
X163643333Y-142418152D01*
X163643333Y-142418152D02*
X163595714Y-142513390D01*
X163595714Y-142513390D02*
X163548095Y-142561009D01*
X163548095Y-142561009D02*
X163452857Y-142608628D01*
X163452857Y-142608628D02*
X163071905Y-142608628D01*
X164595714Y-143084819D02*
X164024286Y-143084819D01*
X164310000Y-143084819D02*
X164310000Y-142084819D01*
X164310000Y-142084819D02*
X164214762Y-142227676D01*
X164214762Y-142227676D02*
X164119524Y-142322914D01*
X164119524Y-142322914D02*
X164024286Y-142370533D01*
X154566666Y-118794819D02*
X154566666Y-119509104D01*
X154566666Y-119509104D02*
X154519047Y-119651961D01*
X154519047Y-119651961D02*
X154423809Y-119747200D01*
X154423809Y-119747200D02*
X154280952Y-119794819D01*
X154280952Y-119794819D02*
X154185714Y-119794819D01*
X154995238Y-118890057D02*
X155042857Y-118842438D01*
X155042857Y-118842438D02*
X155138095Y-118794819D01*
X155138095Y-118794819D02*
X155376190Y-118794819D01*
X155376190Y-118794819D02*
X155471428Y-118842438D01*
X155471428Y-118842438D02*
X155519047Y-118890057D01*
X155519047Y-118890057D02*
X155566666Y-118985295D01*
X155566666Y-118985295D02*
X155566666Y-119080533D01*
X155566666Y-119080533D02*
X155519047Y-119223390D01*
X155519047Y-119223390D02*
X154947619Y-119794819D01*
X154947619Y-119794819D02*
X155566666Y-119794819D01*
X121835714Y-124979104D02*
X122311904Y-124979104D01*
X121740476Y-125264819D02*
X122073809Y-124264819D01*
X122073809Y-124264819D02*
X122407142Y-125264819D01*
X122692857Y-124360057D02*
X122740476Y-124312438D01*
X122740476Y-124312438D02*
X122835714Y-124264819D01*
X122835714Y-124264819D02*
X123073809Y-124264819D01*
X123073809Y-124264819D02*
X123169047Y-124312438D01*
X123169047Y-124312438D02*
X123216666Y-124360057D01*
X123216666Y-124360057D02*
X123264285Y-124455295D01*
X123264285Y-124455295D02*
X123264285Y-124550533D01*
X123264285Y-124550533D02*
X123216666Y-124693390D01*
X123216666Y-124693390D02*
X122645238Y-125264819D01*
X122645238Y-125264819D02*
X123264285Y-125264819D01*
X125138095Y-112654819D02*
X125138095Y-111654819D01*
X125138095Y-112131009D02*
X125709523Y-112131009D01*
X125709523Y-112654819D02*
X125709523Y-111654819D01*
X126709523Y-112654819D02*
X126138095Y-112654819D01*
X126423809Y-112654819D02*
X126423809Y-111654819D01*
X126423809Y-111654819D02*
X126328571Y-111797676D01*
X126328571Y-111797676D02*
X126233333Y-111892914D01*
X126233333Y-111892914D02*
X126138095Y-111940533D01*
X123366666Y-152074819D02*
X123366666Y-152789104D01*
X123366666Y-152789104D02*
X123319047Y-152931961D01*
X123319047Y-152931961D02*
X123223809Y-153027200D01*
X123223809Y-153027200D02*
X123080952Y-153074819D01*
X123080952Y-153074819D02*
X122985714Y-153074819D01*
X123747619Y-152074819D02*
X124414285Y-152074819D01*
X124414285Y-152074819D02*
X123985714Y-153074819D01*
X174103333Y-129809580D02*
X174055714Y-129857200D01*
X174055714Y-129857200D02*
X173912857Y-129904819D01*
X173912857Y-129904819D02*
X173817619Y-129904819D01*
X173817619Y-129904819D02*
X173674762Y-129857200D01*
X173674762Y-129857200D02*
X173579524Y-129761961D01*
X173579524Y-129761961D02*
X173531905Y-129666723D01*
X173531905Y-129666723D02*
X173484286Y-129476247D01*
X173484286Y-129476247D02*
X173484286Y-129333390D01*
X173484286Y-129333390D02*
X173531905Y-129142914D01*
X173531905Y-129142914D02*
X173579524Y-129047676D01*
X173579524Y-129047676D02*
X173674762Y-128952438D01*
X173674762Y-128952438D02*
X173817619Y-128904819D01*
X173817619Y-128904819D02*
X173912857Y-128904819D01*
X173912857Y-128904819D02*
X174055714Y-128952438D01*
X174055714Y-128952438D02*
X174103333Y-129000057D01*
X174436667Y-128904819D02*
X175055714Y-128904819D01*
X175055714Y-128904819D02*
X174722381Y-129285771D01*
X174722381Y-129285771D02*
X174865238Y-129285771D01*
X174865238Y-129285771D02*
X174960476Y-129333390D01*
X174960476Y-129333390D02*
X175008095Y-129381009D01*
X175008095Y-129381009D02*
X175055714Y-129476247D01*
X175055714Y-129476247D02*
X175055714Y-129714342D01*
X175055714Y-129714342D02*
X175008095Y-129809580D01*
X175008095Y-129809580D02*
X174960476Y-129857200D01*
X174960476Y-129857200D02*
X174865238Y-129904819D01*
X174865238Y-129904819D02*
X174579524Y-129904819D01*
X174579524Y-129904819D02*
X174484286Y-129857200D01*
X174484286Y-129857200D02*
X174436667Y-129809580D01*
X167666666Y-156704819D02*
X167666666Y-157419104D01*
X167666666Y-157419104D02*
X167619047Y-157561961D01*
X167619047Y-157561961D02*
X167523809Y-157657200D01*
X167523809Y-157657200D02*
X167380952Y-157704819D01*
X167380952Y-157704819D02*
X167285714Y-157704819D01*
X168047619Y-156704819D02*
X168666666Y-156704819D01*
X168666666Y-156704819D02*
X168333333Y-157085771D01*
X168333333Y-157085771D02*
X168476190Y-157085771D01*
X168476190Y-157085771D02*
X168571428Y-157133390D01*
X168571428Y-157133390D02*
X168619047Y-157181009D01*
X168619047Y-157181009D02*
X168666666Y-157276247D01*
X168666666Y-157276247D02*
X168666666Y-157514342D01*
X168666666Y-157514342D02*
X168619047Y-157609580D01*
X168619047Y-157609580D02*
X168571428Y-157657200D01*
X168571428Y-157657200D02*
X168476190Y-157704819D01*
X168476190Y-157704819D02*
X168190476Y-157704819D01*
X168190476Y-157704819D02*
X168095238Y-157657200D01*
X168095238Y-157657200D02*
X168047619Y-157609580D01*
%TO.C,U1*%
D14*
X162160000Y-120170000D02*
X162160000Y-140610000D01*
X162160000Y-140610000D02*
X167460000Y-140610000D01*
X163810000Y-120170000D02*
X162160000Y-120170000D01*
X167460000Y-120170000D02*
X165810000Y-120170000D01*
X167460000Y-140610000D02*
X167460000Y-120170000D01*
X165810000Y-120170000D02*
G75*
G02*
X163810000Y-120170000I-1000000J0D01*
G01*
%TO.C,J6*%
X154920000Y-156270000D02*
X154920000Y-156380000D01*
X154920000Y-156270000D02*
X157680000Y-156270000D01*
X154920000Y-156380000D02*
X157680000Y-156380000D01*
X157680000Y-156270000D02*
X157680000Y-156380000D01*
%TO.C,C1*%
D15*
X172800000Y-112765000D02*
X178280000Y-112765000D01*
X172800000Y-117235000D02*
X178280000Y-117235000D01*
%TO.C,C2*%
X172165000Y-119530000D02*
X176375000Y-119530000D01*
X172165000Y-122470000D02*
X176375000Y-122470000D01*
%TO.C,J5*%
D14*
X100590000Y-135940000D02*
X100590000Y-137360000D01*
X100590000Y-137360000D02*
X105090000Y-137360000D01*
X100590000Y-142140000D02*
X105090000Y-142140000D01*
X100590000Y-143560000D02*
X100590000Y-142140000D01*
X100900000Y-140700000D02*
X101500000Y-141000000D01*
X100900000Y-141300000D02*
X100900000Y-140700000D01*
X101500000Y-141000000D02*
X100900000Y-141300000D01*
X105090000Y-137360000D02*
X105090000Y-139750000D01*
X105090000Y-142140000D02*
X105090000Y-139750000D01*
X112310000Y-135940000D02*
X100590000Y-135940000D01*
X112310000Y-139750000D02*
X112310000Y-135940000D01*
X112310000Y-139750000D02*
X112310000Y-143560000D01*
X112310000Y-143560000D02*
X100590000Y-143560000D01*
X106200000Y-138250000D02*
X111700000Y-138250000D01*
X111700000Y-138750000D01*
X106200000Y-138750000D01*
X106200000Y-138250000D01*
X106200000Y-140750000D02*
X111700000Y-140750000D01*
X111700000Y-141250000D01*
X106200000Y-141250000D01*
X106200000Y-140750000D01*
%TO.C,C5*%
D15*
X102800000Y-113265000D02*
X108280000Y-113265000D01*
X102800000Y-117735000D02*
X108280000Y-117735000D01*
%TO.C,J4*%
D14*
X108320000Y-160200000D02*
X108320000Y-163800000D01*
X110200000Y-158320000D02*
X113800000Y-158320000D01*
X110200000Y-165680000D02*
X113800000Y-165680000D01*
X115680000Y-160200000D02*
X115680000Y-163800000D01*
%TO.C,R2*%
X103540000Y-146630000D02*
X110080000Y-146630000D01*
X103540000Y-146960000D02*
X103540000Y-146630000D01*
X103540000Y-149040000D02*
X103540000Y-149370000D01*
X103540000Y-149370000D02*
X110080000Y-149370000D01*
X110080000Y-146630000D02*
X110080000Y-146960000D01*
X110080000Y-149370000D02*
X110080000Y-149040000D01*
%TO.C,D1*%
X173290000Y-143920000D02*
X173290000Y-143764000D01*
X173290000Y-146236000D02*
X173290000Y-146080000D01*
X170058563Y-143920000D02*
G75*
G02*
X173290000Y-143764484I1671437J-1080000D01*
G01*
X170689039Y-143920000D02*
G75*
G02*
X172770961Y-143920000I1040961J-1080000D01*
G01*
X172770961Y-146080000D02*
G75*
G02*
X170689039Y-146080000I-1040961J1080000D01*
G01*
X173290000Y-146235516D02*
G75*
G02*
X170058563Y-146080000I-1560000J1235516D01*
G01*
%TO.C,A1*%
D15*
X157030000Y-92220000D02*
X157030000Y-108300000D01*
X157030000Y-92220000D02*
X172270000Y-92220000D01*
X172270000Y-92220000D02*
X172270000Y-108300000D01*
%TO.C,R1*%
D14*
X160540000Y-143630000D02*
X167080000Y-143630000D01*
X160540000Y-143960000D02*
X160540000Y-143630000D01*
X160540000Y-146040000D02*
X160540000Y-146370000D01*
X160540000Y-146370000D02*
X167080000Y-146370000D01*
X167080000Y-143630000D02*
X167080000Y-143960000D01*
X167080000Y-146370000D02*
X167080000Y-146040000D01*
%TO.C,J2*%
X153520000Y-120340000D02*
X154900000Y-120340000D01*
X153520000Y-121720000D02*
X153520000Y-120340000D01*
X153520000Y-122990000D02*
X153520000Y-148500000D01*
X153520000Y-122990000D02*
X156280000Y-122990000D01*
X153520000Y-148500000D02*
X156280000Y-148500000D01*
X156280000Y-122990000D02*
X156280000Y-148500000D01*
%TO.C,C4*%
D15*
X106865000Y-131830000D02*
X111075000Y-131830000D01*
X106865000Y-134770000D02*
X111075000Y-134770000D01*
%TO.C,G1*%
G36*
X136250000Y-167225000D02*
G01*
X136400000Y-167225000D01*
X136400000Y-167375000D01*
X136250000Y-167375000D01*
X136250000Y-167225000D01*
G37*
G36*
X136250000Y-167375000D02*
G01*
X136550000Y-167375000D01*
X136550000Y-167525000D01*
X136250000Y-167525000D01*
X136250000Y-167375000D01*
G37*
G36*
X136250000Y-168125000D02*
G01*
X137450000Y-168125000D01*
X137450000Y-168275000D01*
X136250000Y-168275000D01*
X136250000Y-168125000D01*
G37*
G36*
X136400000Y-167975000D02*
G01*
X136850000Y-167975000D01*
X136850000Y-168125000D01*
X136400000Y-168125000D01*
X136400000Y-167975000D01*
G37*
G36*
X136400000Y-168275000D02*
G01*
X136850000Y-168275000D01*
X136850000Y-168425000D01*
X136400000Y-168425000D01*
X136400000Y-168275000D01*
G37*
G36*
X136850000Y-167225000D02*
G01*
X137150000Y-167225000D01*
X137150000Y-167375000D01*
X136850000Y-167375000D01*
X136850000Y-167225000D01*
G37*
G36*
X136850000Y-167375000D02*
G01*
X137150000Y-167375000D01*
X137150000Y-167525000D01*
X136850000Y-167525000D01*
X136850000Y-167375000D01*
G37*
G36*
X136850000Y-168725000D02*
G01*
X137000000Y-168725000D01*
X137000000Y-168875000D01*
X136850000Y-168875000D01*
X136850000Y-168725000D01*
G37*
G36*
X137000000Y-161825000D02*
G01*
X137600000Y-161825000D01*
X137600000Y-161975000D01*
X137000000Y-161975000D01*
X137000000Y-161825000D01*
G37*
G36*
X137000000Y-164375000D02*
G01*
X137300000Y-164375000D01*
X137300000Y-164525000D01*
X137000000Y-164525000D01*
X137000000Y-164375000D01*
G37*
G36*
X137000000Y-164525000D02*
G01*
X137450000Y-164525000D01*
X137450000Y-164675000D01*
X137000000Y-164675000D01*
X137000000Y-164525000D01*
G37*
G36*
X137000000Y-164675000D02*
G01*
X137300000Y-164675000D01*
X137300000Y-164825000D01*
X137000000Y-164825000D01*
X137000000Y-164675000D01*
G37*
G36*
X137000000Y-165125000D02*
G01*
X137300000Y-165125000D01*
X137300000Y-165275000D01*
X137000000Y-165275000D01*
X137000000Y-165125000D01*
G37*
G36*
X137000000Y-165275000D02*
G01*
X137300000Y-165275000D01*
X137300000Y-165425000D01*
X137000000Y-165425000D01*
X137000000Y-165275000D01*
G37*
G36*
X137000000Y-165425000D02*
G01*
X137150000Y-165425000D01*
X137150000Y-165575000D01*
X137000000Y-165575000D01*
X137000000Y-165425000D01*
G37*
G36*
X137000000Y-165575000D02*
G01*
X137150000Y-165575000D01*
X137150000Y-165725000D01*
X137000000Y-165725000D01*
X137000000Y-165575000D01*
G37*
G36*
X137000000Y-165725000D02*
G01*
X137150000Y-165725000D01*
X137150000Y-165875000D01*
X137000000Y-165875000D01*
X137000000Y-165725000D01*
G37*
G36*
X137000000Y-166175000D02*
G01*
X137150000Y-166175000D01*
X137150000Y-166325000D01*
X137000000Y-166325000D01*
X137000000Y-166175000D01*
G37*
G36*
X137000000Y-166475000D02*
G01*
X137150000Y-166475000D01*
X137150000Y-166625000D01*
X137000000Y-166625000D01*
X137000000Y-166475000D01*
G37*
G36*
X137000000Y-166775000D02*
G01*
X137150000Y-166775000D01*
X137150000Y-166925000D01*
X137000000Y-166925000D01*
X137000000Y-166775000D01*
G37*
G36*
X137150000Y-161675000D02*
G01*
X137450000Y-161675000D01*
X137450000Y-161825000D01*
X137150000Y-161825000D01*
X137150000Y-161675000D01*
G37*
G36*
X137300000Y-161525000D02*
G01*
X137450000Y-161525000D01*
X137450000Y-161675000D01*
X137300000Y-161675000D01*
X137300000Y-161525000D01*
G37*
G36*
X137300000Y-161975000D02*
G01*
X137450000Y-161975000D01*
X137450000Y-162125000D01*
X137300000Y-162125000D01*
X137300000Y-161975000D01*
G37*
G36*
X137450000Y-168725000D02*
G01*
X137750000Y-168725000D01*
X137750000Y-168875000D01*
X137450000Y-168875000D01*
X137450000Y-168725000D01*
G37*
G36*
X137600000Y-164825000D02*
G01*
X137900000Y-164825000D01*
X137900000Y-164975000D01*
X137600000Y-164975000D01*
X137600000Y-164825000D01*
G37*
G36*
X137600000Y-165575000D02*
G01*
X138350000Y-165575000D01*
X138350000Y-165725000D01*
X137600000Y-165725000D01*
X137600000Y-165575000D01*
G37*
G36*
X137600000Y-165725000D02*
G01*
X138350000Y-165725000D01*
X138350000Y-165875000D01*
X137600000Y-165875000D01*
X137600000Y-165725000D01*
G37*
G36*
X137600000Y-165875000D02*
G01*
X142550000Y-165875000D01*
X142550000Y-166025000D01*
X137600000Y-166025000D01*
X137600000Y-165875000D01*
G37*
G36*
X137600000Y-166025000D02*
G01*
X137900000Y-166025000D01*
X137900000Y-166175000D01*
X137600000Y-166175000D01*
X137600000Y-166025000D01*
G37*
G36*
X137600000Y-166175000D02*
G01*
X137900000Y-166175000D01*
X137900000Y-166325000D01*
X137600000Y-166325000D01*
X137600000Y-166175000D01*
G37*
G36*
X137600000Y-166325000D02*
G01*
X137900000Y-166325000D01*
X137900000Y-166475000D01*
X137600000Y-166475000D01*
X137600000Y-166325000D01*
G37*
G36*
X137600000Y-166475000D02*
G01*
X137900000Y-166475000D01*
X137900000Y-166625000D01*
X137600000Y-166625000D01*
X137600000Y-166475000D01*
G37*
G36*
X137600000Y-166625000D02*
G01*
X137900000Y-166625000D01*
X137900000Y-166775000D01*
X137600000Y-166775000D01*
X137600000Y-166625000D01*
G37*
G36*
X137600000Y-166775000D02*
G01*
X137900000Y-166775000D01*
X137900000Y-166925000D01*
X137600000Y-166925000D01*
X137600000Y-166775000D01*
G37*
G36*
X137600000Y-166925000D02*
G01*
X137900000Y-166925000D01*
X137900000Y-167075000D01*
X137600000Y-167075000D01*
X137600000Y-166925000D01*
G37*
G36*
X137600000Y-167075000D02*
G01*
X137900000Y-167075000D01*
X137900000Y-167225000D01*
X137600000Y-167225000D01*
X137600000Y-167075000D01*
G37*
G36*
X137600000Y-167225000D02*
G01*
X137900000Y-167225000D01*
X137900000Y-167375000D01*
X137600000Y-167375000D01*
X137600000Y-167225000D01*
G37*
G36*
X137600000Y-167375000D02*
G01*
X137900000Y-167375000D01*
X137900000Y-167525000D01*
X137600000Y-167525000D01*
X137600000Y-167375000D01*
G37*
G36*
X137600000Y-167525000D02*
G01*
X137900000Y-167525000D01*
X137900000Y-167675000D01*
X137600000Y-167675000D01*
X137600000Y-167525000D01*
G37*
G36*
X137600000Y-167675000D02*
G01*
X137900000Y-167675000D01*
X137900000Y-167825000D01*
X137600000Y-167825000D01*
X137600000Y-167675000D01*
G37*
G36*
X137600000Y-168575000D02*
G01*
X137750000Y-168575000D01*
X137750000Y-168725000D01*
X137600000Y-168725000D01*
X137600000Y-168575000D01*
G37*
G36*
X137600000Y-169325000D02*
G01*
X142400000Y-169325000D01*
X142400000Y-169475000D01*
X137600000Y-169475000D01*
X137600000Y-169325000D01*
G37*
G36*
X137600000Y-169475000D02*
G01*
X142400000Y-169475000D01*
X142400000Y-169625000D01*
X137600000Y-169625000D01*
X137600000Y-169475000D01*
G37*
G36*
X137750000Y-162875000D02*
G01*
X138350000Y-162875000D01*
X138350000Y-163025000D01*
X137750000Y-163025000D01*
X137750000Y-162875000D01*
G37*
G36*
X137750000Y-163025000D02*
G01*
X138200000Y-163025000D01*
X138200000Y-163175000D01*
X137750000Y-163175000D01*
X137750000Y-163025000D01*
G37*
G36*
X137750000Y-163175000D02*
G01*
X138200000Y-163175000D01*
X138200000Y-163325000D01*
X137750000Y-163325000D01*
X137750000Y-163175000D01*
G37*
G36*
X137750000Y-163325000D02*
G01*
X138200000Y-163325000D01*
X138200000Y-163475000D01*
X137750000Y-163475000D01*
X137750000Y-163325000D01*
G37*
G36*
X137750000Y-163475000D02*
G01*
X139250000Y-163475000D01*
X139250000Y-163625000D01*
X137750000Y-163625000D01*
X137750000Y-163475000D01*
G37*
G36*
X137750000Y-163625000D02*
G01*
X139250000Y-163625000D01*
X139250000Y-163775000D01*
X137750000Y-163775000D01*
X137750000Y-163625000D01*
G37*
G36*
X137750000Y-163775000D02*
G01*
X139250000Y-163775000D01*
X139250000Y-163925000D01*
X137750000Y-163925000D01*
X137750000Y-163775000D01*
G37*
G36*
X137750000Y-165425000D02*
G01*
X139700000Y-165425000D01*
X139700000Y-165575000D01*
X137750000Y-165575000D01*
X137750000Y-165425000D01*
G37*
G36*
X137750000Y-167825000D02*
G01*
X138050000Y-167825000D01*
X138050000Y-167975000D01*
X137750000Y-167975000D01*
X137750000Y-167825000D01*
G37*
G36*
X137750000Y-167975000D02*
G01*
X138200000Y-167975000D01*
X138200000Y-168125000D01*
X137750000Y-168125000D01*
X137750000Y-167975000D01*
G37*
G36*
X137900000Y-162725000D02*
G01*
X138350000Y-162725000D01*
X138350000Y-162875000D01*
X137900000Y-162875000D01*
X137900000Y-162725000D01*
G37*
G36*
X137900000Y-163925000D02*
G01*
X139400000Y-163925000D01*
X139400000Y-164075000D01*
X137900000Y-164075000D01*
X137900000Y-163925000D01*
G37*
G36*
X137900000Y-164075000D02*
G01*
X139700000Y-164075000D01*
X139700000Y-164225000D01*
X137900000Y-164225000D01*
X137900000Y-164075000D01*
G37*
G36*
X137900000Y-168125000D02*
G01*
X138200000Y-168125000D01*
X138200000Y-168275000D01*
X137900000Y-168275000D01*
X137900000Y-168125000D01*
G37*
G36*
X138050000Y-162425000D02*
G01*
X138800000Y-162425000D01*
X138800000Y-162575000D01*
X138050000Y-162575000D01*
X138050000Y-162425000D01*
G37*
G36*
X138050000Y-162575000D02*
G01*
X138500000Y-162575000D01*
X138500000Y-162725000D01*
X138050000Y-162725000D01*
X138050000Y-162575000D01*
G37*
G36*
X138050000Y-164225000D02*
G01*
X140000000Y-164225000D01*
X140000000Y-164375000D01*
X138050000Y-164375000D01*
X138050000Y-164225000D01*
G37*
G36*
X138050000Y-167225000D02*
G01*
X141200000Y-167225000D01*
X141200000Y-167375000D01*
X138050000Y-167375000D01*
X138050000Y-167225000D01*
G37*
G36*
X138050000Y-168275000D02*
G01*
X138350000Y-168275000D01*
X138350000Y-168425000D01*
X138050000Y-168425000D01*
X138050000Y-168275000D01*
G37*
G36*
X138050000Y-168425000D02*
G01*
X138500000Y-168425000D01*
X138500000Y-168575000D01*
X138050000Y-168575000D01*
X138050000Y-168425000D01*
G37*
G36*
X138200000Y-162275000D02*
G01*
X140600000Y-162275000D01*
X140600000Y-162425000D01*
X138200000Y-162425000D01*
X138200000Y-162275000D01*
G37*
G36*
X138200000Y-164375000D02*
G01*
X140150000Y-164375000D01*
X140150000Y-164525000D01*
X138200000Y-164525000D01*
X138200000Y-164375000D01*
G37*
G36*
X138200000Y-167375000D02*
G01*
X141200000Y-167375000D01*
X141200000Y-167525000D01*
X138200000Y-167525000D01*
X138200000Y-167375000D01*
G37*
G36*
X138200000Y-167675000D02*
G01*
X138650000Y-167675000D01*
X138650000Y-167825000D01*
X138200000Y-167825000D01*
X138200000Y-167675000D01*
G37*
G36*
X138200000Y-168575000D02*
G01*
X138500000Y-168575000D01*
X138500000Y-168725000D01*
X138200000Y-168725000D01*
X138200000Y-168575000D01*
G37*
G36*
X138350000Y-163175000D02*
G01*
X139550000Y-163175000D01*
X139550000Y-163325000D01*
X138350000Y-163325000D01*
X138350000Y-163175000D01*
G37*
G36*
X138350000Y-163325000D02*
G01*
X139250000Y-163325000D01*
X139250000Y-163475000D01*
X138350000Y-163475000D01*
X138350000Y-163325000D01*
G37*
G36*
X138350000Y-164525000D02*
G01*
X140300000Y-164525000D01*
X140300000Y-164675000D01*
X138350000Y-164675000D01*
X138350000Y-164525000D01*
G37*
G36*
X138350000Y-165275000D02*
G01*
X139700000Y-165275000D01*
X139700000Y-165425000D01*
X138350000Y-165425000D01*
X138350000Y-165275000D01*
G37*
G36*
X138350000Y-166025000D02*
G01*
X141950000Y-166025000D01*
X141950000Y-166175000D01*
X138350000Y-166175000D01*
X138350000Y-166025000D01*
G37*
G36*
X138350000Y-167825000D02*
G01*
X138650000Y-167825000D01*
X138650000Y-167975000D01*
X138350000Y-167975000D01*
X138350000Y-167825000D01*
G37*
G36*
X138350000Y-168725000D02*
G01*
X138650000Y-168725000D01*
X138650000Y-168875000D01*
X138350000Y-168875000D01*
X138350000Y-168725000D01*
G37*
G36*
X138350000Y-168875000D02*
G01*
X138800000Y-168875000D01*
X138800000Y-169025000D01*
X138350000Y-169025000D01*
X138350000Y-168875000D01*
G37*
G36*
X138500000Y-161225000D02*
G01*
X138800000Y-161225000D01*
X138800000Y-161375000D01*
X138500000Y-161375000D01*
X138500000Y-161225000D01*
G37*
G36*
X138500000Y-161375000D02*
G01*
X138800000Y-161375000D01*
X138800000Y-161525000D01*
X138500000Y-161525000D01*
X138500000Y-161375000D01*
G37*
G36*
X138500000Y-162125000D02*
G01*
X140750000Y-162125000D01*
X140750000Y-162275000D01*
X138500000Y-162275000D01*
X138500000Y-162125000D01*
G37*
G36*
X138500000Y-162875000D02*
G01*
X140600000Y-162875000D01*
X140600000Y-163025000D01*
X138500000Y-163025000D01*
X138500000Y-162875000D01*
G37*
G36*
X138500000Y-163025000D02*
G01*
X140600000Y-163025000D01*
X140600000Y-163175000D01*
X138500000Y-163175000D01*
X138500000Y-163025000D01*
G37*
G36*
X138500000Y-167975000D02*
G01*
X138650000Y-167975000D01*
X138650000Y-168125000D01*
X138500000Y-168125000D01*
X138500000Y-167975000D01*
G37*
G36*
X138500000Y-168125000D02*
G01*
X138650000Y-168125000D01*
X138650000Y-168275000D01*
X138500000Y-168275000D01*
X138500000Y-168125000D01*
G37*
G36*
X138500000Y-169025000D02*
G01*
X138950000Y-169025000D01*
X138950000Y-169175000D01*
X138500000Y-169175000D01*
X138500000Y-169025000D01*
G37*
G36*
X138650000Y-162725000D02*
G01*
X140600000Y-162725000D01*
X140600000Y-162875000D01*
X138650000Y-162875000D01*
X138650000Y-162725000D01*
G37*
G36*
X138650000Y-169175000D02*
G01*
X139100000Y-169175000D01*
X139100000Y-169325000D01*
X138650000Y-169325000D01*
X138650000Y-169175000D01*
G37*
G36*
X138950000Y-159125000D02*
G01*
X139100000Y-159125000D01*
X139100000Y-159275000D01*
X138950000Y-159275000D01*
X138950000Y-159125000D01*
G37*
G36*
X138950000Y-159275000D02*
G01*
X139100000Y-159275000D01*
X139100000Y-159425000D01*
X138950000Y-159425000D01*
X138950000Y-159275000D01*
G37*
G36*
X138950000Y-162425000D02*
G01*
X140600000Y-162425000D01*
X140600000Y-162575000D01*
X138950000Y-162575000D01*
X138950000Y-162425000D01*
G37*
G36*
X138950000Y-162575000D02*
G01*
X140600000Y-162575000D01*
X140600000Y-162725000D01*
X138950000Y-162725000D01*
X138950000Y-162575000D01*
G37*
G36*
X138950000Y-167525000D02*
G01*
X141200000Y-167525000D01*
X141200000Y-167675000D01*
X138950000Y-167675000D01*
X138950000Y-167525000D01*
G37*
G36*
X138950000Y-167675000D02*
G01*
X141200000Y-167675000D01*
X141200000Y-167825000D01*
X138950000Y-167825000D01*
X138950000Y-167675000D01*
G37*
G36*
X138950000Y-167825000D02*
G01*
X141200000Y-167825000D01*
X141200000Y-167975000D01*
X138950000Y-167975000D01*
X138950000Y-167825000D01*
G37*
G36*
X138950000Y-167975000D02*
G01*
X141200000Y-167975000D01*
X141200000Y-168125000D01*
X138950000Y-168125000D01*
X138950000Y-167975000D01*
G37*
G36*
X138950000Y-168125000D02*
G01*
X141200000Y-168125000D01*
X141200000Y-168275000D01*
X138950000Y-168275000D01*
X138950000Y-168125000D01*
G37*
G36*
X138950000Y-168275000D02*
G01*
X141200000Y-168275000D01*
X141200000Y-168425000D01*
X138950000Y-168425000D01*
X138950000Y-168275000D01*
G37*
G36*
X138950000Y-168425000D02*
G01*
X141200000Y-168425000D01*
X141200000Y-168575000D01*
X138950000Y-168575000D01*
X138950000Y-168425000D01*
G37*
G36*
X138950000Y-168575000D02*
G01*
X141050000Y-168575000D01*
X141050000Y-168725000D01*
X138950000Y-168725000D01*
X138950000Y-168575000D01*
G37*
G36*
X138950000Y-168725000D02*
G01*
X141050000Y-168725000D01*
X141050000Y-168875000D01*
X138950000Y-168875000D01*
X138950000Y-168725000D01*
G37*
G36*
X139100000Y-161975000D02*
G01*
X139250000Y-161975000D01*
X139250000Y-162125000D01*
X139100000Y-162125000D01*
X139100000Y-161975000D01*
G37*
G36*
X139100000Y-164675000D02*
G01*
X140450000Y-164675000D01*
X140450000Y-164825000D01*
X139100000Y-164825000D01*
X139100000Y-164675000D01*
G37*
G36*
X139100000Y-168875000D02*
G01*
X140900000Y-168875000D01*
X140900000Y-169025000D01*
X139100000Y-169025000D01*
X139100000Y-168875000D01*
G37*
G36*
X139250000Y-161525000D02*
G01*
X140600000Y-161525000D01*
X140600000Y-161675000D01*
X139250000Y-161675000D01*
X139250000Y-161525000D01*
G37*
G36*
X139250000Y-161675000D02*
G01*
X139850000Y-161675000D01*
X139850000Y-161825000D01*
X139250000Y-161825000D01*
X139250000Y-161675000D01*
G37*
G36*
X139400000Y-161225000D02*
G01*
X140450000Y-161225000D01*
X140450000Y-161375000D01*
X139400000Y-161375000D01*
X139400000Y-161225000D01*
G37*
G36*
X139400000Y-161375000D02*
G01*
X140450000Y-161375000D01*
X140450000Y-161525000D01*
X139400000Y-161525000D01*
X139400000Y-161375000D01*
G37*
G36*
X139400000Y-167075000D02*
G01*
X141200000Y-167075000D01*
X141200000Y-167225000D01*
X139400000Y-167225000D01*
X139400000Y-167075000D01*
G37*
G36*
X139550000Y-161075000D02*
G01*
X140300000Y-161075000D01*
X140300000Y-161225000D01*
X139550000Y-161225000D01*
X139550000Y-161075000D01*
G37*
G36*
X139550000Y-161975000D02*
G01*
X140750000Y-161975000D01*
X140750000Y-162125000D01*
X139550000Y-162125000D01*
X139550000Y-161975000D01*
G37*
G36*
X139550000Y-164825000D02*
G01*
X140450000Y-164825000D01*
X140450000Y-164975000D01*
X139550000Y-164975000D01*
X139550000Y-164825000D01*
G37*
G36*
X139550000Y-169025000D02*
G01*
X139850000Y-169025000D01*
X139850000Y-169175000D01*
X139550000Y-169175000D01*
X139550000Y-169025000D01*
G37*
G36*
X139700000Y-158375000D02*
G01*
X139850000Y-158375000D01*
X139850000Y-158525000D01*
X139700000Y-158525000D01*
X139700000Y-158375000D01*
G37*
G36*
X139700000Y-160925000D02*
G01*
X140150000Y-160925000D01*
X140150000Y-161075000D01*
X139700000Y-161075000D01*
X139700000Y-160925000D01*
G37*
G36*
X139700000Y-163175000D02*
G01*
X141950000Y-163175000D01*
X141950000Y-163325000D01*
X139700000Y-163325000D01*
X139700000Y-163175000D01*
G37*
G36*
X139850000Y-159425000D02*
G01*
X140450000Y-159425000D01*
X140450000Y-159575000D01*
X139850000Y-159575000D01*
X139850000Y-159425000D01*
G37*
G36*
X139850000Y-159575000D02*
G01*
X140300000Y-159575000D01*
X140300000Y-159725000D01*
X139850000Y-159725000D01*
X139850000Y-159575000D01*
G37*
G36*
X139850000Y-159725000D02*
G01*
X140300000Y-159725000D01*
X140300000Y-159875000D01*
X139850000Y-159875000D01*
X139850000Y-159725000D01*
G37*
G36*
X139850000Y-159875000D02*
G01*
X140300000Y-159875000D01*
X140300000Y-160025000D01*
X139850000Y-160025000D01*
X139850000Y-159875000D01*
G37*
G36*
X139850000Y-160025000D02*
G01*
X140300000Y-160025000D01*
X140300000Y-160175000D01*
X139850000Y-160175000D01*
X139850000Y-160025000D01*
G37*
G36*
X139850000Y-160175000D02*
G01*
X140450000Y-160175000D01*
X140450000Y-160325000D01*
X139850000Y-160325000D01*
X139850000Y-160175000D01*
G37*
G36*
X139850000Y-160775000D02*
G01*
X140000000Y-160775000D01*
X140000000Y-160925000D01*
X139850000Y-160925000D01*
X139850000Y-160775000D01*
G37*
G36*
X139850000Y-164975000D02*
G01*
X140450000Y-164975000D01*
X140450000Y-165125000D01*
X139850000Y-165125000D01*
X139850000Y-164975000D01*
G37*
G36*
X139850000Y-165125000D02*
G01*
X140450000Y-165125000D01*
X140450000Y-165275000D01*
X139850000Y-165275000D01*
X139850000Y-165125000D01*
G37*
G36*
X139850000Y-166925000D02*
G01*
X141200000Y-166925000D01*
X141200000Y-167075000D01*
X139850000Y-167075000D01*
X139850000Y-166925000D01*
G37*
G36*
X140000000Y-159125000D02*
G01*
X140450000Y-159125000D01*
X140450000Y-159275000D01*
X140000000Y-159275000D01*
X140000000Y-159125000D01*
G37*
G36*
X140000000Y-159275000D02*
G01*
X140450000Y-159275000D01*
X140450000Y-159425000D01*
X140000000Y-159425000D01*
X140000000Y-159275000D01*
G37*
G36*
X140000000Y-160325000D02*
G01*
X140450000Y-160325000D01*
X140450000Y-160475000D01*
X140000000Y-160475000D01*
X140000000Y-160325000D01*
G37*
G36*
X140000000Y-160475000D02*
G01*
X140450000Y-160475000D01*
X140450000Y-160625000D01*
X140000000Y-160625000D01*
X140000000Y-160475000D01*
G37*
G36*
X140000000Y-161825000D02*
G01*
X140750000Y-161825000D01*
X140750000Y-161975000D01*
X140000000Y-161975000D01*
X140000000Y-161825000D01*
G37*
G36*
X140000000Y-163325000D02*
G01*
X142700000Y-163325000D01*
X142700000Y-163475000D01*
X140000000Y-163475000D01*
X140000000Y-163325000D01*
G37*
G36*
X140000000Y-165275000D02*
G01*
X140300000Y-165275000D01*
X140300000Y-165425000D01*
X140000000Y-165425000D01*
X140000000Y-165275000D01*
G37*
G36*
X140000000Y-165425000D02*
G01*
X140300000Y-165425000D01*
X140300000Y-165575000D01*
X140000000Y-165575000D01*
X140000000Y-165425000D01*
G37*
G36*
X140000000Y-165575000D02*
G01*
X140150000Y-165575000D01*
X140150000Y-165725000D01*
X140000000Y-165725000D01*
X140000000Y-165575000D01*
G37*
G36*
X140150000Y-158975000D02*
G01*
X140450000Y-158975000D01*
X140450000Y-159125000D01*
X140150000Y-159125000D01*
X140150000Y-158975000D01*
G37*
G36*
X140150000Y-160625000D02*
G01*
X140450000Y-160625000D01*
X140450000Y-160775000D01*
X140150000Y-160775000D01*
X140150000Y-160625000D01*
G37*
G36*
X140150000Y-161675000D02*
G01*
X140600000Y-161675000D01*
X140600000Y-161825000D01*
X140150000Y-161825000D01*
X140150000Y-161675000D01*
G37*
G36*
X140150000Y-166775000D02*
G01*
X141200000Y-166775000D01*
X141200000Y-166925000D01*
X140150000Y-166925000D01*
X140150000Y-166775000D01*
G37*
G36*
X140300000Y-158825000D02*
G01*
X140600000Y-158825000D01*
X140600000Y-158975000D01*
X140300000Y-158975000D01*
X140300000Y-158825000D01*
G37*
G36*
X140300000Y-160775000D02*
G01*
X140600000Y-160775000D01*
X140600000Y-160925000D01*
X140300000Y-160925000D01*
X140300000Y-160775000D01*
G37*
G36*
X140300000Y-163475000D02*
G01*
X142550000Y-163475000D01*
X142550000Y-163625000D01*
X140300000Y-163625000D01*
X140300000Y-163475000D01*
G37*
G36*
X140300000Y-166625000D02*
G01*
X141200000Y-166625000D01*
X141200000Y-166775000D01*
X140300000Y-166775000D01*
X140300000Y-166625000D01*
G37*
G36*
X140300000Y-169025000D02*
G01*
X140450000Y-169025000D01*
X140450000Y-169175000D01*
X140300000Y-169175000D01*
X140300000Y-169025000D01*
G37*
G36*
X140450000Y-158675000D02*
G01*
X140600000Y-158675000D01*
X140600000Y-158825000D01*
X140450000Y-158825000D01*
X140450000Y-158675000D01*
G37*
G36*
X140450000Y-160925000D02*
G01*
X140600000Y-160925000D01*
X140600000Y-161075000D01*
X140450000Y-161075000D01*
X140450000Y-160925000D01*
G37*
G36*
X140600000Y-159125000D02*
G01*
X141800000Y-159125000D01*
X141800000Y-159275000D01*
X140600000Y-159275000D01*
X140600000Y-159125000D01*
G37*
G36*
X140600000Y-159275000D02*
G01*
X141800000Y-159275000D01*
X141800000Y-159425000D01*
X140600000Y-159425000D01*
X140600000Y-159275000D01*
G37*
G36*
X140600000Y-159425000D02*
G01*
X141800000Y-159425000D01*
X141800000Y-159575000D01*
X140600000Y-159575000D01*
X140600000Y-159425000D01*
G37*
G36*
X140600000Y-159575000D02*
G01*
X141800000Y-159575000D01*
X141800000Y-159725000D01*
X140600000Y-159725000D01*
X140600000Y-159575000D01*
G37*
G36*
X140600000Y-159725000D02*
G01*
X141800000Y-159725000D01*
X141800000Y-159875000D01*
X140600000Y-159875000D01*
X140600000Y-159725000D01*
G37*
G36*
X140600000Y-159875000D02*
G01*
X141800000Y-159875000D01*
X141800000Y-160025000D01*
X140600000Y-160025000D01*
X140600000Y-159875000D01*
G37*
G36*
X140600000Y-160025000D02*
G01*
X141800000Y-160025000D01*
X141800000Y-160175000D01*
X140600000Y-160175000D01*
X140600000Y-160025000D01*
G37*
G36*
X140600000Y-160175000D02*
G01*
X141800000Y-160175000D01*
X141800000Y-160325000D01*
X140600000Y-160325000D01*
X140600000Y-160175000D01*
G37*
G36*
X140600000Y-160325000D02*
G01*
X141650000Y-160325000D01*
X141650000Y-160475000D01*
X140600000Y-160475000D01*
X140600000Y-160325000D01*
G37*
G36*
X140600000Y-160475000D02*
G01*
X141650000Y-160475000D01*
X141650000Y-160625000D01*
X140600000Y-160625000D01*
X140600000Y-160475000D01*
G37*
G36*
X140600000Y-163625000D02*
G01*
X142100000Y-163625000D01*
X142100000Y-163775000D01*
X140600000Y-163775000D01*
X140600000Y-163625000D01*
G37*
G36*
X140600000Y-165275000D02*
G01*
X141950000Y-165275000D01*
X141950000Y-165425000D01*
X140600000Y-165425000D01*
X140600000Y-165275000D01*
G37*
G36*
X140600000Y-165425000D02*
G01*
X142400000Y-165425000D01*
X142400000Y-165575000D01*
X140600000Y-165575000D01*
X140600000Y-165425000D01*
G37*
G36*
X140750000Y-158825000D02*
G01*
X141650000Y-158825000D01*
X141650000Y-158975000D01*
X140750000Y-158975000D01*
X140750000Y-158825000D01*
G37*
G36*
X140750000Y-158975000D02*
G01*
X141650000Y-158975000D01*
X141650000Y-159125000D01*
X140750000Y-159125000D01*
X140750000Y-158975000D01*
G37*
G36*
X140750000Y-160625000D02*
G01*
X141650000Y-160625000D01*
X141650000Y-160775000D01*
X140750000Y-160775000D01*
X140750000Y-160625000D01*
G37*
G36*
X140750000Y-160775000D02*
G01*
X141500000Y-160775000D01*
X141500000Y-160925000D01*
X140750000Y-160925000D01*
X140750000Y-160775000D01*
G37*
G36*
X140750000Y-161525000D02*
G01*
X140900000Y-161525000D01*
X140900000Y-161675000D01*
X140750000Y-161675000D01*
X140750000Y-161525000D01*
G37*
G36*
X140750000Y-166475000D02*
G01*
X141200000Y-166475000D01*
X141200000Y-166625000D01*
X140750000Y-166625000D01*
X140750000Y-166475000D01*
G37*
G36*
X140900000Y-158675000D02*
G01*
X141500000Y-158675000D01*
X141500000Y-158825000D01*
X140900000Y-158825000D01*
X140900000Y-158675000D01*
G37*
G36*
X140900000Y-160925000D02*
G01*
X141500000Y-160925000D01*
X141500000Y-161075000D01*
X140900000Y-161075000D01*
X140900000Y-160925000D01*
G37*
G36*
X140900000Y-161075000D02*
G01*
X141350000Y-161075000D01*
X141350000Y-161225000D01*
X140900000Y-161225000D01*
X140900000Y-161075000D01*
G37*
G36*
X140900000Y-161675000D02*
G01*
X141050000Y-161675000D01*
X141050000Y-161825000D01*
X140900000Y-161825000D01*
X140900000Y-161675000D01*
G37*
G36*
X140900000Y-161825000D02*
G01*
X141050000Y-161825000D01*
X141050000Y-161975000D01*
X140900000Y-161975000D01*
X140900000Y-161825000D01*
G37*
G36*
X140900000Y-162725000D02*
G01*
X141050000Y-162725000D01*
X141050000Y-162875000D01*
X140900000Y-162875000D01*
X140900000Y-162725000D01*
G37*
G36*
X140900000Y-162875000D02*
G01*
X141050000Y-162875000D01*
X141050000Y-163025000D01*
X140900000Y-163025000D01*
X140900000Y-162875000D01*
G37*
G36*
X140900000Y-164075000D02*
G01*
X141050000Y-164075000D01*
X141050000Y-164225000D01*
X140900000Y-164225000D01*
X140900000Y-164075000D01*
G37*
G36*
X140900000Y-164225000D02*
G01*
X141200000Y-164225000D01*
X141200000Y-164375000D01*
X140900000Y-164375000D01*
X140900000Y-164225000D01*
G37*
G36*
X140900000Y-164375000D02*
G01*
X141050000Y-164375000D01*
X141050000Y-164525000D01*
X140900000Y-164525000D01*
X140900000Y-164375000D01*
G37*
G36*
X140900000Y-164525000D02*
G01*
X141050000Y-164525000D01*
X141050000Y-164675000D01*
X140900000Y-164675000D01*
X140900000Y-164525000D01*
G37*
G36*
X140900000Y-164675000D02*
G01*
X141050000Y-164675000D01*
X141050000Y-164825000D01*
X140900000Y-164825000D01*
X140900000Y-164675000D01*
G37*
G36*
X140900000Y-164825000D02*
G01*
X141050000Y-164825000D01*
X141050000Y-164975000D01*
X140900000Y-164975000D01*
X140900000Y-164825000D01*
G37*
G36*
X140900000Y-169175000D02*
G01*
X141500000Y-169175000D01*
X141500000Y-169325000D01*
X140900000Y-169325000D01*
X140900000Y-169175000D01*
G37*
G36*
X141050000Y-158525000D02*
G01*
X141350000Y-158525000D01*
X141350000Y-158675000D01*
X141050000Y-158675000D01*
X141050000Y-158525000D01*
G37*
G36*
X141050000Y-161225000D02*
G01*
X141350000Y-161225000D01*
X141350000Y-161375000D01*
X141050000Y-161375000D01*
X141050000Y-161225000D01*
G37*
G36*
X141050000Y-161375000D02*
G01*
X141200000Y-161375000D01*
X141200000Y-161525000D01*
X141050000Y-161525000D01*
X141050000Y-161375000D01*
G37*
G36*
X141050000Y-162125000D02*
G01*
X141200000Y-162125000D01*
X141200000Y-162275000D01*
X141050000Y-162275000D01*
X141050000Y-162125000D01*
G37*
G36*
X141200000Y-161675000D02*
G01*
X141500000Y-161675000D01*
X141500000Y-161825000D01*
X141200000Y-161825000D01*
X141200000Y-161675000D01*
G37*
G36*
X141200000Y-161825000D02*
G01*
X141350000Y-161825000D01*
X141350000Y-161975000D01*
X141200000Y-161975000D01*
X141200000Y-161825000D01*
G37*
G36*
X141200000Y-162425000D02*
G01*
X141500000Y-162425000D01*
X141500000Y-162575000D01*
X141200000Y-162575000D01*
X141200000Y-162425000D01*
G37*
G36*
X141200000Y-168875000D02*
G01*
X141650000Y-168875000D01*
X141650000Y-169025000D01*
X141200000Y-169025000D01*
X141200000Y-168875000D01*
G37*
G36*
X141200000Y-169025000D02*
G01*
X141500000Y-169025000D01*
X141500000Y-169175000D01*
X141200000Y-169175000D01*
X141200000Y-169025000D01*
G37*
G36*
X141350000Y-161525000D02*
G01*
X141500000Y-161525000D01*
X141500000Y-161675000D01*
X141350000Y-161675000D01*
X141350000Y-161525000D01*
G37*
G36*
X141350000Y-166475000D02*
G01*
X142100000Y-166475000D01*
X142100000Y-166625000D01*
X141350000Y-166625000D01*
X141350000Y-166475000D01*
G37*
G36*
X141350000Y-166625000D02*
G01*
X142100000Y-166625000D01*
X142100000Y-166775000D01*
X141350000Y-166775000D01*
X141350000Y-166625000D01*
G37*
G36*
X141350000Y-166775000D02*
G01*
X142100000Y-166775000D01*
X142100000Y-166925000D01*
X141350000Y-166925000D01*
X141350000Y-166775000D01*
G37*
G36*
X141350000Y-166925000D02*
G01*
X142100000Y-166925000D01*
X142100000Y-167075000D01*
X141350000Y-167075000D01*
X141350000Y-166925000D01*
G37*
G36*
X141350000Y-167075000D02*
G01*
X142100000Y-167075000D01*
X142100000Y-167225000D01*
X141350000Y-167225000D01*
X141350000Y-167075000D01*
G37*
G36*
X141350000Y-167225000D02*
G01*
X142100000Y-167225000D01*
X142100000Y-167375000D01*
X141350000Y-167375000D01*
X141350000Y-167225000D01*
G37*
G36*
X141350000Y-167375000D02*
G01*
X142100000Y-167375000D01*
X142100000Y-167525000D01*
X141350000Y-167525000D01*
X141350000Y-167375000D01*
G37*
G36*
X141350000Y-167525000D02*
G01*
X141950000Y-167525000D01*
X141950000Y-167675000D01*
X141350000Y-167675000D01*
X141350000Y-167525000D01*
G37*
G36*
X141350000Y-167675000D02*
G01*
X141950000Y-167675000D01*
X141950000Y-167825000D01*
X141350000Y-167825000D01*
X141350000Y-167675000D01*
G37*
G36*
X141350000Y-167825000D02*
G01*
X141800000Y-167825000D01*
X141800000Y-167975000D01*
X141350000Y-167975000D01*
X141350000Y-167825000D01*
G37*
G36*
X141350000Y-167975000D02*
G01*
X141650000Y-167975000D01*
X141650000Y-168125000D01*
X141350000Y-168125000D01*
X141350000Y-167975000D01*
G37*
G36*
X141350000Y-168125000D02*
G01*
X141500000Y-168125000D01*
X141500000Y-168275000D01*
X141350000Y-168275000D01*
X141350000Y-168125000D01*
G37*
G36*
X141350000Y-168275000D02*
G01*
X141500000Y-168275000D01*
X141500000Y-168425000D01*
X141350000Y-168425000D01*
X141350000Y-168275000D01*
G37*
G36*
X141350000Y-168725000D02*
G01*
X141800000Y-168725000D01*
X141800000Y-168875000D01*
X141350000Y-168875000D01*
X141350000Y-168725000D01*
G37*
G36*
X141500000Y-161975000D02*
G01*
X143600000Y-161975000D01*
X143600000Y-162125000D01*
X141500000Y-162125000D01*
X141500000Y-161975000D01*
G37*
G36*
X141500000Y-162125000D02*
G01*
X143450000Y-162125000D01*
X143450000Y-162275000D01*
X141500000Y-162275000D01*
X141500000Y-162125000D01*
G37*
G36*
X141500000Y-164825000D02*
G01*
X141950000Y-164825000D01*
X141950000Y-164975000D01*
X141500000Y-164975000D01*
X141500000Y-164825000D01*
G37*
G36*
X141500000Y-166325000D02*
G01*
X142100000Y-166325000D01*
X142100000Y-166475000D01*
X141500000Y-166475000D01*
X141500000Y-166325000D01*
G37*
G36*
X141500000Y-168575000D02*
G01*
X141800000Y-168575000D01*
X141800000Y-168725000D01*
X141500000Y-168725000D01*
X141500000Y-168575000D01*
G37*
G36*
X141650000Y-160925000D02*
G01*
X141950000Y-160925000D01*
X141950000Y-161075000D01*
X141650000Y-161075000D01*
X141650000Y-160925000D01*
G37*
G36*
X141650000Y-161675000D02*
G01*
X143000000Y-161675000D01*
X143000000Y-161825000D01*
X141650000Y-161825000D01*
X141650000Y-161675000D01*
G37*
G36*
X141650000Y-161825000D02*
G01*
X143600000Y-161825000D01*
X143600000Y-161975000D01*
X141650000Y-161975000D01*
X141650000Y-161825000D01*
G37*
G36*
X141650000Y-162275000D02*
G01*
X142850000Y-162275000D01*
X142850000Y-162425000D01*
X141650000Y-162425000D01*
X141650000Y-162275000D01*
G37*
G36*
X141650000Y-162425000D02*
G01*
X142700000Y-162425000D01*
X142700000Y-162575000D01*
X141650000Y-162575000D01*
X141650000Y-162425000D01*
G37*
G36*
X141650000Y-162575000D02*
G01*
X142700000Y-162575000D01*
X142700000Y-162725000D01*
X141650000Y-162725000D01*
X141650000Y-162575000D01*
G37*
G36*
X141650000Y-162725000D02*
G01*
X142550000Y-162725000D01*
X142550000Y-162875000D01*
X141650000Y-162875000D01*
X141650000Y-162725000D01*
G37*
G36*
X141650000Y-162875000D02*
G01*
X142400000Y-162875000D01*
X142400000Y-163025000D01*
X141650000Y-163025000D01*
X141650000Y-162875000D01*
G37*
G36*
X141650000Y-163025000D02*
G01*
X142100000Y-163025000D01*
X142100000Y-163175000D01*
X141650000Y-163175000D01*
X141650000Y-163025000D01*
G37*
G36*
X141650000Y-164075000D02*
G01*
X141800000Y-164075000D01*
X141800000Y-164225000D01*
X141650000Y-164225000D01*
X141650000Y-164075000D01*
G37*
G36*
X141650000Y-164375000D02*
G01*
X141800000Y-164375000D01*
X141800000Y-164525000D01*
X141650000Y-164525000D01*
X141650000Y-164375000D01*
G37*
G36*
X141650000Y-164675000D02*
G01*
X141800000Y-164675000D01*
X141800000Y-164825000D01*
X141650000Y-164825000D01*
X141650000Y-164675000D01*
G37*
G36*
X141650000Y-168275000D02*
G01*
X142100000Y-168275000D01*
X142100000Y-168425000D01*
X141650000Y-168425000D01*
X141650000Y-168275000D01*
G37*
G36*
X141650000Y-168425000D02*
G01*
X141950000Y-168425000D01*
X141950000Y-168575000D01*
X141650000Y-168575000D01*
X141650000Y-168425000D01*
G37*
G36*
X141800000Y-158675000D02*
G01*
X141950000Y-158675000D01*
X141950000Y-158825000D01*
X141800000Y-158825000D01*
X141800000Y-158675000D01*
G37*
G36*
X141800000Y-158825000D02*
G01*
X142100000Y-158825000D01*
X142100000Y-158975000D01*
X141800000Y-158975000D01*
X141800000Y-158825000D01*
G37*
G36*
X141800000Y-160625000D02*
G01*
X142250000Y-160625000D01*
X142250000Y-160775000D01*
X141800000Y-160775000D01*
X141800000Y-160625000D01*
G37*
G36*
X141800000Y-160775000D02*
G01*
X142100000Y-160775000D01*
X142100000Y-160925000D01*
X141800000Y-160925000D01*
X141800000Y-160775000D01*
G37*
G36*
X141800000Y-161375000D02*
G01*
X143600000Y-161375000D01*
X143600000Y-161525000D01*
X141800000Y-161525000D01*
X141800000Y-161375000D01*
G37*
G36*
X141800000Y-161525000D02*
G01*
X143600000Y-161525000D01*
X143600000Y-161675000D01*
X141800000Y-161675000D01*
X141800000Y-161525000D01*
G37*
G36*
X141800000Y-168125000D02*
G01*
X142550000Y-168125000D01*
X142550000Y-168275000D01*
X141800000Y-168275000D01*
X141800000Y-168125000D01*
G37*
G36*
X141950000Y-158975000D02*
G01*
X142250000Y-158975000D01*
X142250000Y-159125000D01*
X141950000Y-159125000D01*
X141950000Y-158975000D01*
G37*
G36*
X141950000Y-159125000D02*
G01*
X142400000Y-159125000D01*
X142400000Y-159275000D01*
X141950000Y-159275000D01*
X141950000Y-159125000D01*
G37*
G36*
X141950000Y-159275000D02*
G01*
X142400000Y-159275000D01*
X142400000Y-159425000D01*
X141950000Y-159425000D01*
X141950000Y-159275000D01*
G37*
G36*
X141950000Y-159425000D02*
G01*
X142550000Y-159425000D01*
X142550000Y-159575000D01*
X141950000Y-159575000D01*
X141950000Y-159425000D01*
G37*
G36*
X141950000Y-159575000D02*
G01*
X142550000Y-159575000D01*
X142550000Y-159725000D01*
X141950000Y-159725000D01*
X141950000Y-159575000D01*
G37*
G36*
X141950000Y-159725000D02*
G01*
X142550000Y-159725000D01*
X142550000Y-159875000D01*
X141950000Y-159875000D01*
X141950000Y-159725000D01*
G37*
G36*
X141950000Y-159875000D02*
G01*
X142550000Y-159875000D01*
X142550000Y-160025000D01*
X141950000Y-160025000D01*
X141950000Y-159875000D01*
G37*
G36*
X141950000Y-160025000D02*
G01*
X142550000Y-160025000D01*
X142550000Y-160175000D01*
X141950000Y-160175000D01*
X141950000Y-160025000D01*
G37*
G36*
X141950000Y-160175000D02*
G01*
X142400000Y-160175000D01*
X142400000Y-160325000D01*
X141950000Y-160325000D01*
X141950000Y-160175000D01*
G37*
G36*
X141950000Y-160325000D02*
G01*
X142400000Y-160325000D01*
X142400000Y-160475000D01*
X141950000Y-160475000D01*
X141950000Y-160325000D01*
G37*
G36*
X141950000Y-160475000D02*
G01*
X142250000Y-160475000D01*
X142250000Y-160625000D01*
X141950000Y-160625000D01*
X141950000Y-160475000D01*
G37*
G36*
X141950000Y-161225000D02*
G01*
X143450000Y-161225000D01*
X143450000Y-161375000D01*
X141950000Y-161375000D01*
X141950000Y-161225000D01*
G37*
G36*
X141950000Y-165575000D02*
G01*
X142550000Y-165575000D01*
X142550000Y-165725000D01*
X141950000Y-165725000D01*
X141950000Y-165575000D01*
G37*
G36*
X141950000Y-165725000D02*
G01*
X142700000Y-165725000D01*
X142700000Y-165875000D01*
X141950000Y-165875000D01*
X141950000Y-165725000D01*
G37*
G36*
X141950000Y-167975000D02*
G01*
X142850000Y-167975000D01*
X142850000Y-168125000D01*
X141950000Y-168125000D01*
X141950000Y-167975000D01*
G37*
G36*
X142100000Y-161075000D02*
G01*
X143450000Y-161075000D01*
X143450000Y-161225000D01*
X142100000Y-161225000D01*
X142100000Y-161075000D01*
G37*
G36*
X142100000Y-167825000D02*
G01*
X143150000Y-167825000D01*
X143150000Y-167975000D01*
X142100000Y-167975000D01*
X142100000Y-167825000D01*
G37*
G36*
X142250000Y-160775000D02*
G01*
X143300000Y-160775000D01*
X143300000Y-160925000D01*
X142250000Y-160925000D01*
X142250000Y-160775000D01*
G37*
G36*
X142250000Y-160925000D02*
G01*
X143450000Y-160925000D01*
X143450000Y-161075000D01*
X142250000Y-161075000D01*
X142250000Y-160925000D01*
G37*
G36*
X142250000Y-163175000D02*
G01*
X142850000Y-163175000D01*
X142850000Y-163325000D01*
X142250000Y-163325000D01*
X142250000Y-163175000D01*
G37*
G36*
X142250000Y-166025000D02*
G01*
X142700000Y-166025000D01*
X142700000Y-166175000D01*
X142250000Y-166175000D01*
X142250000Y-166025000D01*
G37*
G36*
X142250000Y-166175000D02*
G01*
X143450000Y-166175000D01*
X143450000Y-166325000D01*
X142250000Y-166325000D01*
X142250000Y-166175000D01*
G37*
G36*
X142250000Y-166325000D02*
G01*
X143600000Y-166325000D01*
X143600000Y-166475000D01*
X142250000Y-166475000D01*
X142250000Y-166325000D01*
G37*
G36*
X142250000Y-166475000D02*
G01*
X142550000Y-166475000D01*
X142550000Y-166625000D01*
X142250000Y-166625000D01*
X142250000Y-166475000D01*
G37*
G36*
X142250000Y-166625000D02*
G01*
X142550000Y-166625000D01*
X142550000Y-166775000D01*
X142250000Y-166775000D01*
X142250000Y-166625000D01*
G37*
G36*
X142250000Y-166775000D02*
G01*
X142550000Y-166775000D01*
X142550000Y-166925000D01*
X142250000Y-166925000D01*
X142250000Y-166775000D01*
G37*
G36*
X142250000Y-166925000D02*
G01*
X142550000Y-166925000D01*
X142550000Y-167075000D01*
X142250000Y-167075000D01*
X142250000Y-166925000D01*
G37*
G36*
X142250000Y-167075000D02*
G01*
X142550000Y-167075000D01*
X142550000Y-167225000D01*
X142250000Y-167225000D01*
X142250000Y-167075000D01*
G37*
G36*
X142250000Y-167225000D02*
G01*
X142550000Y-167225000D01*
X142550000Y-167375000D01*
X142250000Y-167375000D01*
X142250000Y-167225000D01*
G37*
G36*
X142250000Y-167375000D02*
G01*
X142550000Y-167375000D01*
X142550000Y-167525000D01*
X142250000Y-167525000D01*
X142250000Y-167375000D01*
G37*
G36*
X142250000Y-167525000D02*
G01*
X142550000Y-167525000D01*
X142550000Y-167675000D01*
X142250000Y-167675000D01*
X142250000Y-167525000D01*
G37*
G36*
X142250000Y-167675000D02*
G01*
X142550000Y-167675000D01*
X142550000Y-167825000D01*
X142250000Y-167825000D01*
X142250000Y-167675000D01*
G37*
G36*
X142400000Y-160625000D02*
G01*
X143150000Y-160625000D01*
X143150000Y-160775000D01*
X142400000Y-160775000D01*
X142400000Y-160625000D01*
G37*
G36*
X142400000Y-163025000D02*
G01*
X143000000Y-163025000D01*
X143000000Y-163175000D01*
X142400000Y-163175000D01*
X142400000Y-163025000D01*
G37*
G36*
X142550000Y-160325000D02*
G01*
X143000000Y-160325000D01*
X143000000Y-160475000D01*
X142550000Y-160475000D01*
X142550000Y-160325000D01*
G37*
G36*
X142550000Y-160475000D02*
G01*
X143150000Y-160475000D01*
X143150000Y-160625000D01*
X142550000Y-160625000D01*
X142550000Y-160475000D01*
G37*
G36*
X142550000Y-162875000D02*
G01*
X143150000Y-162875000D01*
X143150000Y-163025000D01*
X142550000Y-163025000D01*
X142550000Y-162875000D01*
G37*
G36*
X142550000Y-164225000D02*
G01*
X143150000Y-164225000D01*
X143150000Y-164375000D01*
X142550000Y-164375000D01*
X142550000Y-164225000D01*
G37*
G36*
X142700000Y-160175000D02*
G01*
X142850000Y-160175000D01*
X142850000Y-160325000D01*
X142700000Y-160325000D01*
X142700000Y-160175000D01*
G37*
G36*
X142700000Y-162725000D02*
G01*
X143300000Y-162725000D01*
X143300000Y-162875000D01*
X142700000Y-162875000D01*
X142700000Y-162725000D01*
G37*
G36*
X142700000Y-164075000D02*
G01*
X143000000Y-164075000D01*
X143000000Y-164225000D01*
X142700000Y-164225000D01*
X142700000Y-164075000D01*
G37*
G36*
X142700000Y-164375000D02*
G01*
X143000000Y-164375000D01*
X143000000Y-164525000D01*
X142700000Y-164525000D01*
X142700000Y-164375000D01*
G37*
G36*
X142700000Y-168575000D02*
G01*
X143000000Y-168575000D01*
X143000000Y-168725000D01*
X142700000Y-168725000D01*
X142700000Y-168575000D01*
G37*
G36*
X142700000Y-168725000D02*
G01*
X143000000Y-168725000D01*
X143000000Y-168875000D01*
X142700000Y-168875000D01*
X142700000Y-168725000D01*
G37*
G36*
X142700000Y-168875000D02*
G01*
X143000000Y-168875000D01*
X143000000Y-169025000D01*
X142700000Y-169025000D01*
X142700000Y-168875000D01*
G37*
G36*
X142850000Y-158975000D02*
G01*
X143450000Y-158975000D01*
X143450000Y-159125000D01*
X142850000Y-159125000D01*
X142850000Y-158975000D01*
G37*
G36*
X142850000Y-162575000D02*
G01*
X143300000Y-162575000D01*
X143300000Y-162725000D01*
X142850000Y-162725000D01*
X142850000Y-162575000D01*
G37*
G36*
X142850000Y-164525000D02*
G01*
X143000000Y-164525000D01*
X143000000Y-164675000D01*
X142850000Y-164675000D01*
X142850000Y-164525000D01*
G37*
G36*
X142850000Y-167675000D02*
G01*
X143300000Y-167675000D01*
X143300000Y-167825000D01*
X142850000Y-167825000D01*
X142850000Y-167675000D01*
G37*
G36*
X143000000Y-162275000D02*
G01*
X143450000Y-162275000D01*
X143450000Y-162425000D01*
X143000000Y-162425000D01*
X143000000Y-162275000D01*
G37*
G36*
X143000000Y-162425000D02*
G01*
X143450000Y-162425000D01*
X143450000Y-162575000D01*
X143000000Y-162575000D01*
X143000000Y-162425000D01*
G37*
G36*
X143000000Y-165125000D02*
G01*
X143150000Y-165125000D01*
X143150000Y-165275000D01*
X143000000Y-165275000D01*
X143000000Y-165125000D01*
G37*
G36*
X143000000Y-165275000D02*
G01*
X143150000Y-165275000D01*
X143150000Y-165425000D01*
X143000000Y-165425000D01*
X143000000Y-165275000D01*
G37*
G36*
X143000000Y-167525000D02*
G01*
X143450000Y-167525000D01*
X143450000Y-167675000D01*
X143000000Y-167675000D01*
X143000000Y-167525000D01*
G37*
G36*
X143150000Y-158825000D02*
G01*
X143300000Y-158825000D01*
X143300000Y-158975000D01*
X143150000Y-158975000D01*
X143150000Y-158825000D01*
G37*
G36*
X143150000Y-159125000D02*
G01*
X143300000Y-159125000D01*
X143300000Y-159275000D01*
X143150000Y-159275000D01*
X143150000Y-159125000D01*
G37*
G36*
X143150000Y-161675000D02*
G01*
X143600000Y-161675000D01*
X143600000Y-161825000D01*
X143150000Y-161825000D01*
X143150000Y-161675000D01*
G37*
G36*
X143150000Y-167375000D02*
G01*
X143600000Y-167375000D01*
X143600000Y-167525000D01*
X143150000Y-167525000D01*
X143150000Y-167375000D01*
G37*
G36*
X143300000Y-166475000D02*
G01*
X143600000Y-166475000D01*
X143600000Y-166625000D01*
X143300000Y-166625000D01*
X143300000Y-166475000D01*
G37*
G36*
X143300000Y-167225000D02*
G01*
X143600000Y-167225000D01*
X143600000Y-167375000D01*
X143300000Y-167375000D01*
X143300000Y-167225000D01*
G37*
G36*
X143450000Y-160025000D02*
G01*
X143750000Y-160025000D01*
X143750000Y-160175000D01*
X143450000Y-160175000D01*
X143450000Y-160025000D01*
G37*
G36*
X143450000Y-166625000D02*
G01*
X143750000Y-166625000D01*
X143750000Y-166775000D01*
X143450000Y-166775000D01*
X143450000Y-166625000D01*
G37*
G36*
X143450000Y-166775000D02*
G01*
X143750000Y-166775000D01*
X143750000Y-166925000D01*
X143450000Y-166925000D01*
X143450000Y-166775000D01*
G37*
G36*
X143450000Y-166925000D02*
G01*
X143750000Y-166925000D01*
X143750000Y-167075000D01*
X143450000Y-167075000D01*
X143450000Y-166925000D01*
G37*
G36*
X143450000Y-167075000D02*
G01*
X143750000Y-167075000D01*
X143750000Y-167225000D01*
X143450000Y-167225000D01*
X143450000Y-167075000D01*
G37*
G36*
X143450000Y-168275000D02*
G01*
X143600000Y-168275000D01*
X143600000Y-168425000D01*
X143450000Y-168425000D01*
X143450000Y-168275000D01*
G37*
G36*
X143450000Y-168425000D02*
G01*
X143600000Y-168425000D01*
X143600000Y-168575000D01*
X143450000Y-168575000D01*
X143450000Y-168425000D01*
G37*
%TO.C,A2*%
X121240000Y-119095000D02*
X107350000Y-119095000D01*
X121240000Y-119095000D02*
X121240000Y-130525000D01*
X121240000Y-130525000D02*
X107350000Y-130525000D01*
D12*
X108150000Y-128620000D02*
G75*
G02*
X107350000Y-128620000I-400000J0D01*
G01*
X107350000Y-128620000D02*
G75*
G02*
X108150000Y-128620000I400000J0D01*
G01*
%TO.C,R4*%
D14*
X159540000Y-116630000D02*
X159540000Y-116960000D01*
X159540000Y-119370000D02*
X159540000Y-119040000D01*
X166080000Y-116630000D02*
X159540000Y-116630000D01*
X166080000Y-116960000D02*
X166080000Y-116630000D01*
X166080000Y-119040000D02*
X166080000Y-119370000D01*
X166080000Y-119370000D02*
X159540000Y-119370000D01*
%TO.C,J1*%
X101540000Y-103940000D02*
X101540000Y-104860000D01*
X101540000Y-104860000D02*
X103140000Y-104860000D01*
X101540000Y-109140000D02*
X101540000Y-110060000D01*
X101540000Y-110060000D02*
X109360000Y-110060000D01*
X103140000Y-103940000D02*
X103140000Y-104860000D01*
X103140000Y-104860000D02*
X103140000Y-105140000D01*
X103140000Y-108860000D02*
X101925000Y-108860000D01*
X103140000Y-108860000D02*
X103140000Y-109140000D01*
X103140000Y-109140000D02*
X101540000Y-109140000D01*
X103140000Y-110060000D02*
X103140000Y-109140000D01*
X105000000Y-106500000D02*
X109360000Y-106500000D01*
X105000000Y-107500000D02*
X105000000Y-106500000D01*
X107100000Y-108300000D02*
X109360000Y-108300000D01*
X107100000Y-108800000D02*
X109360000Y-108800000D01*
X109360000Y-103940000D02*
X101540000Y-103940000D01*
X109360000Y-107500000D02*
X105000000Y-107500000D01*
X109360000Y-110060000D02*
X109360000Y-103940000D01*
X105500000Y-104700000D02*
X107100000Y-104700000D01*
X107100000Y-105700000D01*
X105500000Y-105700000D01*
X105500000Y-104700000D01*
X105500000Y-108300000D02*
X107100000Y-108300000D01*
X107100000Y-109300000D01*
X105500000Y-109300000D01*
X105500000Y-108300000D01*
%TO.C,Q1*%
X113130000Y-145740000D02*
X123350000Y-145740000D01*
X113130000Y-147120000D02*
X123350000Y-147120000D01*
X113130000Y-150360000D02*
X113130000Y-145740000D01*
X116390000Y-145740000D02*
X116390000Y-147120000D01*
X120090000Y-145740000D02*
X120090000Y-147120000D01*
X123350000Y-145740000D02*
X123350000Y-150360000D01*
X123350000Y-150360000D02*
X113130000Y-150360000D01*
%TO.C,J7*%
X122320000Y-153620000D02*
X123700000Y-153620000D01*
X122320000Y-155000000D02*
X122320000Y-153620000D01*
X122320000Y-156270000D02*
X122320000Y-156380000D01*
X122320000Y-156270000D02*
X125080000Y-156270000D01*
X122320000Y-156380000D02*
X125080000Y-156380000D01*
X125080000Y-156270000D02*
X125080000Y-156380000D01*
%TO.C,R3*%
X114540000Y-142630000D02*
X121080000Y-142630000D01*
X114540000Y-142960000D02*
X114540000Y-142630000D01*
X114540000Y-145040000D02*
X114540000Y-145370000D01*
X114540000Y-145370000D02*
X121080000Y-145370000D01*
X121080000Y-142630000D02*
X121080000Y-142960000D01*
X121080000Y-145370000D02*
X121080000Y-145040000D01*
%TO.C,U2*%
X115160000Y-131670000D02*
X115160000Y-141950000D01*
X115160000Y-141950000D02*
X120460000Y-141950000D01*
X116810000Y-131670000D02*
X115160000Y-131670000D01*
X120460000Y-131670000D02*
X118810000Y-131670000D01*
X120460000Y-141950000D02*
X120460000Y-131670000D01*
X118810000Y-131670000D02*
G75*
G02*
X116810000Y-131670000I-1000000J0D01*
G01*
%TO.C,C3*%
D15*
X172165000Y-130530000D02*
X176375000Y-130530000D01*
X172165000Y-133470000D02*
X176375000Y-133470000D01*
%TO.C,J3*%
D14*
X164320000Y-160200000D02*
X164320000Y-163800000D01*
X166200000Y-158320000D02*
X169800000Y-158320000D01*
X166200000Y-165680000D02*
X169800000Y-165680000D01*
X171680000Y-160200000D02*
X171680000Y-163800000D01*
%TD*%
M02*
