%TF.GenerationSoftware,KiCad,Pcbnew,10.0.6*%
%TF.CreationDate,2026-09-16T22:44:02-07:00*%
%TF.ProjectId,weather-balloon-logger,77656174-6865-4722-9d62-616c6c6f6f6e,rev?*%
%TF.SameCoordinates,Original*%
%TF.FileFunction,Other,Comment*%
%FSLAX46Y46*%
G04 Gerber Fmt 4.6, Leading zero omitted, Abs format (unit mm)*
G04 Created by KiCad (PCBNEW 10.0.6) date 2026-09-16 22:44:02*
%MOMM*%
%LPD*%
G01*
G04 APERTURE LIST*
%ADD10C,0.200000*%
%ADD11C,0.120000*%
%ADD12C,0.150000*%
G04 APERTURE END LIST*
D10*
X104000000Y-121000000D02*
X106200000Y-121000000D01*
X107000000Y-121000000D02*
X109200000Y-121000000D01*
X110000000Y-121000000D02*
X112000000Y-121000000D01*
X112000000Y-121000000D02*
X112000000Y-123200000D01*
X112000000Y-124000000D02*
X112000000Y-126200000D01*
X112000000Y-127000000D02*
X112000000Y-128000000D01*
X112000000Y-128000000D02*
X109800000Y-128000000D01*
X109000000Y-128000000D02*
X106800000Y-128000000D01*
X106000000Y-128000000D02*
X104000000Y-128000000D01*
X104000000Y-128000000D02*
X104000000Y-125800000D01*
X104000000Y-125000000D02*
X104000000Y-122800000D01*
X104000000Y-122000000D02*
X104000000Y-121000000D01*
X104000000Y-151000000D02*
X106200000Y-151000000D01*
X107000000Y-151000000D02*
X109200000Y-151000000D01*
X110000000Y-151000000D02*
X112000000Y-151000000D01*
X112000000Y-151000000D02*
X112000000Y-153200000D01*
X112000000Y-154000000D02*
X112000000Y-156200000D01*
X112000000Y-157000000D02*
X112000000Y-158000000D01*
X112000000Y-158000000D02*
X109800000Y-158000000D01*
X109000000Y-158000000D02*
X106800000Y-158000000D01*
X106000000Y-158000000D02*
X104000000Y-158000000D01*
X104000000Y-158000000D02*
X104000000Y-155800000D01*
X104000000Y-155000000D02*
X104000000Y-152800000D01*
X104000000Y-152000000D02*
X104000000Y-151000000D01*
D11*
X104190475Y-124863855D02*
X103923808Y-124482902D01*
X103733332Y-124863855D02*
X103733332Y-124063855D01*
X103733332Y-124063855D02*
X104038094Y-124063855D01*
X104038094Y-124063855D02*
X104114284Y-124101950D01*
X104114284Y-124101950D02*
X104152379Y-124140045D01*
X104152379Y-124140045D02*
X104190475Y-124216236D01*
X104190475Y-124216236D02*
X104190475Y-124330521D01*
X104190475Y-124330521D02*
X104152379Y-124406712D01*
X104152379Y-124406712D02*
X104114284Y-124444807D01*
X104114284Y-124444807D02*
X104038094Y-124482902D01*
X104038094Y-124482902D02*
X103733332Y-124482902D01*
X104533332Y-124444807D02*
X104799998Y-124444807D01*
X104914284Y-124863855D02*
X104533332Y-124863855D01*
X104533332Y-124863855D02*
X104533332Y-124063855D01*
X104533332Y-124063855D02*
X104914284Y-124063855D01*
X105219046Y-124825760D02*
X105333332Y-124863855D01*
X105333332Y-124863855D02*
X105523808Y-124863855D01*
X105523808Y-124863855D02*
X105599999Y-124825760D01*
X105599999Y-124825760D02*
X105638094Y-124787664D01*
X105638094Y-124787664D02*
X105676189Y-124711474D01*
X105676189Y-124711474D02*
X105676189Y-124635283D01*
X105676189Y-124635283D02*
X105638094Y-124559093D01*
X105638094Y-124559093D02*
X105599999Y-124520998D01*
X105599999Y-124520998D02*
X105523808Y-124482902D01*
X105523808Y-124482902D02*
X105371427Y-124444807D01*
X105371427Y-124444807D02*
X105295237Y-124406712D01*
X105295237Y-124406712D02*
X105257142Y-124368617D01*
X105257142Y-124368617D02*
X105219046Y-124292426D01*
X105219046Y-124292426D02*
X105219046Y-124216236D01*
X105219046Y-124216236D02*
X105257142Y-124140045D01*
X105257142Y-124140045D02*
X105295237Y-124101950D01*
X105295237Y-124101950D02*
X105371427Y-124063855D01*
X105371427Y-124063855D02*
X105561904Y-124063855D01*
X105561904Y-124063855D02*
X105676189Y-124101950D01*
X106019047Y-124444807D02*
X106285713Y-124444807D01*
X106399999Y-124863855D02*
X106019047Y-124863855D01*
X106019047Y-124863855D02*
X106019047Y-124063855D01*
X106019047Y-124063855D02*
X106399999Y-124063855D01*
X107200000Y-124863855D02*
X106933333Y-124482902D01*
X106742857Y-124863855D02*
X106742857Y-124063855D01*
X106742857Y-124063855D02*
X107047619Y-124063855D01*
X107047619Y-124063855D02*
X107123809Y-124101950D01*
X107123809Y-124101950D02*
X107161904Y-124140045D01*
X107161904Y-124140045D02*
X107200000Y-124216236D01*
X107200000Y-124216236D02*
X107200000Y-124330521D01*
X107200000Y-124330521D02*
X107161904Y-124406712D01*
X107161904Y-124406712D02*
X107123809Y-124444807D01*
X107123809Y-124444807D02*
X107047619Y-124482902D01*
X107047619Y-124482902D02*
X106742857Y-124482902D01*
X107428571Y-124063855D02*
X107695238Y-124863855D01*
X107695238Y-124863855D02*
X107961904Y-124063855D01*
X108228571Y-124444807D02*
X108495237Y-124444807D01*
X108609523Y-124863855D02*
X108228571Y-124863855D01*
X108228571Y-124863855D02*
X108228571Y-124063855D01*
X108228571Y-124063855D02*
X108609523Y-124063855D01*
X108952381Y-124863855D02*
X108952381Y-124063855D01*
X108952381Y-124063855D02*
X109142857Y-124063855D01*
X109142857Y-124063855D02*
X109257143Y-124101950D01*
X109257143Y-124101950D02*
X109333333Y-124178140D01*
X109333333Y-124178140D02*
X109371428Y-124254331D01*
X109371428Y-124254331D02*
X109409524Y-124406712D01*
X109409524Y-124406712D02*
X109409524Y-124520998D01*
X109409524Y-124520998D02*
X109371428Y-124673379D01*
X109371428Y-124673379D02*
X109333333Y-124749569D01*
X109333333Y-124749569D02*
X109257143Y-124825760D01*
X109257143Y-124825760D02*
X109142857Y-124863855D01*
X109142857Y-124863855D02*
X108952381Y-124863855D01*
X110361905Y-124444807D02*
X110628571Y-124444807D01*
X110742857Y-124863855D02*
X110361905Y-124863855D01*
X110361905Y-124863855D02*
X110361905Y-124063855D01*
X110361905Y-124063855D02*
X110742857Y-124063855D01*
X111047619Y-124825760D02*
X111161905Y-124863855D01*
X111161905Y-124863855D02*
X111352381Y-124863855D01*
X111352381Y-124863855D02*
X111428572Y-124825760D01*
X111428572Y-124825760D02*
X111466667Y-124787664D01*
X111466667Y-124787664D02*
X111504762Y-124711474D01*
X111504762Y-124711474D02*
X111504762Y-124635283D01*
X111504762Y-124635283D02*
X111466667Y-124559093D01*
X111466667Y-124559093D02*
X111428572Y-124520998D01*
X111428572Y-124520998D02*
X111352381Y-124482902D01*
X111352381Y-124482902D02*
X111200000Y-124444807D01*
X111200000Y-124444807D02*
X111123810Y-124406712D01*
X111123810Y-124406712D02*
X111085715Y-124368617D01*
X111085715Y-124368617D02*
X111047619Y-124292426D01*
X111047619Y-124292426D02*
X111047619Y-124216236D01*
X111047619Y-124216236D02*
X111085715Y-124140045D01*
X111085715Y-124140045D02*
X111123810Y-124101950D01*
X111123810Y-124101950D02*
X111200000Y-124063855D01*
X111200000Y-124063855D02*
X111390477Y-124063855D01*
X111390477Y-124063855D02*
X111504762Y-124101950D01*
X111847620Y-124863855D02*
X111847620Y-124063855D01*
X111847620Y-124063855D02*
X112038096Y-124063855D01*
X112038096Y-124063855D02*
X112152382Y-124101950D01*
X112152382Y-124101950D02*
X112228572Y-124178140D01*
X112228572Y-124178140D02*
X112266667Y-124254331D01*
X112266667Y-124254331D02*
X112304763Y-124406712D01*
X112304763Y-124406712D02*
X112304763Y-124520998D01*
X112304763Y-124520998D02*
X112266667Y-124673379D01*
X112266667Y-124673379D02*
X112228572Y-124749569D01*
X112228572Y-124749569D02*
X112152382Y-124825760D01*
X112152382Y-124825760D02*
X112038096Y-124863855D01*
X112038096Y-124863855D02*
X111847620Y-124863855D01*
X104190475Y-154863855D02*
X103923808Y-154482902D01*
X103733332Y-154863855D02*
X103733332Y-154063855D01*
X103733332Y-154063855D02*
X104038094Y-154063855D01*
X104038094Y-154063855D02*
X104114284Y-154101950D01*
X104114284Y-154101950D02*
X104152379Y-154140045D01*
X104152379Y-154140045D02*
X104190475Y-154216236D01*
X104190475Y-154216236D02*
X104190475Y-154330521D01*
X104190475Y-154330521D02*
X104152379Y-154406712D01*
X104152379Y-154406712D02*
X104114284Y-154444807D01*
X104114284Y-154444807D02*
X104038094Y-154482902D01*
X104038094Y-154482902D02*
X103733332Y-154482902D01*
X104533332Y-154444807D02*
X104799998Y-154444807D01*
X104914284Y-154863855D02*
X104533332Y-154863855D01*
X104533332Y-154863855D02*
X104533332Y-154063855D01*
X104533332Y-154063855D02*
X104914284Y-154063855D01*
X105219046Y-154825760D02*
X105333332Y-154863855D01*
X105333332Y-154863855D02*
X105523808Y-154863855D01*
X105523808Y-154863855D02*
X105599999Y-154825760D01*
X105599999Y-154825760D02*
X105638094Y-154787664D01*
X105638094Y-154787664D02*
X105676189Y-154711474D01*
X105676189Y-154711474D02*
X105676189Y-154635283D01*
X105676189Y-154635283D02*
X105638094Y-154559093D01*
X105638094Y-154559093D02*
X105599999Y-154520998D01*
X105599999Y-154520998D02*
X105523808Y-154482902D01*
X105523808Y-154482902D02*
X105371427Y-154444807D01*
X105371427Y-154444807D02*
X105295237Y-154406712D01*
X105295237Y-154406712D02*
X105257142Y-154368617D01*
X105257142Y-154368617D02*
X105219046Y-154292426D01*
X105219046Y-154292426D02*
X105219046Y-154216236D01*
X105219046Y-154216236D02*
X105257142Y-154140045D01*
X105257142Y-154140045D02*
X105295237Y-154101950D01*
X105295237Y-154101950D02*
X105371427Y-154063855D01*
X105371427Y-154063855D02*
X105561904Y-154063855D01*
X105561904Y-154063855D02*
X105676189Y-154101950D01*
X106019047Y-154444807D02*
X106285713Y-154444807D01*
X106399999Y-154863855D02*
X106019047Y-154863855D01*
X106019047Y-154863855D02*
X106019047Y-154063855D01*
X106019047Y-154063855D02*
X106399999Y-154063855D01*
X107200000Y-154863855D02*
X106933333Y-154482902D01*
X106742857Y-154863855D02*
X106742857Y-154063855D01*
X106742857Y-154063855D02*
X107047619Y-154063855D01*
X107047619Y-154063855D02*
X107123809Y-154101950D01*
X107123809Y-154101950D02*
X107161904Y-154140045D01*
X107161904Y-154140045D02*
X107200000Y-154216236D01*
X107200000Y-154216236D02*
X107200000Y-154330521D01*
X107200000Y-154330521D02*
X107161904Y-154406712D01*
X107161904Y-154406712D02*
X107123809Y-154444807D01*
X107123809Y-154444807D02*
X107047619Y-154482902D01*
X107047619Y-154482902D02*
X106742857Y-154482902D01*
X107428571Y-154063855D02*
X107695238Y-154863855D01*
X107695238Y-154863855D02*
X107961904Y-154063855D01*
X108228571Y-154444807D02*
X108495237Y-154444807D01*
X108609523Y-154863855D02*
X108228571Y-154863855D01*
X108228571Y-154863855D02*
X108228571Y-154063855D01*
X108228571Y-154063855D02*
X108609523Y-154063855D01*
X108952381Y-154863855D02*
X108952381Y-154063855D01*
X108952381Y-154063855D02*
X109142857Y-154063855D01*
X109142857Y-154063855D02*
X109257143Y-154101950D01*
X109257143Y-154101950D02*
X109333333Y-154178140D01*
X109333333Y-154178140D02*
X109371428Y-154254331D01*
X109371428Y-154254331D02*
X109409524Y-154406712D01*
X109409524Y-154406712D02*
X109409524Y-154520998D01*
X109409524Y-154520998D02*
X109371428Y-154673379D01*
X109371428Y-154673379D02*
X109333333Y-154749569D01*
X109333333Y-154749569D02*
X109257143Y-154825760D01*
X109257143Y-154825760D02*
X109142857Y-154863855D01*
X109142857Y-154863855D02*
X108952381Y-154863855D01*
X110361905Y-154444807D02*
X110628571Y-154444807D01*
X110742857Y-154863855D02*
X110361905Y-154863855D01*
X110361905Y-154863855D02*
X110361905Y-154063855D01*
X110361905Y-154063855D02*
X110742857Y-154063855D01*
X111047619Y-154825760D02*
X111161905Y-154863855D01*
X111161905Y-154863855D02*
X111352381Y-154863855D01*
X111352381Y-154863855D02*
X111428572Y-154825760D01*
X111428572Y-154825760D02*
X111466667Y-154787664D01*
X111466667Y-154787664D02*
X111504762Y-154711474D01*
X111504762Y-154711474D02*
X111504762Y-154635283D01*
X111504762Y-154635283D02*
X111466667Y-154559093D01*
X111466667Y-154559093D02*
X111428572Y-154520998D01*
X111428572Y-154520998D02*
X111352381Y-154482902D01*
X111352381Y-154482902D02*
X111200000Y-154444807D01*
X111200000Y-154444807D02*
X111123810Y-154406712D01*
X111123810Y-154406712D02*
X111085715Y-154368617D01*
X111085715Y-154368617D02*
X111047619Y-154292426D01*
X111047619Y-154292426D02*
X111047619Y-154216236D01*
X111047619Y-154216236D02*
X111085715Y-154140045D01*
X111085715Y-154140045D02*
X111123810Y-154101950D01*
X111123810Y-154101950D02*
X111200000Y-154063855D01*
X111200000Y-154063855D02*
X111390477Y-154063855D01*
X111390477Y-154063855D02*
X111504762Y-154101950D01*
X111847620Y-154863855D02*
X111847620Y-154063855D01*
X111847620Y-154063855D02*
X112038096Y-154063855D01*
X112038096Y-154063855D02*
X112152382Y-154101950D01*
X112152382Y-154101950D02*
X112228572Y-154178140D01*
X112228572Y-154178140D02*
X112266667Y-154254331D01*
X112266667Y-154254331D02*
X112304763Y-154406712D01*
X112304763Y-154406712D02*
X112304763Y-154520998D01*
X112304763Y-154520998D02*
X112266667Y-154673379D01*
X112266667Y-154673379D02*
X112228572Y-154749569D01*
X112228572Y-154749569D02*
X112152382Y-154825760D01*
X112152382Y-154825760D02*
X112038096Y-154863855D01*
X112038096Y-154863855D02*
X111847620Y-154863855D01*
%TO.C,H2*%
D12*
X156300000Y-115350000D02*
G75*
G02*
X151900000Y-115350000I-2200000J0D01*
G01*
X151900000Y-115350000D02*
G75*
G02*
X156300000Y-115350000I2200000J0D01*
G01*
%TO.C,H3*%
X128100000Y-153520000D02*
G75*
G02*
X123700000Y-153520000I-2200000J0D01*
G01*
X123700000Y-153520000D02*
G75*
G02*
X128100000Y-153520000I2200000J0D01*
G01*
%TO.C,H4*%
X156300000Y-153520000D02*
G75*
G02*
X151900000Y-153520000I-2200000J0D01*
G01*
X151900000Y-153520000D02*
G75*
G02*
X156300000Y-153520000I2200000J0D01*
G01*
%TO.C,H1*%
X128100000Y-115350000D02*
G75*
G02*
X123700000Y-115350000I-2200000J0D01*
G01*
X123700000Y-115350000D02*
G75*
G02*
X128100000Y-115350000I2200000J0D01*
G01*
%TD*%
M02*
