M48
; DRILL file KiCad 10.0.6 date 2026-09-22T17:20:21
; FORMAT={-:-/ absolute / metric / decimal}
; #@! TF.CreationDate,2026-09-22T17:20:21-07:00
; #@! TF.GenerationSoftware,Kicad,Pcbnew,10.0.6
; #@! TF.FileFunction,MixedPlating,1,2
FMAT,2
METRIC
; #@! TA.AperFunction,Plated,PTH,ComponentDrill
T1C0.800
; #@! TA.AperFunction,Plated,PTH,ComponentDrill
T2C0.900
; #@! TA.AperFunction,Plated,PTH,ComponentDrill
T3C1.000
; #@! TA.AperFunction,NonPlated,NPTH,ComponentDrill
T4C3.200
%
G90
G05
T1
X110.0Y-116.0
X110.0Y-120.0
X116.0Y-132.0
X116.0Y-138.0
X117.62Y-116.0
X117.62Y-120.0
X118.54Y-138.0
X120.38Y-106.0
X121.08Y-132.0
X128.0Y-106.0
T2
X120.16Y-116.0
X122.7Y-116.0
T3
X103.8Y-110.0
X106.0Y-158.0
X106.34Y-110.0
X108.5Y-158.0
X108.88Y-110.0
X111.42Y-110.0
X113.96Y-110.0
X116.5Y-110.0
X136.5Y-109.0
X136.5Y-111.54
X136.5Y-114.08
X136.5Y-116.62
X136.5Y-119.16
X136.5Y-121.7
X136.5Y-124.24
X136.5Y-126.78
X136.5Y-129.32
X144.0Y-155.0
X144.0Y-157.54
T4
X138.0Y-99.0
X138.0Y-166.0
X186.0Y-99.0
X186.0Y-166.0
M30
