<?xml version="1.0" standalone="no"?>
 <!DOCTYPE svg PUBLIC "-//W3C//DTD SVG 1.1//EN" 
 "http://www.w3.org/Graphics/SVG/1.1/DTD/svg11.dtd"> 
<svg
  xmlns:svg="http://www.w3.org/2000/svg"
  xmlns="http://www.w3.org/2000/svg"
  xmlns:xlink="http://www.w3.org/1999/xlink"
  xmlns:inkscape="http://www.inkscape.org/namespaces/inkscape"
  version="1.1"
  width="297.0022mm" height="210.0072mm" viewBox="0.0000 0.0000 297.0022 210.0072">
<title>SVG Image created as board.svg date 2026-09-15T22:17:26 </title>
  <desc>Image generated by PCBNEW </desc>
<g style="fill:#000000; fill-opacity:1.0000;stroke:#000000; stroke-opacity:1.0000;
stroke-linecap:round; stroke-linejoin:round;"
 transform="translate(0 0) scale(1 1)">
</g>
<g style="fill:none; 
stroke:#C872AB; stroke-width:0.1500; stroke-opacity:1; 
stroke-linecap:round; stroke-linejoin:round;">
<path d="M177.0022 166.0072
L285.0022 166.0072
L285.0022 198.0072
L177.0022 198.0072
L177.0022 166.0072
" />
<path d="M10.0000 10.0000
L287.0022 10.0000
L287.0022 200.0072
L10.0000 200.0072
L10.0000 10.0000
" />
<path d="M12.0000 12.0000
L285.0022 12.0000
L285.0022 198.0072
L12.0000 198.0072
L12.0000 12.0000
" />
<path d="M60.0000 12.0000
L60.0000 10.0000
" />
<path d="M110.0000 12.0000
L110.0000 10.0000
" />
<path d="M160.0000 12.0000
L160.0000 10.0000
" />
<path d="M210.0000 12.0000
L210.0000 10.0000
" />
<path d="M260.0000 12.0000
L260.0000 10.0000
" />
<text x="35.0000" y="11.6500"
textLength="1.4281" font-size="1.7333" lengthAdjust="spacingAndGlyphs"
text-anchor="start" opacity="0" stroke-opacity="0">1</text>
<g class="stroked-text"><desc>1</desc>
<path d="M36.0892 11.5936
L35.3463 11.5936
" />
<path d="M35.7177 11.5936
L35.7177 10.2936
" />
<path d="M35.7177 10.2936
L35.5939 10.4793
" />
<path d="M35.5939 10.4793
L35.4701 10.6031
" />
<path d="M35.4701 10.6031
L35.3463 10.6650
" />
</g><text x="85.0000" y="11.6500"
textLength="1.4281" font-size="1.7333" lengthAdjust="spacingAndGlyphs"
text-anchor="start" opacity="0" stroke-opacity="0">2</text>
<g class="stroked-text"><desc>2</desc>
<path d="M85.3463 10.4174
L85.4082 10.3555
" />
<path d="M85.4082 10.3555
L85.5320 10.2936
" />
<path d="M85.5320 10.2936
L85.8415 10.2936
" />
<path d="M85.8415 10.2936
L85.9654 10.3555
" />
<path d="M85.9654 10.3555
L86.0273 10.4174
" />
<path d="M86.0273 10.4174
L86.0892 10.5412
" />
<path d="M86.0892 10.5412
L86.0892 10.6650
" />
<path d="M86.0892 10.6650
L86.0273 10.8507
" />
<path d="M86.0273 10.8507
L85.2844 11.5936
" />
<path d="M85.2844 11.5936
L86.0892 11.5936
" />
</g><text x="135.0000" y="11.6500"
textLength="1.4281" font-size="1.7333" lengthAdjust="spacingAndGlyphs"
text-anchor="start" opacity="0" stroke-opacity="0">3</text>
<g class="stroked-text"><desc>3</desc>
<path d="M135.2844 10.2936
L136.0892 10.2936
" />
<path d="M136.0892 10.2936
L135.6558 10.7888
" />
<path d="M135.6558 10.7888
L135.8415 10.7888
" />
<path d="M135.8415 10.7888
L135.9654 10.8507
" />
<path d="M135.9654 10.8507
L136.0273 10.9127
" />
<path d="M136.0273 10.9127
L136.0892 11.0365
" />
<path d="M136.0892 11.0365
L136.0892 11.3460
" />
<path d="M136.0892 11.3460
L136.0273 11.4698
" />
<path d="M136.0273 11.4698
L135.9654 11.5317
" />
<path d="M135.9654 11.5317
L135.8415 11.5936
" />
<path d="M135.8415 11.5936
L135.4701 11.5936
" />
<path d="M135.4701 11.5936
L135.3463 11.5317
" />
<path d="M135.3463 11.5317
L135.2844 11.4698
" />
</g><text x="185.0000" y="11.6500"
textLength="1.4281" font-size="1.7333" lengthAdjust="spacingAndGlyphs"
text-anchor="start" opacity="0" stroke-opacity="0">4</text>
<g class="stroked-text"><desc>4</desc>
<path d="M185.9654 10.7269
L185.9654 11.5936
" />
<path d="M185.6558 10.2317
L185.3463 11.1603
" />
<path d="M185.3463 11.1603
L186.1511 11.1603
" />
</g><text x="235.0000" y="11.6500"
textLength="1.4281" font-size="1.7333" lengthAdjust="spacingAndGlyphs"
text-anchor="start" opacity="0" stroke-opacity="0">5</text>
<g class="stroked-text"><desc>5</desc>
<path d="M236.0273 10.2936
L235.4082 10.2936
" />
<path d="M235.4082 10.2936
L235.3463 10.9127
" />
<path d="M235.3463 10.9127
L235.4082 10.8507
" />
<path d="M235.4082 10.8507
L235.5320 10.7888
" />
<path d="M235.5320 10.7888
L235.8415 10.7888
" />
<path d="M235.8415 10.7888
L235.9654 10.8507
" />
<path d="M235.9654 10.8507
L236.0273 10.9127
" />
<path d="M236.0273 10.9127
L236.0892 11.0365
" />
<path d="M236.0892 11.0365
L236.0892 11.3460
" />
<path d="M236.0892 11.3460
L236.0273 11.4698
" />
<path d="M236.0273 11.4698
L235.9654 11.5317
" />
<path d="M235.9654 11.5317
L235.8415 11.5936
" />
<path d="M235.8415 11.5936
L235.5320 11.5936
" />
<path d="M235.5320 11.5936
L235.4082 11.5317
" />
<path d="M235.4082 11.5317
L235.3463 11.4698
" />
</g><text x="285.0000" y="11.6500"
textLength="1.4281" font-size="1.7333" lengthAdjust="spacingAndGlyphs"
text-anchor="start" opacity="0" stroke-opacity="0">6</text>
<g class="stroked-text"><desc>6</desc>
<path d="M285.9654 10.2936
L285.7177 10.2936
" />
<path d="M285.7177 10.2936
L285.5939 10.3555
" />
<path d="M285.5939 10.3555
L285.5320 10.4174
" />
<path d="M285.5320 10.4174
L285.4082 10.6031
" />
<path d="M285.4082 10.6031
L285.3463 10.8507
" />
<path d="M285.3463 10.8507
L285.3463 11.3460
" />
<path d="M285.3463 11.3460
L285.4082 11.4698
" />
<path d="M285.4082 11.4698
L285.4701 11.5317
" />
<path d="M285.4701 11.5317
L285.5939 11.5936
" />
<path d="M285.5939 11.5936
L285.8415 11.5936
" />
<path d="M285.8415 11.5936
L285.9654 11.5317
" />
<path d="M285.9654 11.5317
L286.0273 11.4698
" />
<path d="M286.0273 11.4698
L286.0892 11.3460
" />
<path d="M286.0892 11.3460
L286.0892 11.0365
" />
<path d="M286.0892 11.0365
L286.0273 10.9127
" />
<path d="M286.0273 10.9127
L285.9654 10.8507
" />
<path d="M285.9654 10.8507
L285.8415 10.7888
" />
<path d="M285.8415 10.7888
L285.5939 10.7888
" />
<path d="M285.5939 10.7888
L285.4701 10.8507
" />
<path d="M285.4701 10.8507
L285.4082 10.9127
" />
<path d="M285.4082 10.9127
L285.3463 11.0365
" />
</g><path d="M60.0000 198.0072
L60.0000 200.0072
" />
<path d="M110.0000 198.0072
L110.0000 200.0072
" />
<path d="M160.0000 198.0072
L160.0000 200.0072
" />
<path d="M210.0000 198.0072
L210.0000 200.0072
" />
<path d="M260.0000 198.0072
L260.0000 200.0072
" />
<text x="35.0000" y="199.6572"
textLength="1.4281" font-size="1.7333" lengthAdjust="spacingAndGlyphs"
text-anchor="start" opacity="0" stroke-opacity="0">1</text>
<g class="stroked-text"><desc>1</desc>
<path d="M36.0892 199.6008
L35.3463 199.6008
" />
<path d="M35.7177 199.6008
L35.7177 198.3008
" />
<path d="M35.7177 198.3008
L35.5939 198.4865
" />
<path d="M35.5939 198.4865
L35.4701 198.6103
" />
<path d="M35.4701 198.6103
L35.3463 198.6722
" />
</g><text x="85.0000" y="199.6572"
textLength="1.4281" font-size="1.7333" lengthAdjust="spacingAndGlyphs"
text-anchor="start" opacity="0" stroke-opacity="0">2</text>
<g class="stroked-text"><desc>2</desc>
<path d="M85.3463 198.4246
L85.4082 198.3627
" />
<path d="M85.4082 198.3627
L85.5320 198.3008
" />
<path d="M85.5320 198.3008
L85.8415 198.3008
" />
<path d="M85.8415 198.3008
L85.9654 198.3627
" />
<path d="M85.9654 198.3627
L86.0273 198.4246
" />
<path d="M86.0273 198.4246
L86.0892 198.5484
" />
<path d="M86.0892 198.5484
L86.0892 198.6722
" />
<path d="M86.0892 198.6722
L86.0273 198.8579
" />
<path d="M86.0273 198.8579
L85.2844 199.6008
" />
<path d="M85.2844 199.6008
L86.0892 199.6008
" />
</g><text x="135.0000" y="199.6572"
textLength="1.4281" font-size="1.7333" lengthAdjust="spacingAndGlyphs"
text-anchor="start" opacity="0" stroke-opacity="0">3</text>
<g class="stroked-text"><desc>3</desc>
<path d="M135.2844 198.3008
L136.0892 198.3008
" />
<path d="M136.0892 198.3008
L135.6558 198.7960
" />
<path d="M135.6558 198.7960
L135.8415 198.7960
" />
<path d="M135.8415 198.7960
L135.9654 198.8579
" />
<path d="M135.9654 198.8579
L136.0273 198.9199
" />
<path d="M136.0273 198.9199
L136.0892 199.0437
" />
<path d="M136.0892 199.0437
L136.0892 199.3532
" />
<path d="M136.0892 199.3532
L136.0273 199.4770
" />
<path d="M136.0273 199.4770
L135.9654 199.5389
" />
<path d="M135.9654 199.5389
L135.8415 199.6008
" />
<path d="M135.8415 199.6008
L135.4701 199.6008
" />
<path d="M135.4701 199.6008
L135.3463 199.5389
" />
<path d="M135.3463 199.5389
L135.2844 199.4770
" />
</g><text x="185.0000" y="199.6572"
textLength="1.4281" font-size="1.7333" lengthAdjust="spacingAndGlyphs"
text-anchor="start" opacity="0" stroke-opacity="0">4</text>
<g class="stroked-text"><desc>4</desc>
<path d="M185.9654 198.7341
L185.9654 199.6008
" />
<path d="M185.6558 198.2389
L185.3463 199.1675
" />
<path d="M185.3463 199.1675
L186.1511 199.1675
" />
</g><text x="235.0000" y="199.6572"
textLength="1.4281" font-size="1.7333" lengthAdjust="spacingAndGlyphs"
text-anchor="start" opacity="0" stroke-opacity="0">5</text>
<g class="stroked-text"><desc>5</desc>
<path d="M236.0273 198.3008
L235.4082 198.3008
" />
<path d="M235.4082 198.3008
L235.3463 198.9199
" />
<path d="M235.3463 198.9199
L235.4082 198.8579
" />
<path d="M235.4082 198.8579
L235.5320 198.7960
" />
<path d="M235.5320 198.7960
L235.8415 198.7960
" />
<path d="M235.8415 198.7960
L235.9654 198.8579
" />
<path d="M235.9654 198.8579
L236.0273 198.9199
" />
<path d="M236.0273 198.9199
L236.0892 199.0437
" />
<path d="M236.0892 199.0437
L236.0892 199.3532
" />
<path d="M236.0892 199.3532
L236.0273 199.4770
" />
<path d="M236.0273 199.4770
L235.9654 199.5389
" />
<path d="M235.9654 199.5389
L235.8415 199.6008
" />
<path d="M235.8415 199.6008
L235.5320 199.6008
" />
<path d="M235.5320 199.6008
L235.4082 199.5389
" />
<path d="M235.4082 199.5389
L235.3463 199.4770
" />
</g><text x="285.0000" y="199.6572"
textLength="1.4281" font-size="1.7333" lengthAdjust="spacingAndGlyphs"
text-anchor="start" opacity="0" stroke-opacity="0">6</text>
<g class="stroked-text"><desc>6</desc>
<path d="M285.9654 198.3008
L285.7177 198.3008
" />
<path d="M285.7177 198.3008
L285.5939 198.3627
" />
<path d="M285.5939 198.3627
L285.5320 198.4246
" />
<path d="M285.5320 198.4246
L285.4082 198.6103
" />
<path d="M285.4082 198.6103
L285.3463 198.8579
" />
<path d="M285.3463 198.8579
L285.3463 199.3532
" />
<path d="M285.3463 199.3532
L285.4082 199.4770
" />
<path d="M285.4082 199.4770
L285.4701 199.5389
" />
<path d="M285.4701 199.5389
L285.5939 199.6008
" />
<path d="M285.5939 199.6008
L285.8415 199.6008
" />
<path d="M285.8415 199.6008
L285.9654 199.5389
" />
<path d="M285.9654 199.5389
L286.0273 199.4770
" />
<path d="M286.0273 199.4770
L286.0892 199.3532
" />
<path d="M286.0892 199.3532
L286.0892 199.0437
" />
<path d="M286.0892 199.0437
L286.0273 198.9199
" />
<path d="M286.0273 198.9199
L285.9654 198.8579
" />
<path d="M285.9654 198.8579
L285.8415 198.7960
" />
<path d="M285.8415 198.7960
L285.5939 198.7960
" />
<path d="M285.5939 198.7960
L285.4701 198.8579
" />
<path d="M285.4701 198.8579
L285.4082 198.9199
" />
<path d="M285.4082 198.9199
L285.3463 199.0437
" />
</g><path d="M10.0000 60.0000
L12.0000 60.0000
" />
<path d="M10.0000 110.0000
L12.0000 110.0000
" />
<path d="M10.0000 160.0000
L12.0000 160.0000
" />
<text x="11.0000" y="35.6500"
textLength="1.3043" font-size="1.7333" lengthAdjust="spacingAndGlyphs"
text-anchor="middle" opacity="0" stroke-opacity="0">A</text>
<g class="stroked-text"><desc>A</desc>
<path d="M10.6905 35.2222
L11.3095 35.2222
" />
<path d="M10.5667 35.5936
L11.0000 34.2936
" />
<path d="M11.0000 34.2936
L11.4333 35.5936
" />
</g><text x="11.0000" y="85.6500"
textLength="1.4900" font-size="1.7333" lengthAdjust="spacingAndGlyphs"
text-anchor="middle" opacity="0" stroke-opacity="0">B</text>
<g class="stroked-text"><desc>B</desc>
<path d="M11.0929 84.9127
L11.2786 84.9746
" />
<path d="M11.2786 84.9746
L11.3405 85.0365
" />
<path d="M11.3405 85.0365
L11.4024 85.1603
" />
<path d="M11.4024 85.1603
L11.4024 85.3460
" />
<path d="M11.4024 85.3460
L11.3405 85.4698
" />
<path d="M11.3405 85.4698
L11.2786 85.5317
" />
<path d="M11.2786 85.5317
L11.1548 85.5936
" />
<path d="M11.1548 85.5936
L10.6595 85.5936
" />
<path d="M10.6595 85.5936
L10.6595 84.2936
" />
<path d="M10.6595 84.2936
L11.0929 84.2936
" />
<path d="M11.0929 84.2936
L11.2167 84.3555
" />
<path d="M11.2167 84.3555
L11.2786 84.4174
" />
<path d="M11.2786 84.4174
L11.3405 84.5412
" />
<path d="M11.3405 84.5412
L11.3405 84.6650
" />
<path d="M11.3405 84.6650
L11.2786 84.7888
" />
<path d="M11.2786 84.7888
L11.2167 84.8507
" />
<path d="M11.2167 84.8507
L11.0929 84.9127
" />
<path d="M11.0929 84.9127
L10.6595 84.9127
" />
</g><text x="11.0000" y="135.6500"
textLength="1.4900" font-size="1.7333" lengthAdjust="spacingAndGlyphs"
text-anchor="middle" opacity="0" stroke-opacity="0">C</text>
<g class="stroked-text"><desc>C</desc>
<path d="M11.4024 135.4698
L11.3405 135.5317
" />
<path d="M11.3405 135.5317
L11.1548 135.5936
" />
<path d="M11.1548 135.5936
L11.0310 135.5936
" />
<path d="M11.0310 135.5936
L10.8452 135.5317
" />
<path d="M10.8452 135.5317
L10.7214 135.4079
" />
<path d="M10.7214 135.4079
L10.6595 135.2841
" />
<path d="M10.6595 135.2841
L10.5976 135.0365
" />
<path d="M10.5976 135.0365
L10.5976 134.8507
" />
<path d="M10.5976 134.8507
L10.6595 134.6031
" />
<path d="M10.6595 134.6031
L10.7214 134.4793
" />
<path d="M10.7214 134.4793
L10.8452 134.3555
" />
<path d="M10.8452 134.3555
L11.0310 134.2936
" />
<path d="M11.0310 134.2936
L11.1548 134.2936
" />
<path d="M11.1548 134.2936
L11.3405 134.3555
" />
<path d="M11.3405 134.3555
L11.4024 134.4174
" />
</g><text x="11.0000" y="185.6500"
textLength="1.4900" font-size="1.7333" lengthAdjust="spacingAndGlyphs"
text-anchor="middle" opacity="0" stroke-opacity="0">D</text>
<g class="stroked-text"><desc>D</desc>
<path d="M10.6595 185.5936
L10.6595 184.2936
" />
<path d="M10.6595 184.2936
L10.9690 184.2936
" />
<path d="M10.9690 184.2936
L11.1548 184.3555
" />
<path d="M11.1548 184.3555
L11.2786 184.4793
" />
<path d="M11.2786 184.4793
L11.3405 184.6031
" />
<path d="M11.3405 184.6031
L11.4024 184.8507
" />
<path d="M11.4024 184.8507
L11.4024 185.0365
" />
<path d="M11.4024 185.0365
L11.3405 185.2841
" />
<path d="M11.3405 185.2841
L11.2786 185.4079
" />
<path d="M11.2786 185.4079
L11.1548 185.5317
" />
<path d="M11.1548 185.5317
L10.9690 185.5936
" />
<path d="M10.9690 185.5936
L10.6595 185.5936
" />
</g><path d="M287.0022 60.0000
L285.0022 60.0000
" />
<path d="M287.0022 110.0000
L285.0022 110.0000
" />
<path d="M287.0022 160.0000
L285.0022 160.0000
" />
<text x="286.0022" y="35.6500"
textLength="1.3043" font-size="1.7333" lengthAdjust="spacingAndGlyphs"
text-anchor="middle" opacity="0" stroke-opacity="0">A</text>
<g class="stroked-text"><desc>A</desc>
<path d="M285.6927 35.2222
L286.3117 35.2222
" />
<path d="M285.5689 35.5936
L286.0022 34.2936
" />
<path d="M286.0022 34.2936
L286.4355 35.5936
" />
</g><text x="286.0022" y="85.6500"
textLength="1.4900" font-size="1.7333" lengthAdjust="spacingAndGlyphs"
text-anchor="middle" opacity="0" stroke-opacity="0">B</text>
<g class="stroked-text"><desc>B</desc>
<path d="M286.0951 84.9127
L286.2808 84.9746
" />
<path d="M286.2808 84.9746
L286.3427 85.0365
" />
<path d="M286.3427 85.0365
L286.4046 85.1603
" />
<path d="M286.4046 85.1603
L286.4046 85.3460
" />
<path d="M286.4046 85.3460
L286.3427 85.4698
" />
<path d="M286.3427 85.4698
L286.2808 85.5317
" />
<path d="M286.2808 85.5317
L286.1570 85.5936
" />
<path d="M286.1570 85.5936
L285.6617 85.5936
" />
<path d="M285.6617 85.5936
L285.6617 84.2936
" />
<path d="M285.6617 84.2936
L286.0951 84.2936
" />
<path d="M286.0951 84.2936
L286.2189 84.3555
" />
<path d="M286.2189 84.3555
L286.2808 84.4174
" />
<path d="M286.2808 84.4174
L286.3427 84.5412
" />
<path d="M286.3427 84.5412
L286.3427 84.6650
" />
<path d="M286.3427 84.6650
L286.2808 84.7888
" />
<path d="M286.2808 84.7888
L286.2189 84.8507
" />
<path d="M286.2189 84.8507
L286.0951 84.9127
" />
<path d="M286.0951 84.9127
L285.6617 84.9127
" />
</g><text x="286.0022" y="135.6500"
textLength="1.4900" font-size="1.7333" lengthAdjust="spacingAndGlyphs"
text-anchor="middle" opacity="0" stroke-opacity="0">C</text>
<g class="stroked-text"><desc>C</desc>
<path d="M286.4046 135.4698
L286.3427 135.5317
" />
<path d="M286.3427 135.5317
L286.1570 135.5936
" />
<path d="M286.1570 135.5936
L286.0332 135.5936
" />
<path d="M286.0332 135.5936
L285.8474 135.5317
" />
<path d="M285.8474 135.5317
L285.7236 135.4079
" />
<path d="M285.7236 135.4079
L285.6617 135.2841
" />
<path d="M285.6617 135.2841
L285.5998 135.0365
" />
<path d="M285.5998 135.0365
L285.5998 134.8507
" />
<path d="M285.5998 134.8507
L285.6617 134.6031
" />
<path d="M285.6617 134.6031
L285.7236 134.4793
" />
<path d="M285.7236 134.4793
L285.8474 134.3555
" />
<path d="M285.8474 134.3555
L286.0332 134.2936
" />
<path d="M286.0332 134.2936
L286.1570 134.2936
" />
<path d="M286.1570 134.2936
L286.3427 134.3555
" />
<path d="M286.3427 134.3555
L286.4046 134.4174
" />
</g><text x="286.0022" y="185.6500"
textLength="1.4900" font-size="1.7333" lengthAdjust="spacingAndGlyphs"
text-anchor="middle" opacity="0" stroke-opacity="0">D</text>
<g class="stroked-text"><desc>D</desc>
<path d="M285.6617 185.5936
L285.6617 184.2936
" />
<path d="M285.6617 184.2936
L285.9712 184.2936
" />
<path d="M285.9712 184.2936
L286.1570 184.3555
" />
<path d="M286.1570 184.3555
L286.2808 184.4793
" />
<path d="M286.2808 184.4793
L286.3427 184.6031
" />
<path d="M286.3427 184.6031
L286.4046 184.8507
" />
<path d="M286.4046 184.8507
L286.4046 185.0365
" />
<path d="M286.4046 185.0365
L286.3427 185.2841
" />
<path d="M286.3427 185.2841
L286.2808 185.4079
" />
<path d="M286.2808 185.4079
L286.1570 185.5317
" />
<path d="M286.1570 185.5317
L285.9712 185.5936
" />
<path d="M285.9712 185.5936
L285.6617 185.5936
" />
</g><text x="200.0022" y="193.8572"
textLength="7.0071" font-size="2.0000" lengthAdjust="spacingAndGlyphs"
text-anchor="start" opacity="0" stroke-opacity="0">Date: </text>
<g class="stroked-text"><desc>Date: </desc>
<path d="M200.4580 193.7933
L200.4580 192.2933
" />
<path d="M200.4580 192.2933
L200.8152 192.2933
" />
<path d="M200.8152 192.2933
L201.0295 192.3648
" />
<path d="M201.0295 192.3648
L201.1723 192.5076
" />
<path d="M201.1723 192.5076
L201.2437 192.6505
" />
<path d="M201.2437 192.6505
L201.3152 192.9362
" />
<path d="M201.3152 192.9362
L201.3152 193.1505
" />
<path d="M201.3152 193.1505
L201.2437 193.4362
" />
<path d="M201.2437 193.4362
L201.1723 193.5790
" />
<path d="M201.1723 193.5790
L201.0295 193.7219
" />
<path d="M201.0295 193.7219
L200.8152 193.7933
" />
<path d="M200.8152 193.7933
L200.4580 193.7933
" />
<path d="M202.6009 193.7933
L202.6009 193.0076
" />
<path d="M202.6009 193.0076
L202.5295 192.8648
" />
<path d="M202.5295 192.8648
L202.3866 192.7933
" />
<path d="M202.3866 192.7933
L202.1009 192.7933
" />
<path d="M202.1009 192.7933
L201.9580 192.8648
" />
<path d="M202.6009 193.7219
L202.4580 193.7933
" />
<path d="M202.4580 193.7933
L202.1009 193.7933
" />
<path d="M202.1009 193.7933
L201.9580 193.7219
" />
<path d="M201.9580 193.7219
L201.8866 193.5790
" />
<path d="M201.8866 193.5790
L201.8866 193.4362
" />
<path d="M201.8866 193.4362
L201.9580 193.2933
" />
<path d="M201.9580 193.2933
L202.1009 193.2219
" />
<path d="M202.1009 193.2219
L202.4580 193.2219
" />
<path d="M202.4580 193.2219
L202.6009 193.1505
" />
<path d="M203.1009 192.7933
L203.6723 192.7933
" />
<path d="M203.3152 192.2933
L203.3152 193.5790
" />
<path d="M203.3152 193.5790
L203.3866 193.7219
" />
<path d="M203.3866 193.7219
L203.5295 193.7933
" />
<path d="M203.5295 193.7933
L203.6723 193.7933
" />
<path d="M204.7437 193.7219
L204.6009 193.7933
" />
<path d="M204.6009 193.7933
L204.3152 193.7933
" />
<path d="M204.3152 193.7933
L204.1723 193.7219
" />
<path d="M204.1723 193.7219
L204.1009 193.5790
" />
<path d="M204.1009 193.5790
L204.1009 193.0076
" />
<path d="M204.1009 193.0076
L204.1723 192.8648
" />
<path d="M204.1723 192.8648
L204.3152 192.7933
" />
<path d="M204.3152 192.7933
L204.6009 192.7933
" />
<path d="M204.6009 192.7933
L204.7437 192.8648
" />
<path d="M204.7437 192.8648
L204.8152 193.0076
" />
<path d="M204.8152 193.0076
L204.8152 193.1505
" />
<path d="M204.8152 193.1505
L204.1009 193.2933
" />
<path d="M205.4580 193.6505
L205.5295 193.7219
" />
<path d="M205.5295 193.7219
L205.4580 193.7933
" />
<path d="M205.4580 193.7933
L205.3866 193.7219
" />
<path d="M205.3866 193.7219
L205.4580 193.6505
" />
<path d="M205.4580 193.6505
L205.4580 193.7933
" />
<path d="M205.4580 192.8648
L205.5295 192.9362
" />
<path d="M205.5295 192.9362
L205.4580 193.0076
" />
<path d="M205.4580 193.0076
L205.3866 192.9362
" />
<path d="M205.3866 192.9362
L205.4580 192.8648
" />
<path d="M205.4580 192.8648
L205.4580 193.0076
" />
</g><path d="M177.0022 194.5072
L285.0022 194.5072
" />
<text x="178.0022" y="196.6572"
textLength="22.2929" font-size="2.0000" lengthAdjust="spacingAndGlyphs"
text-anchor="start" opacity="0" stroke-opacity="0">KiCad E.D.A. 10.0.6</text>
<g class="stroked-text"><desc>KiCad E.D.A. 10.0.6</desc>
<path d="M178.4580 196.5933
L178.4580 195.0933
" />
<path d="M179.3152 196.5933
L178.6723 195.7362
" />
<path d="M179.3152 195.0933
L178.4580 195.9505
" />
<path d="M179.9580 196.5933
L179.9580 195.5933
" />
<path d="M179.9580 195.0933
L179.8866 195.1648
" />
<path d="M179.8866 195.1648
L179.9580 195.2362
" />
<path d="M179.9580 195.2362
L180.0295 195.1648
" />
<path d="M180.0295 195.1648
L179.9580 195.0933
" />
<path d="M179.9580 195.0933
L179.9580 195.2362
" />
<path d="M181.5295 196.4505
L181.4580 196.5219
" />
<path d="M181.4580 196.5219
L181.2437 196.5933
" />
<path d="M181.2437 196.5933
L181.1009 196.5933
" />
<path d="M181.1009 196.5933
L180.8866 196.5219
" />
<path d="M180.8866 196.5219
L180.7437 196.3790
" />
<path d="M180.7437 196.3790
L180.6723 196.2362
" />
<path d="M180.6723 196.2362
L180.6009 195.9505
" />
<path d="M180.6009 195.9505
L180.6009 195.7362
" />
<path d="M180.6009 195.7362
L180.6723 195.4505
" />
<path d="M180.6723 195.4505
L180.7437 195.3076
" />
<path d="M180.7437 195.3076
L180.8866 195.1648
" />
<path d="M180.8866 195.1648
L181.1009 195.0933
" />
<path d="M181.1009 195.0933
L181.2437 195.0933
" />
<path d="M181.2437 195.0933
L181.4580 195.1648
" />
<path d="M181.4580 195.1648
L181.5295 195.2362
" />
<path d="M182.8152 196.5933
L182.8152 195.8076
" />
<path d="M182.8152 195.8076
L182.7437 195.6648
" />
<path d="M182.7437 195.6648
L182.6009 195.5933
" />
<path d="M182.6009 195.5933
L182.3152 195.5933
" />
<path d="M182.3152 195.5933
L182.1723 195.6648
" />
<path d="M182.8152 196.5219
L182.6723 196.5933
" />
<path d="M182.6723 196.5933
L182.3152 196.5933
" />
<path d="M182.3152 196.5933
L182.1723 196.5219
" />
<path d="M182.1723 196.5219
L182.1009 196.3790
" />
<path d="M182.1009 196.3790
L182.1009 196.2362
" />
<path d="M182.1009 196.2362
L182.1723 196.0933
" />
<path d="M182.1723 196.0933
L182.3152 196.0219
" />
<path d="M182.3152 196.0219
L182.6723 196.0219
" />
<path d="M182.6723 196.0219
L182.8152 195.9505
" />
<path d="M184.1723 196.5933
L184.1723 195.0933
" />
<path d="M184.1723 196.5219
L184.0295 196.5933
" />
<path d="M184.0295 196.5933
L183.7437 196.5933
" />
<path d="M183.7437 196.5933
L183.6009 196.5219
" />
<path d="M183.6009 196.5219
L183.5295 196.4505
" />
<path d="M183.5295 196.4505
L183.4580 196.3076
" />
<path d="M183.4580 196.3076
L183.4580 195.8790
" />
<path d="M183.4580 195.8790
L183.5295 195.7362
" />
<path d="M183.5295 195.7362
L183.6009 195.6648
" />
<path d="M183.6009 195.6648
L183.7437 195.5933
" />
<path d="M183.7437 195.5933
L184.0295 195.5933
" />
<path d="M184.0295 195.5933
L184.1723 195.6648
" />
<path d="M186.0295 195.8076
L186.5295 195.8076
" />
<path d="M186.7437 196.5933
L186.0295 196.5933
" />
<path d="M186.0295 196.5933
L186.0295 195.0933
" />
<path d="M186.0295 195.0933
L186.7437 195.0933
" />
<path d="M187.3866 196.4505
L187.4580 196.5219
" />
<path d="M187.4580 196.5219
L187.3866 196.5933
" />
<path d="M187.3866 196.5933
L187.3152 196.5219
" />
<path d="M187.3152 196.5219
L187.3866 196.4505
" />
<path d="M187.3866 196.4505
L187.3866 196.5933
" />
<path d="M188.1009 196.5933
L188.1009 195.0933
" />
<path d="M188.1009 195.0933
L188.4580 195.0933
" />
<path d="M188.4580 195.0933
L188.6723 195.1648
" />
<path d="M188.6723 195.1648
L188.8152 195.3076
" />
<path d="M188.8152 195.3076
L188.8866 195.4505
" />
<path d="M188.8866 195.4505
L188.9580 195.7362
" />
<path d="M188.9580 195.7362
L188.9580 195.9505
" />
<path d="M188.9580 195.9505
L188.8866 196.2362
" />
<path d="M188.8866 196.2362
L188.8152 196.3790
" />
<path d="M188.8152 196.3790
L188.6723 196.5219
" />
<path d="M188.6723 196.5219
L188.4580 196.5933
" />
<path d="M188.4580 196.5933
L188.1009 196.5933
" />
<path d="M189.6009 196.4505
L189.6723 196.5219
" />
<path d="M189.6723 196.5219
L189.6009 196.5933
" />
<path d="M189.6009 196.5933
L189.5295 196.5219
" />
<path d="M189.5295 196.5219
L189.6009 196.4505
" />
<path d="M189.6009 196.4505
L189.6009 196.5933
" />
<path d="M190.2437 196.1648
L190.9580 196.1648
" />
<path d="M190.1009 196.5933
L190.6009 195.0933
" />
<path d="M190.6009 195.0933
L191.1009 196.5933
" />
<path d="M191.6009 196.4505
L191.6723 196.5219
" />
<path d="M191.6723 196.5219
L191.6009 196.5933
" />
<path d="M191.6009 196.5933
L191.5295 196.5219
" />
<path d="M191.5295 196.5219
L191.6009 196.4505
" />
<path d="M191.6009 196.4505
L191.6009 196.5933
" />
<path d="M194.2437 196.5933
L193.3866 196.5933
" />
<path d="M193.8152 196.5933
L193.8152 195.0933
" />
<path d="M193.8152 195.0933
L193.6723 195.3076
" />
<path d="M193.6723 195.3076
L193.5295 195.4505
" />
<path d="M193.5295 195.4505
L193.3866 195.5219
" />
<path d="M195.1723 195.0933
L195.3152 195.0933
" />
<path d="M195.3152 195.0933
L195.4580 195.1648
" />
<path d="M195.4580 195.1648
L195.5295 195.2362
" />
<path d="M195.5295 195.2362
L195.6009 195.3790
" />
<path d="M195.6009 195.3790
L195.6723 195.6648
" />
<path d="M195.6723 195.6648
L195.6723 196.0219
" />
<path d="M195.6723 196.0219
L195.6009 196.3076
" />
<path d="M195.6009 196.3076
L195.5295 196.4505
" />
<path d="M195.5295 196.4505
L195.4580 196.5219
" />
<path d="M195.4580 196.5219
L195.3152 196.5933
" />
<path d="M195.3152 196.5933
L195.1723 196.5933
" />
<path d="M195.1723 196.5933
L195.0295 196.5219
" />
<path d="M195.0295 196.5219
L194.9580 196.4505
" />
<path d="M194.9580 196.4505
L194.8866 196.3076
" />
<path d="M194.8866 196.3076
L194.8152 196.0219
" />
<path d="M194.8152 196.0219
L194.8152 195.6648
" />
<path d="M194.8152 195.6648
L194.8866 195.3790
" />
<path d="M194.8866 195.3790
L194.9580 195.2362
" />
<path d="M194.9580 195.2362
L195.0295 195.1648
" />
<path d="M195.0295 195.1648
L195.1723 195.0933
" />
<path d="M196.3152 196.4505
L196.3866 196.5219
" />
<path d="M196.3866 196.5219
L196.3152 196.5933
" />
<path d="M196.3152 196.5933
L196.2437 196.5219
" />
<path d="M196.2437 196.5219
L196.3152 196.4505
" />
<path d="M196.3152 196.4505
L196.3152 196.5933
" />
<path d="M197.3152 195.0933
L197.4580 195.0933
" />
<path d="M197.4580 195.0933
L197.6009 195.1648
" />
<path d="M197.6009 195.1648
L197.6723 195.2362
" />
<path d="M197.6723 195.2362
L197.7437 195.3790
" />
<path d="M197.7437 195.3790
L197.8152 195.6648
" />
<path d="M197.8152 195.6648
L197.8152 196.0219
" />
<path d="M197.8152 196.0219
L197.7437 196.3076
" />
<path d="M197.7437 196.3076
L197.6723 196.4505
" />
<path d="M197.6723 196.4505
L197.6009 196.5219
" />
<path d="M197.6009 196.5219
L197.4580 196.5933
" />
<path d="M197.4580 196.5933
L197.3152 196.5933
" />
<path d="M197.3152 196.5933
L197.1723 196.5219
" />
<path d="M197.1723 196.5219
L197.1009 196.4505
" />
<path d="M197.1009 196.4505
L197.0295 196.3076
" />
<path d="M197.0295 196.3076
L196.9580 196.0219
" />
<path d="M196.9580 196.0219
L196.9580 195.6648
" />
<path d="M196.9580 195.6648
L197.0295 195.3790
" />
<path d="M197.0295 195.3790
L197.1009 195.2362
" />
<path d="M197.1009 195.2362
L197.1723 195.1648
" />
<path d="M197.1723 195.1648
L197.3152 195.0933
" />
<path d="M198.4580 196.4505
L198.5295 196.5219
" />
<path d="M198.5295 196.5219
L198.4580 196.5933
" />
<path d="M198.4580 196.5933
L198.3866 196.5219
" />
<path d="M198.3866 196.5219
L198.4580 196.4505
" />
<path d="M198.4580 196.4505
L198.4580 196.5933
" />
<path d="M199.8152 195.0933
L199.5295 195.0933
" />
<path d="M199.5295 195.0933
L199.3866 195.1648
" />
<path d="M199.3866 195.1648
L199.3152 195.2362
" />
<path d="M199.3152 195.2362
L199.1723 195.4505
" />
<path d="M199.1723 195.4505
L199.1009 195.7362
" />
<path d="M199.1009 195.7362
L199.1009 196.3076
" />
<path d="M199.1009 196.3076
L199.1723 196.4505
" />
<path d="M199.1723 196.4505
L199.2437 196.5219
" />
<path d="M199.2437 196.5219
L199.3866 196.5933
" />
<path d="M199.3866 196.5933
L199.6723 196.5933
" />
<path d="M199.6723 196.5933
L199.8152 196.5219
" />
<path d="M199.8152 196.5219
L199.8866 196.4505
" />
<path d="M199.8866 196.4505
L199.9580 196.3076
" />
<path d="M199.9580 196.3076
L199.9580 195.9505
" />
<path d="M199.9580 195.9505
L199.8866 195.8076
" />
<path d="M199.8866 195.8076
L199.8152 195.7362
" />
<path d="M199.8152 195.7362
L199.6723 195.6648
" />
<path d="M199.6723 195.6648
L199.3866 195.6648
" />
<path d="M199.3866 195.6648
L199.2437 195.7362
" />
<path d="M199.2437 195.7362
L199.1723 195.8076
" />
<path d="M199.1723 195.8076
L199.1009 195.9505
" />
</g><path d="M177.0022 191.5072
L285.0022 191.5072
" />
</g>
<g style="fill:none; 
stroke:#C872AB; stroke-width:0.3000; stroke-opacity:1; 
stroke-linecap:round; stroke-linejoin:round;">
<text x="263.0022" y="193.8572"
textLength="6.3857" font-size="2.0000" lengthAdjust="spacingAndGlyphs"
text-anchor="start" opacity="0" stroke-opacity="0">Rev: </text>
<g class="stroked-text"><desc>Rev: </desc>
<path d="M264.4139 193.7855
L263.9139 193.0712
" />
<path d="M263.5567 193.7855
L263.5567 192.2855
" />
<path d="M263.5567 192.2855
L264.1281 192.2855
" />
<path d="M264.1281 192.2855
L264.2710 192.3570
" />
<path d="M264.2710 192.3570
L264.3424 192.4284
" />
<path d="M264.3424 192.4284
L264.4139 192.5712
" />
<path d="M264.4139 192.5712
L264.4139 192.7855
" />
<path d="M264.4139 192.7855
L264.3424 192.9284
" />
<path d="M264.3424 192.9284
L264.2710 192.9998
" />
<path d="M264.2710 192.9998
L264.1281 193.0712
" />
<path d="M264.1281 193.0712
L263.5567 193.0712
" />
<path d="M265.6281 193.7141
L265.4853 193.7855
" />
<path d="M265.4853 193.7855
L265.1996 193.7855
" />
<path d="M265.1996 193.7855
L265.0567 193.7141
" />
<path d="M265.0567 193.7141
L264.9853 193.5712
" />
<path d="M264.9853 193.5712
L264.9853 192.9998
" />
<path d="M264.9853 192.9998
L265.0567 192.8570
" />
<path d="M265.0567 192.8570
L265.1996 192.7855
" />
<path d="M265.1996 192.7855
L265.4853 192.7855
" />
<path d="M265.4853 192.7855
L265.6281 192.8570
" />
<path d="M265.6281 192.8570
L265.6996 192.9998
" />
<path d="M265.6996 192.9998
L265.6996 193.1427
" />
<path d="M265.6996 193.1427
L264.9853 193.2855
" />
<path d="M266.1996 192.7855
L266.5567 193.7855
" />
<path d="M266.5567 193.7855
L266.9139 192.7855
" />
<path d="M267.4853 193.6427
L267.5567 193.7141
" />
<path d="M267.5567 193.7141
L267.4853 193.7855
" />
<path d="M267.4853 193.7855
L267.4139 193.7141
" />
<path d="M267.4139 193.7141
L267.4853 193.6427
" />
<path d="M267.4853 193.6427
L267.4853 193.7855
" />
<path d="M267.4853 192.8570
L267.5567 192.9284
" />
<path d="M267.5567 192.9284
L267.4853 192.9998
" />
<path d="M267.4853 192.9998
L267.4139 192.9284
" />
<path d="M267.4139 192.9284
L267.4853 192.8570
" />
<path d="M267.4853 192.8570
L267.4853 192.9998
" />
</g></g>
<g style="fill:none; 
stroke:#C872AB; stroke-width:0.1500; stroke-opacity:1; 
stroke-linecap:round; stroke-linejoin:round;">
<text x="178.0022" y="193.8572"
textLength="9.3643" font-size="2.0000" lengthAdjust="spacingAndGlyphs"
text-anchor="start" opacity="0" stroke-opacity="0">Size: A4</text>
<g class="stroked-text"><desc>Size: A4</desc>
<path d="M178.3866 193.7219
L178.6009 193.7933
" />
<path d="M178.6009 193.7933
L178.9580 193.7933
" />
<path d="M178.9580 193.7933
L179.1009 193.7219
" />
<path d="M179.1009 193.7219
L179.1723 193.6505
" />
<path d="M179.1723 193.6505
L179.2437 193.5076
" />
<path d="M179.2437 193.5076
L179.2437 193.3648
" />
<path d="M179.2437 193.3648
L179.1723 193.2219
" />
<path d="M179.1723 193.2219
L179.1009 193.1505
" />
<path d="M179.1009 193.1505
L178.9580 193.0790
" />
<path d="M178.9580 193.0790
L178.6723 193.0076
" />
<path d="M178.6723 193.0076
L178.5295 192.9362
" />
<path d="M178.5295 192.9362
L178.4580 192.8648
" />
<path d="M178.4580 192.8648
L178.3866 192.7219
" />
<path d="M178.3866 192.7219
L178.3866 192.5790
" />
<path d="M178.3866 192.5790
L178.4580 192.4362
" />
<path d="M178.4580 192.4362
L178.5295 192.3648
" />
<path d="M178.5295 192.3648
L178.6723 192.2933
" />
<path d="M178.6723 192.2933
L179.0295 192.2933
" />
<path d="M179.0295 192.2933
L179.2437 192.3648
" />
<path d="M179.8866 193.7933
L179.8866 192.7933
" />
<path d="M179.8866 192.2933
L179.8152 192.3648
" />
<path d="M179.8152 192.3648
L179.8866 192.4362
" />
<path d="M179.8866 192.4362
L179.9580 192.3648
" />
<path d="M179.9580 192.3648
L179.8866 192.2933
" />
<path d="M179.8866 192.2933
L179.8866 192.4362
" />
<path d="M180.4580 192.7933
L181.2437 192.7933
" />
<path d="M181.2437 192.7933
L180.4580 193.7933
" />
<path d="M180.4580 193.7933
L181.2437 193.7933
" />
<path d="M182.3866 193.7219
L182.2437 193.7933
" />
<path d="M182.2437 193.7933
L181.9580 193.7933
" />
<path d="M181.9580 193.7933
L181.8152 193.7219
" />
<path d="M181.8152 193.7219
L181.7437 193.5790
" />
<path d="M181.7437 193.5790
L181.7437 193.0076
" />
<path d="M181.7437 193.0076
L181.8152 192.8648
" />
<path d="M181.8152 192.8648
L181.9580 192.7933
" />
<path d="M181.9580 192.7933
L182.2437 192.7933
" />
<path d="M182.2437 192.7933
L182.3866 192.8648
" />
<path d="M182.3866 192.8648
L182.4580 193.0076
" />
<path d="M182.4580 193.0076
L182.4580 193.1505
" />
<path d="M182.4580 193.1505
L181.7437 193.2933
" />
<path d="M183.1009 193.6505
L183.1723 193.7219
" />
<path d="M183.1723 193.7219
L183.1009 193.7933
" />
<path d="M183.1009 193.7933
L183.0295 193.7219
" />
<path d="M183.0295 193.7219
L183.1009 193.6505
" />
<path d="M183.1009 193.6505
L183.1009 193.7933
" />
<path d="M183.1009 192.8648
L183.1723 192.9362
" />
<path d="M183.1723 192.9362
L183.1009 193.0076
" />
<path d="M183.1009 193.0076
L183.0295 192.9362
" />
<path d="M183.0295 192.9362
L183.1009 192.8648
" />
<path d="M183.1009 192.8648
L183.1009 193.0076
" />
<path d="M184.8866 193.3648
L185.6009 193.3648
" />
<path d="M184.7437 193.7933
L185.2437 192.2933
" />
<path d="M185.2437 192.2933
L185.7437 193.7933
" />
<path d="M186.8866 192.7933
L186.8866 193.7933
" />
<path d="M186.5295 192.2219
L186.1723 193.2933
" />
<path d="M186.1723 193.2933
L187.1009 193.2933
" />
</g><text x="263.0022" y="196.6572"
textLength="8.5071" font-size="2.0000" lengthAdjust="spacingAndGlyphs"
text-anchor="start" opacity="0" stroke-opacity="0">Id: 1/1</text>
<g class="stroked-text"><desc>Id: 1/1</desc>
<path d="M263.4580 196.5933
L263.4580 195.0933
" />
<path d="M264.8152 196.5933
L264.8152 195.0933
" />
<path d="M264.8152 196.5219
L264.6723 196.5933
" />
<path d="M264.6723 196.5933
L264.3866 196.5933
" />
<path d="M264.3866 196.5933
L264.2437 196.5219
" />
<path d="M264.2437 196.5219
L264.1723 196.4505
" />
<path d="M264.1723 196.4505
L264.1009 196.3076
" />
<path d="M264.1009 196.3076
L264.1009 195.8790
" />
<path d="M264.1009 195.8790
L264.1723 195.7362
" />
<path d="M264.1723 195.7362
L264.2437 195.6648
" />
<path d="M264.2437 195.6648
L264.3866 195.5933
" />
<path d="M264.3866 195.5933
L264.6723 195.5933
" />
<path d="M264.6723 195.5933
L264.8152 195.6648
" />
<path d="M265.5295 196.4505
L265.6009 196.5219
" />
<path d="M265.6009 196.5219
L265.5295 196.5933
" />
<path d="M265.5295 196.5933
L265.4580 196.5219
" />
<path d="M265.4580 196.5219
L265.5295 196.4505
" />
<path d="M265.5295 196.4505
L265.5295 196.5933
" />
<path d="M265.5295 195.6648
L265.6009 195.7362
" />
<path d="M265.6009 195.7362
L265.5295 195.8076
" />
<path d="M265.5295 195.8076
L265.4580 195.7362
" />
<path d="M265.4580 195.7362
L265.5295 195.6648
" />
<path d="M265.5295 195.6648
L265.5295 195.8076
" />
<path d="M268.1723 196.5933
L267.3152 196.5933
" />
<path d="M267.7437 196.5933
L267.7437 195.0933
" />
<path d="M267.7437 195.0933
L267.6009 195.3076
" />
<path d="M267.6009 195.3076
L267.4580 195.4505
" />
<path d="M267.4580 195.4505
L267.3152 195.5219
" />
<path d="M269.8866 195.0219
L268.6009 196.9505
" />
<path d="M271.1723 196.5933
L270.3152 196.5933
" />
<path d="M270.7437 196.5933
L270.7437 195.0933
" />
<path d="M270.7437 195.0933
L270.6009 195.3076
" />
<path d="M270.6009 195.3076
L270.4580 195.4505
" />
<path d="M270.4580 195.4505
L270.3152 195.5219
" />
</g><path d="M177.0022 187.5072
L285.0022 187.5072
" />
</g>
<g style="fill:none; 
stroke:#C872AB; stroke-width:0.4000; stroke-opacity:1; 
stroke-linecap:round; stroke-linejoin:round;">
<text x="178.0022" y="190.3072"
textLength="9.6571" font-size="2.6667" lengthAdjust="spacingAndGlyphs"
text-anchor="start" opacity="0" stroke-opacity="0">Title: </text>
<g class="stroked-text"><desc>Title: </desc>
<path d="M178.6939 188.2116
L179.8368 188.2116
" />
<path d="M179.0154 190.2116
L179.2654 188.2116
" />
<path d="M180.2535 190.2116
L180.4201 188.8783
" />
<path d="M180.5035 188.2116
L180.3963 188.3069
" />
<path d="M180.3963 188.3069
L180.4796 188.4021
" />
<path d="M180.4796 188.4021
L180.5868 188.3069
" />
<path d="M180.5868 188.3069
L180.5035 188.2116
" />
<path d="M180.5035 188.2116
L180.4796 188.4021
" />
<path d="M181.0868 188.8783
L181.8487 188.8783
" />
<path d="M181.4558 188.2116
L181.2415 189.9259
" />
<path d="M181.2415 189.9259
L181.3130 190.1164
" />
<path d="M181.3130 190.1164
L181.4915 190.2116
" />
<path d="M181.4915 190.2116
L181.6820 190.2116
" />
<path d="M182.6344 190.2116
L182.4558 190.1164
" />
<path d="M182.4558 190.1164
L182.3844 189.9259
" />
<path d="M182.3844 189.9259
L182.5987 188.2116
" />
<path d="M184.1701 190.1164
L183.9677 190.2116
" />
<path d="M183.9677 190.2116
L183.5868 190.2116
" />
<path d="M183.5868 190.2116
L183.4082 190.1164
" />
<path d="M183.4082 190.1164
L183.3368 189.9259
" />
<path d="M183.3368 189.9259
L183.4320 189.1640
" />
<path d="M183.4320 189.1640
L183.5511 188.9735
" />
<path d="M183.5511 188.9735
L183.7535 188.8783
" />
<path d="M183.7535 188.8783
L184.1344 188.8783
" />
<path d="M184.1344 188.8783
L184.3130 188.9735
" />
<path d="M184.3130 188.9735
L184.3844 189.1640
" />
<path d="M184.3844 189.1640
L184.3606 189.3545
" />
<path d="M184.3606 189.3545
L183.3844 189.5450
" />
<path d="M185.1344 190.0212
L185.2177 190.1164
" />
<path d="M185.2177 190.1164
L185.1106 190.2116
" />
<path d="M185.1106 190.2116
L185.0273 190.1164
" />
<path d="M185.0273 190.1164
L185.1344 190.0212
" />
<path d="M185.1344 190.0212
L185.1106 190.2116
" />
<path d="M185.2654 188.9735
L185.3487 189.0688
" />
<path d="M185.3487 189.0688
L185.2415 189.1640
" />
<path d="M185.2415 189.1640
L185.1582 189.0688
" />
<path d="M185.1582 189.0688
L185.2654 188.9735
" />
<path d="M185.2654 188.9735
L185.2415 189.1640
" />
</g></g>
<g style="fill:none; 
stroke:#C872AB; stroke-width:0.1500; stroke-opacity:1; 
stroke-linecap:round; stroke-linejoin:round;">
<text x="178.0022" y="186.4572"
textLength="45.6500" font-size="2.0000" lengthAdjust="spacingAndGlyphs"
text-anchor="start" opacity="0" stroke-opacity="0">File: weather-balloon-logger.kicad_pcb</text>
<g class="stroked-text"><desc>File: weather-balloon-logger.kicad_pcb</desc>
<path d="M178.9580 185.6076
L178.4580 185.6076
" />
<path d="M178.4580 186.3933
L178.4580 184.8933
" />
<path d="M178.4580 184.8933
L179.1723 184.8933
" />
<path d="M179.7437 186.3933
L179.7437 185.3933
" />
<path d="M179.7437 184.8933
L179.6723 184.9648
" />
<path d="M179.6723 184.9648
L179.7437 185.0362
" />
<path d="M179.7437 185.0362
L179.8152 184.9648
" />
<path d="M179.8152 184.9648
L179.7437 184.8933
" />
<path d="M179.7437 184.8933
L179.7437 185.0362
" />
<path d="M180.6723 186.3933
L180.5295 186.3219
" />
<path d="M180.5295 186.3219
L180.4580 186.1790
" />
<path d="M180.4580 186.1790
L180.4580 184.8933
" />
<path d="M181.8152 186.3219
L181.6723 186.3933
" />
<path d="M181.6723 186.3933
L181.3866 186.3933
" />
<path d="M181.3866 186.3933
L181.2437 186.3219
" />
<path d="M181.2437 186.3219
L181.1723 186.1790
" />
<path d="M181.1723 186.1790
L181.1723 185.6076
" />
<path d="M181.1723 185.6076
L181.2437 185.4648
" />
<path d="M181.2437 185.4648
L181.3866 185.3933
" />
<path d="M181.3866 185.3933
L181.6723 185.3933
" />
<path d="M181.6723 185.3933
L181.8152 185.4648
" />
<path d="M181.8152 185.4648
L181.8866 185.6076
" />
<path d="M181.8866 185.6076
L181.8866 185.7505
" />
<path d="M181.8866 185.7505
L181.1723 185.8933
" />
<path d="M182.5295 186.2505
L182.6009 186.3219
" />
<path d="M182.6009 186.3219
L182.5295 186.3933
" />
<path d="M182.5295 186.3933
L182.4580 186.3219
" />
<path d="M182.4580 186.3219
L182.5295 186.2505
" />
<path d="M182.5295 186.2505
L182.5295 186.3933
" />
<path d="M182.5295 185.4648
L182.6009 185.5362
" />
<path d="M182.6009 185.5362
L182.5295 185.6076
" />
<path d="M182.5295 185.6076
L182.4580 185.5362
" />
<path d="M182.4580 185.5362
L182.5295 185.4648
" />
<path d="M182.5295 185.4648
L182.5295 185.6076
" />
<path d="M184.2437 185.3933
L184.5295 186.3933
" />
<path d="M184.5295 186.3933
L184.8152 185.6790
" />
<path d="M184.8152 185.6790
L185.1009 186.3933
" />
<path d="M185.1009 186.3933
L185.3866 185.3933
" />
<path d="M186.5295 186.3219
L186.3866 186.3933
" />
<path d="M186.3866 186.3933
L186.1009 186.3933
" />
<path d="M186.1009 186.3933
L185.9580 186.3219
" />
<path d="M185.9580 186.3219
L185.8866 186.1790
" />
<path d="M185.8866 186.1790
L185.8866 185.6076
" />
<path d="M185.8866 185.6076
L185.9580 185.4648
" />
<path d="M185.9580 185.4648
L186.1009 185.3933
" />
<path d="M186.1009 185.3933
L186.3866 185.3933
" />
<path d="M186.3866 185.3933
L186.5295 185.4648
" />
<path d="M186.5295 185.4648
L186.6009 185.6076
" />
<path d="M186.6009 185.6076
L186.6009 185.7505
" />
<path d="M186.6009 185.7505
L185.8866 185.8933
" />
<path d="M187.8866 186.3933
L187.8866 185.6076
" />
<path d="M187.8866 185.6076
L187.8152 185.4648
" />
<path d="M187.8152 185.4648
L187.6723 185.3933
" />
<path d="M187.6723 185.3933
L187.3866 185.3933
" />
<path d="M187.3866 185.3933
L187.2437 185.4648
" />
<path d="M187.8866 186.3219
L187.7437 186.3933
" />
<path d="M187.7437 186.3933
L187.3866 186.3933
" />
<path d="M187.3866 186.3933
L187.2437 186.3219
" />
<path d="M187.2437 186.3219
L187.1723 186.1790
" />
<path d="M187.1723 186.1790
L187.1723 186.0362
" />
<path d="M187.1723 186.0362
L187.2437 185.8933
" />
<path d="M187.2437 185.8933
L187.3866 185.8219
" />
<path d="M187.3866 185.8219
L187.7437 185.8219
" />
<path d="M187.7437 185.8219
L187.8866 185.7505
" />
<path d="M188.3866 185.3933
L188.9580 185.3933
" />
<path d="M188.6009 184.8933
L188.6009 186.1790
" />
<path d="M188.6009 186.1790
L188.6723 186.3219
" />
<path d="M188.6723 186.3219
L188.8152 186.3933
" />
<path d="M188.8152 186.3933
L188.9580 186.3933
" />
<path d="M189.4580 186.3933
L189.4580 184.8933
" />
<path d="M190.1009 186.3933
L190.1009 185.6076
" />
<path d="M190.1009 185.6076
L190.0295 185.4648
" />
<path d="M190.0295 185.4648
L189.8866 185.3933
" />
<path d="M189.8866 185.3933
L189.6723 185.3933
" />
<path d="M189.6723 185.3933
L189.5295 185.4648
" />
<path d="M189.5295 185.4648
L189.4580 185.5362
" />
<path d="M191.3866 186.3219
L191.2437 186.3933
" />
<path d="M191.2437 186.3933
L190.9580 186.3933
" />
<path d="M190.9580 186.3933
L190.8152 186.3219
" />
<path d="M190.8152 186.3219
L190.7437 186.1790
" />
<path d="M190.7437 186.1790
L190.7437 185.6076
" />
<path d="M190.7437 185.6076
L190.8152 185.4648
" />
<path d="M190.8152 185.4648
L190.9580 185.3933
" />
<path d="M190.9580 185.3933
L191.2437 185.3933
" />
<path d="M191.2437 185.3933
L191.3866 185.4648
" />
<path d="M191.3866 185.4648
L191.4580 185.6076
" />
<path d="M191.4580 185.6076
L191.4580 185.7505
" />
<path d="M191.4580 185.7505
L190.7437 185.8933
" />
<path d="M192.1009 186.3933
L192.1009 185.3933
" />
<path d="M192.1009 185.6790
L192.1723 185.5362
" />
<path d="M192.1723 185.5362
L192.2437 185.4648
" />
<path d="M192.2437 185.4648
L192.3866 185.3933
" />
<path d="M192.3866 185.3933
L192.5295 185.3933
" />
<path d="M193.0295 185.8219
L194.1723 185.8219
" />
<path d="M194.8866 186.3933
L194.8866 184.8933
" />
<path d="M194.8866 185.4648
L195.0295 185.3933
" />
<path d="M195.0295 185.3933
L195.3152 185.3933
" />
<path d="M195.3152 185.3933
L195.4580 185.4648
" />
<path d="M195.4580 185.4648
L195.5295 185.5362
" />
<path d="M195.5295 185.5362
L195.6009 185.6790
" />
<path d="M195.6009 185.6790
L195.6009 186.1076
" />
<path d="M195.6009 186.1076
L195.5295 186.2505
" />
<path d="M195.5295 186.2505
L195.4580 186.3219
" />
<path d="M195.4580 186.3219
L195.3152 186.3933
" />
<path d="M195.3152 186.3933
L195.0295 186.3933
" />
<path d="M195.0295 186.3933
L194.8866 186.3219
" />
<path d="M196.8866 186.3933
L196.8866 185.6076
" />
<path d="M196.8866 185.6076
L196.8152 185.4648
" />
<path d="M196.8152 185.4648
L196.6723 185.3933
" />
<path d="M196.6723 185.3933
L196.3866 185.3933
" />
<path d="M196.3866 185.3933
L196.2437 185.4648
" />
<path d="M196.8866 186.3219
L196.7437 186.3933
" />
<path d="M196.7437 186.3933
L196.3866 186.3933
" />
<path d="M196.3866 186.3933
L196.2437 186.3219
" />
<path d="M196.2437 186.3219
L196.1723 186.1790
" />
<path d="M196.1723 186.1790
L196.1723 186.0362
" />
<path d="M196.1723 186.0362
L196.2437 185.8933
" />
<path d="M196.2437 185.8933
L196.3866 185.8219
" />
<path d="M196.3866 185.8219
L196.7437 185.8219
" />
<path d="M196.7437 185.8219
L196.8866 185.7505
" />
<path d="M197.8152 186.3933
L197.6723 186.3219
" />
<path d="M197.6723 186.3219
L197.6009 186.1790
" />
<path d="M197.6009 186.1790
L197.6009 184.8933
" />
<path d="M198.6009 186.3933
L198.4580 186.3219
" />
<path d="M198.4580 186.3219
L198.3866 186.1790
" />
<path d="M198.3866 186.1790
L198.3866 184.8933
" />
<path d="M199.3866 186.3933
L199.2437 186.3219
" />
<path d="M199.2437 186.3219
L199.1723 186.2505
" />
<path d="M199.1723 186.2505
L199.1009 186.1076
" />
<path d="M199.1009 186.1076
L199.1009 185.6790
" />
<path d="M199.1009 185.6790
L199.1723 185.5362
" />
<path d="M199.1723 185.5362
L199.2437 185.4648
" />
<path d="M199.2437 185.4648
L199.3866 185.3933
" />
<path d="M199.3866 185.3933
L199.6009 185.3933
" />
<path d="M199.6009 185.3933
L199.7437 185.4648
" />
<path d="M199.7437 185.4648
L199.8152 185.5362
" />
<path d="M199.8152 185.5362
L199.8866 185.6790
" />
<path d="M199.8866 185.6790
L199.8866 186.1076
" />
<path d="M199.8866 186.1076
L199.8152 186.2505
" />
<path d="M199.8152 186.2505
L199.7437 186.3219
" />
<path d="M199.7437 186.3219
L199.6009 186.3933
" />
<path d="M199.6009 186.3933
L199.3866 186.3933
" />
<path d="M200.7437 186.3933
L200.6009 186.3219
" />
<path d="M200.6009 186.3219
L200.5295 186.2505
" />
<path d="M200.5295 186.2505
L200.4580 186.1076
" />
<path d="M200.4580 186.1076
L200.4580 185.6790
" />
<path d="M200.4580 185.6790
L200.5295 185.5362
" />
<path d="M200.5295 185.5362
L200.6009 185.4648
" />
<path d="M200.6009 185.4648
L200.7437 185.3933
" />
<path d="M200.7437 185.3933
L200.9580 185.3933
" />
<path d="M200.9580 185.3933
L201.1009 185.4648
" />
<path d="M201.1009 185.4648
L201.1723 185.5362
" />
<path d="M201.1723 185.5362
L201.2437 185.6790
" />
<path d="M201.2437 185.6790
L201.2437 186.1076
" />
<path d="M201.2437 186.1076
L201.1723 186.2505
" />
<path d="M201.1723 186.2505
L201.1009 186.3219
" />
<path d="M201.1009 186.3219
L200.9580 186.3933
" />
<path d="M200.9580 186.3933
L200.7437 186.3933
" />
<path d="M201.8866 185.3933
L201.8866 186.3933
" />
<path d="M201.8866 185.5362
L201.9580 185.4648
" />
<path d="M201.9580 185.4648
L202.1009 185.3933
" />
<path d="M202.1009 185.3933
L202.3152 185.3933
" />
<path d="M202.3152 185.3933
L202.4580 185.4648
" />
<path d="M202.4580 185.4648
L202.5295 185.6076
" />
<path d="M202.5295 185.6076
L202.5295 186.3933
" />
<path d="M203.2437 185.8219
L204.3866 185.8219
" />
<path d="M205.3152 186.3933
L205.1723 186.3219
" />
<path d="M205.1723 186.3219
L205.1009 186.1790
" />
<path d="M205.1009 186.1790
L205.1009 184.8933
" />
<path d="M206.1009 186.3933
L205.9580 186.3219
" />
<path d="M205.9580 186.3219
L205.8866 186.2505
" />
<path d="M205.8866 186.2505
L205.8152 186.1076
" />
<path d="M205.8152 186.1076
L205.8152 185.6790
" />
<path d="M205.8152 185.6790
L205.8866 185.5362
" />
<path d="M205.8866 185.5362
L205.9580 185.4648
" />
<path d="M205.9580 185.4648
L206.1009 185.3933
" />
<path d="M206.1009 185.3933
L206.3152 185.3933
" />
<path d="M206.3152 185.3933
L206.4580 185.4648
" />
<path d="M206.4580 185.4648
L206.5295 185.5362
" />
<path d="M206.5295 185.5362
L206.6009 185.6790
" />
<path d="M206.6009 185.6790
L206.6009 186.1076
" />
<path d="M206.6009 186.1076
L206.5295 186.2505
" />
<path d="M206.5295 186.2505
L206.4580 186.3219
" />
<path d="M206.4580 186.3219
L206.3152 186.3933
" />
<path d="M206.3152 186.3933
L206.1009 186.3933
" />
<path d="M207.8866 185.3933
L207.8866 186.6076
" />
<path d="M207.8866 186.6076
L207.8152 186.7505
" />
<path d="M207.8152 186.7505
L207.7437 186.8219
" />
<path d="M207.7437 186.8219
L207.6009 186.8933
" />
<path d="M207.6009 186.8933
L207.3866 186.8933
" />
<path d="M207.3866 186.8933
L207.2437 186.8219
" />
<path d="M207.8866 186.3219
L207.7437 186.3933
" />
<path d="M207.7437 186.3933
L207.4580 186.3933
" />
<path d="M207.4580 186.3933
L207.3152 186.3219
" />
<path d="M207.3152 186.3219
L207.2437 186.2505
" />
<path d="M207.2437 186.2505
L207.1723 186.1076
" />
<path d="M207.1723 186.1076
L207.1723 185.6790
" />
<path d="M207.1723 185.6790
L207.2437 185.5362
" />
<path d="M207.2437 185.5362
L207.3152 185.4648
" />
<path d="M207.3152 185.4648
L207.4580 185.3933
" />
<path d="M207.4580 185.3933
L207.7437 185.3933
" />
<path d="M207.7437 185.3933
L207.8866 185.4648
" />
<path d="M209.2437 185.3933
L209.2437 186.6076
" />
<path d="M209.2437 186.6076
L209.1723 186.7505
" />
<path d="M209.1723 186.7505
L209.1009 186.8219
" />
<path d="M209.1009 186.8219
L208.9580 186.8933
" />
<path d="M208.9580 186.8933
L208.7437 186.8933
" />
<path d="M208.7437 186.8933
L208.6009 186.8219
" />
<path d="M209.2437 186.3219
L209.1009 186.3933
" />
<path d="M209.1009 186.3933
L208.8152 186.3933
" />
<path d="M208.8152 186.3933
L208.6723 186.3219
" />
<path d="M208.6723 186.3219
L208.6009 186.2505
" />
<path d="M208.6009 186.2505
L208.5295 186.1076
" />
<path d="M208.5295 186.1076
L208.5295 185.6790
" />
<path d="M208.5295 185.6790
L208.6009 185.5362
" />
<path d="M208.6009 185.5362
L208.6723 185.4648
" />
<path d="M208.6723 185.4648
L208.8152 185.3933
" />
<path d="M208.8152 185.3933
L209.1009 185.3933
" />
<path d="M209.1009 185.3933
L209.2437 185.4648
" />
<path d="M210.5295 186.3219
L210.3866 186.3933
" />
<path d="M210.3866 186.3933
L210.1009 186.3933
" />
<path d="M210.1009 186.3933
L209.9580 186.3219
" />
<path d="M209.9580 186.3219
L209.8866 186.1790
" />
<path d="M209.8866 186.1790
L209.8866 185.6076
" />
<path d="M209.8866 185.6076
L209.9580 185.4648
" />
<path d="M209.9580 185.4648
L210.1009 185.3933
" />
<path d="M210.1009 185.3933
L210.3866 185.3933
" />
<path d="M210.3866 185.3933
L210.5295 185.4648
" />
<path d="M210.5295 185.4648
L210.6009 185.6076
" />
<path d="M210.6009 185.6076
L210.6009 185.7505
" />
<path d="M210.6009 185.7505
L209.8866 185.8933
" />
<path d="M211.2437 186.3933
L211.2437 185.3933
" />
<path d="M211.2437 185.6790
L211.3152 185.5362
" />
<path d="M211.3152 185.5362
L211.3866 185.4648
" />
<path d="M211.3866 185.4648
L211.5295 185.3933
" />
<path d="M211.5295 185.3933
L211.6723 185.3933
" />
<path d="M212.1723 186.2505
L212.2437 186.3219
" />
<path d="M212.2437 186.3219
L212.1723 186.3933
" />
<path d="M212.1723 186.3933
L212.1009 186.3219
" />
<path d="M212.1009 186.3219
L212.1723 186.2505
" />
<path d="M212.1723 186.2505
L212.1723 186.3933
" />
<path d="M212.8866 186.3933
L212.8866 184.8933
" />
<path d="M213.0295 185.8219
L213.4580 186.3933
" />
<path d="M213.4580 185.3933
L212.8866 185.9648
" />
<path d="M214.1009 186.3933
L214.1009 185.3933
" />
<path d="M214.1009 184.8933
L214.0295 184.9648
" />
<path d="M214.0295 184.9648
L214.1009 185.0362
" />
<path d="M214.1009 185.0362
L214.1723 184.9648
" />
<path d="M214.1723 184.9648
L214.1009 184.8933
" />
<path d="M214.1009 184.8933
L214.1009 185.0362
" />
<path d="M215.4580 186.3219
L215.3152 186.3933
" />
<path d="M215.3152 186.3933
L215.0295 186.3933
" />
<path d="M215.0295 186.3933
L214.8866 186.3219
" />
<path d="M214.8866 186.3219
L214.8152 186.2505
" />
<path d="M214.8152 186.2505
L214.7437 186.1076
" />
<path d="M214.7437 186.1076
L214.7437 185.6790
" />
<path d="M214.7437 185.6790
L214.8152 185.5362
" />
<path d="M214.8152 185.5362
L214.8866 185.4648
" />
<path d="M214.8866 185.4648
L215.0295 185.3933
" />
<path d="M215.0295 185.3933
L215.3152 185.3933
" />
<path d="M215.3152 185.3933
L215.4580 185.4648
" />
<path d="M216.7437 186.3933
L216.7437 185.6076
" />
<path d="M216.7437 185.6076
L216.6723 185.4648
" />
<path d="M216.6723 185.4648
L216.5295 185.3933
" />
<path d="M216.5295 185.3933
L216.2437 185.3933
" />
<path d="M216.2437 185.3933
L216.1009 185.4648
" />
<path d="M216.7437 186.3219
L216.6009 186.3933
" />
<path d="M216.6009 186.3933
L216.2437 186.3933
" />
<path d="M216.2437 186.3933
L216.1009 186.3219
" />
<path d="M216.1009 186.3219
L216.0295 186.1790
" />
<path d="M216.0295 186.1790
L216.0295 186.0362
" />
<path d="M216.0295 186.0362
L216.1009 185.8933
" />
<path d="M216.1009 185.8933
L216.2437 185.8219
" />
<path d="M216.2437 185.8219
L216.6009 185.8219
" />
<path d="M216.6009 185.8219
L216.7437 185.7505
" />
<path d="M218.1009 186.3933
L218.1009 184.8933
" />
<path d="M218.1009 186.3219
L217.9580 186.3933
" />
<path d="M217.9580 186.3933
L217.6723 186.3933
" />
<path d="M217.6723 186.3933
L217.5295 186.3219
" />
<path d="M217.5295 186.3219
L217.4580 186.2505
" />
<path d="M217.4580 186.2505
L217.3866 186.1076
" />
<path d="M217.3866 186.1076
L217.3866 185.6790
" />
<path d="M217.3866 185.6790
L217.4580 185.5362
" />
<path d="M217.4580 185.5362
L217.5295 185.4648
" />
<path d="M217.5295 185.4648
L217.6723 185.3933
" />
<path d="M217.6723 185.3933
L217.9580 185.3933
" />
<path d="M217.9580 185.3933
L218.1009 185.4648
" />
<path d="M218.4580 186.5362
L219.6009 186.5362
" />
<path d="M219.9580 185.3933
L219.9580 186.8933
" />
<path d="M219.9580 185.4648
L220.1009 185.3933
" />
<path d="M220.1009 185.3933
L220.3866 185.3933
" />
<path d="M220.3866 185.3933
L220.5295 185.4648
" />
<path d="M220.5295 185.4648
L220.6009 185.5362
" />
<path d="M220.6009 185.5362
L220.6723 185.6790
" />
<path d="M220.6723 185.6790
L220.6723 186.1076
" />
<path d="M220.6723 186.1076
L220.6009 186.2505
" />
<path d="M220.6009 186.2505
L220.5295 186.3219
" />
<path d="M220.5295 186.3219
L220.3866 186.3933
" />
<path d="M220.3866 186.3933
L220.1009 186.3933
" />
<path d="M220.1009 186.3933
L219.9580 186.3219
" />
<path d="M221.9580 186.3219
L221.8152 186.3933
" />
<path d="M221.8152 186.3933
L221.5295 186.3933
" />
<path d="M221.5295 186.3933
L221.3866 186.3219
" />
<path d="M221.3866 186.3219
L221.3152 186.2505
" />
<path d="M221.3152 186.2505
L221.2437 186.1076
" />
<path d="M221.2437 186.1076
L221.2437 185.6790
" />
<path d="M221.2437 185.6790
L221.3152 185.5362
" />
<path d="M221.3152 185.5362
L221.3866 185.4648
" />
<path d="M221.3866 185.4648
L221.5295 185.3933
" />
<path d="M221.5295 185.3933
L221.8152 185.3933
" />
<path d="M221.8152 185.3933
L221.9580 185.4648
" />
<path d="M222.6009 186.3933
L222.6009 184.8933
" />
<path d="M222.6009 185.4648
L222.7437 185.3933
" />
<path d="M222.7437 185.3933
L223.0295 185.3933
" />
<path d="M223.0295 185.3933
L223.1723 185.4648
" />
<path d="M223.1723 185.4648
L223.2437 185.5362
" />
<path d="M223.2437 185.5362
L223.3152 185.6790
" />
<path d="M223.3152 185.6790
L223.3152 186.1076
" />
<path d="M223.3152 186.1076
L223.2437 186.2505
" />
<path d="M223.2437 186.2505
L223.1723 186.3219
" />
<path d="M223.1723 186.3219
L223.0295 186.3933
" />
<path d="M223.0295 186.3933
L222.7437 186.3933
" />
<path d="M222.7437 186.3933
L222.6009 186.3219
" />
</g><path d="M177.0022 181.5072
L285.0022 181.5072
" />
<text x="178.0022" y="183.7572"
textLength="8.2214" font-size="2.0000" lengthAdjust="spacingAndGlyphs"
text-anchor="start" opacity="0" stroke-opacity="0">Sheet: </text>
<g class="stroked-text"><desc>Sheet: </desc>
<path d="M178.3866 183.6219
L178.6009 183.6933
" />
<path d="M178.6009 183.6933
L178.9580 183.6933
" />
<path d="M178.9580 183.6933
L179.1009 183.6219
" />
<path d="M179.1009 183.6219
L179.1723 183.5505
" />
<path d="M179.1723 183.5505
L179.2437 183.4076
" />
<path d="M179.2437 183.4076
L179.2437 183.2648
" />
<path d="M179.2437 183.2648
L179.1723 183.1219
" />
<path d="M179.1723 183.1219
L179.1009 183.0505
" />
<path d="M179.1009 183.0505
L178.9580 182.9790
" />
<path d="M178.9580 182.9790
L178.6723 182.9076
" />
<path d="M178.6723 182.9076
L178.5295 182.8362
" />
<path d="M178.5295 182.8362
L178.4580 182.7648
" />
<path d="M178.4580 182.7648
L178.3866 182.6219
" />
<path d="M178.3866 182.6219
L178.3866 182.4790
" />
<path d="M178.3866 182.4790
L178.4580 182.3362
" />
<path d="M178.4580 182.3362
L178.5295 182.2648
" />
<path d="M178.5295 182.2648
L178.6723 182.1933
" />
<path d="M178.6723 182.1933
L179.0295 182.1933
" />
<path d="M179.0295 182.1933
L179.2437 182.2648
" />
<path d="M179.8866 183.6933
L179.8866 182.1933
" />
<path d="M180.5295 183.6933
L180.5295 182.9076
" />
<path d="M180.5295 182.9076
L180.4580 182.7648
" />
<path d="M180.4580 182.7648
L180.3152 182.6933
" />
<path d="M180.3152 182.6933
L180.1009 182.6933
" />
<path d="M180.1009 182.6933
L179.9580 182.7648
" />
<path d="M179.9580 182.7648
L179.8866 182.8362
" />
<path d="M181.8152 183.6219
L181.6723 183.6933
" />
<path d="M181.6723 183.6933
L181.3866 183.6933
" />
<path d="M181.3866 183.6933
L181.2437 183.6219
" />
<path d="M181.2437 183.6219
L181.1723 183.4790
" />
<path d="M181.1723 183.4790
L181.1723 182.9076
" />
<path d="M181.1723 182.9076
L181.2437 182.7648
" />
<path d="M181.2437 182.7648
L181.3866 182.6933
" />
<path d="M181.3866 182.6933
L181.6723 182.6933
" />
<path d="M181.6723 182.6933
L181.8152 182.7648
" />
<path d="M181.8152 182.7648
L181.8866 182.9076
" />
<path d="M181.8866 182.9076
L181.8866 183.0505
" />
<path d="M181.8866 183.0505
L181.1723 183.1933
" />
<path d="M183.1009 183.6219
L182.9580 183.6933
" />
<path d="M182.9580 183.6933
L182.6723 183.6933
" />
<path d="M182.6723 183.6933
L182.5295 183.6219
" />
<path d="M182.5295 183.6219
L182.4580 183.4790
" />
<path d="M182.4580 183.4790
L182.4580 182.9076
" />
<path d="M182.4580 182.9076
L182.5295 182.7648
" />
<path d="M182.5295 182.7648
L182.6723 182.6933
" />
<path d="M182.6723 182.6933
L182.9580 182.6933
" />
<path d="M182.9580 182.6933
L183.1009 182.7648
" />
<path d="M183.1009 182.7648
L183.1723 182.9076
" />
<path d="M183.1723 182.9076
L183.1723 183.0505
" />
<path d="M183.1723 183.0505
L182.4580 183.1933
" />
<path d="M183.6009 182.6933
L184.1723 182.6933
" />
<path d="M183.8152 182.1933
L183.8152 183.4790
" />
<path d="M183.8152 183.4790
L183.8866 183.6219
" />
<path d="M183.8866 183.6219
L184.0295 183.6933
" />
<path d="M184.0295 183.6933
L184.1723 183.6933
" />
<path d="M184.6723 183.5505
L184.7437 183.6219
" />
<path d="M184.7437 183.6219
L184.6723 183.6933
" />
<path d="M184.6723 183.6933
L184.6009 183.6219
" />
<path d="M184.6009 183.6219
L184.6723 183.5505
" />
<path d="M184.6723 183.5505
L184.6723 183.6933
" />
<path d="M184.6723 182.7648
L184.7437 182.8362
" />
<path d="M184.7437 182.8362
L184.6723 182.9076
" />
<path d="M184.6723 182.9076
L184.6009 182.8362
" />
<path d="M184.6009 182.8362
L184.6723 182.7648
" />
<path d="M184.6723 182.7648
L184.6723 182.9076
" />
</g></g>
<g style="fill:none; 
stroke:#C872AB; stroke-width:0.3000; stroke-opacity:1; 
stroke-linecap:round; stroke-linejoin:round;">
<text x="178.0022" y="180.7572"
textLength="0.9000" font-size="2.0000" lengthAdjust="spacingAndGlyphs"
text-anchor="start" opacity="0" stroke-opacity="0"></text>
<g class="stroked-text"><desc></desc>
</g></g>
<g style="fill:none; 
stroke:#C872AB; stroke-width:0.1500; stroke-opacity:1; 
stroke-linecap:round; stroke-linejoin:round;">
<text x="178.0022" y="177.7572"
textLength="0.4500" font-size="2.0000" lengthAdjust="spacingAndGlyphs"
text-anchor="start" opacity="0" stroke-opacity="0"></text>
<g class="stroked-text"><desc></desc>
</g><text x="178.0022" y="174.7572"
textLength="0.4500" font-size="2.0000" lengthAdjust="spacingAndGlyphs"
text-anchor="start" opacity="0" stroke-opacity="0"></text>
<g class="stroked-text"><desc></desc>
</g><text x="178.0022" y="171.7572"
textLength="0.4500" font-size="2.0000" lengthAdjust="spacingAndGlyphs"
text-anchor="start" opacity="0" stroke-opacity="0"></text>
<g class="stroked-text"><desc></desc>
</g><text x="178.0022" y="168.7572"
textLength="0.4500" font-size="2.0000" lengthAdjust="spacingAndGlyphs"
text-anchor="start" opacity="0" stroke-opacity="0"></text>
<g class="stroked-text"><desc></desc>
</g><path d="M197.0022 191.5072
L197.0022 194.5072
" />
<path d="M261.0022 191.5072
L261.0022 198.0072
" />
<path style="fill:#C83434; fill-opacity:1.0000; stroke:none;fill-rule:evenodd;"
d="M 104.2000,109.2000
101.8000,109.2000
101.8000,106.8000
104.2000,106.8000
Z" /> 
</g>
<g style="fill:#C83434; fill-opacity:1.0000; stroke:none;">
<circle cx="103.0000" cy="105.0000" r="1.2000" /> 
<path style="fill:#C83434; fill-opacity:1.0000; stroke:none;fill-rule:evenodd;"
d="M 105.7500,109.2500
105.7500,106.7500
108.2500,106.7500
108.2500,109.2500
Z" /> 
<circle cx="112.0000" cy="108.0000" r="1.2500" /> 
<circle cx="117.0000" cy="108.0000" r="1.2500" /> 
<path style="fill:#C83434; fill-opacity:1.0000; stroke:none;fill-rule:evenodd;"
d="M 124.6000,111.1000
126.4000,111.1000
126.4000,112.9000
124.6000,112.9000
Z" /> 
<circle cx="125.5000" cy="114.5400" r="0.9000" /> 
<circle cx="125.5000" cy="117.0800" r="0.9000" /> 
<circle cx="125.5000" cy="119.6200" r="0.9000" /> 
<circle cx="125.5000" cy="122.1600" r="0.9000" /> 
<circle cx="125.5000" cy="124.7000" r="0.9000" /> 
<circle cx="125.5000" cy="127.2400" r="0.9000" /> 
<circle cx="125.5000" cy="129.7800" r="0.9000" /> 
<circle cx="125.5000" cy="132.3200" r="0.9000" /> 
<circle cx="125.5000" cy="134.8600" r="0.9000" /> 
<circle cx="125.5000" cy="137.4000" r="0.9000" /> 
<path style="fill:#C83434; fill-opacity:1.0000; stroke:none;fill-rule:evenodd;"
d="M 161.1000,110.9000
161.1000,109.1000
162.9000,109.1000
162.9000,110.9000
Z" /> 
<circle cx="164.5400" cy="110.0000" r="0.9000" /> 
<circle cx="167.0800" cy="110.0000" r="0.9000" /> 
<circle cx="169.6200" cy="110.0000" r="0.9000" /> 
<circle cx="172.1600" cy="110.0000" r="0.9000" /> 
<circle cx="174.7000" cy="110.0000" r="0.9000" /> 
<path style="fill:#C83434; fill-opacity:1.0000; stroke:none;fill-rule:evenodd;"
d="M 104.2000,142.2000
101.8000,142.2000
101.8000,139.8000
104.2000,139.8000
Z" /> 
<circle cx="103.0000" cy="138.0000" r="1.2000" /> 
<path style="fill:#C83434; fill-opacity:1.0000; stroke:none;fill-rule:evenodd;"
d="M 125.1000,154.9000
125.1000,153.1000
126.9000,153.1000
126.9000,154.9000
Z" /> 
<path style="fill:#C83434; fill-opacity:1.0000; stroke:none;fill-rule:evenodd;"
d="M 153.1000,154.9000
153.1000,153.1000
154.9000,153.1000
154.9000,154.9000
Z" /> 
<path style="fill:#C83434; fill-opacity:1.0000; stroke:none;fill-rule:evenodd;"
d="M 162.6500,123.8200
162.6591,123.7741
162.6851,123.7351
162.7241,123.7091
162.7700,123.7000
164.0300,123.7000
164.0759,123.7091
164.1149,123.7351
164.1409,123.7741
164.1500,123.8200
164.1500,124.1800
164.1409,124.2259
164.1149,124.2649
164.0759,124.2909
164.0300,124.3000
162.7700,124.3000
162.7241,124.2909
162.6851,124.2649
162.6591,124.2259
162.6500,124.1800
Z" /> 
<path style="fill:#C83434; fill-opacity:1.0000; stroke:none;fill-rule:evenodd;"
d="M 162.6500,125.0900
162.6591,125.0441
162.6851,125.0051
162.7241,124.9791
162.7700,124.9700
164.0300,124.9700
164.0759,124.9791
164.1149,125.0051
164.1409,125.0441
164.1500,125.0900
164.1500,125.4500
164.1409,125.4959
164.1149,125.5349
164.0759,125.5609
164.0300,125.5700
162.7700,125.5700
162.7241,125.5609
162.6851,125.5349
162.6591,125.4959
162.6500,125.4500
Z" /> 
<path style="fill:#C83434; fill-opacity:1.0000; stroke:none;fill-rule:evenodd;"
d="M 162.6500,126.3600
162.6591,126.3141
162.6851,126.2751
162.7241,126.2491
162.7700,126.2400
164.0300,126.2400
164.0759,126.2491
164.1149,126.2751
164.1409,126.3141
164.1500,126.3600
164.1500,126.7200
164.1409,126.7659
164.1149,126.8049
164.0759,126.8309
164.0300,126.8400
162.7700,126.8400
162.7241,126.8309
162.6851,126.8049
162.6591,126.7659
162.6500,126.7200
Z" /> 
<path style="fill:#C83434; fill-opacity:1.0000; stroke:none;fill-rule:evenodd;"
d="M 162.6500,127.6300
162.6591,127.5841
162.6851,127.5451
162.7241,127.5191
162.7700,127.5100
164.0300,127.5100
164.0759,127.5191
164.1149,127.5451
164.1409,127.5841
164.1500,127.6300
164.1500,127.9900
164.1409,128.0359
164.1149,128.0749
164.0759,128.1009
164.0300,128.1100
162.7700,128.1100
162.7241,128.1009
162.6851,128.0749
162.6591,128.0359
162.6500,127.9900
Z" /> 
<path style="fill:#C83434; fill-opacity:1.0000; stroke:none;fill-rule:evenodd;"
d="M 162.6500,128.9000
162.6591,128.8541
162.6851,128.8151
162.7241,128.7891
162.7700,128.7800
164.0300,128.7800
164.0759,128.7891
164.1149,128.8151
164.1409,128.8541
164.1500,128.9000
164.1500,129.2600
164.1409,129.3059
164.1149,129.3449
164.0759,129.3709
164.0300,129.3800
162.7700,129.3800
162.7241,129.3709
162.6851,129.3449
162.6591,129.3059
162.6500,129.2600
Z" /> 
<path style="fill:#C83434; fill-opacity:1.0000; stroke:none;fill-rule:evenodd;"
d="M 162.6500,130.1700
162.6591,130.1241
162.6851,130.0851
162.7241,130.0591
162.7700,130.0500
164.0300,130.0500
164.0759,130.0591
164.1149,130.0851
164.1409,130.1241
164.1500,130.1700
164.1500,130.5300
164.1409,130.5759
164.1149,130.6149
164.0759,130.6409
164.0300,130.6500
162.7700,130.6500
162.7241,130.6409
162.6851,130.6149
162.6591,130.5759
162.6500,130.5300
Z" /> 
<path style="fill:#C83434; fill-opacity:1.0000; stroke:none;fill-rule:evenodd;"
d="M 162.6500,131.4400
162.6591,131.3941
162.6851,131.3551
162.7241,131.3291
162.7700,131.3200
164.0300,131.3200
164.0759,131.3291
164.1149,131.3551
164.1409,131.3941
164.1500,131.4400
164.1500,131.8000
164.1409,131.8459
164.1149,131.8849
164.0759,131.9109
164.0300,131.9200
162.7700,131.9200
162.7241,131.9109
162.6851,131.8849
162.6591,131.8459
162.6500,131.8000
Z" /> 
<path style="fill:#C83434; fill-opacity:1.0000; stroke:none;fill-rule:evenodd;"
d="M 162.6500,132.7100
162.6591,132.6641
162.6851,132.6251
162.7241,132.5991
162.7700,132.5900
164.0300,132.5900
164.0759,132.5991
164.1149,132.6251
164.1409,132.6641
164.1500,132.7100
164.1500,133.0700
164.1409,133.1159
164.1149,133.1549
164.0759,133.1809
164.0300,133.1900
162.7700,133.1900
162.7241,133.1809
162.6851,133.1549
162.6591,133.1159
162.6500,133.0700
Z" /> 
<path style="fill:#C83434; fill-opacity:1.0000; stroke:none;fill-rule:evenodd;"
d="M 167.8500,132.7100
167.8591,132.6641
167.8851,132.6251
167.9241,132.5991
167.9700,132.5900
169.2300,132.5900
169.2759,132.5991
169.3149,132.6251
169.3409,132.6641
169.3500,132.7100
169.3500,133.0700
169.3409,133.1159
169.3149,133.1549
169.2759,133.1809
169.2300,133.1900
167.9700,133.1900
167.9241,133.1809
167.8851,133.1549
167.8591,133.1159
167.8500,133.0700
Z" /> 
<path style="fill:#C83434; fill-opacity:1.0000; stroke:none;fill-rule:evenodd;"
d="M 167.8500,131.4400
167.8591,131.3941
167.8851,131.3551
167.9241,131.3291
167.9700,131.3200
169.2300,131.3200
169.2759,131.3291
169.3149,131.3551
169.3409,131.3941
169.3500,131.4400
169.3500,131.8000
169.3409,131.8459
169.3149,131.8849
169.2759,131.9109
169.2300,131.9200
167.9700,131.9200
167.9241,131.9109
167.8851,131.8849
167.8591,131.8459
167.8500,131.8000
Z" /> 
<path style="fill:#C83434; fill-opacity:1.0000; stroke:none;fill-rule:evenodd;"
d="M 167.8500,130.1700
167.8591,130.1241
167.8851,130.0851
167.9241,130.0591
167.9700,130.0500
169.2300,130.0500
169.2759,130.0591
169.3149,130.0851
169.3409,130.1241
169.3500,130.1700
169.3500,130.5300
169.3409,130.5759
169.3149,130.6149
169.2759,130.6409
169.2300,130.6500
167.9700,130.6500
167.9241,130.6409
167.8851,130.6149
167.8591,130.5759
167.8500,130.5300
Z" /> 
<path style="fill:#C83434; fill-opacity:1.0000; stroke:none;fill-rule:evenodd;"
d="M 167.8500,128.9000
167.8591,128.8541
167.8851,128.8151
167.9241,128.7891
167.9700,128.7800
169.2300,128.7800
169.2759,128.7891
169.3149,128.8151
169.3409,128.8541
169.3500,128.9000
169.3500,129.2600
169.3409,129.3059
169.3149,129.3449
169.2759,129.3709
169.2300,129.3800
167.9700,129.3800
167.9241,129.3709
167.8851,129.3449
167.8591,129.3059
167.8500,129.2600
Z" /> 
<path style="fill:#C83434; fill-opacity:1.0000; stroke:none;fill-rule:evenodd;"
d="M 167.8500,127.6300
167.8591,127.5841
167.8851,127.5451
167.9241,127.5191
167.9700,127.5100
169.2300,127.5100
169.2759,127.5191
169.3149,127.5451
169.3409,127.5841
169.3500,127.6300
169.3500,127.9900
169.3409,128.0359
169.3149,128.0749
169.2759,128.1009
169.2300,128.1100
167.9700,128.1100
167.9241,128.1009
167.8851,128.0749
167.8591,128.0359
167.8500,127.9900
Z" /> 
<path style="fill:#C83434; fill-opacity:1.0000; stroke:none;fill-rule:evenodd;"
d="M 167.8500,126.3600
167.8591,126.3141
167.8851,126.2751
167.9241,126.2491
167.9700,126.2400
169.2300,126.2400
169.2759,126.2491
169.3149,126.2751
169.3409,126.3141
169.3500,126.3600
169.3500,126.7200
169.3409,126.7659
169.3149,126.8049
169.2759,126.8309
169.2300,126.8400
167.9700,126.8400
167.9241,126.8309
167.8851,126.8049
167.8591,126.7659
167.8500,126.7200
Z" /> 
<path style="fill:#C83434; fill-opacity:1.0000; stroke:none;fill-rule:evenodd;"
d="M 167.8500,125.0900
167.8591,125.0441
167.8851,125.0051
167.9241,124.9791
167.9700,124.9700
169.2300,124.9700
169.2759,124.9791
169.3149,125.0051
169.3409,125.0441
169.3500,125.0900
169.3500,125.4500
169.3409,125.4959
169.3149,125.5349
169.2759,125.5609
169.2300,125.5700
167.9700,125.5700
167.9241,125.5609
167.8851,125.5349
167.8591,125.4959
167.8500,125.4500
Z" /> 
<path style="fill:#C83434; fill-opacity:1.0000; stroke:none;fill-rule:evenodd;"
d="M 167.8500,123.8200
167.8591,123.7741
167.8851,123.7351
167.9241,123.7091
167.9700,123.7000
169.2300,123.7000
169.2759,123.7091
169.3149,123.7351
169.3409,123.7741
169.3500,123.8200
169.3500,124.1800
169.3409,124.2259
169.3149,124.2649
169.2759,124.2909
169.2300,124.3000
167.9700,124.3000
167.9241,124.2909
167.8851,124.2649
167.8591,124.2259
167.8500,124.1800
Z" /> 
<path style="fill:#C83434; fill-opacity:1.0000; stroke:none;fill-rule:evenodd;"
d="M 170.7500,123.6800
170.7637,123.6111
170.8027,123.5527
170.8611,123.5137
170.9300,123.5000
171.4700,123.5000
171.5389,123.5137
171.5973,123.5527
171.6363,123.6111
171.6500,123.6800
171.6500,124.3200
171.6363,124.3889
171.5973,124.4473
171.5389,124.4863
171.4700,124.5000
170.9300,124.5000
170.8611,124.4863
170.8027,124.4473
170.7637,124.3889
170.7500,124.3200
Z" /> 
<path style="fill:#C83434; fill-opacity:1.0000; stroke:none;fill-rule:evenodd;"
d="M 172.3500,123.6800
172.3637,123.6111
172.4027,123.5527
172.4611,123.5137
172.5300,123.5000
173.0700,123.5000
173.1389,123.5137
173.1973,123.5527
173.2363,123.6111
173.2500,123.6800
173.2500,124.3200
173.2363,124.3889
173.1973,124.4473
173.1389,124.4863
173.0700,124.5000
172.5300,124.5000
172.4611,124.4863
172.4027,124.4473
172.3637,124.3889
172.3500,124.3200
Z" /> 
<circle cx="112.0000" cy="162.0000" r="1.2000" /> 
<circle cx="112.0000" cy="166.0000" r="1.5000" /> 
<circle cx="168.0000" cy="162.0000" r="1.2000" /> 
<circle cx="168.0000" cy="166.0000" r="1.5000" /> 
<path style="fill:#C83434; fill-opacity:1.0000; stroke:none;fill-rule:evenodd;"
d="M 114.4000,141.7000
114.4152,141.6235
114.4586,141.5586
114.5235,141.5152
114.6000,141.5000
115.2000,141.5000
115.2765,141.5152
115.3414,141.5586
115.3848,141.6235
115.4000,141.7000
115.4000,142.3000
115.3848,142.3765
115.3414,142.4414
115.2765,142.4848
115.2000,142.5000
114.6000,142.5000
114.5235,142.4848
114.4586,142.4414
114.4152,142.3765
114.4000,142.3000
Z" /> 
<path style="fill:#C83434; fill-opacity:1.0000; stroke:none;fill-rule:evenodd;"
d="M 114.4000,139.7000
114.4152,139.6235
114.4586,139.5586
114.5235,139.5152
114.6000,139.5000
115.2000,139.5000
115.2765,139.5152
115.3414,139.5586
115.3848,139.6235
115.4000,139.7000
115.4000,140.3000
115.3848,140.3765
115.3414,140.4414
115.2765,140.4848
115.2000,140.5000
114.6000,140.5000
114.5235,140.4848
114.4586,140.4414
114.4152,140.3765
114.4000,140.3000
Z" /> 
<path style="fill:#C83434; fill-opacity:1.0000; stroke:none;fill-rule:evenodd;"
d="M 116.6000,140.3000
116.6152,140.2235
116.6586,140.1586
116.7235,140.1152
116.8000,140.1000
117.4000,140.1000
117.4765,140.1152
117.5414,140.1586
117.5848,140.2235
117.6000,140.3000
117.6000,141.7000
117.5848,141.7765
117.5414,141.8414
117.4765,141.8848
117.4000,141.9000
116.8000,141.9000
116.7235,141.8848
116.6586,141.8414
116.6152,141.7765
116.6000,141.7000
Z" /> 
<path style="fill:#C83434; fill-opacity:1.0000; stroke:none;fill-rule:evenodd;"
d="M 114.7500,134.6800
114.7637,134.6111
114.8027,134.5527
114.8611,134.5137
114.9300,134.5000
115.4700,134.5000
115.5389,134.5137
115.5973,134.5527
115.6363,134.6111
115.6500,134.6800
115.6500,135.3200
115.6363,135.3889
115.5973,135.4473
115.5389,135.4863
115.4700,135.5000
114.9300,135.5000
114.8611,135.4863
114.8027,135.4473
114.7637,135.3889
114.7500,135.3200
Z" /> 
<path style="fill:#C83434; fill-opacity:1.0000; stroke:none;fill-rule:evenodd;"
d="M 116.3500,134.6800
116.3637,134.6111
116.4027,134.5527
116.4611,134.5137
116.5300,134.5000
117.0700,134.5000
117.1389,134.5137
117.1973,134.5527
117.2363,134.6111
117.2500,134.6800
117.2500,135.3200
117.2363,135.3889
117.1973,135.4473
117.1389,135.4863
117.0700,135.5000
116.5300,135.5000
116.4611,135.4863
116.4027,135.4473
116.3637,135.3889
116.3500,135.3200
Z" /> 
<path style="fill:#C83434; fill-opacity:1.0000; stroke:none;fill-rule:evenodd;"
d="M 114.7500,146.6800
114.7637,146.6111
114.8027,146.5527
114.8611,146.5137
114.9300,146.5000
115.4700,146.5000
115.5389,146.5137
115.5973,146.5527
115.6363,146.6111
115.6500,146.6800
115.6500,147.3200
115.6363,147.3889
115.5973,147.4473
115.5389,147.4863
115.4700,147.5000
114.9300,147.5000
114.8611,147.4863
114.8027,147.4473
114.7637,147.3889
114.7500,147.3200
Z" /> 
<path style="fill:#C83434; fill-opacity:1.0000; stroke:none;fill-rule:evenodd;"
d="M 116.3500,146.6800
116.3637,146.6111
116.4027,146.5527
116.4611,146.5137
116.5300,146.5000
117.0700,146.5000
117.1389,146.5137
117.1973,146.5527
117.2363,146.6111
117.2500,146.6800
117.2500,147.3200
117.2363,147.3889
117.1973,147.4473
117.1389,147.4863
117.0700,147.5000
116.5300,147.5000
116.4611,147.4863
116.4027,147.4473
116.3637,147.3889
116.3500,147.3200
Z" /> 
<path style="fill:#C83434; fill-opacity:1.0000; stroke:none;fill-rule:evenodd;"
d="M 166.7500,113.6800
166.7637,113.6111
166.8027,113.5527
166.8611,113.5137
166.9300,113.5000
167.4700,113.5000
167.5389,113.5137
167.5973,113.5527
167.6363,113.6111
167.6500,113.6800
167.6500,114.3200
167.6363,114.3889
167.5973,114.4473
167.5389,114.4863
167.4700,114.5000
166.9300,114.5000
166.8611,114.4863
166.8027,114.4473
166.7637,114.3889
166.7500,114.3200
Z" /> 
<path style="fill:#C83434; fill-opacity:1.0000; stroke:none;fill-rule:evenodd;"
d="M 168.3500,113.6800
168.3637,113.6111
168.4027,113.5527
168.4611,113.5137
168.5300,113.5000
169.0700,113.5000
169.1389,113.5137
169.1973,113.5527
169.2363,113.6111
169.2500,113.6800
169.2500,114.3200
169.2363,114.3889
169.1973,114.4473
169.1389,114.4863
169.0700,114.5000
168.5300,114.5000
168.4611,114.4863
168.4027,114.4473
168.3637,114.3889
168.3500,114.3200
Z" /> 
<path style="fill:#C83434; fill-opacity:1.0000; stroke:none;fill-rule:evenodd;"
d="M 162.7500,113.6800
162.7637,113.6111
162.8027,113.5527
162.8611,113.5137
162.9300,113.5000
163.4700,113.5000
163.5389,113.5137
163.5973,113.5527
163.6363,113.6111
163.6500,113.6800
163.6500,114.3200
163.6363,114.3889
163.5973,114.4473
163.5389,114.4863
163.4700,114.5000
162.9300,114.5000
162.8611,114.4863
162.8027,114.4473
162.7637,114.3889
162.7500,114.3200
Z" /> 
<path style="fill:#C83434; fill-opacity:1.0000; stroke:none;fill-rule:evenodd;"
d="M 164.3500,113.6800
164.3637,113.6111
164.4027,113.5527
164.4611,113.5137
164.5300,113.5000
165.0700,113.5000
165.1389,113.5137
165.1973,113.5527
165.2363,113.6111
165.2500,113.6800
165.2500,114.3200
165.2363,114.3889
165.1973,114.4473
165.1389,114.4863
165.0700,114.5000
164.5300,114.5000
164.4611,114.4863
164.4027,114.4473
164.3637,114.3889
164.3500,114.3200
Z" /> 
<path style="fill:#C83434; fill-opacity:1.0000; stroke:none;fill-rule:evenodd;"
d="M 160.7500,136.6800
160.7637,136.6111
160.8027,136.5527
160.8611,136.5137
160.9300,136.5000
161.4700,136.5000
161.5389,136.5137
161.5973,136.5527
161.6363,136.6111
161.6500,136.6800
161.6500,137.3200
161.6363,137.3889
161.5973,137.4473
161.5389,137.4863
161.4700,137.5000
160.9300,137.5000
160.8611,137.4863
160.8027,137.4473
160.7637,137.3889
160.7500,137.3200
Z" /> 
<path style="fill:#C83434; fill-opacity:1.0000; stroke:none;fill-rule:evenodd;"
d="M 162.3500,136.6800
162.3637,136.6111
162.4027,136.5527
162.4611,136.5137
162.5300,136.5000
163.0700,136.5000
163.1389,136.5137
163.1973,136.5527
163.2363,136.6111
163.2500,136.6800
163.2500,137.3200
163.2363,137.3889
163.1973,137.4473
163.1389,137.4863
163.0700,137.5000
162.5300,137.5000
162.4611,137.4863
162.4027,137.4473
162.3637,137.3889
162.3500,137.3200
Z" /> 
<path style="fill:#C83434; fill-opacity:1.0000; stroke:none;fill-rule:evenodd;"
d="M 166.3500,136.6800
166.3637,136.6111
166.4027,136.5527
166.4611,136.5137
166.5300,136.5000
167.0700,136.5000
167.1389,136.5137
167.1973,136.5527
167.2363,136.6111
167.2500,136.6800
167.2500,137.3200
167.2363,137.3889
167.1973,137.4473
167.1389,137.4863
167.0700,137.5000
166.5300,137.5000
166.4611,137.4863
166.4027,137.4473
166.3637,137.3889
166.3500,137.3200
Z" /> 
<path style="fill:#C83434; fill-opacity:1.0000; stroke:none;fill-rule:evenodd;"
d="M 164.7500,136.6800
164.7637,136.6111
164.8027,136.5527
164.8611,136.5137
164.9300,136.5000
165.4700,136.5000
165.5389,136.5137
165.5973,136.5527
165.6363,136.6111
165.6500,136.6800
165.6500,137.3200
165.6363,137.3889
165.5973,137.4473
165.5389,137.4863
165.4700,137.5000
164.9300,137.5000
164.8611,137.4863
164.8027,137.4473
164.7637,137.3889
164.7500,137.3200
Z" /> 
<circle cx="168.6000" cy="124.0000" r="0.4000" /> 
<circle cx="171.2000" cy="124.0000" r="0.4000" /> 
<circle cx="156.0000" cy="127.2400" r="0.4000" /> 
<circle cx="170.0000" cy="115.0000" r="0.4000" /> 
<circle cx="165.5000" cy="124.5000" r="0.4000" /> 
<circle cx="114.9000" cy="140.0000" r="0.4000" /> 
<circle cx="116.8000" cy="147.0000" r="0.4000" /> 
<circle cx="164.8000" cy="114.0000" r="0.4000" /> 
<circle cx="168.8000" cy="114.0000" r="0.4000" /> 
<circle cx="172.8000" cy="124.0000" r="0.4000" /> 
<circle cx="163.4000" cy="124.0000" r="0.4000" /> 
<circle cx="163.4000" cy="125.2700" r="0.4000" /> 
<circle cx="163.4000" cy="126.5400" r="0.4000" /> 
<circle cx="163.4000" cy="132.8900" r="0.4000" /> 
</g>
<g style="fill:none; 
stroke:#C83434; stroke-width:1.5000; stroke-opacity:1; 
stroke-linecap:round; stroke-linejoin:round;">
<path d="M103.0000 108.0000
L103.0000 113.0000
" />
<path d="M103.0000 113.0000
L112.0000 113.0000
" />
<path d="M112.0000 113.0000
L112.0000 108.0000
" />
<path d="M107.0000 108.0000
L107.0000 104.0000
" />
<path d="M107.0000 104.0000
L122.0000 104.0000
" />
</g>
<g style="fill:none; 
stroke:#C83434; stroke-width:1.0000; stroke-opacity:1; 
stroke-linecap:round; stroke-linejoin:round;">
<path d="M122.0000 104.0000
L122.0000 112.0000
" />
<path d="M122.0000 112.0000
L125.5000 112.0000
" />
</g>
<g style="fill:none; 
stroke:#C83434; stroke-width:1.5000; stroke-opacity:1; 
stroke-linecap:round; stroke-linejoin:round;">
<path d="M103.0000 138.0000
L110.0000 138.0000
" />
<path d="M110.0000 138.0000
L113.0000 141.0000
" />
</g>
<g style="fill:none; 
stroke:#C83434; stroke-width:0.6000; stroke-opacity:1; 
stroke-linecap:round; stroke-linejoin:round;">
<path d="M113.0000 141.0000
L117.1000 141.0000
" />
</g>
<g style="fill:none; 
stroke:#C83434; stroke-width:0.3000; stroke-opacity:1; 
stroke-linecap:round; stroke-linejoin:round;">
<path d="M125.5000 119.6200
L121.5000 119.6200
" />
<path d="M121.5000 119.6200
L121.5000 133.0000
" />
<path d="M121.5000 133.0000
L110.0000 133.0000
" />
<path d="M110.0000 133.0000
L110.0000 135.0000
" />
<path d="M110.0000 135.0000
L115.2000 135.0000
" />
<path d="M116.8000 135.0000
L121.0000 135.0000
" />
<path d="M121.0000 135.0000
L121.0000 145.0000
" />
<path d="M121.0000 145.0000
L114.9000 145.0000
" />
<path d="M114.9000 145.0000
L114.9000 142.0000
" />
<path d="M114.9000 145.0000
L115.2000 147.0000
" />
<path d="M125.5000 117.0800
L153.0000 117.0800
" />
<path d="M153.0000 117.0800
L153.0000 106.0000
" />
<path d="M153.0000 106.0000
L172.1600 106.0000
" />
<path d="M172.1600 106.0000
L172.1600 110.0000
" />
</g>
<g style="fill:none; 
stroke:#C83434; stroke-width:0.5000; stroke-opacity:1; 
stroke-linecap:round; stroke-linejoin:round;">
<path d="M125.5000 122.1600
L157.0000 122.1600
" />
<path d="M157.0000 122.1600
L157.0000 108.0000
" />
<path d="M157.0000 108.0000
L167.0800 108.0000
" />
<path d="M167.0800 108.0000
L167.0800 110.0000
" />
</g>
<g style="fill:none; 
stroke:#C83434; stroke-width:0.4000; stroke-opacity:1; 
stroke-linecap:round; stroke-linejoin:round;">
<path d="M157.0000 114.0000
L163.2000 114.0000
" />
<path d="M167.0800 110.0000
L167.2000 114.0000
" />
<path d="M157.0000 122.1600
L168.6000 122.1600
" />
<path d="M168.6000 122.1600
L168.6000 124.0000
" />
<path d="M171.2000 124.0000
L171.2000 122.0000
" />
<path d="M171.2000 122.0000
L174.5000 122.0000
" />
<path d="M174.5000 122.0000
L174.5000 140.0000
" />
<path d="M174.5000 140.0000
L161.2000 140.0000
" />
<path d="M161.2000 140.0000
L161.2000 137.0000
" />
</g>
<g style="fill:none; 
stroke:#C83434; stroke-width:0.3000; stroke-opacity:1; 
stroke-linecap:round; stroke-linejoin:round;">
<path d="M125.5000 127.2400
L156.0000 127.2400
" />
<path d="M170.0000 115.0000
L170.0000 126.5400
" />
<path d="M170.0000 126.5400
L168.6000 126.5400
" />
<path d="M165.5000 124.5000
L168.6000 125.2700
" />
<path d="M163.4000 127.8100
L160.5000 127.8100
" />
<path d="M160.5000 127.8100
L160.5000 134.5000
" />
<path d="M160.5000 134.5000
L166.8000 134.5000
" />
<path d="M166.8000 134.5000
L166.8000 137.0000
" />
<path d="M162.8000 137.0000
L165.2000 137.0000
" />
</g>
<g style="fill:none; 
stroke:#C83434; stroke-width:0.5000; stroke-opacity:1; 
stroke-linecap:round; stroke-linejoin:round;">
<path d="M126.0000 154.0000
L122.0000 154.0000
" />
<path d="M122.0000 154.0000
L116.0000 160.0000
" />
<path d="M116.0000 160.0000
L112.0000 162.0000
" />
<path d="M154.0000 154.0000
L158.0000 154.0000
" />
<path d="M158.0000 154.0000
L164.0000 160.0000
" />
<path d="M164.0000 160.0000
L168.0000 162.0000
" />
<path style="fill:#4D7FC4; fill-opacity:1.0000; stroke:none;fill-rule:evenodd;"
d="M 104.2000,109.2000
101.8000,109.2000
101.8000,106.8000
104.2000,106.8000
Z" /> 
</g>
<g style="fill:#4D7FC4; fill-opacity:1.0000; stroke:none;">
<circle cx="103.0000" cy="105.0000" r="1.2000" /> 
<path style="fill:#4D7FC4; fill-opacity:1.0000; stroke:none;fill-rule:evenodd;"
d="M 105.7500,109.2500
105.7500,106.7500
108.2500,106.7500
108.2500,109.2500
Z" /> 
<circle cx="112.0000" cy="108.0000" r="1.2500" /> 
<circle cx="117.0000" cy="108.0000" r="1.2500" /> 
<path style="fill:#4D7FC4; fill-opacity:1.0000; stroke:none;fill-rule:evenodd;"
d="M 124.6000,111.1000
126.4000,111.1000
126.4000,112.9000
124.6000,112.9000
Z" /> 
<circle cx="125.5000" cy="114.5400" r="0.9000" /> 
<circle cx="125.5000" cy="117.0800" r="0.9000" /> 
<circle cx="125.5000" cy="119.6200" r="0.9000" /> 
<circle cx="125.5000" cy="122.1600" r="0.9000" /> 
<circle cx="125.5000" cy="124.7000" r="0.9000" /> 
<circle cx="125.5000" cy="127.2400" r="0.9000" /> 
<circle cx="125.5000" cy="129.7800" r="0.9000" /> 
<circle cx="125.5000" cy="132.3200" r="0.9000" /> 
<circle cx="125.5000" cy="134.8600" r="0.9000" /> 
<circle cx="125.5000" cy="137.4000" r="0.9000" /> 
<path style="fill:#4D7FC4; fill-opacity:1.0000; stroke:none;fill-rule:evenodd;"
d="M 161.1000,110.9000
161.1000,109.1000
162.9000,109.1000
162.9000,110.9000
Z" /> 
<circle cx="164.5400" cy="110.0000" r="0.9000" /> 
<circle cx="167.0800" cy="110.0000" r="0.9000" /> 
<circle cx="169.6200" cy="110.0000" r="0.9000" /> 
<circle cx="172.1600" cy="110.0000" r="0.9000" /> 
<circle cx="174.7000" cy="110.0000" r="0.9000" /> 
<path style="fill:#4D7FC4; fill-opacity:1.0000; stroke:none;fill-rule:evenodd;"
d="M 104.2000,142.2000
101.8000,142.2000
101.8000,139.8000
104.2000,139.8000
Z" /> 
<circle cx="103.0000" cy="138.0000" r="1.2000" /> 
<path style="fill:#4D7FC4; fill-opacity:1.0000; stroke:none;fill-rule:evenodd;"
d="M 125.1000,154.9000
125.1000,153.1000
126.9000,153.1000
126.9000,154.9000
Z" /> 
<path style="fill:#4D7FC4; fill-opacity:1.0000; stroke:none;fill-rule:evenodd;"
d="M 153.1000,154.9000
153.1000,153.1000
154.9000,153.1000
154.9000,154.9000
Z" /> 
<circle cx="112.0000" cy="162.0000" r="1.2000" /> 
<circle cx="112.0000" cy="166.0000" r="1.5000" /> 
<circle cx="168.0000" cy="162.0000" r="1.2000" /> 
<circle cx="168.0000" cy="166.0000" r="1.5000" /> 
<circle cx="168.6000" cy="124.0000" r="0.4000" /> 
<circle cx="171.2000" cy="124.0000" r="0.4000" /> 
<circle cx="156.0000" cy="127.2400" r="0.4000" /> 
<circle cx="170.0000" cy="115.0000" r="0.4000" /> 
<circle cx="165.5000" cy="124.5000" r="0.4000" /> 
<circle cx="114.9000" cy="140.0000" r="0.4000" /> 
<circle cx="116.8000" cy="147.0000" r="0.4000" /> 
<circle cx="164.8000" cy="114.0000" r="0.4000" /> 
<circle cx="168.8000" cy="114.0000" r="0.4000" /> 
<circle cx="172.8000" cy="124.0000" r="0.4000" /> 
<circle cx="163.4000" cy="124.0000" r="0.4000" /> 
<circle cx="163.4000" cy="125.2700" r="0.4000" /> 
<circle cx="163.4000" cy="126.5400" r="0.4000" /> 
<circle cx="163.4000" cy="132.8900" r="0.4000" /> 
</g>
<g style="fill:none; 
stroke:#4D7FC4; stroke-width:1.5000; stroke-opacity:1; 
stroke-linecap:round; stroke-linejoin:round;">
<path d="M107.0000 108.0000
L107.0000 141.0000
" />
<path d="M107.0000 141.0000
L103.0000 141.0000
" />
</g>
<g style="fill:none; 
stroke:#4D7FC4; stroke-width:0.4000; stroke-opacity:1; 
stroke-linecap:round; stroke-linejoin:round;">
<path d="M168.6000 124.0000
L171.2000 124.0000
" />
</g>
<g style="fill:none; 
stroke:#4D7FC4; stroke-width:0.3000; stroke-opacity:1; 
stroke-linecap:round; stroke-linejoin:round;">
<path d="M156.0000 127.2400
L156.0000 115.0000
" />
<path d="M156.0000 115.0000
L170.0000 115.0000
" />
<path d="M125.5000 129.7800
L165.5000 129.7800
" />
<path d="M165.5000 129.7800
L165.5000 124.5000
" />
</g>
<g style="fill:none; 
stroke:#4D7FC4; stroke-width:1.0000; stroke-opacity:1; 
stroke-linecap:round; stroke-linejoin:round;">
<path d="M103.0000 105.0000
L103.0000 101.5000
" />
<path d="M103.0000 101.5000
L178.0000 101.5000
" />
<path d="M178.0000 101.5000
L178.0000 168.0000
" />
<path d="M178.0000 168.0000
L112.0000 168.0000
" />
<path d="M176.5000 168.0000
L176.5000 103.0000
" />
<path d="M164.5400 110.0000
L164.5400 103.0000
" />
<path d="M164.5400 103.0000
L176.5000 103.0000
" />
<path d="M125.5000 114.5400
L123.0000 114.5400
" />
<path d="M123.0000 114.5400
L123.0000 166.0000
" />
<path d="M123.0000 166.0000
L123.0000 168.0000
" />
<path d="M125.5000 124.7000
L123.0000 124.7000
" />
<path d="M112.0000 166.0000
L112.0000 168.0000
" />
<path d="M168.0000 166.0000
L168.0000 168.0000
" />
<path d="M114.9000 140.0000
L120.0000 140.0000
" />
<path d="M120.0000 140.0000
L120.0000 168.0000
" />
</g>
<g style="fill:none; 
stroke:#4D7FC4; stroke-width:0.4000; stroke-opacity:1; 
stroke-linecap:round; stroke-linejoin:round;">
<path d="M116.8000 147.0000
L120.0000 147.0000
" />
<path d="M164.8000 114.0000
L176.5000 114.0000
" />
<path d="M168.8000 114.0000
L176.5000 114.0000
" />
<path d="M172.8000 124.0000
L176.5000 124.0000
" />
<path d="M163.4000 124.0000
L160.0000 124.0000
" />
<path d="M163.4000 125.2700
L160.0000 125.2700
" />
<path d="M163.4000 126.5400
L160.0000 126.5400
" />
<path d="M160.0000 124.0000
L160.0000 126.5400
" />
<path d="M160.0000 124.0000
L160.0000 118.0000
" />
<path d="M160.0000 118.0000
L176.5000 118.0000
" />
<path d="M163.4000 132.8900
L176.5000 132.8900
" />
<path style="fill:none; 
stroke:#D0D2CD; stroke-width:0.1000; stroke-opacity:1; 
stroke-linecap:round; stroke-linejoin:round;fill:none"
d="M 100.0000,100.0000
180.0000,100.0000
180.0000,170.0000
100.0000,170.0000
Z" /> 
</g>
<g style="fill:#FFFFFF; fill-opacity:1.0000; stroke:none;">
<circle cx="168.6000" cy="124.0000" r="0.2000" /> 
<circle cx="171.2000" cy="124.0000" r="0.2000" /> 
<circle cx="156.0000" cy="127.2400" r="0.2000" /> 
<circle cx="170.0000" cy="115.0000" r="0.2000" /> 
<circle cx="165.5000" cy="124.5000" r="0.2000" /> 
<circle cx="114.9000" cy="140.0000" r="0.2000" /> 
<circle cx="116.8000" cy="147.0000" r="0.2000" /> 
<circle cx="164.8000" cy="114.0000" r="0.2000" /> 
<circle cx="168.8000" cy="114.0000" r="0.2000" /> 
<circle cx="172.8000" cy="124.0000" r="0.2000" /> 
<circle cx="163.4000" cy="124.0000" r="0.2000" /> 
<circle cx="163.4000" cy="125.2700" r="0.2000" /> 
<circle cx="163.4000" cy="126.5400" r="0.2000" /> 
<circle cx="163.4000" cy="132.8900" r="0.2000" /> 
</g>
<g style="fill:#000000; fill-opacity:1.0000; stroke:none;">
<circle cx="128.5000" cy="105.0000" r="1.1000" /> 
<circle cx="151.5000" cy="105.0000" r="1.1000" /> 
<circle cx="128.5000" cy="150.0000" r="1.1000" /> 
<circle cx="151.5000" cy="150.0000" r="1.1000" /> 
</g>
<g style="fill:#FFFFFF; fill-opacity:1.0000; stroke:none;">
<circle cx="103.0000" cy="108.0000" r="0.6000" /> 
</g>
<g style="fill:#FFFFFF; fill-opacity:1.0000; stroke:none;">
<circle cx="103.0000" cy="105.0000" r="0.6000" /> 
</g>
<g style="fill:#FFFFFF; fill-opacity:1.0000; stroke:none;">
<circle cx="107.0000" cy="108.0000" r="0.6000" /> 
</g>
<g style="fill:#FFFFFF; fill-opacity:1.0000; stroke:none;">
<circle cx="112.0000" cy="108.0000" r="0.6000" /> 
</g>
<g style="fill:#FFFFFF; fill-opacity:1.0000; stroke:none;">
<circle cx="117.0000" cy="108.0000" r="0.6000" /> 
</g>
<g style="fill:#FFFFFF; fill-opacity:1.0000; stroke:none;">
<circle cx="125.5000" cy="112.0000" r="0.5000" /> 
</g>
<g style="fill:#FFFFFF; fill-opacity:1.0000; stroke:none;">
<circle cx="125.5000" cy="114.5400" r="0.5000" /> 
</g>
<g style="fill:#FFFFFF; fill-opacity:1.0000; stroke:none;">
<circle cx="125.5000" cy="117.0800" r="0.5000" /> 
</g>
<g style="fill:#FFFFFF; fill-opacity:1.0000; stroke:none;">
<circle cx="125.5000" cy="119.6200" r="0.5000" /> 
</g>
<g style="fill:#FFFFFF; fill-opacity:1.0000; stroke:none;">
<circle cx="125.5000" cy="122.1600" r="0.5000" /> 
</g>
<g style="fill:#FFFFFF; fill-opacity:1.0000; stroke:none;">
<circle cx="125.5000" cy="124.7000" r="0.5000" /> 
</g>
<g style="fill:#FFFFFF; fill-opacity:1.0000; stroke:none;">
<circle cx="125.5000" cy="127.2400" r="0.5000" /> 
</g>
<g style="fill:#FFFFFF; fill-opacity:1.0000; stroke:none;">
<circle cx="125.5000" cy="129.7800" r="0.5000" /> 
</g>
<g style="fill:#FFFFFF; fill-opacity:1.0000; stroke:none;">
<circle cx="125.5000" cy="132.3200" r="0.5000" /> 
</g>
<g style="fill:#FFFFFF; fill-opacity:1.0000; stroke:none;">
<circle cx="125.5000" cy="134.8600" r="0.5000" /> 
</g>
<g style="fill:#FFFFFF; fill-opacity:1.0000; stroke:none;">
<circle cx="125.5000" cy="137.4000" r="0.5000" /> 
</g>
<g style="fill:#FFFFFF; fill-opacity:1.0000; stroke:none;">
<circle cx="162.0000" cy="110.0000" r="0.5000" /> 
</g>
<g style="fill:#FFFFFF; fill-opacity:1.0000; stroke:none;">
<circle cx="164.5400" cy="110.0000" r="0.5000" /> 
</g>
<g style="fill:#FFFFFF; fill-opacity:1.0000; stroke:none;">
<circle cx="167.0800" cy="110.0000" r="0.5000" /> 
</g>
<g style="fill:#FFFFFF; fill-opacity:1.0000; stroke:none;">
<circle cx="169.6200" cy="110.0000" r="0.5000" /> 
</g>
<g style="fill:#FFFFFF; fill-opacity:1.0000; stroke:none;">
<circle cx="172.1600" cy="110.0000" r="0.5000" /> 
</g>
<g style="fill:#FFFFFF; fill-opacity:1.0000; stroke:none;">
<circle cx="174.7000" cy="110.0000" r="0.5000" /> 
</g>
<g style="fill:#FFFFFF; fill-opacity:1.0000; stroke:none;">
<circle cx="103.0000" cy="141.0000" r="0.6000" /> 
</g>
<g style="fill:#FFFFFF; fill-opacity:1.0000; stroke:none;">
<circle cx="103.0000" cy="138.0000" r="0.6000" /> 
</g>
<g style="fill:#FFFFFF; fill-opacity:1.0000; stroke:none;">
<circle cx="126.0000" cy="154.0000" r="0.5000" /> 
</g>
<g style="fill:#FFFFFF; fill-opacity:1.0000; stroke:none;">
<circle cx="154.0000" cy="154.0000" r="0.5000" /> 
</g>
<g style="fill:#FFFFFF; fill-opacity:1.0000; stroke:none;">
<circle cx="112.0000" cy="162.0000" r="0.6500" /> 
</g>
<g style="fill:#FFFFFF; fill-opacity:1.0000; stroke:none;">
<circle cx="112.0000" cy="166.0000" r="1.0000" /> 
</g>
<g style="fill:#FFFFFF; fill-opacity:1.0000; stroke:none;">
<circle cx="168.0000" cy="162.0000" r="0.6500" /> 
</g>
<g style="fill:#FFFFFF; fill-opacity:1.0000; stroke:none;">
<circle cx="168.0000" cy="166.0000" r="1.0000" /> 
</g> 
</svg>
